<!--?xml version="1.0" encoding="utf-8"?-->
<!-- Generator: Adobe Illustrator 25.2.3, SVG Export Plug-In . SVG Version: 6.00 Build 0)  -->
<svg version="1.1" id="_x30_" xmlns="http://www.w3.org/2000/svg" xmlns:xlink="http://www.w3.org/1999/xlink" x="0px" y="0px" viewBox="0 0 800 599.266" style="width: 100px;" xml:space="preserve">
<style type="text/css">
	.stblack{fill:#000000;}
	.st0{fill:#FFFFFF;}
</style>
<g>
	<path class="st0" d="M630.559,82.436c0,0-51.731,50.823-76.981,52.027c-25.244,1.201-18.149-47.135-18.149-47.135
		s-19.347,33.646-39.784,34.849c-15.798,0.93-12.164-58.212-6.451-70.948c-10.377,12.876-36.983,60.628-45.149,60.628
		c-9.621,0-24.029-45.426-24.029-45.426s-26.349,55.871-43.181,53.469c-16.831-2.404-43.784-53.469-43.784-53.469
		s0.617,51.163-7.799,58.376c-8.417,7.214-50.508-19.64-50.508-19.64s15.633,28.853,8.419,43.28S172.896,92.725,172.896,92.725
		S220,175.73,207.98,199.776c-12.025,24.044-108.801,2.673-108.801,2.673s79.346,36.278,78.141,56.715
		c-1.199,20.436-108.196,49.29-108.196,49.29c82.692,11.076,134.644,14.429,131.042,30.056
		c-3.607,15.63-92.574,49.293-92.574,49.293c91.369-19.237,105.856-6.147,97.856,10.322c-3.321,6.839-94.248,69.025-94.248,69.025
		s106.962-42.822,112.973-23.586c5.03,16.086-32.213,56.697-47.038,67.41c18.855-11.109,93.634-47.085,94.851-34.077
		c0.81,8.713-7.331,23.341-7.331,23.341s45.782-23.339,55.979-20.335c7.958,2.344,3.439,67.278,0.865,71.986
		c3.161-5.377,71.881-61.173,87.457-52.52c16.193,8.996,8.004,43.51,8.004,43.51s27.398-44.533,50.24-43.331
		c22.841,1.202,45.656,30.437,45.656,30.437s1.969-39.256,26.748-38.617c15.277,0.394,83.294,53.495,83.294,53.495
		s-43.622-57.103-31.602-67.921c12.025-10.82,34.868,8.415,34.868,8.415s-20.439-26.45-7.214-37.268
		c13.224-10.821,106.309,10.767,106.309,10.767s-76.739-56.86-65.432-82.095c6.701-14.959,54.589-31.601,54.589-31.601
		s-42.977-22.288-45.38-38.516c-2.019-13.634,53.667-46.362,70.8-54.33c-18.374,3.264-82.117,5.719-85.227-8.783
		c-3.607-16.831,33.663-41.086,33.663-41.086s-56.503,11.812-61.311,0c-4.809-11.813,45.684-58.7,45.684-58.7
		s-57.707,43.278-74.538,31.258C581.27,162.986,630.559,82.436,630.559,82.436z"></path>
	<path class="stblack" d="M660.976,46.942c-21.071,21.3-43.177,41.935-66.673,60.536c-6.991,5.535-14.155,10.934-21.747,15.625
		c-4.67,2.886-12.079,8.109-17.951,7.596c-13.34-1.167-8.315-33.036-7.334-40.982c1.707-13.824,4.418-27.635,7.981-41.106
		c0.549-2.073-4.246-3.01-5.092-1.313c-11.008,22.08-23.812,46.647-41.913,63.713c-2.414,2.276-9.085,8.843-12.539,6.7
		c-2.945-1.825-2.84-10.587-2.981-13.43c-0.77-15.476,1.468-31.276,3.851-46.526c2.042-13.063,3.588-27.88,8.849-40.152
		c1.046-2.44-3.638-3.379-4.924-1.743c-8.404,10.701-14.487,23.651-21.116,35.467c-8.533,15.209-16.848,30.656-26.481,45.21
		c-2.089,3.157-5.367,9.73-9.1,11.293c1.667-0.698,0.906-0.077-0.374-2.569c-1.279-2.491-2.045-5.314-2.82-7.992
		c-4.364-15.087-6.597-30.884-8.854-46.394c-1.651-11.359-3.145-22.751-4.389-34.162c-0.225-2.062-4.653-2.373-5.243-0.422
		c-8.194,27.132-17.322,54.759-30.235,80.035c-2.988,5.847-6.242,12.489-11.079,17.072c-4.284,4.059-6.777,1.676-10.437-2.214
		c-11.932-12.688-19.845-30.079-27.482-45.518c-6.139-12.412-11.967-25.007-17.321-37.779c-0.761-1.817-5.529-2.688-5.221,0.039
		c2.759,24.497,5.211,49.409,4.782,74.077c-0.091,5.289,0.122,11.424-1.588,16.515c-1.551,4.617-4.32,2.763-8.163,0.956
		c-13.086-6.149-24.934-15.63-36.341-24.376c-8.826-6.765-17.528-13.712-26.021-20.891c-1.139-0.963-6.093-1.093-4.472,1.337
		c9.239,13.842,17.882,28.397,24.744,43.566c1.908,4.216,10.947,22.135,5.972,26.606c-2.135,1.917-7.457-0.916-9.698-1.826
		c-16.301-6.622-31.454-16.776-46.198-26.238c-17.605-11.3-34.871-23.132-51.976-35.172c-9.679-6.811-19.321-13.676-28.855-20.686
		c-1.091-0.802-6.19-1.145-4.473,1.337c9.255,13.366,18.031,27.088,26.514,40.954c13.86,22.65,28.436,46.391,36.589,71.822
		c1.996,6.223,5.769,16.972,1.239,22.964c-4.56,6.036-16.119,5.738-22.761,5.819c-25.919,0.314-52.153-5.067-77.414-10.329
		c-18.062-3.762-36.081-7.932-53.888-12.777c-2.617-0.712-5.284,1.567-1.941,2.997c15.236,6.52,30.294,13.49,45.211,20.705
		c23.516,11.372,48.352,22.948,69.027,39.132c3.889,3.045,13.201,9.469,10.86,15.494c-2.46,6.325-13.67,10.081-19.216,12.456
		c-24.403,10.45-50.637,16.975-76.34,23.335c-18.071,4.472-36.235,8.655-54.485,12.332c-2.701,0.544-1.2,3.08,0.803,3.346
		c35.094,4.654,70.37,7.591,105.569,11.288c14.008,1.472,28.053,2.984,41.932,5.423c6.463,1.135,19.243,1.968,24.017,7.326
		c6.594,7.401-21.5,19.263-25.796,21.345c-18.88,9.151-38.449,16.911-58.039,24.391c-12.243,4.676-24.541,9.23-36.924,13.525
		c-2.913,1.011,1.035,3.524,2.745,3.167c32.692-6.824,66.957-13.57,100.539-11.943c5.082,0.246,32.723,2.364,23.298,13.712
		c-3.41,4.107-9.159,7.233-13.453,10.296c-7.761,5.537-15.642,10.905-23.544,16.239c-18.701,12.628-37.567,25.008-56.477,37.321
		c-11.584,7.543-23.185,15.062-34.82,22.525c-2.351,1.508,2.347,3.345,3.791,2.725c31.521-13.563,63.681-26.228,96.451-36.438
		c9.728-3.031,19.59-5.876,29.625-7.712c3.744-0.686,14.026-3.447,17.402-0.316c4.153,3.851-3.259,13.594-5.461,16.824
		c-6.81,9.995-15.129,19.013-23.478,27.725c-16.636,17.356-34.314,35.096-53.776,49.333c-2.364,1.729,2.617,3.419,4.259,2.455
		c25.035-14.713,50.827-28.357,76.851-41.224c13.219-6.536,26.636-13.217,40.624-17.97c1.47-0.499,9.11-3.733,10.606-2.346
		c-0.677-0.627-0.843,2.679-1.095,3.582c-1.012,3.632-2.768,7.105-4.416,10.48c-6.368,13.063-13.911,25.634-21.644,37.931
		c-1.364,2.172,3.327,3.113,4.59,2.099c19.276-15.456,39.09-31.13,60.446-43.619c2.573-1.505,5.2-2.992,7.941-4.176
		c1.08-0.467,4.889-1.611,4.513-1.839c-0.531-0.321,0.313,2.443,0.433,3.33c0.362,2.653,0.215,5.419,0.106,8.086
		c-0.616,15.264-3.201,30.53-5.798,45.557c-1.363,7.883-2.832,15.752-4.489,23.579c-0.869,4.108-1.341,9.092-3.191,12.914
		c-1.121,2.316,3.769,3.547,4.923,1.743c4.974-7.768,13.785-14.369,20.429-20.602c12.481-11.71,25.334-23.077,38.796-33.65
		c6.279-4.931,12.701-9.725,19.457-13.986c4.365-2.752,10.139-6.85,15.464-7.374c12.442-1.228,7.448,28.354,6.432,34.963
		c-2.04,13.278-5.208,26.507-9.202,39.336c-0.637,2.045,4.217,2.978,5.092,1.313c9.454-18.003,20.25-35.682,32.743-51.734
		c6.18-7.941,15.885-21.617,26.832-23.136c13.377-1.857,27.735,16.661,35.112,25.581c6.799,8.22,13.144,16.942,18.732,26.037
		c0.923,1.503,5.286,2.019,5.024-0.484c-1.263-12.101-1.301-24.748,0.671-36.764c1.159-7.051,3.092-16.542,9.449-20.882
		c4.993-3.41,8.938-1.13,13.501,1.51c13.762,7.959,26.303,18.295,38.691,28.188c14.632,11.685,28.98,23.725,43.201,35.904
		c8.01,6.86,15.991,13.756,23.889,20.747c1.175,1.041,6.23,0.826,4.472-1.337c-15.176-18.676-29.772-37.955-43.219-57.913
		c-7.514-11.152-16.593-23.455-20.294-36.582c-4.611-16.35,17.591-4.475,23.898-0.767c12.002,7.056,23.315,15.563,33.902,24.597
		c1.559,1.33,6.402,0.667,4.118-1.745c-9.464-9.995-18.423-20.737-26.07-32.186c-4.006-5.998-10.115-14.325-9.752-21.949
		c0.265-5.578,4.681-5.998,9.259-6.163c16.052-0.577,32.708,3.309,48.348,6.429c18.761,3.743,37.398,8.127,55.957,12.763
		c10.758,2.688,21.502,5.446,32.195,8.385c1.897,0.522,5.427-0.934,2.541-2.723c-24.551-15.215-48.55-31.861-70.755-50.334
		c-11.82-9.832-27.902-21.992-33.434-36.977c-5.594-15.152,17.869-20.827,28.253-24.292c16.564-5.527,33.707-9.698,50.844-13.035
		c2.214-0.43,1.655-2.527-0.115-3.168c-9.562-3.467-18.994-7.358-28.273-11.513c-7.951-3.56-15.819-7.367-23.355-11.747
		c-5.741-3.335-12.792-7.196-16.633-12.829c-5.957-8.734,10.629-17.531,16.483-21.466c14.649-9.847,30.276-18.266,45.905-26.431
		c13.144-6.867,26.419-13.513,39.861-19.778c2.89-1.346-1.08-3.459-2.746-3.167c-29.65,5.194-60.542,8.571-90.65,8.246
		c-5.747-0.062-28.247,1.481-24.792-9.11c2.005-6.144,8.124-11.239,12.804-15.32c6.099-5.321,12.683-10.09,19.364-14.648
		c10.148-6.925,20.639-13.445,31.399-19.382c2.654-1.464-0.914-3.69-2.747-3.167c-10.556,3.011-21.211,5.718-31.895,8.231
		c-16.153,3.798-33.472,8.453-50.188,8.132c-4.018-0.077-8.255,0.079-6.826-4.787c1.588-5.406,6.562-10.561,10.071-14.764
		c11.587-13.873,24.751-26.484,37.868-38.888c8.802-8.322,17.715-16.54,26.806-24.544c2.17-1.91-2.632-3.698-4.259-2.455
		c-11.294,8.631-22.947,16.831-34.769,24.722c-10.108,6.749-20.396,13.281-31.065,19.114c-8.405,4.594-17.511,9.591-26.996,11.514
		c-5.999,1.216-9.829,0.43-9.518-6.317c0.36-7.883,4.278-15.971,7.503-22.993c9.102-19.82,20.662-38.564,32.353-56.938
		c8.028-12.619,16.272-25.124,24.876-37.36c1.412-2.008-3.659-3.543-4.923-1.743c-21.861,31.094-44.375,63.841-59.278,98.918
		c-3.68,8.664-12.446,28.41,3.1,30.344c7.691,0.957,15.962-2.656,22.795-5.701c11.183-4.982,21.798-11.295,32.156-17.79
		c16.49-10.342,32.557-21.497,48.025-33.316c-1.419-0.819-2.84-1.636-4.259-2.455c-23.068,20.312-46.582,41.335-66.142,65.111
		c-4.321,5.253-16.666,18.598-5.056,22.711c5.608,1.986,12.456,1.115,18.217,0.535c9.47-0.954,18.857-2.734,28.166-4.692
		c15.251-3.206,30.42-6.975,45.409-11.249c-0.916-1.056-1.831-2.112-2.746-3.167c-10.383,5.728-20.52,11.973-30.359,18.583
		c-7.571,5.086-15.037,10.426-21.883,16.465c-4.8,4.233-10.497,9.278-12.875,15.401c-8.637,22.246,61.93,13.271,70.745,12.484
		c17.28-1.542,34.642-3.392,51.74-6.387c-0.914-1.055-1.83-2.112-2.746-3.167c-29.6,13.798-59.56,28.508-86.703,46.75
		c-5.735,3.855-21.478,12.52-18.854,21.485c1.529,5.22,7.342,9.269,11.497,12.22c7.176,5.097,15.049,9.206,22.954,13.038
		c12.524,6.07,25.414,11.521,38.501,16.264c-0.038-1.056-0.076-2.113-0.114-3.169c-15.398,2.998-30.718,6.766-45.71,11.372
		c-9.588,2.946-19.458,6.135-28.146,11.254c-4.852,2.859-9.541,6.434-9.457,12.537c0.182,13.324,15.52,26.194,24.347,34.325
		c15.566,14.341,32.732,26.966,50.075,39.059c10.823,7.548,21.796,14.925,33.013,21.878c0.846-0.908,1.694-1.815,2.541-2.723
		c-30.331-8.335-60.974-15.906-91.842-21.959c-15.965-3.13-33.46-7.348-49.853-5.958c-14.602,1.238-11.857,13.489-6.347,23.735
		c8.221,15.288,20.148,29.08,32.046,41.646c1.374-0.581,2.745-1.163,4.118-1.745c-10.307-8.794-21.315-17.048-32.883-24.101
		c-6.442-3.927-27.806-17.375-34.304-6.754c-4.834,7.9,6.811,24.095,10.509,30.288c9.487,15.889,20.424,30.932,31.526,45.719
		c7.146,9.516,14.417,18.95,21.924,28.186c1.491-0.446,2.981-0.891,4.472-1.337c-23.291-20.623-47.021-40.833-71.439-60.108
		c-12.228-9.653-24.873-20.47-38.938-27.401c-12.186-6.006-21.698,1.639-25.574,13.629c-4.747,14.692-4.38,31.722-2.789,46.961
		c1.675-0.161,3.349-0.322,5.024-0.484c-5.588-9.094-11.939-17.812-18.733-26.037c-8.832-10.692-19.931-23.696-33.923-27.418
		c-11.076-2.947-20.079,4.572-27.37,12.066c-10.7,10.997-19.409,23.958-27.535,36.915c-5.504,8.779-10.789,17.736-15.608,26.913
		c1.697,0.438,3.395,0.876,5.092,1.313c3.994-12.83,7.161-26.057,9.202-39.336c1.523-9.908,6.045-33.735-6.776-38.834
		c-9.719-3.865-22.942,6.586-30.243,11.618c-15.764,10.865-30.343,23.525-44.49,36.391c-6.872,6.249-13.65,12.612-20.228,19.17
		c-3.01,3-6.711,6.067-9.024,9.679c1.641,0.581,3.282,1.163,4.923,1.743c4.817-9.957,5.576-23.542,7.477-34.272
		c2.958-16.695,6.116-33.84,6.408-50.839c0.142-8.217-0.929-15.678-10.912-12.372c-14.171,4.691-27.317,15.719-39.213,24.358
		c-11.158,8.104-22.145,16.467-32.903,25.095c1.53,0.7,3.06,1.399,4.59,2.099c7.86-12.501,15.541-25.284,21.963-38.591
		c3.016-6.248,10.115-19.049-2.044-18.627c-12.317,0.428-25.726,8.237-36.589,13.279c-17.722,8.229-35.083,17.249-52.309,26.468
		c-13.818,7.395-27.617,14.878-41.13,22.82c1.419,0.819,2.839,1.637,4.259,2.455c18.777-13.736,35.833-30.808,51.973-47.463
		c8.793-9.073,17.528-18.422,24.855-28.744c3.239-4.563,9.877-13.058,7.595-19.252c-4.175-11.339-29.812-3.175-37.149-1.321
		c-23.565,5.954-46.532,14.442-69.198,23.139c-15.579,5.978-31.091,12.182-46.419,18.778c1.263,0.908,2.527,1.816,3.79,2.725
		c31.85-20.427,63.599-41.046,94.91-62.292c8.088-5.488,16.171-11,24.061-16.773c3.447-2.521,8.565-5.296,10.886-9.022
		c7.334-11.775-13.864-16.287-20.769-17.164c-36.433-4.626-75.64,3.912-111.06,11.305c0.916,1.055,1.83,2.112,2.745,3.167
		c32.974-11.437,66.183-23.633,97.476-39.147c5.77-2.861,29.696-12.308,26.245-21.992c-1.888-5.296-10.499-7.346-15.135-8.631
		c-11.858-3.284-24.23-4.815-36.413-6.318c-41.828-5.16-83.901-8.015-125.691-13.557c0.268,1.115,0.536,2.231,0.803,3.346
		c43.67-8.801,89.088-18.167,130.325-35.317c6.992-2.908,16.5-6.384,21.294-12.671c3.821-5.011,0.833-9.831-2.933-13.936
		c-7.257-7.909-17.028-13.792-26.121-19.308c-12.607-7.647-25.69-14.515-38.867-21.119c-19.376-9.711-39.054-18.913-58.985-27.441
		c-0.646,0.999-1.294,1.999-1.941,2.997c15.847,4.312,31.86,8.09,47.909,11.567c26.795,5.806,54.36,11.456,81.867,11.986
		c8.54,0.164,18.698,0.285,26.493-3.793c6.299-3.297,7.362-9.258,6.643-15.899c-1.175-10.896-5.921-21.519-10.419-31.385
		c-6.19-13.576-13.403-26.685-20.918-39.567c-10.992-18.838-22.67-37.352-35.088-55.287c-1.491,0.446-2.981,0.891-4.473,1.337
		c27.101,19.925,54.739,39.251,83.077,57.374c15.291,9.778,31.225,20.657,48.413,26.864c3.406,1.229,9.181,3.423,12.671,1.213
		c5.237-3.316,2.064-13.318,0.685-17.769c-6.24-20.121-18.257-39.174-29.891-56.605c-1.491,0.446-2.981,0.891-4.472,1.337
		c8.298,7.015,16.799,13.804,25.414,20.426c12.323,9.471,25.174,19.882,39.456,26.259c8.996,4.018,14.393,2.727,15.842-7.433
		c2.247-15.765,0.564-32.478-0.531-48.277c-0.902-13.032-2.048-26.059-3.512-39.04c-1.74,0.012-3.482,0.026-5.221,0.039
		c4.969,11.857,10.348,23.56,15.973,35.117c8.252,16.949,16.8,36.054,29.934,49.886c8.545,8.999,16.305,7.344,23.23-2.356
		c10.729-15.027,17.165-33.645,23.526-50.822c5.2-14.039,10.044-28.242,14.374-42.576c-1.746-0.141-3.494-0.281-5.241-0.422
		c3.014,27.636,5.428,57.153,14.186,83.646c2.35,7.113,7.055,15.054,14.273,7.567c11.185-11.603,18.656-28.205,26.503-42.084
		c9.016-15.951,16.957-33.809,28.319-48.276c-1.642-0.58-3.282-1.162-4.924-1.743c-5.203,12.136-6.868,26.495-8.934,39.414
		c-2.654,16.596-5.241,33.963-3.956,50.809c0.658,8.646,3.534,18.608,14.249,14.659c14.167-5.221,24.471-22.912,32.177-34.839
		c7.666-11.866,14.738-24.213,21.042-36.86c-1.698-0.438-3.395-0.876-5.092-1.313c-3.436,12.993-6.061,26.303-7.792,39.626
		c-1.533,11.791-5.959,36.079,5.765,44.527c10.405,7.498,26.22-4.373,34.566-10.052c18.29-12.444,34.987-27.33,51.252-42.269
		c10.694-9.824,21.241-19.837,31.454-30.162C667.246,47.363,662.473,45.428,660.976,46.942z"></path>
</g>
</svg>
