<!--?xml version="1.0" encoding="utf-8"?-->
<!-- Generator: Adobe Illustrator 22.1.0, SVG Export Plug-In . SVG Version: 6.00 Build 0)  -->
<svg version="1.1" id="_x30_" xmlns="http://www.w3.org/2000/svg" xmlns:xlink="http://www.w3.org/1999/xlink" x="0px" y="0px" viewBox="0 0 600 338" style="width: 600px; height: 338px;" xml:space="preserve" preserveAspectRatio="none">
<style type="text/css">
	.st0{fill:#040000;}
</style>
<g>
	<polygon class="st0" points="600,155.267 600,152.443 461.354,160.856 	" style="fill: rgb(241, 10, 112);"></polygon>
	<polygon class="st0" points="600,148.185 600,146.333 466.627,156.925 	" style="fill: rgb(241, 10, 112);"></polygon>
	<polygon class="st0" points="600,140.139 600,138.624 465.478,152.663 	" style="fill: rgb(241, 10, 112);"></polygon>
	<polygon class="st0" points="600,136.532 600,133.612 447.067,152.37 	" style="fill: rgb(241, 10, 112);"></polygon>
	<polygon class="st0" points="600,121.52 600,121.09 450.136,145.131 	" style="fill: rgb(241, 10, 112);"></polygon>
	<polygon class="st0" points="600,108.673 600,105.143 457.697,136.367 	" style="fill: rgb(241, 10, 112);"></polygon>
	<polygon class="st0" points="600,102.859 600,100.761 472.843,130.292 	" style="fill: rgb(241, 10, 112);"></polygon>
	<polygon class="st0" points="600,87.767 600,86.175 472.73,121.772 	" style="fill: rgb(241, 10, 112);"></polygon>
	<polygon class="st0" points="600,79.134 600,75.303 474.006,115.778 	" style="fill: rgb(241, 10, 112);"></polygon>
	<polygon class="st0" points="600,70.451 600,65.928 449.443,118.795 	" style="fill: rgb(241, 10, 112);"></polygon>
	<polygon class="st0" points="600,58.287 600,56.668 430.206,120.598 	" style="fill: rgb(241, 10, 112);"></polygon>
	<polygon class="st0" points="600,47.979 600,45.056 450.61,107.516 	" style="fill: rgb(241, 10, 112);"></polygon>
	<polygon class="st0" points="600,32.54 600,31.359 421.166,113.648 	" style="fill: rgb(241, 10, 112);"></polygon>
	<polygon class="st0" points="600,14.523 600,9.887 409.97,111.533 	" style="fill: rgb(241, 10, 112);"></polygon>
	<polygon class="st0" points="441.32,90.876 600,5.413 600,0.841 	" style="fill: rgb(241, 10, 112);"></polygon>
	<polygon class="st0" points="573.736,0 559.793,0 403.634,103.314 	" style="fill: rgb(241, 10, 112);"></polygon>
	<polygon class="st0" points="537.89,0 532.948,0 418.523,83.908 	" style="fill: rgb(241, 10, 112);"></polygon>
	<polygon class="st0" points="508.656,0 505.428,0 409.054,79.98 	" style="fill: rgb(241, 10, 112);"></polygon>
	<polygon class="st0" points="495.585,0 494.063,0 404.571,78.289 	" style="fill: rgb(241, 10, 112);"></polygon>
	<polygon class="st0" points="465.902,0 462.468,0 377.771,88.944 	" style="fill: rgb(241, 10, 112);"></polygon>
	<polygon class="st0" points="438.677,0 434.532,0 382.046,67.487 	" style="fill: rgb(241, 10, 112);"></polygon>
	<polygon class="st0" points="419.983,0 414.82,0 354.658,90.31 	" style="fill: rgb(241, 10, 112);"></polygon>
	<polygon class="st0" points="413.634,0 407.884,0 368.563,64.361 	" style="fill: rgb(241, 10, 112);"></polygon>
	<polygon class="st0" points="388.532,0 386.358,0 355.406,61.916 	" style="fill: rgb(241, 10, 112);"></polygon>
	<polygon class="st0" points="367.441,0 367.115,0 339.388,70.057 	" style="fill: rgb(241, 10, 112);"></polygon>
	<polygon class="st0" points="352.233,0 334.099,62.56 356.06,0 	" style="fill: rgb(241, 10, 112);"></polygon>
	<polygon class="st0" points="331.209,0 329.948,0 317.644,71.485 	" style="fill: rgb(241, 10, 112);"></polygon>
	<polygon class="st0" points="322.559,0 318.454,0 310.637,81.325 	" style="fill: rgb(241, 10, 112);"></polygon>
	<polygon class="st0" points="310.135,0 307.076,81.21 314.984,0 	" style="fill: rgb(241, 10, 112);"></polygon>
	<polygon class="st0" points="297.332,74.372 297.955,0 292.513,0 	" style="fill: rgb(241, 10, 112);"></polygon>
	<polygon class="st0" points="281.72,0 290.226,71.135 284.523,0 	" style="fill: rgb(241, 10, 112);"></polygon>
	<polygon class="st0" points="271.98,0 269.927,0 282.076,64.708 	" style="fill: rgb(241, 10, 112);"></polygon>
	<polygon class="st0" points="256.968,0 252.922,0 271.488,62.039 	" style="fill: rgb(241, 10, 112);"></polygon>
	<polygon class="st0" points="235.939,0 231.578,0 262.488,73.285 	" style="fill: rgb(241, 10, 112);"></polygon>
	<polygon class="st0" points="224.936,0 220.321,0 258.05,77.358 	" style="fill: rgb(241, 10, 112);"></polygon>
	<polygon class="st0" points="204.738,0 199.47,0 247.89,79.028 	" style="fill: rgb(241, 10, 112);"></polygon>
	<polygon class="st0" points="188.46,0 182.625,0 244.4,86.891 	" style="fill: rgb(241, 10, 112);"></polygon>
	<polygon class="st0" points="178.055,0 174.199,0 229.774,74.605 	" style="fill: rgb(241, 10, 112);"></polygon>
	<polygon class="st0" points="161.803,0 154.506,0 225.64,80.382 	" style="fill: rgb(241, 10, 112);"></polygon>
	<polygon class="st0" points="128.783,0 127.452,0 201.569,72.219 	" style="fill: rgb(241, 10, 112);"></polygon>
	<polygon class="st0" points="98.883,0 96.096,0 202.65,87.757 	" style="fill: rgb(241, 10, 112);"></polygon>
	<polygon class="st0" points="85.677,0 79.453,0 187.335,81.419 	" style="fill: rgb(241, 10, 112);"></polygon>
	<polygon class="st0" points="47.213,0 41.377,0 194.919,99.543 	" style="fill: rgb(241, 10, 112);"></polygon>
	<polygon class="st0" points="5.347,0 1.923,0 177.717,99.267 	" style="fill: rgb(241, 10, 112);"></polygon>
	<polygon class="st0" points="0,15.641 0,20.721 170.166,103.743 	" style="fill: rgb(241, 10, 112);"></polygon>
	<polygon class="st0" points="0,29.391 0,33.682 174.316,111.42 	" style="fill: rgb(241, 10, 112);"></polygon>
	<polygon class="st0" points="0,44.572 0,46.939 159.41,111.247 	" style="fill: rgb(241, 10, 112);"></polygon>
	<polygon class="st0" points="0,51.877 0,56.452 165.997,117.718 	" style="fill: rgb(241, 10, 112);"></polygon>
	<polygon class="st0" points="0,60.843 0,61.163 173.604,123.499 	" style="fill: rgb(241, 10, 112);"></polygon>
	<polygon class="st0" points="0,72.056 0,72.604 148.964,120.331 	" style="fill: rgb(241, 10, 112);"></polygon>
	<polygon class="st0" points="0,77.967 0,81.341 130.254,118.455 	" style="fill: rgb(241, 10, 112);"></polygon>
	<polygon class="st0" points="0,91.879 0,93.148 119.613,123.011 	" style="fill: rgb(241, 10, 112);"></polygon>
	<polygon class="st0" points="0,94.958 0,96.491 129.349,127.32 	" style="fill: rgb(241, 10, 112);"></polygon>
	<polygon class="st0" points="0,105.024 0,107.064 125.699,132.425 	" style="fill: rgb(241, 10, 112);"></polygon>
	<polygon class="st0" points="0,116.38 0,118.148 127.883,139.32 	" style="fill: rgb(241, 10, 112);"></polygon>
	<polygon class="st0" points="0,125.78 0,127.876 113.711,142.816 	" style="fill: rgb(241, 10, 112);"></polygon>
	<polygon class="st0" points="0,135.786 0,138.34 140.817,152.056 	" style="fill: rgb(241, 10, 112);"></polygon>
	<polygon class="st0" points="0,145.035 0,146.123 103.874,153.689 	" style="fill: rgb(241, 10, 112);"></polygon>
	<polygon class="st0" points="0,148.513 0,148.704 139.166,158.068 	" style="fill: rgb(241, 10, 112);"></polygon>
	<polygon class="st0" points="0,153.252 0,154.165 132.683,160.472 	" style="fill: rgb(241, 10, 112);"></polygon>
	<polygon class="st0" points="0,162.035 0,163.217 150.106,165.815 	" style="fill: rgb(241, 10, 112);"></polygon>
	<polygon class="st0" points="0,170.352 0,170.893 132.008,169.908 	" style="fill: rgb(241, 10, 112);"></polygon>
	<polygon class="st0" points="0,179.156 0,180.465 114.379,175.689 	" style="fill: rgb(241, 10, 112);"></polygon>
	<polygon class="st0" points="0,187.873 0,188.458 144.993,178.903 	" style="fill: rgb(241, 10, 112);"></polygon>
	<polygon class="st0" points="0,200.819 0,201.536 123.176,187.966 	" style="fill: rgb(241, 10, 112);"></polygon>
	<polygon class="st0" points="0,212.667 0,215.214 149.238,191.582 	" style="fill: rgb(241, 10, 112);"></polygon>
	<polygon class="st0" points="0,223.403 0,226.462 146.202,197.67 	" style="fill: rgb(241, 10, 112);"></polygon>
	<polygon class="st0" points="0,239.861 0,240.36 161.741,201.772 	" style="fill: rgb(241, 10, 112);"></polygon>
	<polygon class="st0" points="0,253.625 0,256.09 139.519,214.924 	" style="fill: rgb(241, 10, 112);"></polygon>
	<polygon class="st0" points="0,261.647 0,262.479 158.093,213.021 	" style="fill: rgb(241, 10, 112);"></polygon>
	<polygon class="st0" points="0,270.937 0,272.169 171.763,212.836 	" style="fill: rgb(241, 10, 112);"></polygon>
	<polygon class="st0" points="0,275.931 0,276.239 163.158,217.846 	" style="fill: rgb(241, 10, 112);"></polygon>
	<polygon class="st0" points="0,280.284 0,282.895 170.17,217.721 	" style="fill: rgb(241, 10, 112);"></polygon>
	<polygon class="st0" points="0,291.31 0,295.854 145.441,233.169 	" style="fill: rgb(241, 10, 112);"></polygon>
	<polygon class="st0" points="0,304.656 0,309.164 160.53,233.102 	" style="fill: rgb(241, 10, 112);"></polygon>
	<polygon class="st0" points="0,318.324 0,322.239 179.289,229.863 	" style="fill: rgb(241, 10, 112);"></polygon>
	<polygon class="st0" points="10.464,338 12.94,338 179.436,239.676 	" style="fill: rgb(241, 10, 112);"></polygon>
	<polygon class="st0" points="31.873,338 32.606,338 176.146,247.172 	" style="fill: rgb(241, 10, 112);"></polygon>
	<polygon class="st0" points="44.876,338 45.565,338 179.598,248.865 	" style="fill: rgb(241, 10, 112);"></polygon>
	<polygon class="st0" points="57.837,338 67.64,338 177.202,256.498 	" style="fill: rgb(241, 10, 112);"></polygon>
	<polygon class="st0" points="82.343,338 84.596,338 187.634,256.702 	" style="fill: rgb(241, 10, 112);"></polygon>
	<polygon class="st0" points="96.998,338 105.594,338 190.688,262.001 	" style="fill: rgb(241, 10, 112);"></polygon>
	<polygon class="st0" points="107.084,338 114.974,338 197.688,260.524 	" style="fill: rgb(241, 10, 112);"></polygon>
	<polygon class="st0" points="139.667,338 140.097,338 209.595,264.42 	" style="fill: rgb(241, 10, 112);"></polygon>
	<polygon class="st0" points="147.502,338 152.27,338 219.46,259.683 	" style="fill: rgb(241, 10, 112);"></polygon>
	<polygon class="st0" points="173.572,338 179.452,338 238.345,253.392 	" style="fill: rgb(241, 10, 112);"></polygon>
	<polygon class="st0" points="198.149,338 199.228,338 242.409,265.07 	" style="fill: rgb(241, 10, 112);"></polygon>
	<polygon class="st0" points="218.714,338 221.072,338 253.564,266.968 	" style="fill: rgb(241, 10, 112);"></polygon>
	<polygon class="st0" points="222.72,338 227.219,338 254.876,270.65 	" style="fill: rgb(241, 10, 112);"></polygon>
	<polygon class="st0" points="245.954,338 248.999,338 267.925,272.21 	" style="fill: rgb(241, 10, 112);"></polygon>
	<polygon class="st0" points="252.635,338 253.192,338 269.299,279.191 	" style="fill: rgb(241, 10, 112);"></polygon>
	<polygon class="st0" points="272.833,338 285.076,253.081 267.163,338 	" style="fill: rgb(241, 10, 112);"></polygon>
	<polygon class="st0" points="291.764,338 294.807,273.739 291.476,338 	" style="fill: rgb(241, 10, 112);"></polygon>
	<polygon class="st0" points="310.769,338 313.435,338 307.981,280.45 	" style="fill: rgb(241, 10, 112);"></polygon>
	<polygon class="st0" points="317.374,338 320.588,338 312.502,280.317 	" style="fill: rgb(241, 10, 112);"></polygon>
	<polygon class="st0" points="333.45,338 335.23,338 317.059,252.952 	" style="fill: rgb(241, 10, 112);"></polygon>
	<polygon class="st0" points="337.563,338 341.862,338 319.683,252.769 	" style="fill: rgb(241, 10, 112);"></polygon>
	<polygon class="st0" points="348.43,338 353.607,338 327.156,258.969 	" style="fill: rgb(241, 10, 112);"></polygon>
	<polygon class="st0" points="368.97,338 374.658,338 334.915,251.179 	" style="fill: rgb(241, 10, 112);"></polygon>
	<polygon class="st0" points="381.952,338 386.382,338 348.617,266.631 	" style="fill: rgb(241, 10, 112);"></polygon>
	<polygon class="st0" points="400.912,338 405.476,338 360.494,268.083 	" style="fill: rgb(241, 10, 112);"></polygon>
	<polygon class="st0" points="420.234,338 423.289,338 356.409,247.297 	" style="fill: rgb(241, 10, 112);"></polygon>
	<polygon class="st0" points="425.377,338 429.329,338 370.332,262.339 	" style="fill: rgb(241, 10, 112);"></polygon>
	<polygon class="st0" points="447.025,338 448.344,338 376.849,256.942 	" style="fill: rgb(241, 10, 112);"></polygon>
	<polygon class="st0" points="474.866,338 477.443,338 382.026,247.697 	" style="fill: rgb(241, 10, 112);"></polygon>
	<polygon class="st0" points="480.716,338 484.544,338 399.834,261.389 	" style="fill: rgb(241, 10, 112);"></polygon>
	<polygon class="st0" points="497.077,338 497.65,338 385.738,242.417 	" style="fill: rgb(241, 10, 112);"></polygon>
	<polygon class="st0" points="505.853,338 508.845,338 388.696,241.294 	" style="fill: rgb(241, 10, 112);"></polygon>
	<polygon class="st0" points="530.435,338 536.029,338 414.154,251.725 	" style="fill: rgb(241, 10, 112);"></polygon>
	<polygon class="st0" points="568.778,338 574.751,338 424.868,246.658 	" style="fill: rgb(241, 10, 112);"></polygon>
	<polygon class="st0" points="598.285,338 600,338 600,332.66 419.579,235.475 	" style="fill: rgb(241, 10, 112);"></polygon>
	<polygon class="st0" points="600,320.506 600,317.713 448.041,243.069 	" style="fill: rgb(241, 10, 112);"></polygon>
	<polygon class="st0" points="600,299.348 600,296.165 438.412,228.399 	" style="fill: rgb(241, 10, 112);"></polygon>
	<polygon class="st0" points="600,294.723 600,290.616 459.798,234.86 	" style="fill: rgb(241, 10, 112);"></polygon>
	<polygon class="st0" points="600,275.98 600,270.675 427.649,213.377 	" style="fill: rgb(241, 10, 112);"></polygon>
	<polygon class="st0" points="600,257.361 600,257.116 464.879,217.495 	" style="fill: rgb(241, 10, 112);"></polygon>
	<polygon class="st0" points="600,245.192 600,241.627 437.286,203.046 	" style="fill: rgb(241, 10, 112);"></polygon>
	<polygon class="st0" points="600,230.892 600,229.136 480.592,205.727 	" style="fill: rgb(241, 10, 112);"></polygon>
	<polygon class="st0" points="600,226.23 600,223.825 453.771,197.715 	" style="fill: rgb(241, 10, 112);"></polygon>
	<polygon class="st0" points="600,213.581 600,210.773 445.333,189.914 	" style="fill: rgb(241, 10, 112);"></polygon>
	<polygon class="st0" points="600,209.306 600,208.098 486.912,193.735 	" style="fill: rgb(241, 10, 112);"></polygon>
	<polygon class="st0" points="600,199.186 600,198.474 477.26,186.625 	" style="fill: rgb(241, 10, 112);"></polygon>
	<polygon class="st0" points="600,192.228 600,189.676 454.701,180.319 	" style="fill: rgb(241, 10, 112);"></polygon>
	<polygon class="st0" points="600,182.99 600,179.717 467.553,175.898 	" style="fill: rgb(241, 10, 112);"></polygon>
	<polygon class="st0" points="600,174.79 600,173.065 455.934,171.561 	" style="fill: rgb(241, 10, 112);"></polygon>
	<polygon class="st0" points="600,167.69 600,165.945 473.985,167.734 	" style="fill: rgb(241, 10, 112);"></polygon>
</g>
</svg>
