<svg width="131" height="129" viewBox="0 0 131 129" fill="none" xmlns="http://www.w3.org/2000/svg">
<g clip-path="url(#clip0_111_1874)">
<path d="M44.5725 25.2653C41.3356 27.3456 38.197 30.0097 35.5017 32.9816C36.1001 32.2705 36.7244 31.5557 37.3758 30.8344C37.3758 30.8344 29.1708 36.73 24.7079 49.34C23.3762 53.0216 22.1192 56.6643 21.9904 60.1708C21.8383 64.3148 22.4093 70.2927 24.512 75.8649C24.5557 80.2422 28.3069 83.4321 28.6057 87.4675C29.1979 91.5911 33.7535 93.944 34.9746 95.1724C35.2336 96.338 37.277 95.4591 38.1916 96.7012C40.4916 94.1192 44.5645 99.6169 44.9035 94.3182C45.4654 94.536 47.124 94.7757 47.3016 93.6057C46.9396 91.866 49.0548 89.9867 48.3034 87.6208C47.4695 86.7723 47.7489 87.7471 46.2001 86.3117C44.5096 84.1914 42.609 85.1672 42.1603 83.7408C40.2778 82.6327 41.1368 81.8227 37.9709 80.6427C35.4521 76.8769 33.2965 73.0191 32.3421 68.6947C31.4501 65.7502 31.377 57.4312 32.6569 53.9658C35.3728 46.6721 31.6213 59.5375 34.0111 53.715C37.7559 48.3316 36.0231 43.2915 44.2026 36.8797C46.9116 34.4274 52.4498 32.4984 56.6284 31.0652C61.7231 27.9279 67.984 29.5351 73.4949 29.9971C76.0596 30.8171 72.5136 30.3175 68.4982 30.4016C66.6921 30.076 62.559 30.1049 66.6922 30.5971C73.8409 31.4271 81.2793 32.9644 87.1539 37.3737C87.5064 41.488 91.3095 43.324 93.874 45.9904C97.0232 50.4125 98.662 55.6842 100.312 60.7983C100.629 65.0692 100.09 70.0324 98.1557 74.5004C97.0834 78.1782 95.5796 81.2334 94.6595 82.5348C96.3344 80.4302 97.8229 77.7112 99.1 75.6408C98.5212 78.7494 101.244 71.0112 101.44 69.3494C102.283 67.7148 101.849 58.9453 102.757 64.6329C103.584 72.6681 98.4069 79.5686 94.2469 85.935C90.3873 91.1471 85.4525 95.958 79.0843 97.821C75.4594 99.9917 72.8797 103.238 68.3969 104.251C66.3955 105.277 61.7601 106.475 61.4552 107.394C63.5965 107.11 65.1551 106.692 62.1631 107.628C60.6554 108.039 58.484 109.599 61.4365 108.51C73.4064 105.769 84.5125 99.7398 93.5988 91.5174C89.753 97.7292 83.3304 101.503 77.1348 104.976C77.408 106.106 84.0984 102.523 79.7006 104.983C77.238 106.383 70.5871 108.151 70.5427 109.353C79.3585 107.508 87.2755 102.636 93.4709 96.1666C97.8184 92.1942 101.126 87.1534 103.275 81.6838C106.652 79.0906 102.328 85.5427 101.572 86.882C100.361 88.5541 98.8214 91.5494 101.192 88.503C102.224 85.9845 104.512 86.9261 104.872 86.0334C106.246 81.8754 108.752 78.3174 110.741 74.5328C111.555 68.5985 110.494 62.5554 109.634 56.6743C108.398 50.6812 106.876 44.5568 102.983 39.671C99.6744 34.8124 96.4538 29.2845 90.557 27.2633C88.2645 26.1763 84.6952 24.1108 83.1162 23.756C84.6659 24.8768 89.31 27.0657 88.9063 28.2393C83.7076 25.6 78.2519 23.0357 72.7704 21.1391C75.0427 21.6272 77.8275 20.6642 73.7586 20.09C71.8177 19.7942 69.8535 19.6209 67.8912 19.6511C59.7985 19.7759 50.9837 22.5487 44.5729 25.2652L44.5725 25.2653ZM30.3396 40.0686C29.1709 42.161 28.2859 44.2949 27.7813 46.4012C26.8913 49.0242 25.954 51.2018 25.0992 53.2921C26.0509 48.5766 27.7576 44.2946 30.3396 40.0686ZM93.3639 42.8658C97.0938 46.4515 99.8895 51.04 100.944 56.0289C102.376 58.5816 101.03 59.2075 100.036 56.3988C97.6581 51.9648 95.6991 47.3196 93.3639 42.8658Z" fill="#A03131"/>
</g>
<path d="M93.416 63.216C92.0507 63.0027 90.9627 62.4907 90.152 61.68C89.3413 60.8267 88.5307 59.9947 87.72 59.184C86.0987 59.3547 84.456 59.4827 82.792 59.568C81.1707 59.6107 79.528 59.696 77.864 59.824C76.2427 59.952 74.5573 60.1013 72.808 60.272C71.1013 60.4427 69.3733 60.6987 67.624 61.04C67.3253 61.0827 67.112 61.1893 66.984 61.36C66.856 61.5307 66.6853 61.7013 66.472 61.872C65.3627 61.8293 64.2747 61.5307 63.208 60.976C62.184 60.3787 61.4373 59.5467 60.968 58.48C60.1147 60.9547 59.3467 63.6213 58.664 66.48C58.024 69.296 57.2773 71.8133 56.424 74.032C57.1493 75.2693 58.0027 76.4853 58.984 77.68C60.008 78.832 60.904 80.048 61.672 81.328C62.2693 82.2667 62.7173 83.2693 63.016 84.336C63.3573 85.36 63.464 86.4907 63.336 87.728C62.184 87.6427 61.0533 87.344 59.944 86.832C58.8347 86.3627 58.0027 85.6587 57.448 84.72C57.2347 84.2933 57.1493 83.824 57.192 83.312C57.2347 82.8 57.1707 82.288 57 81.776C56.9147 81.4347 56.7013 81.008 56.36 80.496C56.0613 79.9413 55.7413 79.4507 55.4 79.024C55.1013 78.5547 54.9093 78.32 54.824 78.32C54.6533 78.32 54.4187 78.512 54.12 78.896C53.8213 79.28 53.48 79.728 53.096 80.24C52.6693 80.8373 52.2213 81.4133 51.752 81.968C51.3253 82.48 50.984 82.6933 50.728 82.608C50.5147 82.608 50.3867 82.6293 50.344 82.672C50.344 82.672 50.3653 82.6933 50.408 82.736C50.4933 82.7787 50.5787 82.8427 50.664 82.928C50.792 82.9707 50.8133 83.0773 50.728 83.248C50.6 83.2907 50.4293 83.3973 50.216 83.568C50.0453 83.696 49.8533 83.8027 49.64 83.888C49.4693 83.9733 49.2347 83.9093 48.936 83.696C48.9787 83.5253 49.064 83.4827 49.192 83.568C49.32 83.696 49.4267 83.6747 49.512 83.504C49.384 83.1627 49.2133 83.0347 49 83.12C48.7867 83.2053 48.5947 83.3547 48.424 83.568C48.296 83.7387 48.232 83.9307 48.232 84.144C48.232 84.3573 48.3387 84.5067 48.552 84.592C48.3813 84.848 48.2533 84.912 48.168 84.784C48.0827 84.656 47.9973 84.5067 47.912 84.336C47.784 84.08 47.6773 83.9307 47.592 83.888C47.4213 83.9307 47.3147 84.1227 47.272 84.464C47.2293 84.6347 47.1653 84.784 47.08 84.912C47.0373 84.9973 46.888 84.9973 46.632 84.912C46.4187 84.8693 46.1627 84.8693 45.864 84.912C45.608 84.9547 45.3093 85.0187 44.968 85.104C44.2 85.2747 43.432 85.36 42.664 85.36C41.9387 85.3173 41.4907 84.8267 41.32 83.888C41.2773 83.888 41.2347 83.888 41.192 83.888C40.936 83.9307 40.5947 83.9733 40.168 84.016C39.784 84.016 39.5707 83.8453 39.528 83.504C40.552 83.504 41.5333 83.3333 42.472 82.992C43.4533 82.608 44.3493 82.1387 45.16 81.584C46.0133 80.9867 46.76 80.3467 47.4 79.664C48.0827 78.9813 48.5947 78.3413 48.936 77.744C49.0213 77.4453 49.2347 77.2747 49.576 77.232C49.9173 77.1467 50.1733 77.0187 50.344 76.848C50.9413 76.1227 51.24 75.4613 51.24 74.864C51.24 74.224 51.0693 73.6267 50.728 73.072C50.216 72.2613 49.448 71.5573 48.424 70.96C47.4427 70.32 46.568 69.7867 45.8 69.36C45.5013 70.5547 44.968 71.3013 44.2 71.6C43.432 71.856 42.728 71.8133 42.088 71.472C41.4907 71.1307 41.064 70.5547 40.808 69.744C40.552 68.9333 40.7227 68.016 41.32 66.992C41.8747 66.992 42.3227 66.736 42.664 66.224C43.0053 65.6693 43.304 65.008 43.56 64.24C43.9013 63.344 44.1787 62.4053 44.392 61.424C44.648 60.4427 44.9253 59.7387 45.224 59.312C44.5413 59.184 43.6453 59.3973 42.536 59.952C41.4693 60.5067 40.6587 61.1467 40.104 61.872C39.208 62.0853 38.504 62.0853 37.992 61.872C37.48 61.616 36.9893 61.3387 36.52 61.04C36.264 60.8693 35.9653 60.6987 35.624 60.528C35.3253 60.3147 34.984 60.1867 34.6 60.144C34.5147 58.864 34.3013 58.0533 33.96 57.712C33.6187 57.328 33.448 56.944 33.448 56.56C34.856 56.9013 36.2427 56.9653 37.608 56.752C38.9733 56.5387 40.36 56.2827 41.768 55.984C42.4933 55.8133 43.2187 55.6427 43.944 55.472C44.712 55.3013 45.48 55.1733 46.248 55.088C46.2907 54.8747 46.312 54.704 46.312 54.576C46.312 54.4053 46.2907 54.256 46.248 54.128C46.248 54 46.248 53.8933 46.248 53.808C46.248 53.68 46.248 53.5307 46.248 53.36C46.3333 52.8053 46.5253 52.3147 46.824 51.888C47.1227 51.4187 47.3147 50.992 47.4 50.608C47.4 50.5227 47.336 50.3733 47.208 50.16C47.08 49.904 47.016 49.7547 47.016 49.712C47.016 49.2427 47.08 48.752 47.208 48.24C47.3787 47.6853 47.5707 47.1093 47.784 46.512C48.04 45.7013 48.2533 44.912 48.424 44.144C48.6373 43.3333 48.616 42.6293 48.36 42.032C47.7627 41.52 47.1867 40.9867 46.632 40.432C46.0773 39.8347 45.608 39.1733 45.224 38.448C45.5653 38.1067 45.9707 37.936 46.44 37.936C46.9093 37.8933 47.4 37.872 47.912 37.872C48.4667 37.8293 48.936 37.6587 49.32 37.36C50.5573 37.7867 51.5813 38.2133 52.392 38.64C53.2027 39.024 53.9493 39.728 54.632 40.752C54.632 41.0933 54.6107 41.52 54.568 42.032C54.568 42.544 54.4613 42.9067 54.248 43.12C53.5227 44.016 53.0107 44.848 52.712 45.616C52.4133 46.3413 52.0933 47.4293 51.752 48.88C51.5813 49.5627 51.3253 50.288 50.984 51.056C50.6853 51.7813 50.536 52.6133 50.536 53.552C50.5787 53.68 50.6427 53.7867 50.728 53.872C50.8133 53.9147 50.8773 54.0213 50.92 54.192C51.7307 53.8933 52.4347 53.6373 53.032 53.424C53.672 53.2107 54.2053 52.6987 54.632 51.888C55.4 51.6747 56.3173 51.5893 57.384 51.632C58.4507 51.632 59.496 51.7813 60.52 52.08C61.5867 52.336 62.4613 52.7627 63.144 53.36C63.1013 53.9147 62.8667 54.32 62.44 54.576C62.056 54.7893 61.6293 54.96 61.16 55.088C61.16 55.344 61.1387 55.5573 61.096 55.728C61.096 55.856 61.0533 55.9627 60.968 56.048C60.9253 56.176 60.8827 56.304 60.84 56.432C60.84 56.5173 60.8827 56.6453 60.968 56.816C61.352 56.944 61.7573 56.9867 62.184 56.944C62.6107 56.8587 63.0373 56.752 63.464 56.624C63.8907 56.5387 64.296 56.4747 64.68 56.432C65.1067 56.3467 65.448 56.3893 65.704 56.56C66.6 55.2373 67.4747 53.9147 68.328 52.592C69.1813 51.2267 69.9707 49.7973 70.696 48.304C71.2933 47.152 71.8053 45.936 72.232 44.656C72.6587 43.3333 73.0213 41.9467 73.32 40.496C72.9787 39.7707 72.5307 39.1947 71.976 38.768C71.4213 38.2987 70.9733 37.68 70.632 36.912C71.016 36.5707 71.7413 36.2933 72.808 36.08C73.8747 35.8667 74.92 35.9947 75.944 36.464C76.3707 36.6347 76.8187 36.9547 77.288 37.424C77.7573 37.8933 78.1627 38.3627 78.504 38.832C78.8453 39.3013 79.0373 39.664 79.08 39.92C79.2507 40.688 79.016 41.6693 78.376 42.864C77.7787 44.0587 77.1173 45.2533 76.392 46.448C76.0933 46.96 75.7947 47.472 75.496 47.984C75.1973 48.4533 74.9413 48.9013 74.728 49.328C74.6 49.584 74.5147 49.8613 74.472 50.16C74.472 50.4587 74.4293 50.672 74.344 50.8C74.3013 50.8853 74.152 50.928 73.896 50.928C73.64 50.8853 73.512 50.928 73.512 51.056C73.4693 51.9947 73.0427 52.8907 72.232 53.744C72.232 53.8293 72.3173 53.8293 72.488 53.744C72.7013 53.5733 72.872 53.5093 73 53.552C72.4453 54.064 72.04 54.576 71.784 55.088C71.528 55.6 71.336 56.0907 71.208 56.56C72.3173 56.6453 73.4693 56.7307 74.664 56.816C75.9013 56.8587 77.1173 56.8587 78.312 56.816C79.5067 56.7307 80.6587 56.5813 81.768 56.368C82.92 56.112 83.9867 55.7493 84.968 55.28C85.096 55.1093 85.288 55.1093 85.544 55.28C85.7573 55.408 85.9493 55.472 86.12 55.472C86.2053 54.32 86.0987 53.2747 85.8 52.336C85.544 51.3973 85.16 50.5227 84.648 49.712C84.392 49.2853 84.072 48.8587 83.688 48.432C83.3467 47.9627 82.984 47.5147 82.6 47.088C82.0027 46.3627 81.4693 45.7013 81 45.104C80.5733 44.464 80.3813 43.952 80.424 43.568C81.832 44.208 83.112 44.976 84.264 45.872C85.4587 46.768 86.5893 47.7493 87.656 48.816C88.5093 49.6267 89.3413 50.48 90.152 51.376C90.9627 52.272 91.7733 53.1467 92.584 54C92.584 54.5973 92.648 55.1947 92.776 55.792C92.9467 56.3467 93.1387 56.9227 93.352 57.52C93.6507 58.4587 93.8853 59.4187 94.056 60.4C94.2267 61.3387 94.0133 62.2773 93.416 63.216ZM93.992 66.352C93.9067 66.48 93.7573 66.5227 93.544 66.48C93.3307 66.3947 93.16 66.4373 93.032 66.608C93.032 66.7787 93.0533 66.9067 93.096 66.992C93.1387 67.0773 93.1813 67.1413 93.224 67.184C93.2667 67.2693 93.288 67.3547 93.288 67.44C93.3307 67.5253 93.3093 67.6747 93.224 67.888C92.6267 68.0587 92.0293 68.2507 91.432 68.464C90.8347 68.6773 90.2587 68.912 89.704 69.168C89.3627 71.0453 89.1493 72.688 89.064 74.096C89.0213 75.504 88.936 76.912 88.808 78.32C88.7227 79.728 88.424 81.392 87.912 83.312C87.912 83.6107 87.976 83.824 88.104 83.952C88.2747 84.0373 88.4453 84.1227 88.616 84.208C88.8293 84.2933 89 84.4 89.128 84.528C89.2987 84.656 89.3627 84.8907 89.32 85.232C87.9547 85.7013 86.5253 85.9787 85.032 86.064C83.5387 86.192 82.0453 86.256 80.552 86.256C80.2533 86.256 79.9333 86.256 79.592 86.256C79.2933 86.256 78.9947 86.256 78.696 86.256C77.416 86.2133 76.1573 86.2133 74.92 86.256C73.6827 86.2987 72.5093 86.448 71.4 86.704C71.1867 86.704 71.0587 86.7893 71.016 86.96C71.016 87.1733 71.016 87.3867 71.016 87.6C71.016 87.7707 70.9947 87.92 70.952 88.048C70.952 88.2187 70.9093 88.3467 70.824 88.432C69.3733 88.2187 68.264 87.6427 67.496 86.704C66.7707 85.808 66.1093 84.7627 65.512 83.568C65.8533 82.7573 66.088 81.8187 66.216 80.752C66.344 79.6853 66.408 78.5547 66.408 77.36C66.408 75.8667 66.3227 74.5013 66.152 73.264C65.9813 71.984 65.768 70.6827 65.512 69.36C65.2133 68.8053 64.808 68.3573 64.296 68.016C63.8267 67.632 63.3787 67.2267 62.952 66.8C62.9093 66.416 62.952 66.16 63.08 66.032C63.2507 65.8613 63.4213 65.7333 63.592 65.648C63.7627 65.5627 63.912 65.4773 64.04 65.392C64.168 65.264 64.2533 65.1147 64.296 64.944C64.936 64.9867 65.64 64.9867 66.408 64.944C67.176 64.8587 67.9867 64.7733 68.84 64.688C69.7787 64.56 70.76 64.4533 71.784 64.368C72.808 64.2827 73.8533 64.24 74.92 64.24C75.1333 64.24 75.24 64.3253 75.24 64.496C75.24 64.624 75.3253 64.688 75.496 64.688C76.2213 64.6453 76.9893 64.5173 77.8 64.304C78.6533 64.048 79.464 63.8987 80.232 63.856C80.7867 63.8133 81.2987 63.7493 81.768 63.664C82.2373 63.536 82.6853 63.408 83.112 63.28C83.752 63.1093 84.4133 62.96 85.096 62.832C85.8213 62.704 86.696 62.6827 87.72 62.768C88.3173 63.1947 89 63.5573 89.768 63.856C90.5787 64.112 91.368 64.4107 92.136 64.752C92.904 65.0933 93.5227 65.6267 93.992 66.352ZM83.176 67.888C82.024 67.4187 80.68 67.2053 79.144 67.248C77.6507 67.248 76.136 67.3973 74.6 67.696C73.1067 67.952 71.784 68.2933 70.632 68.72C70.4613 70.768 70.376 72.4533 70.376 73.776C70.376 75.0987 70.3973 76.2933 70.44 77.36C70.44 77.9573 70.44 78.576 70.44 79.216C70.4827 79.8133 70.4827 80.4533 70.44 81.136C70.44 81.264 70.4187 81.392 70.376 81.52C70.376 81.648 70.376 81.776 70.376 81.904C70.3333 82.16 70.2907 82.416 70.248 82.672C70.248 82.8853 70.312 83.0347 70.44 83.12C72.36 83.2053 74.4293 83.2053 76.648 83.12C78.9093 82.992 81.0213 82.8427 82.984 82.672C83.0267 82.032 83.0693 81.392 83.112 80.752C83.1973 80.0693 83.2613 79.3867 83.304 78.704C83.5173 76.8693 83.6667 75.0133 83.752 73.136C83.8373 71.2587 83.6453 69.5093 83.176 67.888ZM55.208 56.368C54.056 56.4533 52.9253 56.6667 51.816 57.008C50.7493 57.3493 49.8533 57.6267 49.128 57.84C48.8293 59.2907 48.424 60.6347 47.912 61.872C47.4 63.1093 47.0373 64.5387 46.824 66.16C47.2933 66.4587 47.72 66.8213 48.104 67.248C48.488 67.6747 48.9573 68.1013 49.512 68.528C49.64 68.6133 49.9387 68.848 50.408 69.232C50.8773 69.616 51.3253 69.9573 51.752 70.256C52.2213 70.5547 52.4773 70.704 52.52 70.704C52.7333 70.6613 52.968 70.256 53.224 69.488C53.5227 68.6773 53.7573 67.9947 53.928 67.44C54.2693 66.416 54.5893 65.2213 54.888 63.856C55.1867 62.4907 55.3787 61.1253 55.464 59.76C55.5493 58.3947 55.464 57.264 55.208 56.368Z" fill="#193053"/>
<defs>
<clipPath id="clip0_111_1874">
<rect width="129" height="129" fill="white" transform="translate(2)"/>
</clipPath>
</defs>
</svg>
