<svg width="244" height="234" viewBox="0 0 244 234" fill="none" xmlns="http://www.w3.org/2000/svg">
<mask id="path-1-inside-1_119_3" fill="white">
<path d="M173.977 21.0688C173.777 21.3304 173.507 21.5267 173.376 21.4959C173.098 21.4306 172.991 21.6652 173.204 21.8614C173.629 22.2536 172.714 22.4769 171.685 22.2348C171.292 22.1426 170.829 22.1311 170.624 22.1966C170.419 22.262 169.624 22.416 168.872 22.5316C168.065 22.6664 167.453 22.8473 167.424 22.9704C167.395 23.0935 167.379 23.5281 167.403 23.9397C167.411 24.6397 167.393 24.7167 167.008 24.886C166.779 24.9784 166.569 25.14 166.551 25.2169C166.529 25.3092 166.282 25.4785 166.014 25.5939C165.456 25.8364 164.641 25.7096 163.845 25.279C163.433 25.0522 163.292 25.0676 162.865 25.3408C162.602 25.5062 161.992 25.7525 161.513 25.8834L160.643 26.1336L160.898 26.5182C161.203 26.9797 161.191 27.1066 160.734 27.4375C160.447 27.6299 160.062 27.6531 158.942 27.5033C156.799 27.2269 152.705 27.4008 147.964 27.975C144.255 28.4182 136.66 30.3507 133.749 31.5822C133.02 31.8978 131.8 32.3904 131.058 32.6867C127.939 33.9183 123.575 36.2694 118.247 39.5631C116.572 40.5981 116.323 40.702 115.105 40.8215C111.46 41.2147 108.592 42.8462 105.576 46.2124C104.963 46.9126 104.01 47.809 103.482 48.2207C101.993 49.348 101.128 50.606 100.001 53.1987C99.7653 53.7604 98.6265 55.3761 98.3326 55.5993C98.2092 55.6839 97.926 55.7147 97.7135 55.6648C97.501 55.6148 96.8873 55.5842 96.3353 55.5843C93.2923 55.6157 90.9052 54.1777 88.7236 50.9857L87.4873 49.2012L86.8503 49.4899C85.1606 50.2941 85.0735 50.3711 85.1484 50.8596C85.1922 51.1134 85.3633 51.5595 85.5179 51.8557C85.6888 52.1557 85.8071 52.4595 85.789 52.5364C85.7456 52.7211 84.7909 53.1136 84.5294 53.0521C84.415 53.0252 83.6228 52.4331 82.7507 51.7409C80.9264 50.2566 80.6649 50.1951 78.9024 50.7225C77.973 51.0073 77.6571 51.0304 76.8889 50.8498C76.3859 50.7153 75.7466 50.5001 75.4832 50.3732C74.8201 50.0387 74.8003 50.1964 75.3224 51.2771C76.703 54.1347 81.3851 57.6223 86.1637 59.3791C89.9125 60.7476 92.9197 61.3085 95.683 61.1463C97.6075 61.0305 99.1577 60.5994 101.53 59.5334C102.091 59.2756 103.314 58.9137 104.225 58.7058C105.133 58.5133 106.16 58.2515 106.485 58.1168C107.44 57.7243 108.832 56.5739 110.542 54.8003C112.347 52.9191 113.588 52.0418 114.159 52.2571C115.172 52.6415 114.355 54.5764 112.493 56.1846C111.868 56.7194 110.685 57.6428 109.854 58.243C108.636 59.0933 108.348 59.3665 108.428 59.6127C108.608 60.2396 109.046 60.6511 109.823 60.8663C110.245 60.9816 110.646 61.1084 110.724 61.143C110.789 61.1584 110.752 61.5392 110.654 61.9546C110.459 62.7855 109.755 63.7242 108.824 64.3821C107.472 65.3632 106.863 66.048 106.053 67.5137C104.945 69.5102 104.909 69.6641 105.501 70.5178C106.129 71.4447 106.657 71.7638 107.732 71.8867C108.555 71.9826 108.613 72.0288 108.788 72.4595C109.068 73.1749 108.581 74.4405 107.5 75.81C106.591 76.9603 106.289 77.7335 106.465 78.3758C106.591 78.7951 107.387 79.3718 108.057 79.5294C108.776 79.6985 108.971 80.1177 108.757 81.0255C108.613 81.6409 108.419 81.9525 107.775 82.5643C106.369 83.9223 105.412 85.7919 105.707 86.5919C105.834 86.9304 106.046 86.8341 107.623 85.6299C108.401 85.0335 109.866 84.0139 110.882 83.3598C111.898 82.7057 113.092 81.8823 113.549 81.5514C113.994 81.2013 114.467 80.8742 114.584 80.8203C115.172 80.5202 116.782 78.8043 118.433 76.7731C119.24 75.7613 120.857 73.2839 121.441 72.1221C122.809 69.4563 123.89 65.5212 124.488 61.0669C124.84 58.4705 125.039 57.4781 125.427 56.4164C125.689 55.6663 126.097 54.4469 126.339 53.7083C126.763 52.3466 126.763 52.3466 127.696 51.7541C132.842 48.4989 136.465 47.1749 141.098 46.8354C143.398 46.6618 145.75 47.1498 148.32 48.3224C149.283 48.776 150.193 49.2336 150.351 49.3681C150.829 49.7565 152.495 50.6678 153.303 50.9714C153.73 51.1367 154.239 51.4674 154.424 51.7059C154.626 51.9481 155.069 52.4096 155.444 52.7249C155.827 53.0749 156.174 53.5787 156.313 54.0171C156.429 54.4017 156.644 54.8094 156.773 54.9209C156.918 55.0363 157.763 55.3323 158.654 55.5744C160.32 56.0471 161.199 56.5624 161.259 57.1124C161.285 57.297 160.902 57.2394 159.167 56.7667C157.998 56.4592 157.063 56.2556 157.068 56.3056C157.09 56.3594 157.165 56.7017 157.232 57.0748C157.665 59.271 157.841 59.621 159.317 60.9746L160.267 61.8475L160.124 62.6745C159.967 63.5631 159.842 63.4362 161.613 64.1935C164.119 65.27 164.348 65.6161 162.185 65.0588L160.725 64.6668L159.76 65.1055C159.222 65.3364 158.787 65.575 158.772 65.6365C158.747 65.7442 161.257 66.8053 163.115 67.4857C165.264 68.2507 166.672 69.2312 167.098 70.2081C167.223 70.4811 167.563 71.308 167.876 72.0311C168.173 72.7503 168.559 73.6041 168.726 73.9195C168.893 74.2349 169.23 74.931 169.485 75.4617C170.236 77.0347 170.994 78.2846 171.676 79.1269C172.13 79.6883 172.243 79.9422 172.09 80.0037C171.684 80.1192 169.328 79.5005 168.357 79.0122C167.85 78.7469 167.022 78.4548 166.508 78.3664C165.581 78.1974 165.562 78.2089 165.44 78.6513C165.239 79.4321 165.196 79.4706 164.466 79.4939C163.907 79.5248 163.771 79.5902 163.782 79.8363C163.787 80.0325 163.568 80.3056 163.221 80.5327C162.385 81.0829 161.529 82.0831 161.772 82.2215C162.045 82.383 162.839 83.4791 162.943 83.8445C163.087 84.3329 162.806 84.5753 162.016 84.6332C161.542 84.6679 161.237 84.7911 161.161 84.968C161.092 85.1142 160.684 85.4566 160.261 85.7144C159.332 86.2916 159.009 86.6378 158.872 87.2225C158.814 87.4687 158.576 87.8188 158.326 88.0034L157.905 88.3266L158.323 88.6035C158.864 88.9418 159.851 90.3917 159.775 90.7148C159.743 90.8533 159.57 91.0726 159.4 91.2111C158.955 91.5612 158.947 91.8189 159.388 91.9227C159.927 92.0495 159.956 92.2187 159.601 92.9958C159.373 93.5266 159.344 93.7959 159.461 94.3267C159.548 94.6882 159.581 95.1344 159.554 95.3229C159.486 95.6152 159.569 95.6998 160.01 95.8036C161.073 96.0534 160.95 96.5765 159.455 97.9461C158.862 98.4886 158.8 98.604 158.576 99.8503L158.318 101.17L158.884 101.254C159.365 101.335 161.779 102.438 161.936 102.654C161.958 102.707 161.843 102.973 161.657 103.254C161.241 103.919 161.273 104.3 161.768 104.173C162.277 104.065 162.28 104.05 162.194 104.858C162.095 105.646 162.399 106.481 162.822 106.661C163.212 106.834 163.675 106.553 165.342 105.111C168.661 102.221 172.39 98.0971 173.895 95.6582C174.926 93.9848 175.851 92.3999 176.333 91.5228C177.261 89.7763 177.93 88.7645 178.643 88.0067C179.084 87.5258 179.53 87.0949 179.614 87.0333C179.713 86.9756 180.217 87.4024 180.787 88.0562C182.663 90.2021 184.981 91.7863 188.193 93.0933C189.01 93.4316 189.697 93.7392 189.709 93.7584C189.738 93.7815 189.842 94.1469 189.964 94.5815C190.636 96.9315 194.684 99.0846 197.861 98.7762C199.342 98.6374 199.477 98.6527 200.069 99.2142C200.394 99.518 200.83 99.7179 201.484 99.8716C202.105 100.018 202.619 100.252 202.997 100.552C203.317 100.806 203.894 101.137 204.289 101.294C204.686 101.436 204.999 101.575 204.995 101.59C204.988 101.621 204.656 101.933 204.28 102.283C203.885 102.644 203.355 103.137 203.11 103.371C202.644 103.814 201.627 104.03 200.444 103.93C199.394 103.845 199.65 104.149 200.843 104.43C202.151 104.737 203.482 104.725 204.771 104.379C205.359 104.225 206.234 104.171 207.202 104.236C208.629 104.328 209.021 104.274 210.466 103.704C210.618 103.643 210.925 103.731 211.318 103.97C212.18 104.481 213.74 104.669 214.735 104.4C216.342 103.949 217.876 102.703 219.042 100.899C219.419 100.322 220.016 99.6175 220.377 99.3289C221.257 98.5941 221.883 97.767 222.454 96.586C224.311 92.7199 224.389 90.7736 222.722 89.5047L221.929 88.9125L222.214 88.2163C222.388 87.7701 222.463 87.1546 222.441 86.5161C222.383 84.9276 222.637 84.1428 223.547 83.058C224.363 82.0808 225.15 80.7882 225.039 80.5998C225.001 80.5421 224.524 80.7384 223.972 81.0308C223.42 81.3233 222.698 81.6081 222.379 81.6466C222.055 81.7005 221.378 82.0122 220.865 82.3624L219.961 82.978L219.677 82.278C219.463 81.7242 219.145 81.3896 218.303 80.7859C217.42 80.1399 217.161 79.8515 216.889 79.1707C216.362 77.8938 215.974 76.5361 215.702 75.1246C215.572 74.4284 215.434 73.6976 215.392 73.5092C215.334 73.3169 215.259 72.8284 215.218 72.413C214.995 70.5744 213.492 66.5514 212.659 65.5439C212.378 65.2016 211.435 64.2979 210.577 63.5442C209.045 62.2098 208.482 61.5253 208.668 61.2445C208.835 60.9752 210.509 60.8979 214.003 61.0048C218.852 61.1384 220.677 61.0803 223.142 60.7182C225.216 60.41 228.453 58.963 233.41 56.1502C235.315 55.0882 237.471 53.9877 238.21 53.7067C238.948 53.4258 239.569 53.1333 239.587 53.0564C239.625 52.9679 239.075 52.7411 238.383 52.5297C236.917 52.0877 236.632 51.7608 236.982 50.9337C237.148 50.5183 237.13 50.449 236.803 50.3722C236.607 50.3261 236.278 50.0377 236.078 49.7146C235.602 48.9531 234.888 48.5417 234.134 48.5919C233.799 48.6266 233.415 48.569 233.283 48.4729C233.117 48.369 232.887 48.396 232.624 48.5615C232.058 48.9155 231.823 48.8117 231.172 47.9117C230.86 47.481 230.549 47.1157 230.484 47.1003C230.402 47.0811 230.209 46.8734 230.04 46.6388C229.766 46.2658 229.72 46.2389 229.408 46.3928C229.212 46.4929 228.737 46.6084 228.361 46.6661C227.969 46.7201 227.183 47.0549 226.617 47.4089C225.704 47.9899 225.519 48.0438 224.93 47.9054C223.917 47.6672 223.704 47.3249 223.943 46.3094C224.153 45.417 224.125 45.3131 223.726 45.544C223.546 45.6479 223.35 45.6018 222.909 45.3519C221.993 44.8443 221.476 44.7714 220.229 45.014C219.038 45.2373 218.509 45.2105 218.407 44.9105C218.364 44.8028 218.193 44.7952 217.932 44.8799C217.558 45.003 217.398 44.9492 216.628 44.5571C215.763 44.1264 215.698 44.1111 214.899 44.2805C214.427 44.3806 213.692 44.6462 213.256 44.8847C212.725 45.1656 212.394 45.2503 212.196 45.1388C211.998 45.0273 211.846 45.0889 211.623 45.3774C211.454 45.5813 211.285 45.7852 211.242 45.8237C211.198 45.8622 210.554 45.7431 209.818 45.5702C208.854 45.3434 208.365 45.2935 208.113 45.4128C207.921 45.4975 207.638 45.5283 207.465 45.4553C207.247 45.3553 207.16 45.4323 207.073 45.8016C206.928 46.417 205.954 46.9673 205.124 46.9021C204.087 46.8369 204.071 46.833 203.852 47.6908C203.412 49.341 203.053 51.822 203.094 52.9683C203.098 53.5375 203.051 54.0299 202.992 54.0645C202.928 54.1145 202.465 53.5184 201.972 52.7531C200.703 50.8148 198.812 48.5843 197.39 47.373C195.742 45.9464 194.777 44.9888 193.408 43.4006C191.561 41.2778 187.108 37.4054 184.41 35.6021C182.453 34.3139 181.621 33.3064 181.294 31.8333C180.631 28.9332 180.123 27.791 178.669 25.9066C178.097 25.1874 177.506 24.399 177.32 24.1606C177.135 23.9222 176.626 23.2992 176.181 22.7723C175.732 22.2608 175.205 21.5686 175.005 21.2455C174.788 20.9186 174.561 20.6379 174.496 20.6225C174.414 20.6033 174.176 20.8072 173.977 21.0688Z"/>
</mask>
<path d="M173.977 21.0688C173.777 21.3304 173.507 21.5267 173.376 21.4959C173.098 21.4306 172.991 21.6652 173.204 21.8614C173.629 22.2536 172.714 22.4769 171.685 22.2348C171.292 22.1426 170.829 22.1311 170.624 22.1966C170.419 22.262 169.624 22.416 168.872 22.5316C168.065 22.6664 167.453 22.8473 167.424 22.9704C167.395 23.0935 167.379 23.5281 167.403 23.9397C167.411 24.6397 167.393 24.7167 167.008 24.886C166.779 24.9784 166.569 25.14 166.551 25.2169C166.529 25.3092 166.282 25.4785 166.014 25.5939C165.456 25.8364 164.641 25.7096 163.845 25.279C163.433 25.0522 163.292 25.0676 162.865 25.3408C162.602 25.5062 161.992 25.7525 161.513 25.8834L160.643 26.1336L160.898 26.5182C161.203 26.9797 161.191 27.1066 160.734 27.4375C160.447 27.6299 160.062 27.6531 158.942 27.5033C156.799 27.2269 152.705 27.4008 147.964 27.975C144.255 28.4182 136.66 30.3507 133.749 31.5822C133.02 31.8978 131.8 32.3904 131.058 32.6867C127.939 33.9183 123.575 36.2694 118.247 39.5631C116.572 40.5981 116.323 40.702 115.105 40.8215C111.46 41.2147 108.592 42.8462 105.576 46.2124C104.963 46.9126 104.01 47.809 103.482 48.2207C101.993 49.348 101.128 50.606 100.001 53.1987C99.7653 53.7604 98.6265 55.3761 98.3326 55.5993C98.2092 55.6839 97.926 55.7147 97.7135 55.6648C97.501 55.6148 96.8873 55.5842 96.3353 55.5843C93.2923 55.6157 90.9052 54.1777 88.7236 50.9857L87.4873 49.2012L86.8503 49.4899C85.1606 50.2941 85.0735 50.3711 85.1484 50.8596C85.1922 51.1134 85.3633 51.5595 85.5179 51.8557C85.6888 52.1557 85.8071 52.4595 85.789 52.5364C85.7456 52.7211 84.7909 53.1136 84.5294 53.0521C84.415 53.0252 83.6228 52.4331 82.7507 51.7409C80.9264 50.2566 80.6649 50.1951 78.9024 50.7225C77.973 51.0073 77.6571 51.0304 76.8889 50.8498C76.3859 50.7153 75.7466 50.5001 75.4832 50.3732C74.8201 50.0387 74.8003 50.1964 75.3224 51.2771C76.703 54.1347 81.3851 57.6223 86.1637 59.3791C89.9125 60.7476 92.9197 61.3085 95.683 61.1463C97.6075 61.0305 99.1577 60.5994 101.53 59.5334C102.091 59.2756 103.314 58.9137 104.225 58.7058C105.133 58.5133 106.16 58.2515 106.485 58.1168C107.44 57.7243 108.832 56.5739 110.542 54.8003C112.347 52.9191 113.588 52.0418 114.159 52.2571C115.172 52.6415 114.355 54.5764 112.493 56.1846C111.868 56.7194 110.685 57.6428 109.854 58.243C108.636 59.0933 108.348 59.3665 108.428 59.6127C108.608 60.2396 109.046 60.6511 109.823 60.8663C110.245 60.9816 110.646 61.1084 110.724 61.143C110.789 61.1584 110.752 61.5392 110.654 61.9546C110.459 62.7855 109.755 63.7242 108.824 64.3821C107.472 65.3632 106.863 66.048 106.053 67.5137C104.945 69.5102 104.909 69.6641 105.501 70.5178C106.129 71.4447 106.657 71.7638 107.732 71.8867C108.555 71.9826 108.613 72.0288 108.788 72.4595C109.068 73.1749 108.581 74.4405 107.5 75.81C106.591 76.9603 106.289 77.7335 106.465 78.3758C106.591 78.7951 107.387 79.3718 108.057 79.5294C108.776 79.6985 108.971 80.1177 108.757 81.0255C108.613 81.6409 108.419 81.9525 107.775 82.5643C106.369 83.9223 105.412 85.7919 105.707 86.5919C105.834 86.9304 106.046 86.8341 107.623 85.6299C108.401 85.0335 109.866 84.0139 110.882 83.3598C111.898 82.7057 113.092 81.8823 113.549 81.5514C113.994 81.2013 114.467 80.8742 114.584 80.8203C115.172 80.5202 116.782 78.8043 118.433 76.7731C119.24 75.7613 120.857 73.2839 121.441 72.1221C122.809 69.4563 123.89 65.5212 124.488 61.0669C124.84 58.4705 125.039 57.4781 125.427 56.4164C125.689 55.6663 126.097 54.4469 126.339 53.7083C126.763 52.3466 126.763 52.3466 127.696 51.7541C132.842 48.4989 136.465 47.1749 141.098 46.8354C143.398 46.6618 145.75 47.1498 148.32 48.3224C149.283 48.776 150.193 49.2336 150.351 49.3681C150.829 49.7565 152.495 50.6678 153.303 50.9714C153.73 51.1367 154.239 51.4674 154.424 51.7059C154.626 51.9481 155.069 52.4096 155.444 52.7249C155.827 53.0749 156.174 53.5787 156.313 54.0171C156.429 54.4017 156.644 54.8094 156.773 54.9209C156.918 55.0363 157.763 55.3323 158.654 55.5744C160.32 56.0471 161.199 56.5624 161.259 57.1124C161.285 57.297 160.902 57.2394 159.167 56.7667C157.998 56.4592 157.063 56.2556 157.068 56.3056C157.09 56.3594 157.165 56.7017 157.232 57.0748C157.665 59.271 157.841 59.621 159.317 60.9746L160.267 61.8475L160.124 62.6745C159.967 63.5631 159.842 63.4362 161.613 64.1935C164.119 65.27 164.348 65.6161 162.185 65.0588L160.725 64.6668L159.76 65.1055C159.222 65.3364 158.787 65.575 158.772 65.6365C158.747 65.7442 161.257 66.8053 163.115 67.4857C165.264 68.2507 166.672 69.2312 167.098 70.2081C167.223 70.4811 167.563 71.308 167.876 72.0311C168.173 72.7503 168.559 73.6041 168.726 73.9195C168.893 74.2349 169.23 74.931 169.485 75.4617C170.236 77.0347 170.994 78.2846 171.676 79.1269C172.13 79.6883 172.243 79.9422 172.09 80.0037C171.684 80.1192 169.328 79.5005 168.357 79.0122C167.85 78.7469 167.022 78.4548 166.508 78.3664C165.581 78.1974 165.562 78.2089 165.44 78.6513C165.239 79.4321 165.196 79.4706 164.466 79.4939C163.907 79.5248 163.771 79.5902 163.782 79.8363C163.787 80.0325 163.568 80.3056 163.221 80.5327C162.385 81.0829 161.529 82.0831 161.772 82.2215C162.045 82.383 162.839 83.4791 162.943 83.8445C163.087 84.3329 162.806 84.5753 162.016 84.6332C161.542 84.6679 161.237 84.7911 161.161 84.968C161.092 85.1142 160.684 85.4566 160.261 85.7144C159.332 86.2916 159.009 86.6378 158.872 87.2225C158.814 87.4687 158.576 87.8188 158.326 88.0034L157.905 88.3266L158.323 88.6035C158.864 88.9418 159.851 90.3917 159.775 90.7148C159.743 90.8533 159.57 91.0726 159.4 91.2111C158.955 91.5612 158.947 91.8189 159.388 91.9227C159.927 92.0495 159.956 92.2187 159.601 92.9958C159.373 93.5266 159.344 93.7959 159.461 94.3267C159.548 94.6882 159.581 95.1344 159.554 95.3229C159.486 95.6152 159.569 95.6998 160.01 95.8036C161.073 96.0534 160.95 96.5765 159.455 97.9461C158.862 98.4886 158.8 98.604 158.576 99.8503L158.318 101.17L158.884 101.254C159.365 101.335 161.779 102.438 161.936 102.654C161.958 102.707 161.843 102.973 161.657 103.254C161.241 103.919 161.273 104.3 161.768 104.173C162.277 104.065 162.28 104.05 162.194 104.858C162.095 105.646 162.399 106.481 162.822 106.661C163.212 106.834 163.675 106.553 165.342 105.111C168.661 102.221 172.39 98.0971 173.895 95.6582C174.926 93.9848 175.851 92.3999 176.333 91.5228C177.261 89.7763 177.93 88.7645 178.643 88.0067C179.084 87.5258 179.53 87.0949 179.614 87.0333C179.713 86.9756 180.217 87.4024 180.787 88.0562C182.663 90.2021 184.981 91.7863 188.193 93.0933C189.01 93.4316 189.697 93.7392 189.709 93.7584C189.738 93.7815 189.842 94.1469 189.964 94.5815C190.636 96.9315 194.684 99.0846 197.861 98.7762C199.342 98.6374 199.477 98.6527 200.069 99.2142C200.394 99.518 200.83 99.7179 201.484 99.8716C202.105 100.018 202.619 100.252 202.997 100.552C203.317 100.806 203.894 101.137 204.289 101.294C204.686 101.436 204.999 101.575 204.995 101.59C204.988 101.621 204.656 101.933 204.28 102.283C203.885 102.644 203.355 103.137 203.11 103.371C202.644 103.814 201.627 104.03 200.444 103.93C199.394 103.845 199.65 104.149 200.843 104.43C202.151 104.737 203.482 104.725 204.771 104.379C205.359 104.225 206.234 104.171 207.202 104.236C208.629 104.328 209.021 104.274 210.466 103.704C210.618 103.643 210.925 103.731 211.318 103.97C212.18 104.481 213.74 104.669 214.735 104.4C216.342 103.949 217.876 102.703 219.042 100.899C219.419 100.322 220.016 99.6175 220.377 99.3289C221.257 98.5941 221.883 97.767 222.454 96.586C224.311 92.7199 224.389 90.7736 222.722 89.5047L221.929 88.9125L222.214 88.2163C222.388 87.7701 222.463 87.1546 222.441 86.5161C222.383 84.9276 222.637 84.1428 223.547 83.058C224.363 82.0808 225.15 80.7882 225.039 80.5998C225.001 80.5421 224.524 80.7384 223.972 81.0308C223.42 81.3233 222.698 81.6081 222.379 81.6466C222.055 81.7005 221.378 82.0122 220.865 82.3624L219.961 82.978L219.677 82.278C219.463 81.7242 219.145 81.3896 218.303 80.7859C217.42 80.1399 217.161 79.8515 216.889 79.1707C216.362 77.8938 215.974 76.5361 215.702 75.1246C215.572 74.4284 215.434 73.6976 215.392 73.5092C215.334 73.3169 215.259 72.8284 215.218 72.413C214.995 70.5744 213.492 66.5514 212.659 65.5439C212.378 65.2016 211.435 64.2979 210.577 63.5442C209.045 62.2098 208.482 61.5253 208.668 61.2445C208.835 60.9752 210.509 60.8979 214.003 61.0048C218.852 61.1384 220.677 61.0803 223.142 60.7182C225.216 60.41 228.453 58.963 233.41 56.1502C235.315 55.0882 237.471 53.9877 238.21 53.7067C238.948 53.4258 239.569 53.1333 239.587 53.0564C239.625 52.9679 239.075 52.7411 238.383 52.5297C236.917 52.0877 236.632 51.7608 236.982 50.9337C237.148 50.5183 237.13 50.449 236.803 50.3722C236.607 50.3261 236.278 50.0377 236.078 49.7146C235.602 48.9531 234.888 48.5417 234.134 48.5919C233.799 48.6266 233.415 48.569 233.283 48.4729C233.117 48.369 232.887 48.396 232.624 48.5615C232.058 48.9155 231.823 48.8117 231.172 47.9117C230.86 47.481 230.549 47.1157 230.484 47.1003C230.402 47.0811 230.209 46.8734 230.04 46.6388C229.766 46.2658 229.72 46.2389 229.408 46.3928C229.212 46.4929 228.737 46.6084 228.361 46.6661C227.969 46.7201 227.183 47.0549 226.617 47.4089C225.704 47.9899 225.519 48.0438 224.93 47.9054C223.917 47.6672 223.704 47.3249 223.943 46.3094C224.153 45.417 224.125 45.3131 223.726 45.544C223.546 45.6479 223.35 45.6018 222.909 45.3519C221.993 44.8443 221.476 44.7714 220.229 45.014C219.038 45.2373 218.509 45.2105 218.407 44.9105C218.364 44.8028 218.193 44.7952 217.932 44.8799C217.558 45.003 217.398 44.9492 216.628 44.5571C215.763 44.1264 215.698 44.1111 214.899 44.2805C214.427 44.3806 213.692 44.6462 213.256 44.8847C212.725 45.1656 212.394 45.2503 212.196 45.1388C211.998 45.0273 211.846 45.0889 211.623 45.3774C211.454 45.5813 211.285 45.7852 211.242 45.8237C211.198 45.8622 210.554 45.7431 209.818 45.5702C208.854 45.3434 208.365 45.2935 208.113 45.4128C207.921 45.4975 207.638 45.5283 207.465 45.4553C207.247 45.3553 207.16 45.4323 207.073 45.8016C206.928 46.417 205.954 46.9673 205.124 46.9021C204.087 46.8369 204.071 46.833 203.852 47.6908C203.412 49.341 203.053 51.822 203.094 52.9683C203.098 53.5375 203.051 54.0299 202.992 54.0645C202.928 54.1145 202.465 53.5184 201.972 52.7531C200.703 50.8148 198.812 48.5843 197.39 47.373C195.742 45.9464 194.777 44.9888 193.408 43.4006C191.561 41.2778 187.108 37.4054 184.41 35.6021C182.453 34.3139 181.621 33.3064 181.294 31.8333C180.631 28.9332 180.123 27.791 178.669 25.9066C178.097 25.1874 177.506 24.399 177.32 24.1606C177.135 23.9222 176.626 23.2992 176.181 22.7723C175.732 22.2608 175.205 21.5686 175.005 21.2455C174.788 20.9186 174.561 20.6379 174.496 20.6225C174.414 20.6033 174.176 20.8072 173.977 21.0688Z" fill="#FCC800" stroke="white" stroke-width="4" mask="url(#path-1-inside-1_119_3)"/>
<mask id="path-2-inside-2_119_3" fill="white">
<path d="M92.7279 98.8263C90.0599 101.639 83.0373 113.933 81.9298 117.741C81.6781 118.563 81.2754 119.782 81.0488 120.479C80.7971 121.151 80.2937 122.794 79.9413 124.088C78.2801 130.061 77.9529 131.007 77.1474 132.475C76.644 133.321 76.1658 134.068 76.0651 134.143C75.9392 134.217 75.2345 133.794 74.4794 133.222C70.7038 130.31 67.3561 128.966 60.9377 127.771C59.5533 127.522 59.2764 127.398 58.924 126.751C57.4641 124.063 53.9403 122.271 49.5858 121.972C48.0504 121.873 47.4715 121.972 45.634 122.594L43.4694 123.341L42.1353 122.694C41.0278 122.171 40.5748 122.072 39.6686 122.196C38.7877 122.346 38.3849 122.271 37.7305 121.873C37.2523 121.599 36.2958 121.226 35.5658 121.076C34.257 120.778 33.9549 120.554 34.4835 120.23C34.6345 120.131 35.0876 119.409 35.4903 118.612C36.3965 116.82 37.1516 116.223 38.9639 115.85C41.0782 115.427 41.3299 115.203 39.9707 115.004C38.0325 114.705 35.3141 115.352 33.4012 116.547C32.7719 116.945 31.6393 117.293 30.3556 117.492C27.8385 117.916 27.5868 117.99 26.1018 119.035C24.9187 119.857 24.8936 119.857 24.1133 119.459C23.1065 118.936 20.9166 119.11 19.3057 119.807C17.0907 120.778 14.9009 123.615 13.8186 126.875C13.5165 127.746 12.8369 129.09 12.3083 129.887C10.9995 131.753 10.6974 132.624 10.043 136.034C9.38858 139.593 9.46409 141.858 10.3451 143.625C10.8485 144.645 11.2008 144.994 12.3083 145.541L13.6676 146.238L13.6172 147.806C13.592 148.652 13.6927 149.673 13.8437 150.071C13.9696 150.444 14.1206 151.465 14.1206 152.336C14.1458 153.68 13.9948 154.252 13.139 156.119C12.1322 158.309 11.7294 159.728 12.0063 160.026C12.0818 160.101 12.6859 159.678 13.3655 159.056C14.0199 158.458 14.9261 157.811 15.4043 157.612C15.8826 157.413 16.8139 156.641 17.4683 155.92C18.2737 155.049 18.7268 154.7 18.8023 154.899C18.8778 155.098 19.2554 155.596 19.6581 156.044C20.2874 156.766 21.0425 157.189 23.0561 157.936C24.1888 158.384 26.2276 161.943 28.5685 167.642C30.3304 171.973 32.344 175.581 34.1815 177.771C35.1631 178.941 37.1768 180.31 39.6435 181.554C40.4741 181.953 41.4809 182.65 41.9088 183.073C43.2177 184.417 43.0163 184.516 31.312 187.055C20.6146 189.369 17.871 190.987 7.24909 201.216C5.18511 203.207 2.69324 205.397 1.73676 206.044C0.780284 206.716 0 207.363 0 207.488C0 207.612 0.679602 207.712 1.51023 207.712C2.39119 207.712 3.37284 207.886 3.77557 208.085C4.45517 208.434 4.53068 208.608 4.53068 209.603C4.53068 210.624 4.58102 210.748 5.00892 210.624C5.33614 210.549 5.76403 210.773 6.31778 211.346C7.29943 212.341 8.55795 212.764 9.51443 212.416C9.86682 212.266 10.4206 212.217 10.7226 212.291C11.075 212.391 11.4274 212.266 11.7043 211.943C12.3587 211.221 12.9124 211.321 14.0703 212.391C14.624 212.889 15.4547 213.536 15.9329 213.834C16.7635 214.332 16.7887 214.332 17.3424 213.884C17.6697 213.635 18.1479 213.436 18.4248 213.436C18.7016 213.436 19.5071 212.839 20.2119 212.117C20.9418 211.37 21.7724 210.649 22.0745 210.499C22.6786 210.176 24.1385 210.101 24.5664 210.4C25.1453 210.773 25.4725 211.769 25.3215 212.714C25.1704 213.66 25.1704 213.685 25.7997 213.386C26.2779 213.187 26.58 213.187 27.0582 213.386C28.1406 213.884 29.4494 213.735 31.2869 212.889C32.7216 212.242 33.0991 212.142 33.5019 212.391C33.8794 212.615 34.0808 212.615 34.4583 212.391C34.8359 212.167 35.2638 212.167 36.3461 212.416C37.1264 212.59 38.0074 212.64 38.3094 212.54C39.0394 212.316 40.8265 211.122 41.6571 210.3C42.085 209.877 42.4625 209.728 42.7646 209.827C43.117 209.927 43.2932 209.803 43.4945 209.205L43.7714 208.434L45.785 208.483C47.3204 208.508 47.9749 208.409 48.4783 208.085C48.8307 207.861 49.2837 207.737 49.4851 207.811C49.7368 207.911 49.8375 207.737 49.8375 207.264C49.8627 206.02 51.3729 204.725 52.8076 204.725C53.462 204.725 53.6886 204.601 53.8899 204.028C54.2675 203.132 53.9906 196.886 53.4872 194.895C53.2858 194.073 53.1348 193.327 53.1096 193.202C53.0845 192.679 53.8396 193.202 55.224 194.695C56.9356 196.562 61.0383 199.872 62.8506 200.893C66.1983 202.734 68.5643 204.252 70.88 205.97C74.7059 208.857 81.6529 212.714 86.8381 214.83C89.2796 215.825 89.934 216.224 91.0667 217.344C91.7715 218.09 92.3755 218.837 92.3755 219.011C92.3755 219.683 94.6409 223.79 95.6981 225.059C96.8055 226.353 98.1396 227.548 101.462 230.236C102.494 231.057 103.929 232.276 104.659 232.973C105.942 234.143 106.018 234.193 106.37 233.72C106.572 233.471 106.723 233.123 106.723 232.948C106.723 232.774 106.949 232.55 107.226 232.476C107.604 232.351 107.704 232.177 107.578 231.704C107.453 231.231 107.553 231.057 108.107 230.858C108.459 230.733 109.24 230.609 109.819 230.609C110.423 230.609 111.102 230.46 111.379 230.285C111.656 230.111 112.688 229.638 113.645 229.24C114.626 228.867 115.482 228.469 115.558 228.394C115.658 228.319 115.583 227.598 115.407 226.801C115.155 225.507 115.155 225.333 115.608 224.934C115.885 224.71 116.187 224.263 116.313 223.964C116.615 223.167 118.301 222.769 119.736 223.167C120.768 223.441 120.868 223.416 121.221 222.919C121.447 222.62 122.077 222.147 122.63 221.823C124.745 220.679 124.644 220.803 124.09 220.33C123.562 219.882 123.461 219.26 123.788 218.712C123.914 218.563 124.896 218.314 126.003 218.165C128.772 217.816 128.973 217.767 133.781 216.373C141.181 214.233 147.046 211.719 154.672 207.388C158.398 205.298 160.411 204.004 162.475 202.411C163.18 201.888 164.539 200.868 165.521 200.171C169.775 197.085 171.738 195.243 182.712 184.118C183.568 183.272 184.424 182.575 184.625 182.575C184.852 182.575 185.204 182.475 185.456 182.351C185.682 182.226 186.991 181.604 188.325 180.982C190.263 180.061 191.17 179.464 192.629 178.02C194.568 176.154 196.606 173.242 198.217 170.106C198.721 169.11 199.652 167.592 200.281 166.771C201.892 164.68 202.773 162.689 203.377 159.802C204.434 154.85 205.164 153.207 206.322 153.207C206.725 153.207 207.581 153.033 208.235 152.834C210.803 152.062 213.747 152.386 216.592 153.705C218.203 154.476 219.109 155.148 221.122 157.065C222.482 158.409 223.665 159.354 223.715 159.205C223.765 159.056 224.319 158.583 224.923 158.185C226.735 156.94 226.886 156.193 225.628 154.7C224.848 153.804 224.923 153.207 225.88 152.734C226.559 152.41 226.761 152.485 229.479 153.829C232.726 155.422 233.154 155.472 235.117 154.252C236.678 153.282 237.71 152.958 239.396 152.958C240.202 152.958 240.906 152.858 240.982 152.734C241.208 152.386 239.27 150.37 237.408 149.026C235.444 147.582 231.216 145.616 227.793 144.546C223.312 143.152 215.308 142.53 210.803 143.227C206.901 143.849 202.798 145.74 199.728 148.354C198.972 148.976 197.387 149.971 196.153 150.569C194.945 151.166 193.46 152.012 192.856 152.435C191.396 153.506 189.685 155.721 187.897 158.956C185.557 163.162 183.971 164.855 183.115 164.158C182.033 163.287 182.536 160.648 184.298 158.01C185.632 155.994 188.074 152.933 189.005 152.112C190.213 151.042 189.08 149.673 186.815 149.474L185.38 149.349L185.305 148.055C185.204 146.512 185.531 145.815 187.419 143.376C188.149 142.405 188.98 141.136 189.257 140.514C189.987 138.871 191.094 134.591 190.918 134.043C190.842 133.769 190.289 133.197 189.71 132.749C188.753 132.002 188.527 131.928 186.815 131.903C185.28 131.903 184.877 131.803 184.6 131.43C183.769 130.31 183.971 128.468 185.28 125.706C185.959 124.212 186.362 122.52 186.186 121.798C185.984 121.051 184.701 120.355 183.518 120.355C182.511 120.355 181.831 119.658 181.605 118.388C181.454 117.492 181.554 117.144 182.612 115.228C183.845 113.013 184.499 111.121 184.499 109.727C184.499 108.831 184.273 108.159 183.996 108.159C183.87 108.159 182.914 109.254 181.831 110.574C180.749 111.917 178.836 114.133 177.578 115.501C176.319 116.87 174.784 118.612 174.18 119.359C173.55 120.106 172.871 120.927 172.644 121.176C172.292 121.549 171.738 122.545 169.875 126.079C168.063 129.513 165.949 135.91 165.496 139.27C165.068 142.53 165.068 149.523 165.496 154.476C165.898 158.981 165.924 159.927 165.622 162.192C165.445 163.61 165.244 165.626 165.194 166.646C165.093 168.364 165.017 168.588 164.288 169.285C163.834 169.708 162.802 170.828 161.972 171.773C160.336 173.64 158.372 175.382 155.956 177.05C155.125 177.647 154.245 178.294 154.043 178.468C153.112 179.265 148.38 181.38 145.737 182.202C140.829 183.67 137.783 183.446 129.88 180.957C128.42 180.484 126.809 180.061 126.28 179.962C125.752 179.887 125.122 179.613 124.871 179.364C124.619 179.115 123.939 178.643 123.335 178.319C122.706 177.995 121.976 177.323 121.674 176.851C120.592 175.183 120.566 175.183 117.647 174.984C115.759 174.86 114.601 174.66 113.972 174.337C112.134 173.416 112.915 173.068 116.287 173.242C117.571 173.292 118.83 173.416 119.081 173.491C119.66 173.69 119.66 173.59 119.182 172.47C118.981 171.997 118.83 171.549 118.83 171.5C118.805 171.425 118.528 170.828 118.2 170.156C117.496 168.812 116.564 167.941 114.601 166.846C113.091 165.999 112.764 165.551 112.764 164.307C112.764 163.834 112.663 163.361 112.512 163.287C112.386 163.212 111.329 162.988 110.196 162.814C107.654 162.391 106.547 161.992 106.899 161.644C107.05 161.495 107.377 161.495 107.755 161.619C108.082 161.744 109.038 161.793 109.844 161.719C111.102 161.619 111.555 161.445 112.688 160.574L114.022 159.553L112.713 159.255C111.404 158.956 108.61 158.533 106.547 158.309C105.993 158.259 104.608 157.911 103.476 157.537C101.185 156.791 100.732 156.368 98.0389 152.51C95.0184 148.105 92.3252 144.944 90.2361 143.301C89.4054 142.654 89.3048 142.48 89.6068 142.256C90.1605 141.908 93.0552 141.957 94.5905 142.356C95.3205 142.555 96.6545 142.804 97.5607 142.878C99.524 143.102 99.9519 142.853 99.7505 141.634C99.6246 140.862 99.7001 140.738 100.329 140.489C101.613 139.991 101.814 139.842 101.739 139.394C101.689 139.145 101.915 138.672 102.268 138.299C102.595 137.95 103.148 137.129 103.526 136.482L104.155 135.312L103.3 134.79C102.268 134.143 101.361 132.948 101.487 132.376C101.538 132.127 102.041 131.778 102.695 131.554C103.425 131.305 103.853 131.007 103.929 130.683C103.979 130.409 104.457 129.713 104.986 129.115C106.068 127.97 106.471 127.149 106.471 126.153C106.471 125.78 106.672 125.282 106.924 125.009C107.226 124.66 107.251 124.486 107.05 124.411C106.874 124.362 106.169 123.864 105.464 123.291C104.004 122.147 103.702 121.35 104.306 120.33L104.734 119.608L103.954 119.459L103.174 119.284L103.35 117.866C103.476 116.771 103.4 116.223 103.098 115.601C102.872 115.178 102.695 114.605 102.695 114.332C102.695 114.083 102.494 113.859 102.268 113.834C102.016 113.834 101.663 113.784 101.512 113.784C101.336 113.759 101.034 113.585 100.808 113.361C100.455 113.013 100.455 112.888 100.833 112.017C101.059 111.494 101.538 110.673 101.89 110.175C102.57 109.329 102.62 108.931 102.469 106.417C102.444 106.069 102.469 105.571 102.494 105.297C102.544 104.949 102.444 104.824 102.192 104.899C101.412 105.073 100.506 104.974 98.6682 104.501C96.6042 103.978 96.5287 103.854 97.0321 102.087C97.2334 101.39 97.2083 101.365 96.428 101.514C95.6729 101.664 95.6477 101.664 95.6477 100.718C95.6477 99.6476 94.7667 98.1295 94.062 98.005C93.7851 97.9552 93.2565 98.2788 92.7279 98.8263Z"/>
</mask>
<path d="M92.7279 98.8263C90.0599 101.639 83.0373 113.933 81.9298 117.741C81.6781 118.563 81.2754 119.782 81.0488 120.479C80.7971 121.151 80.2937 122.794 79.9413 124.088C78.2801 130.061 77.9529 131.007 77.1474 132.475C76.644 133.321 76.1658 134.068 76.0651 134.143C75.9392 134.217 75.2345 133.794 74.4794 133.222C70.7038 130.31 67.3561 128.966 60.9377 127.771C59.5533 127.522 59.2764 127.398 58.924 126.751C57.4641 124.063 53.9403 122.271 49.5858 121.972C48.0504 121.873 47.4715 121.972 45.634 122.594L43.4694 123.341L42.1353 122.694C41.0278 122.171 40.5748 122.072 39.6686 122.196C38.7877 122.346 38.3849 122.271 37.7305 121.873C37.2523 121.599 36.2958 121.226 35.5658 121.076C34.257 120.778 33.9549 120.554 34.4835 120.23C34.6345 120.131 35.0876 119.409 35.4903 118.612C36.3965 116.82 37.1516 116.223 38.9639 115.85C41.0782 115.427 41.3299 115.203 39.9707 115.004C38.0325 114.705 35.3141 115.352 33.4012 116.547C32.7719 116.945 31.6393 117.293 30.3556 117.492C27.8385 117.916 27.5868 117.99 26.1018 119.035C24.9187 119.857 24.8936 119.857 24.1133 119.459C23.1065 118.936 20.9166 119.11 19.3057 119.807C17.0907 120.778 14.9009 123.615 13.8186 126.875C13.5165 127.746 12.8369 129.09 12.3083 129.887C10.9995 131.753 10.6974 132.624 10.043 136.034C9.38858 139.593 9.46409 141.858 10.3451 143.625C10.8485 144.645 11.2008 144.994 12.3083 145.541L13.6676 146.238L13.6172 147.806C13.592 148.652 13.6927 149.673 13.8437 150.071C13.9696 150.444 14.1206 151.465 14.1206 152.336C14.1458 153.68 13.9948 154.252 13.139 156.119C12.1322 158.309 11.7294 159.728 12.0063 160.026C12.0818 160.101 12.6859 159.678 13.3655 159.056C14.0199 158.458 14.9261 157.811 15.4043 157.612C15.8826 157.413 16.8139 156.641 17.4683 155.92C18.2737 155.049 18.7268 154.7 18.8023 154.899C18.8778 155.098 19.2554 155.596 19.6581 156.044C20.2874 156.766 21.0425 157.189 23.0561 157.936C24.1888 158.384 26.2276 161.943 28.5685 167.642C30.3304 171.973 32.344 175.581 34.1815 177.771C35.1631 178.941 37.1768 180.31 39.6435 181.554C40.4741 181.953 41.4809 182.65 41.9088 183.073C43.2177 184.417 43.0163 184.516 31.312 187.055C20.6146 189.369 17.871 190.987 7.24909 201.216C5.18511 203.207 2.69324 205.397 1.73676 206.044C0.780284 206.716 0 207.363 0 207.488C0 207.612 0.679602 207.712 1.51023 207.712C2.39119 207.712 3.37284 207.886 3.77557 208.085C4.45517 208.434 4.53068 208.608 4.53068 209.603C4.53068 210.624 4.58102 210.748 5.00892 210.624C5.33614 210.549 5.76403 210.773 6.31778 211.346C7.29943 212.341 8.55795 212.764 9.51443 212.416C9.86682 212.266 10.4206 212.217 10.7226 212.291C11.075 212.391 11.4274 212.266 11.7043 211.943C12.3587 211.221 12.9124 211.321 14.0703 212.391C14.624 212.889 15.4547 213.536 15.9329 213.834C16.7635 214.332 16.7887 214.332 17.3424 213.884C17.6697 213.635 18.1479 213.436 18.4248 213.436C18.7016 213.436 19.5071 212.839 20.2119 212.117C20.9418 211.37 21.7724 210.649 22.0745 210.499C22.6786 210.176 24.1385 210.101 24.5664 210.4C25.1453 210.773 25.4725 211.769 25.3215 212.714C25.1704 213.66 25.1704 213.685 25.7997 213.386C26.2779 213.187 26.58 213.187 27.0582 213.386C28.1406 213.884 29.4494 213.735 31.2869 212.889C32.7216 212.242 33.0991 212.142 33.5019 212.391C33.8794 212.615 34.0808 212.615 34.4583 212.391C34.8359 212.167 35.2638 212.167 36.3461 212.416C37.1264 212.59 38.0074 212.64 38.3094 212.54C39.0394 212.316 40.8265 211.122 41.6571 210.3C42.085 209.877 42.4625 209.728 42.7646 209.827C43.117 209.927 43.2932 209.803 43.4945 209.205L43.7714 208.434L45.785 208.483C47.3204 208.508 47.9749 208.409 48.4783 208.085C48.8307 207.861 49.2837 207.737 49.4851 207.811C49.7368 207.911 49.8375 207.737 49.8375 207.264C49.8627 206.02 51.3729 204.725 52.8076 204.725C53.462 204.725 53.6886 204.601 53.8899 204.028C54.2675 203.132 53.9906 196.886 53.4872 194.895C53.2858 194.073 53.1348 193.327 53.1096 193.202C53.0845 192.679 53.8396 193.202 55.224 194.695C56.9356 196.562 61.0383 199.872 62.8506 200.893C66.1983 202.734 68.5643 204.252 70.88 205.97C74.7059 208.857 81.6529 212.714 86.8381 214.83C89.2796 215.825 89.934 216.224 91.0667 217.344C91.7715 218.09 92.3755 218.837 92.3755 219.011C92.3755 219.683 94.6409 223.79 95.6981 225.059C96.8055 226.353 98.1396 227.548 101.462 230.236C102.494 231.057 103.929 232.276 104.659 232.973C105.942 234.143 106.018 234.193 106.37 233.72C106.572 233.471 106.723 233.123 106.723 232.948C106.723 232.774 106.949 232.55 107.226 232.476C107.604 232.351 107.704 232.177 107.578 231.704C107.453 231.231 107.553 231.057 108.107 230.858C108.459 230.733 109.24 230.609 109.819 230.609C110.423 230.609 111.102 230.46 111.379 230.285C111.656 230.111 112.688 229.638 113.645 229.24C114.626 228.867 115.482 228.469 115.558 228.394C115.658 228.319 115.583 227.598 115.407 226.801C115.155 225.507 115.155 225.333 115.608 224.934C115.885 224.71 116.187 224.263 116.313 223.964C116.615 223.167 118.301 222.769 119.736 223.167C120.768 223.441 120.868 223.416 121.221 222.919C121.447 222.62 122.077 222.147 122.63 221.823C124.745 220.679 124.644 220.803 124.09 220.33C123.562 219.882 123.461 219.26 123.788 218.712C123.914 218.563 124.896 218.314 126.003 218.165C128.772 217.816 128.973 217.767 133.781 216.373C141.181 214.233 147.046 211.719 154.672 207.388C158.398 205.298 160.411 204.004 162.475 202.411C163.18 201.888 164.539 200.868 165.521 200.171C169.775 197.085 171.738 195.243 182.712 184.118C183.568 183.272 184.424 182.575 184.625 182.575C184.852 182.575 185.204 182.475 185.456 182.351C185.682 182.226 186.991 181.604 188.325 180.982C190.263 180.061 191.17 179.464 192.629 178.02C194.568 176.154 196.606 173.242 198.217 170.106C198.721 169.11 199.652 167.592 200.281 166.771C201.892 164.68 202.773 162.689 203.377 159.802C204.434 154.85 205.164 153.207 206.322 153.207C206.725 153.207 207.581 153.033 208.235 152.834C210.803 152.062 213.747 152.386 216.592 153.705C218.203 154.476 219.109 155.148 221.122 157.065C222.482 158.409 223.665 159.354 223.715 159.205C223.765 159.056 224.319 158.583 224.923 158.185C226.735 156.94 226.886 156.193 225.628 154.7C224.848 153.804 224.923 153.207 225.88 152.734C226.559 152.41 226.761 152.485 229.479 153.829C232.726 155.422 233.154 155.472 235.117 154.252C236.678 153.282 237.71 152.958 239.396 152.958C240.202 152.958 240.906 152.858 240.982 152.734C241.208 152.386 239.27 150.37 237.408 149.026C235.444 147.582 231.216 145.616 227.793 144.546C223.312 143.152 215.308 142.53 210.803 143.227C206.901 143.849 202.798 145.74 199.728 148.354C198.972 148.976 197.387 149.971 196.153 150.569C194.945 151.166 193.46 152.012 192.856 152.435C191.396 153.506 189.685 155.721 187.897 158.956C185.557 163.162 183.971 164.855 183.115 164.158C182.033 163.287 182.536 160.648 184.298 158.01C185.632 155.994 188.074 152.933 189.005 152.112C190.213 151.042 189.08 149.673 186.815 149.474L185.38 149.349L185.305 148.055C185.204 146.512 185.531 145.815 187.419 143.376C188.149 142.405 188.98 141.136 189.257 140.514C189.987 138.871 191.094 134.591 190.918 134.043C190.842 133.769 190.289 133.197 189.71 132.749C188.753 132.002 188.527 131.928 186.815 131.903C185.28 131.903 184.877 131.803 184.6 131.43C183.769 130.31 183.971 128.468 185.28 125.706C185.959 124.212 186.362 122.52 186.186 121.798C185.984 121.051 184.701 120.355 183.518 120.355C182.511 120.355 181.831 119.658 181.605 118.388C181.454 117.492 181.554 117.144 182.612 115.228C183.845 113.013 184.499 111.121 184.499 109.727C184.499 108.831 184.273 108.159 183.996 108.159C183.87 108.159 182.914 109.254 181.831 110.574C180.749 111.917 178.836 114.133 177.578 115.501C176.319 116.87 174.784 118.612 174.18 119.359C173.55 120.106 172.871 120.927 172.644 121.176C172.292 121.549 171.738 122.545 169.875 126.079C168.063 129.513 165.949 135.91 165.496 139.27C165.068 142.53 165.068 149.523 165.496 154.476C165.898 158.981 165.924 159.927 165.622 162.192C165.445 163.61 165.244 165.626 165.194 166.646C165.093 168.364 165.017 168.588 164.288 169.285C163.834 169.708 162.802 170.828 161.972 171.773C160.336 173.64 158.372 175.382 155.956 177.05C155.125 177.647 154.245 178.294 154.043 178.468C153.112 179.265 148.38 181.38 145.737 182.202C140.829 183.67 137.783 183.446 129.88 180.957C128.42 180.484 126.809 180.061 126.28 179.962C125.752 179.887 125.122 179.613 124.871 179.364C124.619 179.115 123.939 178.643 123.335 178.319C122.706 177.995 121.976 177.323 121.674 176.851C120.592 175.183 120.566 175.183 117.647 174.984C115.759 174.86 114.601 174.66 113.972 174.337C112.134 173.416 112.915 173.068 116.287 173.242C117.571 173.292 118.83 173.416 119.081 173.491C119.66 173.69 119.66 173.59 119.182 172.47C118.981 171.997 118.83 171.549 118.83 171.5C118.805 171.425 118.528 170.828 118.2 170.156C117.496 168.812 116.564 167.941 114.601 166.846C113.091 165.999 112.764 165.551 112.764 164.307C112.764 163.834 112.663 163.361 112.512 163.287C112.386 163.212 111.329 162.988 110.196 162.814C107.654 162.391 106.547 161.992 106.899 161.644C107.05 161.495 107.377 161.495 107.755 161.619C108.082 161.744 109.038 161.793 109.844 161.719C111.102 161.619 111.555 161.445 112.688 160.574L114.022 159.553L112.713 159.255C111.404 158.956 108.61 158.533 106.547 158.309C105.993 158.259 104.608 157.911 103.476 157.537C101.185 156.791 100.732 156.368 98.0389 152.51C95.0184 148.105 92.3252 144.944 90.2361 143.301C89.4054 142.654 89.3048 142.48 89.6068 142.256C90.1605 141.908 93.0552 141.957 94.5905 142.356C95.3205 142.555 96.6545 142.804 97.5607 142.878C99.524 143.102 99.9519 142.853 99.7505 141.634C99.6246 140.862 99.7001 140.738 100.329 140.489C101.613 139.991 101.814 139.842 101.739 139.394C101.689 139.145 101.915 138.672 102.268 138.299C102.595 137.95 103.148 137.129 103.526 136.482L104.155 135.312L103.3 134.79C102.268 134.143 101.361 132.948 101.487 132.376C101.538 132.127 102.041 131.778 102.695 131.554C103.425 131.305 103.853 131.007 103.929 130.683C103.979 130.409 104.457 129.713 104.986 129.115C106.068 127.97 106.471 127.149 106.471 126.153C106.471 125.78 106.672 125.282 106.924 125.009C107.226 124.66 107.251 124.486 107.05 124.411C106.874 124.362 106.169 123.864 105.464 123.291C104.004 122.147 103.702 121.35 104.306 120.33L104.734 119.608L103.954 119.459L103.174 119.284L103.35 117.866C103.476 116.771 103.4 116.223 103.098 115.601C102.872 115.178 102.695 114.605 102.695 114.332C102.695 114.083 102.494 113.859 102.268 113.834C102.016 113.834 101.663 113.784 101.512 113.784C101.336 113.759 101.034 113.585 100.808 113.361C100.455 113.013 100.455 112.888 100.833 112.017C101.059 111.494 101.538 110.673 101.89 110.175C102.57 109.329 102.62 108.931 102.469 106.417C102.444 106.069 102.469 105.571 102.494 105.297C102.544 104.949 102.444 104.824 102.192 104.899C101.412 105.073 100.506 104.974 98.6682 104.501C96.6042 103.978 96.5287 103.854 97.0321 102.087C97.2334 101.39 97.2083 101.365 96.428 101.514C95.6729 101.664 95.6477 101.664 95.6477 100.718C95.6477 99.6476 94.7667 98.1295 94.062 98.005C93.7851 97.9552 93.2565 98.2788 92.7279 98.8263Z" fill="#F08300" stroke="white" stroke-width="4" mask="url(#path-2-inside-2_119_3)"/>
</svg>
