<svg width="674" height="224" viewBox="0 0 674 224" fill="none" xmlns="http://www.w3.org/2000/svg">
<g clip-path="url(#clip0_119_2)">
<path d="M101.924 43.8713C96.3037 47.4836 90.8538 52.1095 86.1735 57.27C87.2126 56.0353 88.2966 54.7941 89.4277 53.5417C89.4277 53.5417 75.1804 63.7789 67.4309 85.6753C65.1184 92.0683 62.9356 98.3936 62.7121 104.482C62.4478 111.678 63.4394 122.058 67.0906 131.734C67.1666 139.335 73.6802 144.874 74.199 151.881C75.2274 159.042 83.1379 163.127 85.2583 165.26C85.708 167.284 89.2562 165.758 90.8444 167.915C94.8382 163.431 101.91 172.978 102.499 163.777C103.475 164.155 106.355 164.572 106.663 162.54C106.035 159.519 109.708 156.256 108.403 152.148C106.955 150.674 107.44 152.367 104.751 149.874C101.815 146.193 98.5148 147.887 97.7357 145.41C94.4669 143.486 95.9586 142.079 90.4611 140.031C86.0874 133.492 82.3442 126.793 80.6871 119.284C79.1382 114.171 79.0112 99.7253 81.2336 93.7078C85.9497 81.0428 79.4354 103.383 83.5851 93.2723C90.0878 83.9243 87.0789 75.1727 101.282 64.039C105.986 59.7806 115.603 56.431 122.859 53.9424C131.705 48.4947 142.577 51.2855 152.146 52.0877C156.6 53.5116 150.442 52.6441 143.47 52.79C140.334 52.2247 133.157 52.2749 140.334 53.1295C152.747 54.5709 165.663 57.2403 175.864 64.8967C176.476 72.041 183.08 75.2289 187.533 79.859C193.001 87.5377 195.847 96.6917 198.712 105.572C199.263 112.988 198.328 121.606 194.968 129.365C193.106 135.751 190.495 141.056 188.897 143.316C191.805 139.661 194.39 134.94 196.608 131.345C195.603 136.743 200.331 123.306 200.67 120.42C202.135 117.582 201.381 102.354 202.958 112.231C204.394 126.183 195.404 138.165 188.181 149.22C181.479 158.271 172.91 166.625 161.852 169.86C155.557 173.629 151.078 179.265 143.294 181.025C139.819 182.807 131.769 184.886 131.24 186.483C134.958 185.99 137.665 185.263 132.469 186.888C129.851 187.602 126.081 190.311 131.208 188.42C151.993 183.66 171.278 173.191 187.055 158.914C180.377 169.7 169.225 176.253 158.467 182.284C158.941 184.246 170.559 178.024 162.922 182.296C158.646 184.726 147.097 187.796 147.02 189.884C162.328 186.68 176.075 178.22 186.833 166.987C194.382 160.089 200.126 151.336 203.857 141.838C209.722 137.335 202.213 148.539 200.901 150.865C198.798 153.768 196.124 158.969 200.24 153.679C202.032 149.306 206.005 150.941 206.631 149.391C209.016 142.171 213.368 135.993 216.821 129.421C218.235 119.117 216.393 108.623 214.9 98.4109C212.753 88.0043 210.11 77.3697 203.351 68.8859C197.605 60.4491 192.013 50.8503 181.773 47.3407C177.793 45.4532 171.595 41.8666 168.853 41.2506C171.544 43.1967 179.608 46.9975 178.907 49.0355C169.88 44.4524 160.406 39.9997 150.888 36.7065C154.834 37.554 159.669 35.8818 152.604 34.8847C149.234 34.371 145.823 34.0701 142.416 34.1226C128.363 34.3392 113.057 39.1541 101.925 43.8711L101.924 43.8713ZM77.2099 69.5762C75.1805 73.2095 73.6438 76.9148 72.7676 80.5723C71.2221 85.1271 69.5945 88.9082 68.1102 92.5379C69.7627 84.3498 72.7263 76.9144 77.2099 69.5762ZM186.647 74.4334C193.124 80.6597 197.979 88.6273 199.809 97.2903C202.297 101.723 199.959 102.81 198.233 97.9326C194.104 90.2333 190.702 82.1672 186.647 74.4334Z" fill="#A03131"/>
</g>
<path d="M185.871 113.85C185.3 114.558 184.342 114.98 182.999 115.116C181.72 115.189 180.248 115.198 178.583 115.144C178.263 115.146 177.911 115.149 177.527 115.151C177.207 115.153 176.887 115.155 176.567 115.157C172.535 115.182 168.504 115.336 164.474 115.617C160.508 115.898 156.829 116.177 153.439 116.455C153.382 117.607 153.326 118.823 153.27 120.104C153.214 121.384 153.093 122.537 152.908 123.562C154.958 123.997 157.038 123.952 159.147 123.427C161.319 122.837 163.108 122.314 164.513 121.857C166.116 122.295 167.847 122.732 169.706 123.168C171.564 123.605 173.36 124.201 175.093 124.958C176.826 125.716 178.305 126.794 179.529 128.195C179.281 129.412 178.518 130.185 177.24 130.513C175.962 130.777 174.683 131.073 173.405 131.401C172.132 132.433 171.309 133.846 170.936 135.641C170.563 137.371 170.255 139.197 170.011 141.119C169.766 142.976 169.201 144.708 168.315 146.314C168.444 146.377 168.636 146.472 168.893 146.598C169.599 146.913 170.145 147.262 170.532 147.644C170.982 148.025 171.178 148.696 171.12 149.656C166.196 150.199 161.173 150.455 156.053 150.423C150.933 150.455 146.038 150.678 141.369 151.091C140.666 151.288 140.157 151.675 139.84 152.253C139.588 152.895 139.111 153.314 138.408 153.51C136.548 152.818 135.005 151.803 133.781 150.467C132.557 149.195 131.301 147.923 130.013 146.651C130.576 144.663 130.85 142.389 130.834 139.829C130.882 137.269 130.546 134.839 129.828 132.54C129.173 130.24 128.01 128.487 126.339 127.282C126.078 126.515 126.139 126.003 126.521 125.744C126.967 125.422 127.35 125.227 127.669 125.161C129.4 125.598 131.289 125.746 133.336 125.605C135.383 125.465 137.558 125.291 139.861 125.084C140.948 124.949 142.067 124.814 143.219 124.679C144.37 124.544 145.553 124.44 146.769 124.369L146.53 116.978C145.634 116.984 144.675 117.054 143.651 117.188C142.692 117.258 141.668 117.361 140.581 117.496C138.151 117.767 135.592 117.943 132.904 118.024C130.281 118.105 127.813 117.512 125.501 116.247C124.686 119.004 123.619 122.211 122.298 125.867C120.976 129.459 119.431 133.085 117.662 136.744C115.893 140.34 113.961 143.584 111.867 146.477C109.773 149.37 107.515 151.465 105.091 152.76C104.644 153.019 103.876 153.024 102.787 152.774C101.698 152.589 101.055 152.177 100.859 151.538C103.081 148.644 104.985 146.104 106.571 143.918C108.157 141.668 109.135 139.518 109.506 137.468C111.337 133.424 113.072 129.381 114.71 125.339C116.349 121.296 117.73 117.064 118.854 112.64C119.978 108.217 120.62 103.381 120.779 98.132C120.777 97.748 120.774 97.364 120.772 96.98C120.833 96.5316 120.862 96.0834 120.859 95.6354C120.975 93.7147 120.995 91.7945 120.919 89.8749C120.907 87.955 120.575 86.133 119.924 84.4091C119.337 82.6207 118.207 80.9318 116.533 79.3423C116.273 78.832 116.11 78.353 116.043 77.9054C116.04 77.3934 116.037 76.8814 116.034 76.3694C116.033 76.1774 116.032 76.0494 116.031 75.9854C121.666 76.462 127.044 76.6201 132.163 76.4599C137.345 76.2352 142.688 75.9456 148.19 75.5909C150.685 75.4472 153.244 75.3031 155.867 75.1585C158.49 74.95 161.209 74.8049 164.024 74.7232C164.728 74.5907 165.174 74.2999 165.363 73.8507C165.616 73.3371 166.029 72.9825 166.604 72.7869C168.591 73.2224 170.674 73.6573 172.853 74.0916C175.031 74.4618 176.987 75.1215 178.721 76.0706C180.455 77.0197 181.585 78.6447 182.112 80.9454C181.92 80.9466 181.664 80.9802 181.345 81.0462C181.089 81.1118 180.834 81.2094 180.578 81.339C180.003 81.4707 179.428 81.6023 178.853 81.7339C178.278 81.8655 177.765 81.7728 177.315 81.4556C176.04 82.2956 175.024 83.5501 174.267 85.2189C173.573 86.8233 172.944 88.5873 172.38 90.5109C171.88 92.37 171.251 94.134 170.493 95.8028C170.558 95.8664 170.622 95.962 170.687 96.0896C170.945 96.472 171.14 96.8548 171.27 97.238C171.465 97.6208 171.467 98.0368 171.278 98.486C169.103 98.6917 167.184 98.8317 165.521 98.9062C163.857 98.9167 162.225 98.927 160.625 98.9371C159.217 98.9459 157.713 98.9554 156.113 98.9655C154.577 98.9751 152.85 99.082 150.931 99.2861C151.574 99.8581 152.348 100.717 153.251 101.864C154.218 102.945 154.866 104.189 155.195 105.595C155.523 107.001 155.117 108.476 153.974 110.019C154.616 110.271 155.801 110.36 157.528 110.285C159.255 110.146 161.142 109.942 163.188 109.673C165.234 109.34 167.056 109.009 168.654 108.679C170.316 108.284 171.369 107.894 171.815 107.507C173.546 108.008 175.341 108.477 177.2 108.913C179.058 109.285 180.758 109.85 182.299 110.609C183.839 111.303 185.03 112.384 185.871 113.85ZM164.541 80.48C160.638 80.6326 156.831 80.8486 153.12 81.128C149.474 81.4069 145.796 81.7181 142.086 82.0615C139.719 82.2684 137.417 82.4749 135.178 82.681C132.939 82.8231 130.894 83.284 129.042 84.0637C129.109 84.4472 129.143 84.831 129.146 85.215C129.212 85.5986 129.279 86.0142 129.346 86.4618C129.482 87.805 129.587 89.2123 129.66 90.6839C129.797 92.0911 129.711 93.6276 129.401 95.2936C133.178 95.3338 136.729 95.2475 140.056 95.0345C143.382 94.7576 146.74 94.4484 150.13 94.1071C152.113 93.9026 154.128 93.6979 156.174 93.493C158.285 93.2877 160.492 93.1138 162.795 92.9713C163.553 91.3025 164.02 89.2515 164.197 86.8183C164.373 84.3852 164.488 82.2724 164.541 80.48ZM161.966 128.977C157.483 128.557 153.1 128.681 148.816 129.348C144.532 129.951 140.728 130.615 137.404 131.34C137.602 132.235 137.771 133.642 137.911 135.561C138.051 137.416 138.159 139.303 138.235 141.223C138.374 143.078 138.479 144.485 138.549 145.445C141.814 145.616 145.367 145.626 149.206 145.474C153.045 145.322 156.755 145.01 160.336 144.54C161.153 142.103 161.617 139.636 161.729 137.139C161.841 134.578 161.92 131.858 161.966 128.977ZM146.394 110.547C146.505 107.986 146.236 105.908 145.586 104.312C145 102.716 144.191 101.281 143.159 100.007C141.178 100.468 138.908 100.802 136.349 101.01C133.855 101.218 131.36 101.521 128.867 101.921C128.621 103.587 128.217 105.477 127.655 107.593C127.092 109.644 126.749 111.151 126.627 112.111C128.288 111.653 129.951 111.386 131.614 111.312C133.278 111.238 135.005 111.195 136.797 111.183C138.269 111.11 139.773 111.069 141.309 111.059C142.908 110.985 144.603 110.814 146.394 110.547ZM251.33 116.638C250.905 116.854 250.458 117.049 249.99 117.223C249.564 117.353 249.053 117.463 248.456 117.552C247.608 118.368 247.189 119.63 247.2 121.336C247.21 123 247.285 124.749 247.425 126.583C247.47 127.009 247.515 127.457 247.561 127.926C247.606 128.353 247.63 128.779 247.633 129.206C247.826 132.661 247.911 136.116 247.89 139.572C247.87 143.028 247.547 146.081 246.924 148.731C246.584 148.989 246.201 149.098 245.774 149.058C245.347 149.018 244.899 148.957 244.429 148.874C244.172 148.791 243.916 148.728 243.66 148.687C243.446 148.646 243.211 148.626 242.955 148.628C242.782 148.202 242.524 147.884 242.181 147.672C241.881 147.461 241.645 147.142 241.471 146.717C239.08 146.476 236.371 146.45 233.343 146.64C230.357 146.787 227.393 146.976 224.45 147.208C223.725 147.298 223 147.367 222.275 147.414C221.55 147.461 220.847 147.508 220.164 147.555C219.866 147.6 219.675 147.75 219.591 148.007C219.507 148.263 219.359 148.477 219.147 148.649C217.95 148.316 216.774 147.79 215.617 147.072C214.46 146.354 213.581 145.548 212.978 144.656C212.633 144.189 212.503 143.806 212.587 143.507C212.67 143.165 212.817 142.823 213.028 142.48C213.112 142.309 213.197 142.138 213.281 141.966C213.365 141.795 213.449 141.624 213.534 141.453C213.868 140.427 214.075 139.295 214.152 138.057C214.23 136.819 214.307 135.581 214.385 134.343C214.462 133.105 214.669 132.016 215.004 131.075C214.918 130.905 214.768 130.821 214.555 130.822C214.384 130.78 214.255 130.675 214.169 130.504C214.546 129.521 214.687 128.133 214.59 126.342C214.536 124.55 214.44 122.823 214.302 121.159C214.257 120.861 214.213 120.584 214.169 120.328C214.167 120.03 214.165 119.752 214.163 119.496C213.349 118.904 212.705 118.268 212.231 117.588C211.8 116.908 211.454 116.079 211.192 115.099C211.871 114.583 212.85 114.171 214.128 113.864C215.449 113.557 216.919 113.335 218.54 113.197C220.16 113.058 221.739 113.027 223.275 113.103C223.566 111.778 223.558 110.52 223.251 109.327C222.988 108.134 222.704 107.048 222.399 106.068C222.313 105.898 222.248 105.749 222.204 105.621C222.16 105.451 222.117 105.302 222.073 105.174C221.095 105.65 220.115 105.891 219.134 105.897C218.195 105.903 217.298 105.716 216.442 105.338C215.458 104.875 214.6 104.176 213.869 103.242C213.137 102.265 212.64 101.116 212.375 99.7952C213.184 99.4914 213.952 99.4439 214.678 99.6527C215.405 99.8188 216.132 100.049 216.859 100.343C217.286 100.511 217.736 100.679 218.206 100.846C218.676 101.014 219.168 101.118 219.68 101.157C221.43 101.317 223.329 101.39 225.377 101.377C227.425 101.364 229.473 101.266 231.52 101.083C233.609 100.899 235.528 100.673 237.276 100.406C238.341 100.229 239.343 100.031 240.28 99.8114C241.26 99.5919 242.047 99.1816 242.64 98.5805C243.88 98.9141 245.205 99.3537 246.617 99.8995C248.07 100.402 249.143 101.27 249.833 102.503C247.489 102.945 245.102 103.237 242.67 103.38C240.239 103.524 237.681 103.839 234.996 104.325C235.261 105.688 235.376 107.053 235.342 108.419C235.351 109.784 235.444 111.063 235.622 112.257C235.878 112.17 236.112 112.126 236.325 112.125C236.581 112.123 236.837 112.143 237.094 112.184C237.307 112.182 237.499 112.203 237.67 112.244C237.883 112.243 238.097 112.22 238.31 112.176C238.523 112.132 238.693 112.003 238.819 111.789C238.988 111.532 239.158 111.381 239.328 111.338C239.584 111.251 240.074 111.162 240.799 111.072C241.566 110.94 242.184 110.85 242.653 110.805C242.952 110.845 243.23 110.972 243.488 111.183C243.745 111.395 243.959 111.543 244.13 111.627C244.771 111.794 245.498 111.96 246.31 112.126C247.164 112.248 247.976 112.499 248.746 112.878C249.559 113.257 250.203 113.872 250.678 114.722C250.722 114.978 250.638 115.149 250.425 115.236C250.255 115.28 250.148 115.323 250.106 115.366C250.192 115.493 250.385 115.62 250.684 115.746C250.856 115.83 251.006 115.936 251.134 116.063C251.263 116.191 251.328 116.382 251.33 116.638ZM242.275 132.12C242.305 130.071 242.229 128.066 242.045 126.105C241.905 124.1 241.68 122.31 241.372 120.733C241.327 120.435 241.261 120.136 241.174 119.838C241.087 119.54 241.021 119.263 240.977 119.007C240.802 118.411 240.65 117.857 240.518 117.346C240.429 116.792 240.49 116.28 240.701 115.809C239.629 115.005 237.878 114.824 235.449 115.266C235.455 116.162 235.418 117.144 235.34 118.211C235.261 119.235 235.225 120.26 235.231 121.284C235.237 122.222 235.307 123.118 235.44 123.97C235.616 124.78 235.898 125.525 236.286 126.205C237.354 126.412 238.317 126.939 239.176 127.787C240.035 128.635 240.83 129.505 241.561 130.396C240.966 130.784 240.327 131.001 239.645 131.048C239.005 131.095 238.386 131.056 237.788 130.932C237.104 130.808 236.463 130.62 235.864 130.368C235.265 130.116 234.731 129.948 234.261 129.866C233.317 129.019 232.67 127.977 232.321 126.742C232.015 125.507 231.836 124.206 231.785 122.841C231.781 122.244 231.777 121.647 231.773 121.049C231.769 120.409 231.787 119.791 231.826 119.193C231.865 118.595 231.882 117.998 231.878 117.401C231.874 116.761 231.871 116.142 231.867 115.545C231.525 115.504 231.163 115.506 230.779 115.552C230.395 115.554 229.989 115.557 229.563 115.559C229.264 115.561 228.944 115.584 228.603 115.629C228.262 115.631 227.899 115.634 227.515 115.636C227.31 116.875 227.169 118.241 227.093 119.735C227.017 121.229 226.791 122.66 226.416 124.027C226.291 124.455 226.103 125.075 225.852 125.887C225.643 126.656 225.392 127.404 225.098 128.132C224.804 128.816 224.508 129.245 224.21 129.417L223.761 129.228C223.676 129.357 223.657 129.613 223.702 129.996C223.703 130.21 223.683 130.445 223.642 130.701C223.643 130.914 223.495 131.064 223.197 131.152C222.768 130.813 222.212 130.539 221.528 130.33C220.843 130.078 220.266 129.805 219.794 129.509C220.515 128.736 221.086 127.901 221.507 127.002C221.97 126.061 222.326 125.056 222.576 123.987C222.867 122.834 223.052 121.616 223.129 120.336C223.248 119.012 223.325 117.689 223.36 116.366C223.232 116.41 223.083 116.453 222.913 116.497C222.785 116.498 222.678 116.52 222.593 116.563C222.253 116.693 221.933 116.781 221.635 116.825C221.379 116.869 221.037 116.808 220.609 116.64C219.929 116.943 219.42 117.5 219.084 118.313C218.79 119.083 218.604 119.959 218.525 120.941C218.444 121.752 218.428 122.627 218.477 123.565C218.526 124.504 218.574 125.442 218.623 126.38C218.67 127.148 218.718 127.894 218.765 128.62C218.812 129.302 218.816 129.963 218.777 130.603C218.74 131.457 218.659 132.076 218.533 132.461C218.45 132.803 218.411 133.464 218.418 134.446C219.357 134.611 220.275 134.711 221.172 134.748C222.068 134.743 222.963 134.695 223.859 134.604C225.308 134.466 226.844 134.371 228.465 134.319C230.128 134.223 231.514 134.043 232.622 133.78C233.133 133.649 233.901 133.644 234.926 133.766C235.95 133.845 236.933 134.052 237.874 134.387C238.857 134.68 239.499 135.081 239.801 135.591C239.888 135.847 239.954 136.081 239.998 136.294C240.042 136.507 239.914 136.614 239.616 136.616C238.847 136.579 237.888 136.627 236.737 136.762C235.585 136.898 234.328 137.055 232.963 137.234C232.495 137.323 232.005 137.411 231.493 137.5C230.981 137.545 230.47 137.591 229.958 137.637C228.039 137.863 226.099 138.024 224.137 138.122C222.175 138.22 220.446 138.145 218.951 137.899C218.952 138.069 218.933 138.304 218.892 138.603C218.769 139.457 218.689 140.354 218.653 141.292C218.616 142.231 218.749 143.105 219.053 143.914C221.954 143.81 225.153 143.705 228.651 143.598C232.149 143.448 235.434 143.363 238.506 143.343C239.061 143.34 239.553 143.55 239.982 143.974C240.411 144.355 240.754 144.545 241.01 144.544C241.468 142.877 241.776 140.955 241.933 138.778C242.133 136.6 242.247 134.381 242.275 132.12ZM210.478 123.68C210.18 123.852 209.926 124.11 209.714 124.452C209.503 124.752 209.227 125.01 208.887 125.226C207.179 124.895 205.66 124.329 204.333 123.526C203.004 122.681 201.762 121.793 200.604 120.862C200.555 119.966 200.316 119.221 199.886 118.626C199.498 117.989 199.067 117.415 198.595 116.906C198.036 116.312 197.457 115.74 196.856 115.189C196.297 114.595 195.909 113.936 195.691 113.213C197.571 113.627 199.408 113.936 201.201 114.138C202.995 114.34 204.513 114.906 205.756 115.837C206.442 116.302 206.979 116.896 207.367 117.619C207.798 118.299 208.187 119.022 208.533 119.788C208.836 120.469 209.118 121.149 209.378 121.83C209.681 122.469 210.047 123.085 210.478 123.68ZM209.638 132.709C209.853 132.921 209.922 133.71 209.845 135.076C209.811 136.441 209.629 137.979 209.298 139.687C209.01 141.268 208.55 142.807 207.919 144.304C207.289 145.801 206.422 146.98 205.318 147.841C204.506 147.632 203.821 147.274 203.263 146.765C202.748 146.257 202.084 145.92 201.272 145.754C201.31 144.943 201.135 144.283 200.748 143.773C200.403 143.221 199.994 142.69 199.522 142.181C199.221 141.884 198.942 141.587 198.684 141.29C198.426 140.993 198.211 140.653 198.038 140.27C198.675 139.754 199.506 139.664 200.532 139.999C201.558 140.291 202.499 140.648 203.355 141.069C203.612 141.195 203.847 141.3 204.061 141.384C204.318 141.468 204.553 141.552 204.767 141.636C205.825 140.392 206.691 138.957 207.364 137.331C208.079 135.706 208.837 134.165 209.638 132.709ZM211.841 106.455C210.819 106.717 209.858 106.659 208.96 106.281C208.104 105.902 207.312 105.374 206.582 104.696C205.637 103.763 204.798 102.659 204.065 101.384C203.374 100.108 202.855 98.9378 202.507 97.8733C203.874 98.1633 205.263 98.5813 206.675 99.1271C208.086 99.6302 209.264 100.348 210.209 101.281C210.853 101.917 211.327 102.66 211.631 103.512C211.977 104.363 212.047 105.344 211.841 106.455ZM231.591 112.346C231.546 112.005 231.522 111.643 231.52 111.259C231.517 110.875 231.536 110.491 231.577 110.106C231.571 109.21 231.544 108.272 231.495 107.291C231.446 106.31 231.227 105.415 230.838 104.607C230.241 104.653 229.537 104.679 228.726 104.684C227.958 104.689 227.062 104.695 226.038 104.701C226.896 105.421 227.392 106.25 227.526 107.188C227.66 108.126 227.688 109.15 227.609 110.259C227.612 110.643 227.614 111.027 227.617 111.411C227.619 111.795 227.622 112.201 227.624 112.627C228.008 112.54 228.349 112.495 228.648 112.493C228.989 112.491 229.309 112.489 229.607 112.487C229.906 112.485 230.205 112.483 230.503 112.481C230.845 112.436 231.207 112.391 231.591 112.346ZM315.708 145.993C315.709 146.164 315.668 146.335 315.583 146.506C315.457 146.678 315.436 146.87 315.523 147.083C314.887 147.641 313.885 147.861 312.519 147.741C311.153 147.665 309.766 147.524 308.356 147.32C307.801 147.238 307.267 147.156 306.755 147.074C306.285 147.034 305.816 146.994 305.346 146.955C304.151 146.877 302.785 146.864 301.25 146.916C299.714 147.011 298.286 147.127 296.964 147.263C296.537 147.266 296.111 147.29 295.684 147.335C295.301 147.381 294.938 147.404 294.597 147.406C294 147.453 293.402 147.478 292.805 147.482C292.25 147.485 291.696 147.489 291.141 147.492C289.947 147.5 288.795 147.528 287.686 147.578C286.577 147.67 285.49 147.848 284.425 148.11C284.297 148.154 284.106 148.219 283.85 148.306C283.595 148.393 283.297 148.48 282.956 148.568C282.658 148.655 282.295 148.657 281.868 148.574C281.148 149.39 280.255 149.865 279.189 149.999C278.123 150.134 277.034 149.992 275.922 149.572C274.81 149.195 273.826 148.668 272.968 147.991C272.882 147.906 272.647 147.865 272.263 147.867C272.05 147.868 271.922 147.848 271.879 147.805C271.879 147.805 271.857 147.763 271.814 147.678C271.685 147.465 271.469 147.125 271.168 146.658C270.866 146.233 270.545 146.043 270.204 146.088C270.541 145.446 271.009 145.123 271.606 145.119C272.203 145.115 272.801 145.154 273.399 145.236C273.612 145.277 273.826 145.318 274.039 145.36C274.296 145.401 274.509 145.421 274.68 145.42C275.576 145.414 276.492 145.302 277.43 145.082C278.367 144.82 279.347 144.644 280.37 144.552C281.863 144.372 283.44 144.191 285.103 144.01C286.809 143.829 288.515 143.711 290.221 143.658C290.305 143.401 290.345 143.081 290.343 142.697C290.34 142.27 290.316 141.822 290.27 141.353C290.268 140.927 290.244 140.479 290.198 140.01C290.195 139.498 290.213 138.964 290.252 138.409C288.207 138.849 286.289 139.16 284.498 139.342C282.707 139.481 281.105 139.299 279.694 138.796C278.283 138.25 277.081 137.212 276.09 135.683C278.181 135.627 280.441 135.506 282.872 135.32C285.346 135.091 287.819 134.819 290.291 134.505C290.412 133.395 290.278 132.457 289.89 131.692C289.333 131.354 288.67 131.187 287.902 131.192C287.177 131.197 286.474 131.393 285.794 131.781C285.623 131.783 285.453 131.805 285.283 131.849C285.155 131.849 285.005 131.85 284.835 131.851C283.47 131.945 282.147 131.975 280.867 131.94C279.587 131.863 278.41 131.337 277.337 130.363C277.121 129.98 276.906 129.597 276.69 129.215C276.474 128.789 276.258 128.385 276.042 128.003C277.369 128.592 278.606 128.648 279.755 128.171C280.904 127.695 281.924 126.963 282.813 125.976C283.746 124.989 284.572 124.045 285.292 123.144C285.461 122.93 285.588 122.78 285.673 122.694C284.605 122.487 283.58 122.323 282.598 122.201C281.616 122.08 280.718 121.851 279.905 121.514C279.135 121.135 278.47 120.542 277.91 119.735C276.828 124.136 275.596 128.326 274.213 132.302C272.873 136.236 271.168 139.98 269.1 143.535C268.844 143.494 268.8 143.366 268.969 143.152C269.138 142.895 269.265 142.744 269.351 142.701C269.349 142.488 269.199 142.361 268.9 142.32C268.601 142.279 268.451 142.174 268.45 142.003C267.986 142.859 267.714 143.65 267.633 144.376C267.595 145.102 267.194 145.787 266.43 146.432C266.9 146.514 267.24 146.384 267.452 146.041C267.663 145.699 267.852 145.335 268.021 144.95C268.104 144.693 268.188 144.458 268.272 144.244C268.399 143.987 268.547 143.837 268.717 143.793C268.848 144.134 268.807 144.497 268.596 144.882C268.428 145.224 268.195 145.589 267.899 145.974C267.645 146.317 267.392 146.682 267.138 147.067C266.927 147.453 266.823 147.837 266.825 148.221C266.228 148.225 265.738 148.399 265.357 148.742C264.975 149.086 264.657 149.451 264.403 149.837C264.15 150.222 263.895 150.48 263.64 150.609C263.766 150.31 263.808 150.139 263.765 150.097C263.722 150.054 263.637 150.055 263.509 150.098C263.381 150.099 263.232 150.1 263.061 150.101C262.933 150.102 262.847 149.996 262.803 149.783C262.506 150.083 262.231 150.405 261.977 150.748C261.724 151.133 261.298 151.371 260.702 151.46C260.572 151.247 260.528 151.056 260.57 150.885C260.612 150.756 260.654 150.649 260.696 150.564C260.738 150.478 260.738 150.414 260.695 150.372C260.694 150.329 260.545 150.266 260.245 150.183C260.799 149.966 261.202 149.686 261.456 149.343C261.71 149 261.964 148.636 262.217 148.25C262.471 147.907 262.875 147.627 263.428 147.411C263.298 147.155 263.128 147.135 262.916 147.35C262.831 147.436 262.725 147.522 262.597 147.608C262.47 147.694 262.321 147.695 262.149 147.611C262.232 147.141 262.379 146.841 262.592 146.712C262.847 146.625 263.103 146.559 263.358 146.515C263.7 146.47 263.934 146.405 264.061 146.319C264.016 145.978 263.909 145.808 263.738 145.809C263.567 145.81 263.375 145.832 263.162 145.876C263.077 145.919 263.014 145.941 262.971 145.941C263.098 145.77 263.203 145.599 263.288 145.427C263.414 145.213 263.541 144.999 263.668 144.785C263.878 144.314 264.11 143.908 264.364 143.565C264.66 143.179 265.107 143.048 265.705 143.172C265.746 142.873 265.66 142.724 265.447 142.726C265.404 142.726 265.383 142.726 265.383 142.726C265.383 142.726 265.404 142.726 265.447 142.726C265.916 142.723 266.255 142.422 266.465 141.823C266.717 141.182 266.671 140.627 266.326 140.16C266.54 140.116 266.732 140.158 266.903 140.285C267.032 140.369 267.117 140.411 267.16 140.411C267.202 140.283 267.244 140.154 267.286 140.026C267.328 139.898 267.391 139.791 267.476 139.705C267.56 139.491 267.622 139.277 267.664 139.064C267.748 138.85 267.789 138.572 267.786 138.231C268.085 138.229 268.235 138.271 268.235 138.356C268.236 138.441 268.215 138.548 268.173 138.677C268.047 138.891 268.005 139.04 268.048 139.125C268.176 139.125 268.261 139.017 268.302 138.804C268.386 138.547 268.513 138.44 268.684 138.481C268.641 138.439 268.598 138.375 268.555 138.29C268.511 138.12 268.425 137.992 268.296 137.908C268.21 137.78 268.039 137.76 267.784 137.847C268.08 137.418 268.313 137.097 268.482 136.883C268.651 136.625 268.819 136.283 268.987 135.855C269.155 135.385 269.407 134.701 269.743 133.803C269.572 133.804 269.487 133.932 269.489 134.188C269.533 134.487 269.406 134.573 269.107 134.447C268.975 133.85 269.035 133.295 269.288 132.781C269.583 132.225 269.9 131.69 270.238 131.175C270.365 131.004 270.492 130.832 270.619 130.661C270.746 130.49 270.851 130.318 270.936 130.147C270.722 130.106 270.594 130.192 270.553 130.405C270.554 130.491 270.554 130.555 270.554 130.597C270.675 129.445 270.882 128.355 271.174 127.329C271.466 126.261 271.779 125.235 272.114 124.251C272.701 122.498 273.159 120.725 273.489 118.931C273.819 117.094 273.571 114.962 272.745 112.535C273.249 111.337 273.477 110.333 273.43 109.523C273.424 108.67 273.228 107.945 272.84 107.351C272.452 106.713 272 106.076 271.484 105.439C271.097 104.972 270.688 104.463 270.258 103.911C269.871 103.316 269.546 102.657 269.286 101.933C269.114 101.806 269.135 101.763 269.349 101.804C269.435 101.847 269.541 101.867 269.669 101.866C269.797 101.866 269.882 101.822 269.925 101.737C269.794 101.354 269.665 101.12 269.536 101.035C269.408 100.951 269.321 100.759 269.277 100.461C269.784 99.8176 270.444 99.5361 271.255 99.6164C272.066 99.6539 272.835 99.7557 273.561 99.9218C273.818 100.006 274.053 100.068 274.266 100.109C274.523 100.15 274.758 100.192 274.971 100.233C276.935 100.434 278.983 100.464 281.116 100.322C283.248 100.138 285.359 99.9329 287.448 99.7064C288.088 99.617 288.706 99.5491 289.303 99.5027C289.942 99.4133 290.561 99.3454 291.158 99.299C293.204 99.0728 295.187 98.9323 297.107 98.8775C299.069 98.8225 300.968 98.7679 302.802 98.7137C303.269 98.3267 303.693 97.8974 304.074 97.4256C306.593 97.6658 308.773 98.2494 310.613 99.1765C312.496 100.103 313.786 101.567 314.481 103.568C314.269 103.74 313.928 103.87 313.459 103.959C312.991 104.047 312.691 103.921 312.561 103.58C311.753 103.969 311.138 104.571 310.716 105.384C310.337 106.197 310.044 107.095 309.837 108.078C309.673 109.06 309.487 110.064 309.28 111.089C309.073 112.072 308.716 112.97 308.209 113.784C307.612 113.873 307.122 113.876 306.737 113.793C306.353 113.71 305.924 113.436 305.452 112.969C303.405 113.067 301.229 113.188 298.926 113.33C296.623 113.473 294.341 113.658 292.082 113.885C289.651 114.071 287.22 114.3 284.79 114.571C282.402 114.8 280.356 115.197 278.653 115.762C278.571 116.317 278.468 116.787 278.342 117.172C278.259 117.557 278.156 118.155 278.033 118.966C279.14 118.618 280.568 118.395 282.317 118.299C284.108 118.16 286.049 118.084 288.14 118.07C290.23 118.015 292.32 117.916 294.41 117.775C296.5 117.634 298.397 117.344 300.101 116.907C300.612 116.776 301.016 116.603 301.313 116.387C301.653 116.172 302.037 116.063 302.463 116.06C303.146 116.056 303.851 116.243 304.579 116.623C305.307 117.002 305.95 117.446 306.507 117.955C307.108 118.463 307.474 118.994 307.606 119.548C307.139 120.02 306.48 120.302 305.627 120.392C304.816 120.44 303.921 120.467 302.939 120.473C302.257 120.478 301.553 120.503 300.828 120.551C300.145 120.555 299.506 120.666 298.91 120.883C301.134 121.765 302.955 123.033 304.374 124.688C305.835 126.343 307.211 128.084 308.503 129.91C308.335 130.423 308.275 131.064 308.323 131.832C307.6 132.22 306.961 132.331 306.405 132.164C305.892 131.954 305.356 131.658 304.799 131.278C304.285 130.982 303.708 130.709 303.066 130.457C302.467 130.162 301.741 130.081 300.889 130.214C300.036 130.348 299.162 130.439 298.266 130.487C297.413 130.535 296.369 130.669 295.133 130.891C295.18 131.616 295.162 132.234 295.08 132.747C294.998 133.26 294.895 133.772 294.77 134.285C295.197 134.325 295.602 134.322 295.986 134.277C296.412 134.232 296.818 134.208 297.202 134.206C297.713 134.16 298.204 134.135 298.673 134.132C299.185 134.086 299.718 134.126 300.274 134.25C300.444 134.207 300.487 134.142 300.401 134.057C300.315 133.93 300.207 133.845 300.079 133.804C301.315 133.497 302.723 133.51 304.303 133.841C305.927 134.172 307.338 134.632 308.536 135.222C308.581 135.521 308.582 135.777 308.541 135.99C308.542 136.161 308.543 136.31 308.544 136.438C308.545 136.609 308.546 136.716 308.546 136.758C306.885 137.323 305.031 137.655 302.984 137.753C300.979 137.851 299.102 137.884 297.353 137.853C296.883 137.856 296.435 137.859 296.009 137.861C295.582 137.864 295.177 137.866 294.793 137.869C294.667 138.296 294.606 138.787 294.61 139.342C294.613 139.897 294.617 140.43 294.62 140.942C294.623 141.411 294.626 141.859 294.628 142.286C294.631 142.713 294.591 143.097 294.508 143.439C294.849 143.394 295.211 143.392 295.596 143.432C296.022 143.429 296.47 143.426 296.94 143.423C297.921 143.417 298.945 143.411 300.012 143.404C301.078 143.355 302.058 143.199 302.953 142.938C303.847 142.676 304.548 142.202 305.056 141.516C306.252 141.765 307.534 142.055 308.901 142.388C310.311 142.678 311.637 143.096 312.877 143.643C314.118 144.19 315.062 144.973 315.708 145.993ZM303.703 109.588C303.658 109.204 303.655 108.821 303.695 108.436C303.735 108.009 303.776 107.604 303.816 107.219C303.854 106.451 303.87 105.683 303.865 104.915C303.903 104.147 303.77 103.38 303.467 102.614C301.076 102.373 298.686 102.366 296.299 102.595C293.953 102.78 291.629 103.029 289.327 103.343C288.219 103.478 287.131 103.612 286.066 103.747C284.999 103.839 283.933 103.931 282.867 104.023C282.569 104.068 282.27 104.091 281.972 104.093C281.716 104.095 281.481 104.096 281.268 104.097C280.542 104.102 279.903 104.149 279.349 104.237C278.837 104.326 278.391 104.606 278.01 105.078C278.102 106.144 278.194 107.189 278.286 108.212C278.377 109.236 278.448 110.238 278.496 111.219C280.842 111.076 283.38 110.932 286.11 110.787C288.882 110.599 291.633 110.368 294.362 110.095C297.133 109.822 299.691 109.507 302.036 109.151C302.249 109.149 302.484 109.233 302.742 109.402C302.827 109.487 302.934 109.55 303.063 109.592C303.234 109.634 303.447 109.632 303.703 109.588ZM300.035 126.828C299.73 125.763 299.276 124.827 298.673 124.02C298.071 123.171 297.341 122.535 296.485 122.114C294.859 121.271 292.917 121.155 290.659 121.767C290.367 122.878 289.798 123.884 288.95 124.785C288.145 125.644 287.511 126.693 287.05 127.933C289.309 127.535 291.505 127.372 293.639 127.444C295.815 127.473 297.947 127.267 300.035 126.828ZM444.553 137.502C444.905 139.121 444.786 140.53 444.196 141.728C443.606 142.841 442.758 143.743 441.653 144.432C440.038 145.466 438.079 146.076 435.776 146.261C433.559 146.531 431.597 146.586 429.889 146.426C426.815 146.019 424.163 144.969 421.933 143.276C419.789 141.583 417.899 139.59 416.263 137.296C414.712 134.916 413.204 132.536 411.738 130.156C410.358 127.776 408.852 125.737 407.22 124.041C405.188 126.699 403.325 128.972 401.631 130.86C399.935 132.663 397.559 134.683 394.501 136.921C394.159 136.923 393.902 136.711 393.729 136.286C393.642 136.03 393.513 135.86 393.341 135.776C393.255 135.606 392.999 135.608 392.573 135.781C392.234 136.125 392.365 136.593 392.966 137.187C393.481 137.61 393.654 137.993 393.486 138.335C391.871 139.455 390.172 140.575 388.387 141.696C386.601 142.731 384.858 143.808 383.159 144.929C382.902 144.759 382.943 144.546 383.283 144.288C383.879 144.028 384.09 143.685 383.916 143.26C382.049 144.808 379.878 145.589 377.403 145.605C374.928 145.535 372.408 145.124 369.843 144.372C370.011 143.945 370.351 143.686 370.862 143.598C371.374 143.509 371.971 143.463 372.653 143.459C372.824 143.458 372.952 143.457 373.037 143.456C375.252 142.76 377.165 141.766 378.779 140.476C380.477 139.185 382.262 137.979 384.132 136.858C386.079 134.371 388.113 132.054 390.232 129.908C392.437 127.675 394.47 125.358 396.333 122.957C398.28 120.47 399.798 117.602 400.887 114.352C398.466 109.333 395.579 104.828 392.225 100.839C388.872 96.7636 385.73 92.5166 382.801 88.0977L380.084 83.5067C383.761 84.7635 387.015 86.4924 389.845 88.6933C392.675 90.8942 395.335 93.2668 397.826 95.8112C400.317 98.3556 402.892 100.814 405.552 103.187C407.738 97.8821 409.621 91.9822 411.201 85.4867C412.782 78.9913 413.551 72.373 413.508 65.6318C412.826 65.8068 412.059 65.9396 411.207 66.0303C410.353 66.0357 409.457 66.084 408.519 66.1753C406.557 66.2729 404.638 66.4557 402.763 66.7235C400.887 66.9913 399.527 67.7679 398.681 69.0533C396.547 68.9814 394.709 68.3103 393.165 67.04C391.706 65.7691 390.416 64.2839 389.296 62.5842C388.176 60.8846 387.057 59.3129 385.939 57.8693C386.535 57.6949 386.875 57.4794 386.959 57.2229C387.128 56.9658 387.212 56.7519 387.211 56.5813C387.293 56.0687 387.504 55.7687 387.845 55.6812C388.185 55.5084 388.698 55.5905 389.382 55.9276C390.152 56.1787 390.965 56.5149 391.821 56.9362C392.506 57.2733 393.233 57.61 394.003 57.9465C394.773 58.1977 395.457 58.364 396.054 58.4456C397.677 58.6914 399.299 58.7238 400.919 58.543C402.624 58.2762 404.329 57.9668 406.033 57.6147C407.397 57.3501 408.718 57.1285 409.997 56.9498C411.276 56.771 412.513 56.7206 413.708 56.7984C414.131 56.1984 414.469 55.5562 414.72 54.872C414.972 54.1877 415.395 53.673 415.991 53.328C420.689 54.1517 424.582 55.7912 427.67 58.2465C430.757 60.7018 432.996 63.8451 434.385 67.6764C433.108 68.0258 431.744 68.3757 430.296 68.7262C428.847 68.9913 427.269 69.1719 425.563 69.268C424.481 73.5416 423.272 78.1573 421.938 83.1151C420.604 88.0729 419.27 93.0308 417.936 97.9886C416.687 102.946 415.564 107.604 414.568 111.962C416.798 113.825 419.115 115.902 421.519 118.19C423.923 120.479 426.238 122.257 428.465 123.523C429.664 124.198 430.948 124.873 432.318 125.547C433.687 126.221 435.013 126.767 436.296 127.186C437.155 128.033 437.886 129.01 438.491 130.116C439.18 131.135 439.955 132.24 440.816 133.429C441.417 134.108 442.147 134.744 443.004 135.335C443.946 135.927 444.463 136.649 444.553 137.502ZM388.538 64.1251C388.378 65.8328 387.83 66.8176 386.893 67.0795C385.955 67.256 384.633 67.307 382.926 67.2325C381.239 70.4005 379.598 74.0802 378.003 78.2717C376.493 82.3773 375.069 86.6103 373.731 90.9708C372.478 95.3308 371.395 99.4337 370.48 103.28C372.981 107.445 375.609 111.439 378.364 115.262C381.119 119.085 383.535 123.294 385.612 127.889C385.785 128.314 385.787 128.656 385.618 128.913C385.448 129.084 385.279 129.256 385.109 129.428C384.77 129.686 384.558 129.901 384.473 130.072C381.488 130.261 379.095 129.764 377.296 128.581C375.582 127.397 373.994 126.042 372.534 124.515C371.675 123.667 370.731 122.82 369.702 121.973C368.758 121.125 367.687 120.449 366.489 119.945C366.828 119.516 366.911 119.132 366.738 118.791C366.565 118.366 366.349 117.941 366.09 117.515C365.832 117.261 365.617 117.006 365.445 116.752C365.272 116.411 365.185 116.07 365.183 115.729C364.416 115.99 363.95 116.462 363.783 117.146C363.702 117.829 363.409 118.642 362.903 119.584C362.558 118.988 362.216 118.948 361.878 119.462C361.539 119.891 361.414 120.318 361.502 120.744C362.014 120.656 362.185 120.783 362.017 121.125C361.933 121.467 361.722 121.767 361.382 122.025C361.128 122.283 360.957 122.199 360.869 121.772C360.106 122.716 359.557 123.53 359.22 124.215C358.968 124.814 358.63 125.456 358.208 126.141C357.871 126.826 357.236 127.641 356.303 128.585C356.647 128.925 356.478 129.224 355.797 129.485C355.457 129.657 355.117 129.83 354.776 130.003C354.436 130.176 354.139 130.434 353.885 130.777C353.886 130.947 354.015 131.074 354.272 131.158C354.528 131.157 354.656 131.156 354.656 131.156C353.889 131.331 353.252 131.89 352.746 132.832C352.239 133.688 351.648 134.588 350.971 135.531C350.38 136.473 349.53 137.076 348.422 137.339C348.851 137.678 348.981 137.933 348.811 138.105C348.727 138.276 348.558 138.49 348.303 138.748C347.963 138.921 347.623 139.136 347.283 139.394C347.029 139.652 346.904 140.079 346.907 140.677C346.481 140.765 346.309 140.595 346.392 140.168C346.475 139.741 346.516 139.527 346.516 139.527C344.655 142.184 341.893 143.994 338.23 144.955C334.822 145.83 331.579 145.68 328.499 144.505C330.116 143.727 331.603 142.736 332.96 141.533C334.318 140.329 335.676 139.169 337.035 138.051C338.393 136.933 339.753 136.156 341.116 135.721C341.616 133.755 342.586 131.957 344.026 130.327C345.467 128.696 346.907 127.023 348.347 125.307C349.786 123.506 350.754 121.409 351.251 119.017C352.949 117.556 354.174 115.67 354.927 113.362C355.68 110.968 356.734 108.828 358.087 106.942C356.962 104.474 355.626 102.264 354.077 100.311C352.614 98.272 350.811 96.5766 348.669 95.2247C347.546 93.0131 346.083 91.145 344.282 89.6203C342.48 88.0956 340.89 86.3562 339.513 84.4022C342.158 84.3855 344.765 85.0945 347.334 86.529C349.903 87.8782 352.43 89.4836 354.917 91.3453C357.403 93.1217 359.716 94.6005 361.857 95.7817C363.882 92.0995 365.306 87.8238 366.128 82.9546C366.95 77.9999 367.73 73.0456 368.467 68.0915C366.243 67.3375 363.895 67.139 361.423 67.4959C359.036 67.8523 356.735 68.3361 354.52 68.9474C352.645 69.3859 350.855 69.7385 349.15 70.0052C347.531 70.2714 346.08 70.2379 344.798 69.9046C343.938 68.886 342.993 67.868 341.962 66.8504C340.932 65.8329 339.817 65.0292 338.619 64.4394C338.267 62.7349 337.79 61.5433 337.189 60.8644C336.587 60.1855 336.195 58.9933 336.014 57.2877C337.208 57.1095 338.359 57.0169 339.468 57.0099C340.662 56.9171 341.943 56.9517 343.309 57.1137L343.317 58.3937C345.454 58.9776 348.316 59.4716 351.903 59.8757C355.489 60.1944 358.858 60.0025 362.011 59.3C363.715 58.8626 365.247 58.2129 366.607 57.351C368.052 56.4886 369.112 55.3725 369.786 54.0029C370.726 54.1677 371.236 53.8658 371.316 53.0973C375.162 53.9264 378.455 55.2284 381.197 57.0031C383.939 58.7779 386.386 61.1519 388.538 64.1251ZM569.408 84.7464C567.289 87.1491 564.481 88.3615 560.982 88.3835C557.483 88.3202 553.854 88.0018 550.096 87.4281C548.388 87.1828 546.68 86.9802 544.972 86.8203C543.264 86.5751 541.599 86.4576 539.978 86.4678C536.138 86.492 531.872 86.6042 527.18 86.8044C522.487 87.0046 517.625 87.2912 512.593 87.6643C507.646 88.0368 502.87 88.4508 498.264 88.9065C493.659 89.3622 489.524 89.9003 485.858 90.5207C484.579 90.6994 483.301 91.0061 482.024 91.4409C480.832 91.875 479.725 92.266 478.703 92.6138C478.448 92.7007 478.108 92.8735 477.683 93.1322C477.257 93.3056 476.746 93.5221 476.151 93.7819C474.79 94.5585 473.301 95.2932 471.684 95.9861C470.152 96.593 468.958 96.6006 468.1 96.0086C466.643 94.9084 465.269 93.5091 463.978 91.8105C462.773 90.1114 461.525 88.4552 460.235 86.842C458.944 85.1434 457.485 83.8299 455.858 82.9015C456.282 82.5575 456.536 82.2572 456.62 82.0006C456.703 81.6588 456.744 81.3172 456.742 80.9759C456.737 80.2932 456.948 79.9079 457.374 79.8199C461.735 81.2431 467.029 81.7644 473.256 81.3839C479.484 81.0033 485.965 80.4078 492.702 79.5974C495.515 79.2383 498.329 78.9219 501.144 78.6482C503.958 78.3745 506.73 78.1437 509.46 77.9558C509.539 77.0166 509.531 75.822 509.437 74.3719C509.427 72.8359 509.332 71.3005 509.152 69.7656C508.971 68.1453 508.707 66.867 508.36 65.9305C506.22 64.8346 504.164 63.6529 502.193 62.3853C500.223 61.1176 498.506 59.5498 497.044 57.6816C498.231 56.5648 499.591 55.6175 501.122 54.8398C502.653 54.0622 504.101 53.6264 505.466 53.5325C507.001 53.4375 508.753 53.7678 510.72 54.5234C512.687 55.1937 514.442 56.1213 515.986 57.3063C517.614 58.4907 518.561 59.7648 518.826 61.1285C518.912 61.2133 518.873 61.8535 518.71 63.0492C518.632 64.1591 518.511 65.3119 518.348 66.5076C518.185 67.7033 518.019 68.4724 517.85 68.8148C517.766 69.0713 517.468 69.1585 516.956 69.0764C516.443 68.9943 516.145 69.0389 516.061 69.2101C515.213 70.1541 514.497 71.6093 513.912 73.5757C513.412 75.4562 512.951 76.8671 512.531 77.8085C516.794 77.2696 521.571 76.9835 526.862 76.9502C532.237 76.9163 537.528 76.7977 542.732 76.5942C543.244 76.591 543.328 76.3771 542.984 75.9526C542.64 75.5281 542.681 75.2719 543.107 75.1838C546.686 74.3933 550.142 74.3715 553.475 75.1186C556.807 75.8656 559.844 77.0838 562.586 78.7732C565.412 80.4621 567.686 82.4532 569.408 84.7464ZM557.606 141.654C556.757 142.427 555.567 143.117 554.035 143.724C552.587 144.246 551.094 144.212 549.554 143.625C547.577 141.333 545.896 138.656 544.511 135.592C543.127 132.529 541.742 129.551 540.359 126.658C538.975 123.68 537.296 121.301 535.322 119.522C534.795 117.136 533.801 115.094 532.339 113.396C530.963 111.698 529.502 109.958 527.954 108.176C526.406 106.308 525.155 104.097 524.2 101.543C525.393 101.195 526.417 101.231 527.273 101.652C528.129 101.988 528.942 102.41 529.713 102.917C530.399 103.339 531.127 103.761 531.897 104.183C532.668 104.605 533.523 104.813 534.461 104.807C537.207 107.179 540.293 109.378 543.719 111.405C547.145 113.346 550.061 115.674 552.467 118.39C554.186 120.342 555.481 122.638 556.351 125.277C557.306 127.917 557.54 131.158 557.052 135.001C557.398 135.852 557.574 136.577 557.577 137.174C557.666 137.685 557.669 138.197 557.587 138.71C557.504 139.137 557.465 139.607 557.468 140.119C557.471 140.545 557.517 141.057 557.606 141.654ZM499.309 112.452C497.272 114.257 495.324 116.659 493.466 119.657C491.607 122.656 489.707 125.825 487.766 129.165C485.824 132.506 483.752 135.548 481.551 138.293C479.434 140.951 477.057 142.844 474.419 143.97C473.823 144.23 473.269 144.318 472.756 144.236C472.244 144.154 471.731 144.029 471.218 143.862C470.875 143.693 470.491 143.568 470.063 143.485C469.722 143.402 469.338 143.447 468.912 143.62C468.74 143.366 468.439 143.026 468.01 142.602C467.665 142.007 467.235 141.498 466.72 141.074C466.206 140.651 465.351 140.528 464.158 140.706C464.158 140.706 465.006 139.933 466.703 138.386C468.4 136.754 470.392 134.736 472.681 132.332C475.056 129.928 477.174 127.525 479.036 125.124C479.455 123.927 480.129 122.557 481.058 121.016C482.072 119.473 483.044 117.931 483.973 116.389C484.987 114.761 485.66 113.306 485.994 112.024C485.387 110.492 484.653 109.131 483.792 107.942C482.931 106.667 482.196 105.221 481.589 103.604C484.228 102.734 486.873 102.632 489.523 103.298C492.172 103.964 494.398 105.102 496.2 106.712C498.088 108.321 499.124 110.235 499.309 112.452Z" fill="white"/>
<defs>
<clipPath id="clip0_119_2">
<rect width="224" height="224" fill="white" transform="translate(28)"/>
</clipPath>
</defs>
</svg>
