<svg width="1347" height="199" viewBox="0 0 1347 199" fill="none" xmlns="http://www.w3.org/2000/svg">
<g clip-path="url(#clip0_109_723)">
<path d="M-112.909 -50V150H338.726V-50H-112.909Z" fill="#F19A31"/>
<path d="M24.4731 52.3767C33.705 38.9291 46.6906 27.8131 62.1795 20.0992C77.6685 12.3853 95.139 8.33325 112.909 8.33325C130.679 8.33325 148.149 12.3853 163.638 20.0992C179.127 27.8131 192.113 38.9291 201.345 52.3767C194.983 53.6278 188.756 55.3643 182.733 57.5667C174.954 47.5258 164.532 39.3135 152.366 33.6394C140.201 27.9654 126.658 25.0003 112.909 25.0003C99.1595 25.0003 85.617 27.9654 73.4514 33.6394C61.2859 39.3135 50.8633 47.5258 43.0842 57.5667C37.0612 55.3643 30.8343 53.6278 24.4731 52.3767ZM51.7575 61.125C58.7269 52.5251 67.9084 45.5187 78.5422 40.6856C89.176 35.8526 100.956 33.3317 112.909 33.3317C124.861 33.3317 136.642 35.8526 147.275 40.6856C157.909 45.5187 167.091 52.5251 174.06 61.125C168.461 63.6831 163.113 66.6518 158.072 70C152.814 63.7902 145.995 58.75 138.156 55.2787C130.317 51.8073 121.673 50 112.909 50C104.145 50 95.5006 51.8073 87.6617 55.2787C79.8227 58.75 73.0039 63.7902 67.7453 70C62.705 66.6518 57.357 63.6831 51.7575 61.125ZM75.0374 75.28C79.4099 70.0253 85.1152 65.7541 91.6934 62.8104C98.2716 59.8668 105.539 58.3331 112.909 58.3331C120.279 58.3331 127.546 59.8668 134.124 62.8104C140.702 65.7541 146.408 70.0253 150.78 75.28C145.957 79.0792 141.51 83.2378 137.489 87.71C135.03 83.853 131.459 80.6438 127.14 78.4108C122.821 76.1777 117.91 75.001 112.909 75.001C107.908 75.001 102.997 76.1777 98.6777 78.4108C94.3588 80.6438 90.7873 83.853 88.3286 87.71C84.3075 83.2378 79.8608 79.0792 75.0374 75.28ZM94.7531 95.6167C95.8389 92.0888 98.2044 88.9751 101.485 86.7553C104.766 84.5356 108.78 83.3331 112.909 83.3331C117.037 83.3331 121.051 84.5356 124.332 86.7553C127.613 88.9751 129.979 92.0888 131.065 95.6167C129.815 97.3246 128.624 99.066 127.495 100.838C117.812 99.7211 108.006 99.7211 98.3229 100.838C97.1932 99.066 96.0027 97.3246 94.7531 95.6167ZM-88.4355 102.377C-79.2037 88.9291 -66.2181 77.8131 -50.7291 70.0992C-35.2402 62.3853 -17.7697 58.3333 0.000152588 58.3333C17.77 58.3333 35.2405 62.3853 50.7294 70.0992C66.2184 77.8131 79.204 88.9291 88.4359 102.377C82.0747 103.628 75.8477 105.364 69.8247 107.567C62.0456 97.5258 51.623 89.3135 39.4575 83.6394C27.292 77.9654 13.7494 75.0003 0.000152588 75.0003C-13.7491 75.0003 -27.2917 77.9654 -39.4572 83.6394C-51.6227 89.3135 -62.0453 97.5258 -69.8244 107.567C-75.8474 105.364 -82.0744 103.628 -88.4355 102.377ZM-61.1512 111.125C-54.1818 102.525 -45.0003 95.5187 -34.3665 90.6856C-23.7326 85.8526 -11.9521 83.3317 0.000152588 83.3317C11.9524 83.3317 23.7329 85.8526 34.3667 90.6856C45.0006 95.5187 54.1821 102.525 61.1515 111.125C55.5519 113.683 50.204 116.652 45.1636 120C39.905 113.79 33.0863 108.75 25.2473 105.279C17.4083 101.807 8.7644 100 0.000152588 100C-8.76411 100 -17.408 101.807 -25.247 105.279C-33.086 108.75 -39.9048 113.79 -45.1633 120C-50.2037 116.652 -55.5516 113.683 -61.1512 111.125ZM137.382 102.377C146.614 88.9291 159.599 77.8131 175.088 70.0992C190.577 62.3853 208.048 58.3333 225.817 58.3333C243.587 58.3333 261.058 62.3853 276.547 70.0992C292.036 77.8131 305.021 88.9291 314.253 102.377C307.892 103.628 301.665 105.364 295.642 107.567C287.863 97.5258 277.44 89.3135 265.275 83.6394C253.109 77.9654 239.567 75.0003 225.817 75.0003C212.068 75.0003 198.526 77.9654 186.36 83.6394C174.195 89.3135 163.772 97.5258 155.993 107.567C149.97 105.364 143.743 103.628 137.382 102.377ZM164.666 111.125C171.635 102.525 180.817 95.5187 191.451 90.6856C202.085 85.8526 213.865 83.3317 225.817 83.3317C237.77 83.3317 249.55 85.8526 260.184 90.6856C270.818 95.5187 279.999 102.525 286.969 111.125C281.369 113.683 276.021 116.652 270.981 120C265.722 113.79 258.904 108.75 251.065 105.279C243.226 101.807 234.582 100 225.817 100C217.053 100 208.409 101.807 200.57 105.279C192.731 108.75 185.913 113.79 180.654 120C175.614 116.652 170.266 113.683 164.666 111.125ZM-88.4355 2.37669C-79.2037 -11.0709 -66.2181 -22.1868 -50.7291 -29.9008C-35.2402 -37.6147 -17.7697 -41.6667 0.000152588 -41.6667C17.77 -41.6667 35.2405 -37.6147 50.7294 -29.9008C66.2184 -22.1868 79.204 -11.0709 88.4359 2.37669C82.0747 3.62781 75.8477 5.36429 69.8247 7.56669C62.0456 -2.47422 51.623 -10.6865 39.4575 -16.3606C27.292 -22.0346 13.7494 -24.9997 0.000152588 -24.9997C-13.7491 -24.9997 -27.2917 -22.0346 -39.4572 -16.3606C-51.6227 -10.6865 -62.0453 -2.47422 -69.8244 7.56669C-75.8474 5.36429 -82.0744 3.62781 -88.4355 2.37669ZM-61.1512 11.125C-54.1818 2.52511 -45.0003 -4.48127 -34.3665 -9.31435C-23.7326 -14.1474 -11.9521 -16.6683 0.000152588 -16.6683C11.9524 -16.6683 23.7329 -14.1474 34.3667 -9.31435C45.0006 -4.48127 54.1821 2.52511 61.1515 11.125C55.5519 13.6831 50.204 16.6518 45.1636 20C39.905 13.7902 33.0863 8.75005 25.2473 5.27866C17.4083 1.80727 8.7644 1.90735e-05 0.000152588 1.90735e-05C-8.76411 1.90735e-05 -17.408 1.80727 -25.247 5.27866C-33.086 8.75005 -39.9048 13.7902 -45.1633 20C-50.2037 16.6518 -55.5516 13.6831 -61.1512 11.125ZM-37.8713 25.28C-33.4988 20.0253 -27.7935 15.7541 -21.2153 12.8104C-14.6371 9.86677 -7.37 8.33314 0.000152588 8.33314C7.3703 8.33314 14.6374 9.86677 21.2156 12.8104C27.7938 15.7541 33.4991 20.0253 37.8716 25.28C33.0481 29.0792 28.6014 33.2378 24.5804 37.71C22.1217 33.853 18.5502 30.6438 14.2313 28.4108C9.91236 26.1777 5.00114 25.001 0.000152588 25.001C-5.00085 25.001 -9.91206 26.1777 -14.231 28.4108C-18.5499 30.6438 -22.1214 33.853 -24.5801 37.71C-28.6012 33.2378 -33.0479 29.0792 -37.8713 25.28ZM-18.1556 45.6167C-17.0698 42.0888 -14.7042 38.9751 -11.4234 36.7553C-8.14249 34.5356 -4.12846 33.3331 0.000152588 33.3331C4.12875 33.3331 8.14279 34.5356 11.4237 36.7553C14.7045 38.9751 17.0701 42.0888 18.1559 45.6167C16.9062 47.3247 15.7157 49.066 14.5861 50.8383C4.90303 49.7211 -4.90273 49.7211 -14.5858 50.8383C-15.7154 49.066 -16.9059 47.3247 -18.1556 45.6167ZM137.382 2.37669C146.614 -11.0709 159.599 -22.1868 175.088 -29.9008C190.577 -37.6147 208.048 -41.6667 225.817 -41.6667C243.587 -41.6667 261.058 -37.6147 276.547 -29.9008C292.036 -22.1868 305.021 -11.0709 314.253 2.37669C307.892 3.62781 301.665 5.36429 295.642 7.56669C287.863 -2.47422 277.44 -10.6865 265.275 -16.3606C253.109 -22.0346 239.567 -24.9997 225.817 -24.9997C212.068 -24.9997 198.526 -22.0346 186.36 -16.3606C174.195 -10.6865 163.772 -2.47422 155.993 7.56669C149.97 5.36429 143.743 3.62781 137.382 2.37669ZM164.666 11.125C171.635 2.52511 180.817 -4.48127 191.451 -9.31435C202.085 -14.1474 213.865 -16.6683 225.817 -16.6683C237.77 -16.6683 249.55 -14.1474 260.184 -9.31435C270.818 -4.48127 279.999 2.52511 286.969 11.125C281.369 13.6831 276.021 16.6518 270.981 20C265.722 13.7902 258.904 8.75005 251.065 5.27866C243.226 1.80727 234.582 1.90735e-05 225.817 1.90735e-05C217.053 1.90735e-05 208.409 1.80727 200.57 5.27866C192.731 8.75005 185.913 13.7902 180.654 20C175.614 16.6518 170.266 13.6831 164.666 11.125ZM187.946 25.28C192.319 20.0253 198.024 15.7541 204.602 12.8104C211.18 9.86677 218.447 8.33314 225.817 8.33314C233.188 8.33314 240.455 9.86677 247.033 12.8104C253.611 15.7541 259.316 20.0253 263.689 25.28C258.865 29.0792 254.419 33.2378 250.398 37.71C247.939 33.853 244.367 30.6438 240.049 28.4108C235.73 26.1777 230.818 25.001 225.817 25.001C220.816 25.001 215.905 26.1777 211.586 28.4108C207.267 30.6438 203.696 33.853 201.237 37.71C197.216 33.2378 192.769 29.0792 187.946 25.28ZM207.662 45.6167C208.747 42.0888 211.113 38.9751 214.394 36.7553C217.675 34.5356 221.689 33.3331 225.817 33.3331C229.946 33.3331 233.96 34.5356 237.241 36.7553C240.522 38.9751 242.887 42.0888 243.973 45.6167C242.723 47.3247 241.533 49.066 240.403 50.8383C230.72 49.7211 220.915 49.7211 211.232 50.8383C210.102 49.066 208.911 47.3247 207.662 45.6167ZM94.7531 -4.38332C95.8389 -7.91119 98.2044 -11.0249 101.485 -13.2446C104.766 -15.4644 108.78 -16.6669 112.909 -16.6669C117.037 -16.6669 121.051 -15.4644 124.332 -13.2446C127.613 -11.0249 129.979 -7.91119 131.065 -4.38332C129.815 -2.67534 128.624 -0.933971 127.495 0.838352C117.812 -0.278885 108.006 -0.278885 98.3229 0.838352C97.1932 -0.933971 96.0027 -2.67534 94.7531 -4.38332Z" fill="#F1880A"/>
</g>
<g clip-path="url(#clip1_109_723)">
<path d="M335.338 -50V150H786.973V-50H335.338Z" fill="#F19A31"/>
<path d="M472.72 52.3767C481.952 38.9291 494.938 27.8131 510.427 20.0992C525.916 12.3853 543.386 8.33325 561.156 8.33325C578.926 8.33325 596.396 12.3853 611.885 20.0992C627.374 27.8131 640.36 38.9291 649.592 52.3767C643.23 53.6278 637.003 55.3643 630.98 57.5667C623.201 47.5258 612.779 39.3135 600.613 33.6394C588.448 27.9654 574.905 25.0003 561.156 25.0003C547.407 25.0003 533.864 27.9654 521.699 33.6394C509.533 39.3135 499.11 47.5258 491.331 57.5667C485.308 55.3643 479.081 53.6278 472.72 52.3767ZM500.005 61.125C506.974 52.5251 516.155 45.5187 526.789 40.6856C537.423 35.8526 549.204 33.3317 561.156 33.3317C573.108 33.3317 584.889 35.8526 595.522 40.6856C606.156 45.5187 615.338 52.5251 622.307 61.125C616.708 63.6831 611.36 66.6518 606.319 70C601.061 63.7902 594.242 58.75 586.403 55.2787C578.564 51.8073 569.92 50 561.156 50C552.392 50 543.748 51.8073 535.909 55.2787C528.07 58.75 521.251 63.7902 515.992 70C510.952 66.6518 505.604 63.6831 500.005 61.125ZM523.284 75.28C527.657 70.0253 533.362 65.7541 539.94 62.8104C546.519 59.8668 553.786 58.3331 561.156 58.3331C568.526 58.3331 575.793 59.8668 582.371 62.8104C588.949 65.7541 594.655 70.0253 599.027 75.28C594.204 79.0792 589.757 83.2378 585.736 87.71C583.277 83.853 579.706 80.6438 575.387 78.4108C571.068 76.1777 566.157 75.001 561.156 75.001C556.155 75.001 551.244 76.1777 546.925 78.4108C542.606 80.6438 539.034 83.853 536.576 87.71C532.555 83.2378 528.108 79.0792 523.284 75.28ZM543 95.6167C544.086 92.0888 546.452 88.9751 549.732 86.7553C553.013 84.5356 557.027 83.3331 561.156 83.3331C565.284 83.3331 569.298 84.5356 572.579 86.7553C575.86 88.9751 578.226 92.0888 579.312 95.6167C578.062 97.3246 576.871 99.066 575.742 100.838C566.059 99.7211 556.253 99.7211 546.57 100.838C545.44 99.066 544.25 97.3246 543 95.6167ZM359.812 102.377C369.043 88.9291 382.029 77.8131 397.518 70.0992C413.007 62.3853 430.477 58.3333 448.247 58.3333C466.017 58.3333 483.488 62.3853 498.976 70.0992C514.465 77.8131 527.451 88.9291 536.683 102.377C530.322 103.628 524.095 105.364 518.072 107.567C510.293 97.5258 499.87 89.3135 487.705 83.6394C475.539 77.9654 461.997 75.0003 448.247 75.0003C434.498 75.0003 420.955 77.9654 408.79 83.6394C396.624 89.3135 386.202 97.5258 378.423 107.567C372.4 105.364 366.173 103.628 359.812 102.377ZM387.096 111.125C394.065 102.525 403.247 95.5187 413.881 90.6856C424.514 85.8526 436.295 83.3317 448.247 83.3317C460.2 83.3317 471.98 85.8526 482.614 90.6856C493.248 95.5187 502.429 102.525 509.399 111.125C503.799 113.683 498.451 116.652 493.411 120C488.152 113.79 481.333 108.75 473.494 105.279C465.655 101.807 457.011 100 448.247 100C439.483 100 430.839 101.807 423 105.279C415.161 108.75 408.342 113.79 403.084 120C398.043 116.652 392.695 113.683 387.096 111.125ZM585.629 102.377C594.861 88.9291 607.846 77.8131 623.335 70.0992C638.824 62.3853 656.295 58.3333 674.065 58.3333C691.834 58.3333 709.305 62.3853 724.794 70.0992C740.283 77.8131 753.268 88.9291 762.5 102.377C756.139 103.628 749.912 105.364 743.889 107.567C736.11 97.5258 725.687 89.3135 713.522 83.6394C701.356 77.9654 687.814 75.0003 674.065 75.0003C660.315 75.0003 646.773 77.9654 634.607 83.6394C622.442 89.3135 612.019 97.5258 604.24 107.567C598.217 105.364 591.99 103.628 585.629 102.377ZM612.913 111.125C619.883 102.525 629.064 95.5187 639.698 90.6856C650.332 85.8526 662.112 83.3317 674.065 83.3317C686.017 83.3317 697.797 85.8526 708.431 90.6856C719.065 95.5187 728.246 102.525 735.216 111.125C729.616 113.683 724.268 116.652 719.228 120C713.969 113.79 707.151 108.75 699.312 105.279C691.473 101.807 682.829 100 674.065 100C665.3 100 656.656 101.807 648.817 105.279C640.978 108.75 634.16 113.79 628.901 120C623.861 116.652 618.513 113.683 612.913 111.125ZM359.812 2.37669C369.043 -11.0709 382.029 -22.1868 397.518 -29.9008C413.007 -37.6147 430.477 -41.6667 448.247 -41.6667C466.017 -41.6667 483.488 -37.6147 498.976 -29.9008C514.465 -22.1868 527.451 -11.0709 536.683 2.37669C530.322 3.62781 524.095 5.36429 518.072 7.56669C510.293 -2.47422 499.87 -10.6865 487.705 -16.3606C475.539 -22.0346 461.997 -24.9997 448.247 -24.9997C434.498 -24.9997 420.955 -22.0346 408.79 -16.3606C396.624 -10.6865 386.202 -2.47422 378.423 7.56669C372.4 5.36429 366.173 3.62781 359.812 2.37669ZM387.096 11.125C394.065 2.52511 403.247 -4.48127 413.881 -9.31435C424.514 -14.1474 436.295 -16.6683 448.247 -16.6683C460.2 -16.6683 471.98 -14.1474 482.614 -9.31435C493.248 -4.48127 502.429 2.52511 509.399 11.125C503.799 13.6831 498.451 16.6518 493.411 20C488.152 13.7902 481.333 8.75005 473.494 5.27866C465.655 1.80727 457.011 1.90735e-05 448.247 1.90735e-05C439.483 1.90735e-05 430.839 1.80727 423 5.27866C415.161 8.75005 408.342 13.7902 403.084 20C398.043 16.6518 392.695 13.6831 387.096 11.125ZM410.376 25.28C414.748 20.0253 420.454 15.7541 427.032 12.8104C433.61 9.86677 440.877 8.33314 448.247 8.33314C455.617 8.33314 462.884 9.86677 469.463 12.8104C476.041 15.7541 481.746 20.0253 486.119 25.28C481.295 29.0792 476.849 33.2378 472.827 37.71C470.369 33.853 466.797 30.6438 462.478 28.4108C458.159 26.1777 453.248 25.001 448.247 25.001C443.246 25.001 438.335 26.1777 434.016 28.4108C429.697 30.6438 426.126 33.853 423.667 37.71C419.646 33.2378 415.199 29.0792 410.376 25.28ZM430.092 45.6167C431.177 42.0888 433.543 38.9751 436.824 36.7553C440.105 34.5356 444.119 33.3331 448.247 33.3331C452.376 33.3331 456.39 34.5356 459.671 36.7553C462.952 38.9751 465.317 42.0888 466.403 45.6167C465.153 47.3247 463.963 49.066 462.833 50.8383C453.15 49.7211 443.344 49.7211 433.661 50.8383C432.532 49.066 431.341 47.3247 430.092 45.6167ZM585.629 2.37669C594.861 -11.0709 607.846 -22.1868 623.335 -29.9008C638.824 -37.6147 656.295 -41.6667 674.065 -41.6667C691.834 -41.6667 709.305 -37.6147 724.794 -29.9008C740.283 -22.1868 753.268 -11.0709 762.5 2.37669C756.139 3.62781 749.912 5.36429 743.889 7.56669C736.11 -2.47422 725.687 -10.6865 713.522 -16.3606C701.356 -22.0346 687.814 -24.9997 674.065 -24.9997C660.315 -24.9997 646.773 -22.0346 634.607 -16.3606C622.442 -10.6865 612.019 -2.47422 604.24 7.56669C598.217 5.36429 591.99 3.62781 585.629 2.37669ZM612.913 11.125C619.883 2.52511 629.064 -4.48127 639.698 -9.31435C650.332 -14.1474 662.112 -16.6683 674.065 -16.6683C686.017 -16.6683 697.797 -14.1474 708.431 -9.31435C719.065 -4.48127 728.246 2.52511 735.216 11.125C729.616 13.6831 724.268 16.6518 719.228 20C713.969 13.7902 707.151 8.75005 699.312 5.27866C691.473 1.80727 682.829 1.90735e-05 674.065 1.90735e-05C665.3 1.90735e-05 656.656 1.80727 648.817 5.27866C640.978 8.75005 634.16 13.7902 628.901 20C623.861 16.6518 618.513 13.6831 612.913 11.125ZM636.193 25.28C640.566 20.0253 646.271 15.7541 652.849 12.8104C659.427 9.86677 666.694 8.33314 674.065 8.33314C681.435 8.33314 688.702 9.86677 695.28 12.8104C701.858 15.7541 707.563 20.0253 711.936 25.28C707.113 29.0792 702.666 33.2378 698.645 37.71C696.186 33.853 692.615 30.6438 688.296 28.4108C683.977 26.1777 679.065 25.001 674.065 25.001C669.064 25.001 664.152 26.1777 659.833 28.4108C655.514 30.6438 651.943 33.853 649.484 37.71C645.463 33.2378 641.017 29.0792 636.193 25.28ZM655.909 45.6167C656.995 42.0888 659.36 38.9751 662.641 36.7553C665.922 34.5356 669.936 33.3331 674.065 33.3331C678.193 33.3331 682.207 34.5356 685.488 36.7553C688.769 38.9751 691.134 42.0888 692.22 45.6167C690.971 47.3247 689.78 49.066 688.65 50.8383C678.967 49.7211 669.162 49.7211 659.479 50.8383C658.349 49.066 657.158 47.3247 655.909 45.6167ZM543 -4.38332C544.086 -7.91119 546.452 -11.0249 549.732 -13.2446C553.013 -15.4644 557.027 -16.6669 561.156 -16.6669C565.284 -16.6669 569.298 -15.4644 572.579 -13.2446C575.86 -11.0249 578.226 -7.91119 579.312 -4.38332C578.062 -2.67534 576.871 -0.933971 575.742 0.838352C566.059 -0.278885 556.253 -0.278885 546.57 0.838352C545.44 -0.933971 544.25 -2.67534 543 -4.38332Z" fill="#F1880A"/>
</g>
<g clip-path="url(#clip2_109_723)">
<path d="M784.715 -50V150H1236.35V-50H784.715Z" fill="#F19A31"/>
<path d="M922.097 52.3767C931.329 38.9291 944.314 27.8131 959.803 20.0992C975.292 12.3853 992.763 8.33325 1010.53 8.33325C1028.3 8.33325 1045.77 12.3853 1061.26 20.0992C1076.75 27.8131 1089.74 38.9291 1098.97 52.3767C1092.61 53.6278 1086.38 55.3643 1080.36 57.5667C1072.58 47.5258 1062.16 39.3135 1049.99 33.6394C1037.82 27.9654 1024.28 25.0003 1010.53 25.0003C996.783 25.0003 983.241 27.9654 971.075 33.6394C958.909 39.3135 948.487 47.5258 940.708 57.5667C934.685 55.3643 928.458 53.6278 922.097 52.3767ZM949.381 61.125C956.35 52.5251 965.532 45.5187 976.166 40.6856C986.8 35.8526 998.58 33.3317 1010.53 33.3317C1022.48 33.3317 1034.27 35.8526 1044.9 40.6856C1055.53 45.5187 1064.71 52.5251 1071.68 61.125C1066.08 63.6831 1060.74 66.6518 1055.7 70C1050.44 63.7902 1043.62 58.75 1035.78 55.2787C1027.94 51.8073 1019.3 50 1010.53 50C1001.77 50 993.124 51.8073 985.285 55.2787C977.446 58.75 970.627 63.7902 965.369 70C960.328 66.6518 954.981 63.6831 949.381 61.125ZM972.661 75.28C977.033 70.0253 982.739 65.7541 989.317 62.8104C995.895 59.8668 1003.16 58.3331 1010.53 58.3331C1017.9 58.3331 1025.17 59.8668 1031.75 62.8104C1038.33 65.7541 1044.03 70.0253 1048.4 75.28C1043.58 79.0792 1039.13 83.2378 1035.11 87.71C1032.65 83.853 1029.08 80.6438 1024.76 78.4108C1020.44 76.1777 1015.53 75.001 1010.53 75.001C1005.53 75.001 1000.62 76.1777 996.301 78.4108C991.982 80.6438 988.411 83.853 985.952 87.71C981.931 83.2378 977.484 79.0792 972.661 75.28ZM992.377 95.6167C993.462 92.0888 995.828 88.9751 999.109 86.7553C1002.39 84.5356 1006.4 83.3331 1010.53 83.3331C1014.66 83.3331 1018.67 84.5356 1021.96 86.7553C1025.24 88.9751 1027.6 92.0888 1028.69 95.6167C1027.44 97.3246 1026.25 99.066 1025.12 100.838C1015.44 99.7211 1005.63 99.7211 995.946 100.838C994.817 99.066 993.626 97.3246 992.377 95.6167ZM809.188 102.377C818.42 88.9291 831.405 77.8131 846.894 70.0992C862.383 62.3853 879.854 58.3333 897.624 58.3333C915.393 58.3333 932.864 62.3853 948.353 70.0992C963.842 77.8131 976.827 88.9291 986.059 102.377C979.698 103.628 973.471 105.364 967.448 107.567C959.669 97.5258 949.247 89.3135 937.081 83.6394C924.915 77.9654 911.373 75.0003 897.624 75.0003C883.874 75.0003 870.332 77.9654 858.166 83.6394C846.001 89.3135 835.578 97.5258 827.799 107.567C821.776 105.364 815.549 103.628 809.188 102.377ZM836.472 111.125C843.442 102.525 852.623 95.5187 863.257 90.6856C873.891 85.8526 885.671 83.3317 897.624 83.3317C909.576 83.3317 921.356 85.8526 931.99 90.6856C942.624 95.5187 951.806 102.525 958.775 111.125C953.175 113.683 947.827 116.652 942.787 120C937.529 113.79 930.71 108.75 922.871 105.279C915.032 101.807 906.388 100 897.624 100C888.859 100 880.216 101.807 872.377 105.279C864.538 108.75 857.719 113.79 852.46 120C847.42 116.652 842.072 113.683 836.472 111.125ZM1035.01 102.377C1044.24 88.9291 1057.22 77.8131 1072.71 70.0992C1088.2 62.3853 1105.67 58.3333 1123.44 58.3333C1141.21 58.3333 1158.68 62.3853 1174.17 70.0992C1189.66 77.8131 1202.64 88.9291 1211.88 102.377C1205.52 103.628 1199.29 105.364 1193.27 107.567C1185.49 97.5258 1175.06 89.3135 1162.9 83.6394C1150.73 77.9654 1137.19 75.0003 1123.44 75.0003C1109.69 75.0003 1096.15 77.9654 1083.98 83.6394C1071.82 89.3135 1061.4 97.5258 1053.62 107.567C1047.59 105.364 1041.37 103.628 1035.01 102.377ZM1062.29 111.125C1069.26 102.525 1078.44 95.5187 1089.07 90.6856C1099.71 85.8526 1111.49 83.3317 1123.44 83.3317C1135.39 83.3317 1147.17 85.8526 1157.81 90.6856C1168.44 95.5187 1177.62 102.525 1184.59 111.125C1178.99 113.683 1173.64 116.652 1168.6 120C1163.35 113.79 1156.53 108.75 1148.69 105.279C1140.85 101.807 1132.21 100 1123.44 100C1114.68 100 1106.03 101.807 1098.19 105.279C1090.35 108.75 1083.54 113.79 1078.28 120C1073.24 116.652 1067.89 113.683 1062.29 111.125ZM809.188 2.37669C818.42 -11.0709 831.405 -22.1868 846.894 -29.9008C862.383 -37.6147 879.854 -41.6667 897.624 -41.6667C915.393 -41.6667 932.864 -37.6147 948.353 -29.9008C963.842 -22.1868 976.827 -11.0709 986.059 2.37669C979.698 3.62781 973.471 5.36429 967.448 7.56669C959.669 -2.47422 949.247 -10.6865 937.081 -16.3606C924.915 -22.0346 911.373 -24.9997 897.624 -24.9997C883.874 -24.9997 870.332 -22.0346 858.166 -16.3606C846.001 -10.6865 835.578 -2.47422 827.799 7.56669C821.776 5.36429 815.549 3.62781 809.188 2.37669ZM836.472 11.125C843.442 2.52511 852.623 -4.48127 863.257 -9.31435C873.891 -14.1474 885.671 -16.6683 897.624 -16.6683C909.576 -16.6683 921.356 -14.1474 931.99 -9.31435C942.624 -4.48127 951.806 2.52511 958.775 11.125C953.175 13.6831 947.827 16.6518 942.787 20C937.529 13.7902 930.71 8.75005 922.871 5.27866C915.032 1.80727 906.388 1.90735e-05 897.624 1.90735e-05C888.859 1.90735e-05 880.216 1.80727 872.377 5.27866C864.538 8.75005 857.719 13.7902 852.46 20C847.42 16.6518 842.072 13.6831 836.472 11.125ZM859.752 25.28C864.125 20.0253 869.83 15.7541 876.408 12.8104C882.986 9.86677 890.254 8.33314 897.624 8.33314C904.994 8.33314 912.261 9.86677 918.839 12.8104C925.417 15.7541 931.123 20.0253 935.495 25.28C930.672 29.0792 926.225 33.2378 922.204 37.71C919.745 33.853 916.174 30.6438 911.855 28.4108C907.536 26.1777 902.625 25.001 897.624 25.001C892.623 25.001 887.711 26.1777 883.393 28.4108C879.074 30.6438 875.502 33.853 873.043 37.71C869.022 33.2378 864.576 29.0792 859.752 25.28ZM879.468 45.6167C880.554 42.0888 882.919 38.9751 886.2 36.7553C889.481 34.5356 893.495 33.3331 897.624 33.3331C901.752 33.3331 905.766 34.5356 909.047 36.7553C912.328 38.9751 914.694 42.0888 915.779 45.6167C914.53 47.3247 913.339 49.066 912.21 50.8383C902.527 49.7211 892.721 49.7211 883.038 50.8383C881.908 49.066 880.718 47.3247 879.468 45.6167ZM1035.01 2.37669C1044.24 -11.0709 1057.22 -22.1868 1072.71 -29.9008C1088.2 -37.6147 1105.67 -41.6667 1123.44 -41.6667C1141.21 -41.6667 1158.68 -37.6147 1174.17 -29.9008C1189.66 -22.1868 1202.64 -11.0709 1211.88 2.37669C1205.52 3.62781 1199.29 5.36429 1193.27 7.56669C1185.49 -2.47422 1175.06 -10.6865 1162.9 -16.3606C1150.73 -22.0346 1137.19 -24.9997 1123.44 -24.9997C1109.69 -24.9997 1096.15 -22.0346 1083.98 -16.3606C1071.82 -10.6865 1061.4 -2.47422 1053.62 7.56669C1047.59 5.36429 1041.37 3.62781 1035.01 2.37669ZM1062.29 11.125C1069.26 2.52511 1078.44 -4.48127 1089.07 -9.31435C1099.71 -14.1474 1111.49 -16.6683 1123.44 -16.6683C1135.39 -16.6683 1147.17 -14.1474 1157.81 -9.31435C1168.44 -4.48127 1177.62 2.52511 1184.59 11.125C1178.99 13.6831 1173.64 16.6518 1168.6 20C1163.35 13.7902 1156.53 8.75005 1148.69 5.27866C1140.85 1.80727 1132.21 1.90735e-05 1123.44 1.90735e-05C1114.68 1.90735e-05 1106.03 1.80727 1098.19 5.27866C1090.35 8.75005 1083.54 13.7902 1078.28 20C1073.24 16.6518 1067.89 13.6831 1062.29 11.125ZM1085.57 25.28C1089.94 20.0253 1095.65 15.7541 1102.23 12.8104C1108.8 9.86677 1116.07 8.33314 1123.44 8.33314C1130.81 8.33314 1138.08 9.86677 1144.66 12.8104C1151.23 15.7541 1156.94 20.0253 1161.31 25.28C1156.49 29.0792 1152.04 33.2378 1148.02 37.71C1145.56 33.853 1141.99 30.6438 1137.67 28.4108C1133.35 26.1777 1128.44 25.001 1123.44 25.001C1118.44 25.001 1113.53 26.1777 1109.21 28.4108C1104.89 30.6438 1101.32 33.853 1098.86 37.71C1094.84 33.2378 1090.39 29.0792 1085.57 25.28ZM1105.29 45.6167C1106.37 42.0888 1108.74 38.9751 1112.02 36.7553C1115.3 34.5356 1119.31 33.3331 1123.44 33.3331C1127.57 33.3331 1131.58 34.5356 1134.86 36.7553C1138.15 38.9751 1140.51 42.0888 1141.6 45.6167C1140.35 47.3247 1139.16 49.066 1138.03 50.8383C1128.34 49.7211 1118.54 49.7211 1108.86 50.8383C1107.73 49.066 1106.53 47.3247 1105.29 45.6167ZM992.377 -4.38332C993.462 -7.91119 995.828 -11.0249 999.109 -13.2446C1002.39 -15.4644 1006.4 -16.6669 1010.53 -16.6669C1014.66 -16.6669 1018.67 -15.4644 1021.96 -13.2446C1025.24 -11.0249 1027.6 -7.91119 1028.69 -4.38332C1027.44 -2.67534 1026.25 -0.933971 1025.12 0.838352C1015.44 -0.278885 1005.63 -0.278885 995.946 0.838352C994.817 -0.933971 993.626 -2.67534 992.377 -4.38332Z" fill="#F1880A"/>
</g>
<g clip-path="url(#clip3_109_723)">
<path d="M-112.909 49V249H338.726V49H-112.909Z" fill="#F19A31"/>
<path d="M24.4731 151.377C33.705 137.929 46.6906 126.813 62.1795 119.099C77.6685 111.385 95.139 107.333 112.909 107.333C130.679 107.333 148.149 111.385 163.638 119.099C179.127 126.813 192.113 137.929 201.345 151.377C194.983 152.628 188.756 154.364 182.733 156.567C174.954 146.526 164.532 138.313 152.366 132.639C140.201 126.965 126.658 124 112.909 124C99.1595 124 85.617 126.965 73.4514 132.639C61.2859 138.313 50.8633 146.526 43.0842 156.567C37.0612 154.364 30.8343 152.628 24.4731 151.377ZM51.7575 160.125C58.7269 151.525 67.9084 144.519 78.5422 139.686C89.176 134.853 100.956 132.332 112.909 132.332C124.861 132.332 136.642 134.853 147.275 139.686C157.909 144.519 167.091 151.525 174.06 160.125C168.461 162.683 163.113 165.652 158.072 169C152.814 162.79 145.995 157.75 138.156 154.279C130.317 150.807 121.673 149 112.909 149C104.145 149 95.5006 150.807 87.6617 154.279C79.8227 157.75 73.0039 162.79 67.7453 169C62.705 165.652 57.357 162.683 51.7575 160.125ZM75.0374 174.28C79.4099 169.025 85.1152 164.754 91.6934 161.81C98.2716 158.867 105.539 157.333 112.909 157.333C120.279 157.333 127.546 158.867 134.124 161.81C140.702 164.754 146.408 169.025 150.78 174.28C145.957 178.079 141.51 182.238 137.489 186.71C135.03 182.853 131.459 179.644 127.14 177.411C122.821 175.178 117.91 174.001 112.909 174.001C107.908 174.001 102.997 175.178 98.6777 177.411C94.3588 179.644 90.7873 182.853 88.3286 186.71C84.3075 182.238 79.8608 178.079 75.0374 174.28ZM94.7531 194.617C95.8389 191.089 98.2044 187.975 101.485 185.755C104.766 183.536 108.78 182.333 112.909 182.333C117.037 182.333 121.051 183.536 124.332 185.755C127.613 187.975 129.979 191.089 131.065 194.617C129.815 196.325 128.624 198.066 127.495 199.838C117.812 198.721 108.006 198.721 98.3229 199.838C97.1932 198.066 96.0027 196.325 94.7531 194.617ZM-88.4355 201.377C-79.2037 187.929 -66.2181 176.813 -50.7291 169.099C-35.2402 161.385 -17.7697 157.333 0.000152588 157.333C17.77 157.333 35.2405 161.385 50.7294 169.099C66.2184 176.813 79.204 187.929 88.4359 201.377C82.0747 202.628 75.8477 204.364 69.8247 206.567C62.0456 196.526 51.623 188.313 39.4575 182.639C27.292 176.965 13.7494 174 0.000152588 174C-13.7491 174 -27.2917 176.965 -39.4572 182.639C-51.6227 188.313 -62.0453 196.526 -69.8244 206.567C-75.8474 204.364 -82.0744 202.628 -88.4355 201.377ZM-61.1512 210.125C-54.1818 201.525 -45.0003 194.519 -34.3665 189.686C-23.7326 184.853 -11.9521 182.332 0.000152588 182.332C11.9524 182.332 23.7329 184.853 34.3667 189.686C45.0006 194.519 54.1821 201.525 61.1515 210.125C55.5519 212.683 50.204 215.652 45.1636 219C39.905 212.79 33.0863 207.75 25.2473 204.279C17.4083 200.807 8.7644 199 0.000152588 199C-8.76411 199 -17.408 200.807 -25.247 204.279C-33.086 207.75 -39.9048 212.79 -45.1633 219C-50.2037 215.652 -55.5516 212.683 -61.1512 210.125ZM137.382 201.377C146.614 187.929 159.599 176.813 175.088 169.099C190.577 161.385 208.048 157.333 225.817 157.333C243.587 157.333 261.058 161.385 276.547 169.099C292.036 176.813 305.021 187.929 314.253 201.377C307.892 202.628 301.665 204.364 295.642 206.567C287.863 196.526 277.44 188.313 265.275 182.639C253.109 176.965 239.567 174 225.817 174C212.068 174 198.526 176.965 186.36 182.639C174.195 188.313 163.772 196.526 155.993 206.567C149.97 204.364 143.743 202.628 137.382 201.377ZM164.666 210.125C171.635 201.525 180.817 194.519 191.451 189.686C202.085 184.853 213.865 182.332 225.817 182.332C237.77 182.332 249.55 184.853 260.184 189.686C270.818 194.519 279.999 201.525 286.969 210.125C281.369 212.683 276.021 215.652 270.981 219C265.722 212.79 258.904 207.75 251.065 204.279C243.226 200.807 234.582 199 225.817 199C217.053 199 208.409 200.807 200.57 204.279C192.731 207.75 185.913 212.79 180.654 219C175.614 215.652 170.266 212.683 164.666 210.125ZM-88.4355 101.377C-79.2037 87.9291 -66.2181 76.8132 -50.7291 69.0992C-35.2402 61.3853 -17.7697 57.3333 0.000152588 57.3333C17.77 57.3333 35.2405 61.3853 50.7294 69.0992C66.2184 76.8132 79.204 87.9291 88.4359 101.377C82.0747 102.628 75.8477 104.364 69.8247 106.567C62.0456 96.5258 51.623 88.3135 39.4575 82.6394C27.292 76.9654 13.7494 74.0003 0.000152588 74.0003C-13.7491 74.0003 -27.2917 76.9654 -39.4572 82.6394C-51.6227 88.3135 -62.0453 96.5258 -69.8244 106.567C-75.8474 104.364 -82.0744 102.628 -88.4355 101.377ZM-61.1512 110.125C-54.1818 101.525 -45.0003 94.5187 -34.3665 89.6856C-23.7326 84.8526 -11.9521 82.3317 0.000152588 82.3317C11.9524 82.3317 23.7329 84.8526 34.3667 89.6856C45.0006 94.5187 54.1821 101.525 61.1515 110.125C55.5519 112.683 50.204 115.652 45.1636 119C39.905 112.79 33.0863 107.75 25.2473 104.279C17.4083 100.807 8.7644 99 0.000152588 99C-8.76411 99 -17.408 100.807 -25.247 104.279C-33.086 107.75 -39.9048 112.79 -45.1633 119C-50.2037 115.652 -55.5516 112.683 -61.1512 110.125ZM-37.8713 124.28C-33.4988 119.025 -27.7935 114.754 -21.2153 111.81C-14.6371 108.867 -7.37 107.333 0.000152588 107.333C7.3703 107.333 14.6374 108.867 21.2156 111.81C27.7938 114.754 33.4991 119.025 37.8716 124.28C33.0481 128.079 28.6014 132.238 24.5804 136.71C22.1217 132.853 18.5502 129.644 14.2313 127.411C9.91236 125.178 5.00114 124.001 0.000152588 124.001C-5.00085 124.001 -9.91206 125.178 -14.231 127.411C-18.5499 129.644 -22.1214 132.853 -24.5801 136.71C-28.6012 132.238 -33.0479 128.079 -37.8713 124.28ZM-18.1556 144.617C-17.0698 141.089 -14.7042 137.975 -11.4234 135.755C-8.14249 133.536 -4.12846 132.333 0.000152588 132.333C4.12875 132.333 8.14279 133.536 11.4237 135.755C14.7045 137.975 17.0701 141.089 18.1559 144.617C16.9062 146.325 15.7157 148.066 14.5861 149.838C4.90303 148.721 -4.90273 148.721 -14.5858 149.838C-15.7154 148.066 -16.9059 146.325 -18.1556 144.617ZM137.382 101.377C146.614 87.9291 159.599 76.8132 175.088 69.0992C190.577 61.3853 208.048 57.3333 225.817 57.3333C243.587 57.3333 261.058 61.3853 276.547 69.0992C292.036 76.8132 305.021 87.9291 314.253 101.377C307.892 102.628 301.665 104.364 295.642 106.567C287.863 96.5258 277.44 88.3135 265.275 82.6394C253.109 76.9654 239.567 74.0003 225.817 74.0003C212.068 74.0003 198.526 76.9654 186.36 82.6394C174.195 88.3135 163.772 96.5258 155.993 106.567C149.97 104.364 143.743 102.628 137.382 101.377ZM164.666 110.125C171.635 101.525 180.817 94.5187 191.451 89.6856C202.085 84.8526 213.865 82.3317 225.817 82.3317C237.77 82.3317 249.55 84.8526 260.184 89.6856C270.818 94.5187 279.999 101.525 286.969 110.125C281.369 112.683 276.021 115.652 270.981 119C265.722 112.79 258.904 107.75 251.065 104.279C243.226 100.807 234.582 99 225.817 99C217.053 99 208.409 100.807 200.57 104.279C192.731 107.75 185.913 112.79 180.654 119C175.614 115.652 170.266 112.683 164.666 110.125ZM187.946 124.28C192.319 119.025 198.024 114.754 204.602 111.81C211.18 108.867 218.447 107.333 225.817 107.333C233.188 107.333 240.455 108.867 247.033 111.81C253.611 114.754 259.316 119.025 263.689 124.28C258.865 128.079 254.419 132.238 250.398 136.71C247.939 132.853 244.367 129.644 240.049 127.411C235.73 125.178 230.818 124.001 225.817 124.001C220.816 124.001 215.905 125.178 211.586 127.411C207.267 129.644 203.696 132.853 201.237 136.71C197.216 132.238 192.769 128.079 187.946 124.28ZM207.662 144.617C208.747 141.089 211.113 137.975 214.394 135.755C217.675 133.536 221.689 132.333 225.817 132.333C229.946 132.333 233.96 133.536 237.241 135.755C240.522 137.975 242.887 141.089 243.973 144.617C242.723 146.325 241.533 148.066 240.403 149.838C230.72 148.721 220.915 148.721 211.232 149.838C210.102 148.066 208.911 146.325 207.662 144.617ZM94.7531 94.6167C95.8389 91.0888 98.2044 87.9751 101.485 85.7554C104.766 83.5356 108.78 82.3331 112.909 82.3331C117.037 82.3331 121.051 83.5356 124.332 85.7554C127.613 87.9751 129.979 91.0888 131.065 94.6167C129.815 96.3247 128.624 98.066 127.495 99.8384C117.812 98.7211 108.006 98.7211 98.3229 99.8384C97.1932 98.066 96.0027 96.3247 94.7531 94.6167Z" fill="#F1880A"/>
</g>
<g clip-path="url(#clip4_109_723)">
<path d="M335.338 49V249H786.973V49H335.338Z" fill="#F19A31"/>
<path d="M472.72 151.377C481.952 137.929 494.938 126.813 510.427 119.099C525.916 111.385 543.386 107.333 561.156 107.333C578.926 107.333 596.396 111.385 611.885 119.099C627.374 126.813 640.36 137.929 649.592 151.377C643.23 152.628 637.003 154.364 630.98 156.567C623.201 146.526 612.779 138.313 600.613 132.639C588.448 126.965 574.905 124 561.156 124C547.407 124 533.864 126.965 521.699 132.639C509.533 138.313 499.11 146.526 491.331 156.567C485.308 154.364 479.081 152.628 472.72 151.377ZM500.005 160.125C506.974 151.525 516.155 144.519 526.789 139.686C537.423 134.853 549.204 132.332 561.156 132.332C573.108 132.332 584.889 134.853 595.522 139.686C606.156 144.519 615.338 151.525 622.307 160.125C616.708 162.683 611.36 165.652 606.319 169C601.061 162.79 594.242 157.75 586.403 154.279C578.564 150.807 569.92 149 561.156 149C552.392 149 543.748 150.807 535.909 154.279C528.07 157.75 521.251 162.79 515.992 169C510.952 165.652 505.604 162.683 500.005 160.125ZM523.284 174.28C527.657 169.025 533.362 164.754 539.94 161.81C546.519 158.867 553.786 157.333 561.156 157.333C568.526 157.333 575.793 158.867 582.371 161.81C588.949 164.754 594.655 169.025 599.027 174.28C594.204 178.079 589.757 182.238 585.736 186.71C583.277 182.853 579.706 179.644 575.387 177.411C571.068 175.178 566.157 174.001 561.156 174.001C556.155 174.001 551.244 175.178 546.925 177.411C542.606 179.644 539.034 182.853 536.576 186.71C532.555 182.238 528.108 178.079 523.284 174.28ZM543 194.617C544.086 191.089 546.452 187.975 549.732 185.755C553.013 183.536 557.027 182.333 561.156 182.333C565.284 182.333 569.298 183.536 572.579 185.755C575.86 187.975 578.226 191.089 579.312 194.617C578.062 196.325 576.871 198.066 575.742 199.838C566.059 198.721 556.253 198.721 546.57 199.838C545.44 198.066 544.25 196.325 543 194.617ZM359.812 201.377C369.043 187.929 382.029 176.813 397.518 169.099C413.007 161.385 430.477 157.333 448.247 157.333C466.017 157.333 483.488 161.385 498.976 169.099C514.465 176.813 527.451 187.929 536.683 201.377C530.322 202.628 524.095 204.364 518.072 206.567C510.293 196.526 499.87 188.313 487.705 182.639C475.539 176.965 461.997 174 448.247 174C434.498 174 420.955 176.965 408.79 182.639C396.624 188.313 386.202 196.526 378.423 206.567C372.4 204.364 366.173 202.628 359.812 201.377ZM387.096 210.125C394.065 201.525 403.247 194.519 413.881 189.686C424.514 184.853 436.295 182.332 448.247 182.332C460.2 182.332 471.98 184.853 482.614 189.686C493.248 194.519 502.429 201.525 509.399 210.125C503.799 212.683 498.451 215.652 493.411 219C488.152 212.79 481.333 207.75 473.494 204.279C465.655 200.807 457.011 199 448.247 199C439.483 199 430.839 200.807 423 204.279C415.161 207.75 408.342 212.79 403.084 219C398.043 215.652 392.695 212.683 387.096 210.125ZM585.629 201.377C594.861 187.929 607.846 176.813 623.335 169.099C638.824 161.385 656.295 157.333 674.065 157.333C691.834 157.333 709.305 161.385 724.794 169.099C740.283 176.813 753.268 187.929 762.5 201.377C756.139 202.628 749.912 204.364 743.889 206.567C736.11 196.526 725.687 188.313 713.522 182.639C701.356 176.965 687.814 174 674.065 174C660.315 174 646.773 176.965 634.607 182.639C622.442 188.313 612.019 196.526 604.24 206.567C598.217 204.364 591.99 202.628 585.629 201.377ZM612.913 210.125C619.883 201.525 629.064 194.519 639.698 189.686C650.332 184.853 662.112 182.332 674.065 182.332C686.017 182.332 697.797 184.853 708.431 189.686C719.065 194.519 728.246 201.525 735.216 210.125C729.616 212.683 724.268 215.652 719.228 219C713.969 212.79 707.151 207.75 699.312 204.279C691.473 200.807 682.829 199 674.065 199C665.3 199 656.656 200.807 648.817 204.279C640.978 207.75 634.16 212.79 628.901 219C623.861 215.652 618.513 212.683 612.913 210.125ZM359.812 101.377C369.043 87.9291 382.029 76.8132 397.518 69.0992C413.007 61.3853 430.477 57.3333 448.247 57.3333C466.017 57.3333 483.488 61.3853 498.976 69.0992C514.465 76.8132 527.451 87.9291 536.683 101.377C530.322 102.628 524.095 104.364 518.072 106.567C510.293 96.5258 499.87 88.3135 487.705 82.6394C475.539 76.9654 461.997 74.0003 448.247 74.0003C434.498 74.0003 420.955 76.9654 408.79 82.6394C396.624 88.3135 386.202 96.5258 378.423 106.567C372.4 104.364 366.173 102.628 359.812 101.377ZM387.096 110.125C394.065 101.525 403.247 94.5187 413.881 89.6856C424.514 84.8526 436.295 82.3317 448.247 82.3317C460.2 82.3317 471.98 84.8526 482.614 89.6856C493.248 94.5187 502.429 101.525 509.399 110.125C503.799 112.683 498.451 115.652 493.411 119C488.152 112.79 481.333 107.75 473.494 104.279C465.655 100.807 457.011 99 448.247 99C439.483 99 430.839 100.807 423 104.279C415.161 107.75 408.342 112.79 403.084 119C398.043 115.652 392.695 112.683 387.096 110.125ZM410.376 124.28C414.748 119.025 420.454 114.754 427.032 111.81C433.61 108.867 440.877 107.333 448.247 107.333C455.617 107.333 462.884 108.867 469.463 111.81C476.041 114.754 481.746 119.025 486.119 124.28C481.295 128.079 476.849 132.238 472.827 136.71C470.369 132.853 466.797 129.644 462.478 127.411C458.159 125.178 453.248 124.001 448.247 124.001C443.246 124.001 438.335 125.178 434.016 127.411C429.697 129.644 426.126 132.853 423.667 136.71C419.646 132.238 415.199 128.079 410.376 124.28ZM430.092 144.617C431.177 141.089 433.543 137.975 436.824 135.755C440.105 133.536 444.119 132.333 448.247 132.333C452.376 132.333 456.39 133.536 459.671 135.755C462.952 137.975 465.317 141.089 466.403 144.617C465.153 146.325 463.963 148.066 462.833 149.838C453.15 148.721 443.344 148.721 433.661 149.838C432.532 148.066 431.341 146.325 430.092 144.617ZM585.629 101.377C594.861 87.9291 607.846 76.8132 623.335 69.0992C638.824 61.3853 656.295 57.3333 674.065 57.3333C691.834 57.3333 709.305 61.3853 724.794 69.0992C740.283 76.8132 753.268 87.9291 762.5 101.377C756.139 102.628 749.912 104.364 743.889 106.567C736.11 96.5258 725.687 88.3135 713.522 82.6394C701.356 76.9654 687.814 74.0003 674.065 74.0003C660.315 74.0003 646.773 76.9654 634.607 82.6394C622.442 88.3135 612.019 96.5258 604.24 106.567C598.217 104.364 591.99 102.628 585.629 101.377ZM612.913 110.125C619.883 101.525 629.064 94.5187 639.698 89.6856C650.332 84.8526 662.112 82.3317 674.065 82.3317C686.017 82.3317 697.797 84.8526 708.431 89.6856C719.065 94.5187 728.246 101.525 735.216 110.125C729.616 112.683 724.268 115.652 719.228 119C713.969 112.79 707.151 107.75 699.312 104.279C691.473 100.807 682.829 99 674.065 99C665.3 99 656.656 100.807 648.817 104.279C640.978 107.75 634.16 112.79 628.901 119C623.861 115.652 618.513 112.683 612.913 110.125ZM636.193 124.28C640.566 119.025 646.271 114.754 652.849 111.81C659.427 108.867 666.694 107.333 674.065 107.333C681.435 107.333 688.702 108.867 695.28 111.81C701.858 114.754 707.563 119.025 711.936 124.28C707.113 128.079 702.666 132.238 698.645 136.71C696.186 132.853 692.615 129.644 688.296 127.411C683.977 125.178 679.065 124.001 674.065 124.001C669.064 124.001 664.152 125.178 659.833 127.411C655.514 129.644 651.943 132.853 649.484 136.71C645.463 132.238 641.017 128.079 636.193 124.28ZM655.909 144.617C656.995 141.089 659.36 137.975 662.641 135.755C665.922 133.536 669.936 132.333 674.065 132.333C678.193 132.333 682.207 133.536 685.488 135.755C688.769 137.975 691.134 141.089 692.22 144.617C690.971 146.325 689.78 148.066 688.65 149.838C678.967 148.721 669.162 148.721 659.479 149.838C658.349 148.066 657.158 146.325 655.909 144.617ZM543 94.6167C544.086 91.0888 546.452 87.9751 549.732 85.7554C553.013 83.5356 557.027 82.3331 561.156 82.3331C565.284 82.3331 569.298 83.5356 572.579 85.7554C575.86 87.9751 578.226 91.0888 579.312 94.6167C578.062 96.3247 576.871 98.066 575.742 99.8384C566.059 98.7211 556.253 98.7211 546.57 99.8384C545.44 98.066 544.25 96.3247 543 94.6167Z" fill="#F1880A"/>
</g>
<g clip-path="url(#clip5_109_723)">
<path d="M784.715 49V249H1236.35V49H784.715Z" fill="#F19A31"/>
<path d="M922.097 151.377C931.329 137.929 944.314 126.813 959.803 119.099C975.292 111.385 992.763 107.333 1010.53 107.333C1028.3 107.333 1045.77 111.385 1061.26 119.099C1076.75 126.813 1089.74 137.929 1098.97 151.377C1092.61 152.628 1086.38 154.364 1080.36 156.567C1072.58 146.526 1062.16 138.313 1049.99 132.639C1037.82 126.965 1024.28 124 1010.53 124C996.783 124 983.241 126.965 971.075 132.639C958.909 138.313 948.487 146.526 940.708 156.567C934.685 154.364 928.458 152.628 922.097 151.377ZM949.381 160.125C956.35 151.525 965.532 144.519 976.166 139.686C986.8 134.853 998.58 132.332 1010.53 132.332C1022.48 132.332 1034.27 134.853 1044.9 139.686C1055.53 144.519 1064.71 151.525 1071.68 160.125C1066.08 162.683 1060.74 165.652 1055.7 169C1050.44 162.79 1043.62 157.75 1035.78 154.279C1027.94 150.807 1019.3 149 1010.53 149C1001.77 149 993.124 150.807 985.285 154.279C977.446 157.75 970.627 162.79 965.369 169C960.328 165.652 954.981 162.683 949.381 160.125ZM972.661 174.28C977.033 169.025 982.739 164.754 989.317 161.81C995.895 158.867 1003.16 157.333 1010.53 157.333C1017.9 157.333 1025.17 158.867 1031.75 161.81C1038.33 164.754 1044.03 169.025 1048.4 174.28C1043.58 178.079 1039.13 182.238 1035.11 186.71C1032.65 182.853 1029.08 179.644 1024.76 177.411C1020.44 175.178 1015.53 174.001 1010.53 174.001C1005.53 174.001 1000.62 175.178 996.301 177.411C991.982 179.644 988.411 182.853 985.952 186.71C981.931 182.238 977.484 178.079 972.661 174.28ZM992.377 194.617C993.462 191.089 995.828 187.975 999.109 185.755C1002.39 183.536 1006.4 182.333 1010.53 182.333C1014.66 182.333 1018.67 183.536 1021.96 185.755C1025.24 187.975 1027.6 191.089 1028.69 194.617C1027.44 196.325 1026.25 198.066 1025.12 199.838C1015.44 198.721 1005.63 198.721 995.946 199.838C994.817 198.066 993.626 196.325 992.377 194.617ZM809.188 201.377C818.42 187.929 831.405 176.813 846.894 169.099C862.383 161.385 879.854 157.333 897.624 157.333C915.393 157.333 932.864 161.385 948.353 169.099C963.842 176.813 976.827 187.929 986.059 201.377C979.698 202.628 973.471 204.364 967.448 206.567C959.669 196.526 949.247 188.313 937.081 182.639C924.915 176.965 911.373 174 897.624 174C883.874 174 870.332 176.965 858.166 182.639C846.001 188.313 835.578 196.526 827.799 206.567C821.776 204.364 815.549 202.628 809.188 201.377ZM836.472 210.125C843.442 201.525 852.623 194.519 863.257 189.686C873.891 184.853 885.671 182.332 897.624 182.332C909.576 182.332 921.356 184.853 931.99 189.686C942.624 194.519 951.806 201.525 958.775 210.125C953.175 212.683 947.827 215.652 942.787 219C937.529 212.79 930.71 207.75 922.871 204.279C915.032 200.807 906.388 199 897.624 199C888.859 199 880.216 200.807 872.377 204.279C864.538 207.75 857.719 212.79 852.46 219C847.42 215.652 842.072 212.683 836.472 210.125ZM1035.01 201.377C1044.24 187.929 1057.22 176.813 1072.71 169.099C1088.2 161.385 1105.67 157.333 1123.44 157.333C1141.21 157.333 1158.68 161.385 1174.17 169.099C1189.66 176.813 1202.64 187.929 1211.88 201.377C1205.52 202.628 1199.29 204.364 1193.27 206.567C1185.49 196.526 1175.06 188.313 1162.9 182.639C1150.73 176.965 1137.19 174 1123.44 174C1109.69 174 1096.15 176.965 1083.98 182.639C1071.82 188.313 1061.4 196.526 1053.62 206.567C1047.59 204.364 1041.37 202.628 1035.01 201.377ZM1062.29 210.125C1069.26 201.525 1078.44 194.519 1089.07 189.686C1099.71 184.853 1111.49 182.332 1123.44 182.332C1135.39 182.332 1147.17 184.853 1157.81 189.686C1168.44 194.519 1177.62 201.525 1184.59 210.125C1178.99 212.683 1173.64 215.652 1168.6 219C1163.35 212.79 1156.53 207.75 1148.69 204.279C1140.85 200.807 1132.21 199 1123.44 199C1114.68 199 1106.03 200.807 1098.19 204.279C1090.35 207.75 1083.54 212.79 1078.28 219C1073.24 215.652 1067.89 212.683 1062.29 210.125ZM809.188 101.377C818.42 87.9291 831.405 76.8132 846.894 69.0992C862.383 61.3853 879.854 57.3333 897.624 57.3333C915.393 57.3333 932.864 61.3853 948.353 69.0992C963.842 76.8132 976.827 87.9291 986.059 101.377C979.698 102.628 973.471 104.364 967.448 106.567C959.669 96.5258 949.247 88.3135 937.081 82.6394C924.915 76.9654 911.373 74.0003 897.624 74.0003C883.874 74.0003 870.332 76.9654 858.166 82.6394C846.001 88.3135 835.578 96.5258 827.799 106.567C821.776 104.364 815.549 102.628 809.188 101.377ZM836.472 110.125C843.442 101.525 852.623 94.5187 863.257 89.6856C873.891 84.8526 885.671 82.3317 897.624 82.3317C909.576 82.3317 921.356 84.8526 931.99 89.6856C942.624 94.5187 951.806 101.525 958.775 110.125C953.175 112.683 947.827 115.652 942.787 119C937.529 112.79 930.71 107.75 922.871 104.279C915.032 100.807 906.388 99 897.624 99C888.859 99 880.216 100.807 872.377 104.279C864.538 107.75 857.719 112.79 852.46 119C847.42 115.652 842.072 112.683 836.472 110.125ZM859.752 124.28C864.125 119.025 869.83 114.754 876.408 111.81C882.986 108.867 890.254 107.333 897.624 107.333C904.994 107.333 912.261 108.867 918.839 111.81C925.417 114.754 931.123 119.025 935.495 124.28C930.672 128.079 926.225 132.238 922.204 136.71C919.745 132.853 916.174 129.644 911.855 127.411C907.536 125.178 902.625 124.001 897.624 124.001C892.623 124.001 887.711 125.178 883.393 127.411C879.074 129.644 875.502 132.853 873.043 136.71C869.022 132.238 864.576 128.079 859.752 124.28ZM879.468 144.617C880.554 141.089 882.919 137.975 886.2 135.755C889.481 133.536 893.495 132.333 897.624 132.333C901.752 132.333 905.766 133.536 909.047 135.755C912.328 137.975 914.694 141.089 915.779 144.617C914.53 146.325 913.339 148.066 912.21 149.838C902.527 148.721 892.721 148.721 883.038 149.838C881.908 148.066 880.718 146.325 879.468 144.617ZM1035.01 101.377C1044.24 87.9291 1057.22 76.8132 1072.71 69.0992C1088.2 61.3853 1105.67 57.3333 1123.44 57.3333C1141.21 57.3333 1158.68 61.3853 1174.17 69.0992C1189.66 76.8132 1202.64 87.9291 1211.88 101.377C1205.52 102.628 1199.29 104.364 1193.27 106.567C1185.49 96.5258 1175.06 88.3135 1162.9 82.6394C1150.73 76.9654 1137.19 74.0003 1123.44 74.0003C1109.69 74.0003 1096.15 76.9654 1083.98 82.6394C1071.82 88.3135 1061.4 96.5258 1053.62 106.567C1047.59 104.364 1041.37 102.628 1035.01 101.377ZM1062.29 110.125C1069.26 101.525 1078.44 94.5187 1089.07 89.6856C1099.71 84.8526 1111.49 82.3317 1123.44 82.3317C1135.39 82.3317 1147.17 84.8526 1157.81 89.6856C1168.44 94.5187 1177.62 101.525 1184.59 110.125C1178.99 112.683 1173.64 115.652 1168.6 119C1163.35 112.79 1156.53 107.75 1148.69 104.279C1140.85 100.807 1132.21 99 1123.44 99C1114.68 99 1106.03 100.807 1098.19 104.279C1090.35 107.75 1083.54 112.79 1078.28 119C1073.24 115.652 1067.89 112.683 1062.29 110.125ZM1085.57 124.28C1089.94 119.025 1095.65 114.754 1102.23 111.81C1108.8 108.867 1116.07 107.333 1123.44 107.333C1130.81 107.333 1138.08 108.867 1144.66 111.81C1151.23 114.754 1156.94 119.025 1161.31 124.28C1156.49 128.079 1152.04 132.238 1148.02 136.71C1145.56 132.853 1141.99 129.644 1137.67 127.411C1133.35 125.178 1128.44 124.001 1123.44 124.001C1118.44 124.001 1113.53 125.178 1109.21 127.411C1104.89 129.644 1101.32 132.853 1098.86 136.71C1094.84 132.238 1090.39 128.079 1085.57 124.28ZM1105.29 144.617C1106.37 141.089 1108.74 137.975 1112.02 135.755C1115.3 133.536 1119.31 132.333 1123.44 132.333C1127.57 132.333 1131.58 133.536 1134.86 135.755C1138.15 137.975 1140.51 141.089 1141.6 144.617C1140.35 146.325 1139.16 148.066 1138.03 149.838C1128.34 148.721 1118.54 148.721 1108.86 149.838C1107.73 148.066 1106.53 146.325 1105.29 144.617ZM992.377 94.6167C993.462 91.0888 995.828 87.9751 999.109 85.7554C1002.39 83.5356 1006.4 82.3331 1010.53 82.3331C1014.66 82.3331 1018.67 83.5356 1021.96 85.7554C1025.24 87.9751 1027.6 91.0888 1028.69 94.6167C1027.44 96.3247 1026.25 98.066 1025.12 99.8384C1015.44 98.7211 1005.63 98.7211 995.946 99.8384C994.817 98.066 993.626 96.3247 992.377 94.6167Z" fill="#F1880A"/>
</g>
<g clip-path="url(#clip6_109_723)">
<path d="M110.65 -50V150H562.284V-50H110.65Z" fill="#F19A31"/>
<path d="M248.032 52.3767C257.264 38.9291 270.249 27.8131 285.738 20.0992C301.227 12.3853 318.698 8.33325 336.467 8.33325C354.237 8.33325 371.708 12.3853 387.197 20.0992C402.686 27.8131 415.671 38.9291 424.903 52.3767C418.542 53.6278 412.315 55.3643 406.292 57.5667C398.513 47.5258 388.09 39.3135 375.925 33.6394C363.759 27.9654 350.217 25.0003 336.467 25.0003C322.718 25.0003 309.176 27.9654 297.01 33.6394C284.845 39.3135 274.422 47.5258 266.643 57.5667C260.62 55.3643 254.393 53.6278 248.032 52.3767ZM275.316 61.125C282.285 52.5251 291.467 45.5187 302.101 40.6856C312.735 35.8526 324.515 33.3317 336.467 33.3317C348.42 33.3317 360.2 35.8526 370.834 40.6856C381.468 45.5187 390.649 52.5251 397.619 61.125C392.019 63.6831 386.671 66.6518 381.631 70C376.372 63.7902 369.554 58.75 361.715 55.2787C353.876 51.8073 345.232 50 336.467 50C327.703 50 319.059 51.8073 311.22 55.2787C303.381 58.75 296.562 63.7902 291.304 70C286.264 66.6518 280.916 63.6831 275.316 61.125ZM298.596 75.28C302.968 70.0253 308.674 65.7541 315.252 62.8104C321.83 59.8668 329.097 58.3331 336.467 58.3331C343.838 58.3331 351.105 59.8668 357.683 62.8104C364.261 65.7541 369.966 70.0253 374.339 75.28C369.515 79.0792 365.069 83.2378 361.048 87.71C358.589 83.853 355.017 80.6438 350.699 78.4108C346.38 76.1777 341.468 75.001 336.467 75.001C331.466 75.001 326.555 76.1777 322.236 78.4108C317.917 80.6438 314.346 83.853 311.887 87.71C307.866 83.2378 303.419 79.0792 298.596 75.28ZM318.312 95.6167C319.397 92.0888 321.763 88.9751 325.044 86.7553C328.325 84.5356 332.339 83.3331 336.467 83.3331C340.596 83.3331 344.61 84.5356 347.891 86.7553C351.172 88.9751 353.537 92.0888 354.623 95.6167C353.373 97.3246 352.183 99.066 351.053 100.838C341.37 99.7211 331.565 99.7211 321.881 100.838C320.752 99.066 319.561 97.3246 318.312 95.6167ZM135.123 102.377C144.355 88.9291 157.341 77.8131 172.829 70.0992C188.318 62.3853 205.789 58.3333 223.559 58.3333C241.329 58.3333 258.799 62.3853 274.288 70.0992C289.777 77.8131 302.763 88.9291 311.994 102.377C305.633 103.628 299.406 105.364 293.383 107.567C285.604 97.5258 275.182 89.3135 263.016 83.6394C250.851 77.9654 237.308 75.0003 223.559 75.0003C209.809 75.0003 196.267 77.9654 184.101 83.6394C171.936 89.3135 161.513 97.5258 153.734 107.567C147.711 105.364 141.484 103.628 135.123 102.377ZM162.407 111.125C169.377 102.525 178.558 95.5187 189.192 90.6856C199.826 85.8526 211.606 83.3317 223.559 83.3317C235.511 83.3317 247.291 85.8526 257.925 90.6856C268.559 95.5187 277.741 102.525 284.71 111.125C279.111 113.683 273.763 116.652 268.722 120C263.464 113.79 256.645 108.75 248.806 105.279C240.967 101.807 232.323 100 223.559 100C214.794 100 206.151 101.807 198.312 105.279C190.473 108.75 183.654 113.79 178.395 120C173.355 116.652 168.007 113.683 162.407 111.125ZM360.94 102.377C370.172 88.9291 383.158 77.8131 398.647 70.0992C414.136 62.3853 431.606 58.3333 449.376 58.3333C467.146 58.3333 484.616 62.3853 500.105 70.0992C515.594 77.8131 528.58 88.9291 537.812 102.377C531.451 103.628 525.224 105.364 519.201 107.567C511.422 97.5258 500.999 89.3135 488.833 83.6394C476.668 77.9654 463.125 75.0003 449.376 75.0003C435.627 75.0003 422.084 77.9654 409.919 83.6394C397.753 89.3135 387.331 97.5258 379.551 107.567C373.528 105.364 367.302 103.628 360.94 102.377ZM388.225 111.125C395.194 102.525 404.376 95.5187 415.009 90.6856C425.643 85.8526 437.424 83.3317 449.376 83.3317C461.328 83.3317 473.109 85.8526 483.743 90.6856C494.376 95.5187 503.558 102.525 510.527 111.125C504.928 113.683 499.58 116.652 494.539 120C489.281 113.79 482.462 108.75 474.623 105.279C466.784 101.807 458.14 100 449.376 100C440.612 100 431.968 101.807 424.129 105.279C416.29 108.75 409.471 113.79 404.213 120C399.172 116.652 393.824 113.683 388.225 111.125ZM135.123 2.37669C144.355 -11.0709 157.341 -22.1868 172.829 -29.9008C188.318 -37.6147 205.789 -41.6667 223.559 -41.6667C241.329 -41.6667 258.799 -37.6147 274.288 -29.9008C289.777 -22.1868 302.763 -11.0709 311.994 2.37669C305.633 3.62781 299.406 5.36429 293.383 7.56669C285.604 -2.47422 275.182 -10.6865 263.016 -16.3606C250.851 -22.0346 237.308 -24.9997 223.559 -24.9997C209.809 -24.9997 196.267 -22.0346 184.101 -16.3606C171.936 -10.6865 161.513 -2.47422 153.734 7.56669C147.711 5.36429 141.484 3.62781 135.123 2.37669ZM162.407 11.125C169.377 2.52511 178.558 -4.48127 189.192 -9.31435C199.826 -14.1474 211.606 -16.6683 223.559 -16.6683C235.511 -16.6683 247.291 -14.1474 257.925 -9.31435C268.559 -4.48127 277.741 2.52511 284.71 11.125C279.111 13.6831 273.763 16.6518 268.722 20C263.464 13.7902 256.645 8.75005 248.806 5.27866C240.967 1.80727 232.323 1.90735e-05 223.559 1.90735e-05C214.794 1.90735e-05 206.151 1.80727 198.312 5.27866C190.473 8.75005 183.654 13.7902 178.395 20C173.355 16.6518 168.007 13.6831 162.407 11.125ZM185.687 25.28C190.06 20.0253 195.765 15.7541 202.343 12.8104C208.922 9.86677 216.189 8.33314 223.559 8.33314C230.929 8.33314 238.196 9.86677 244.774 12.8104C251.352 15.7541 257.058 20.0253 261.43 25.28C256.607 29.0792 252.16 33.2378 248.139 37.71C245.68 33.853 242.109 30.6438 237.79 28.4108C233.471 26.1777 228.56 25.001 223.559 25.001C218.558 25.001 213.647 26.1777 209.328 28.4108C205.009 30.6438 201.437 33.853 198.979 37.71C194.957 33.2378 190.511 29.0792 185.687 25.28ZM205.403 45.6167C206.489 42.0888 208.854 38.9751 212.135 36.7553C215.416 34.5356 219.43 33.3331 223.559 33.3331C227.687 33.3331 231.701 34.5356 234.982 36.7553C238.263 38.9751 240.629 42.0888 241.714 45.6167C240.465 47.3247 239.274 49.066 238.145 50.8383C228.462 49.7211 218.656 49.7211 208.973 50.8383C207.843 49.066 206.653 47.3247 205.403 45.6167ZM360.94 2.37669C370.172 -11.0709 383.158 -22.1868 398.647 -29.9008C414.136 -37.6147 431.606 -41.6667 449.376 -41.6667C467.146 -41.6667 484.616 -37.6147 500.105 -29.9008C515.594 -22.1868 528.58 -11.0709 537.812 2.37669C531.451 3.62781 525.224 5.36429 519.201 7.56669C511.422 -2.47422 500.999 -10.6865 488.833 -16.3606C476.668 -22.0346 463.125 -24.9997 449.376 -24.9997C435.627 -24.9997 422.084 -22.0346 409.919 -16.3606C397.753 -10.6865 387.331 -2.47422 379.551 7.56669C373.528 5.36429 367.302 3.62781 360.94 2.37669ZM388.225 11.125C395.194 2.52511 404.376 -4.48127 415.009 -9.31435C425.643 -14.1474 437.424 -16.6683 449.376 -16.6683C461.328 -16.6683 473.109 -14.1474 483.743 -9.31435C494.376 -4.48127 503.558 2.52511 510.527 11.125C504.928 13.6831 499.58 16.6518 494.539 20C489.281 13.7902 482.462 8.75005 474.623 5.27866C466.784 1.80727 458.14 1.90735e-05 449.376 1.90735e-05C440.612 1.90735e-05 431.968 1.80727 424.129 5.27866C416.29 8.75005 409.471 13.7902 404.213 20C399.172 16.6518 393.824 13.6831 388.225 11.125ZM411.505 25.28C415.877 20.0253 421.582 15.7541 428.161 12.8104C434.739 9.86677 442.006 8.33314 449.376 8.33314C456.746 8.33314 464.013 9.86677 470.591 12.8104C477.17 15.7541 482.875 20.0253 487.247 25.28C482.424 29.0792 477.977 33.2378 473.956 37.71C471.498 33.853 467.926 30.6438 463.607 28.4108C459.288 26.1777 454.377 25.001 449.376 25.001C444.375 25.001 439.464 26.1777 435.145 28.4108C430.826 30.6438 427.254 33.853 424.796 37.71C420.775 33.2378 416.328 29.0792 411.505 25.28ZM431.22 45.6167C432.306 42.0888 434.672 38.9751 437.953 36.7553C441.233 34.5356 445.247 33.3331 449.376 33.3331C453.505 33.3331 457.519 34.5356 460.8 36.7553C464.08 38.9751 466.446 42.0888 467.532 45.6167C466.282 47.3247 465.092 49.066 463.962 50.8383C454.279 49.7211 444.473 49.7211 434.79 50.8383C433.66 49.066 432.47 47.3247 431.22 45.6167ZM318.312 -4.38332C319.397 -7.91119 321.763 -11.0249 325.044 -13.2446C328.325 -15.4644 332.339 -16.6669 336.467 -16.6669C340.596 -16.6669 344.61 -15.4644 347.891 -13.2446C351.172 -11.0249 353.537 -7.91119 354.623 -4.38332C353.373 -2.67534 352.183 -0.933971 351.053 0.838352C341.37 -0.278885 331.565 -0.278885 321.881 0.838352C320.752 -0.933971 319.561 -2.67534 318.312 -4.38332Z" fill="#F1880A"/>
</g>
<g clip-path="url(#clip7_109_723)">
<path d="M558.897 -50V150H1010.53V-50H558.897Z" fill="#F19A31"/>
<path d="M696.279 52.3767C705.511 38.9291 718.497 27.8131 733.986 20.0992C749.475 12.3853 766.945 8.33325 784.715 8.33325C802.485 8.33325 819.955 12.3853 835.444 20.0992C850.933 27.8131 863.919 38.9291 873.151 52.3767C866.789 53.6278 860.563 55.3643 854.54 57.5667C846.76 47.5258 836.338 39.3135 824.172 33.6394C812.007 27.9654 798.464 25.0003 784.715 25.0003C770.966 25.0003 757.423 27.9654 745.258 33.6394C733.092 39.3135 722.669 47.5258 714.89 57.5667C708.867 55.3643 702.64 53.6278 696.279 52.3767ZM723.564 61.125C730.533 52.5251 739.715 45.5187 750.348 40.6856C760.982 35.8526 772.763 33.3317 784.715 33.3317C796.667 33.3317 808.448 35.8526 819.082 40.6856C829.715 45.5187 838.897 52.5251 845.866 61.125C840.267 63.6831 834.919 66.6518 829.878 70C824.62 63.7902 817.801 58.75 809.962 55.2787C802.123 51.8073 793.479 50 784.715 50C775.951 50 767.307 51.8073 759.468 55.2787C751.629 58.75 744.81 63.7902 739.551 70C734.511 66.6518 729.163 63.6831 723.564 61.125ZM746.844 75.28C751.216 70.0253 756.921 65.7541 763.5 62.8104C770.078 59.8668 777.345 58.3331 784.715 58.3331C792.085 58.3331 799.352 59.8668 805.93 62.8104C812.509 65.7541 818.214 70.0253 822.586 75.28C817.763 79.0792 813.316 83.2378 809.295 87.71C806.836 83.853 803.265 80.6438 798.946 78.4108C794.627 76.1777 789.716 75.001 784.715 75.001C779.714 75.001 774.803 76.1777 770.484 78.4108C766.165 80.6438 762.593 83.853 760.135 87.71C756.114 83.2378 751.667 79.0792 746.844 75.28ZM766.559 95.6167C767.645 92.0888 770.011 88.9751 773.291 86.7553C776.572 84.5356 780.586 83.3331 784.715 83.3331C788.844 83.3331 792.858 84.5356 796.138 86.7553C799.419 88.9751 801.785 92.0888 802.871 95.6167C801.621 97.3246 800.431 99.066 799.301 100.838C789.618 99.7211 779.812 99.7211 770.129 100.838C768.999 99.066 767.809 97.3246 766.559 95.6167ZM583.371 102.377C592.602 88.9291 605.588 77.8131 621.077 70.0992C636.566 62.3853 654.036 58.3333 671.806 58.3333C689.576 58.3333 707.047 62.3853 722.536 70.0992C738.025 77.8131 751.01 88.9291 760.242 102.377C753.881 103.628 747.654 105.364 741.631 107.567C733.852 97.5258 723.429 89.3135 711.264 83.6394C699.098 77.9654 685.556 75.0003 671.806 75.0003C658.057 75.0003 644.514 77.9654 632.349 83.6394C620.183 89.3135 609.761 97.5258 601.982 107.567C595.959 105.364 589.732 103.628 583.371 102.377ZM610.655 111.125C617.624 102.525 626.806 95.5187 637.44 90.6856C648.074 85.8526 659.854 83.3317 671.806 83.3317C683.759 83.3317 695.539 85.8526 706.173 90.6856C716.807 95.5187 725.988 102.525 732.958 111.125C727.358 113.683 722.01 116.652 716.97 120C711.711 113.79 704.892 108.75 697.053 105.279C689.214 101.807 680.571 100 671.806 100C663.042 100 654.398 101.807 646.559 105.279C638.72 108.75 631.901 113.79 626.643 120C621.602 116.652 616.255 113.683 610.655 111.125ZM809.188 102.377C818.42 88.9291 831.405 77.8131 846.894 70.0992C862.383 62.3853 879.854 58.3333 897.624 58.3333C915.393 58.3333 932.864 62.3853 948.353 70.0992C963.842 77.8131 976.827 88.9291 986.059 102.377C979.698 103.628 973.471 105.364 967.448 107.567C959.669 97.5258 949.246 89.3135 937.081 83.6394C924.915 77.9654 911.373 75.0003 897.624 75.0003C883.874 75.0003 870.332 77.9654 858.166 83.6394C846.001 89.3135 835.578 97.5258 827.799 107.567C821.776 105.364 815.549 103.628 809.188 102.377ZM836.472 111.125C843.442 102.525 852.623 95.5187 863.257 90.6856C873.891 85.8526 885.671 83.3317 897.624 83.3317C909.576 83.3317 921.356 85.8526 931.99 90.6856C942.624 95.5187 951.806 102.525 958.775 111.125C953.175 113.683 947.827 116.652 942.787 120C937.529 113.79 930.71 108.75 922.871 105.279C915.032 101.807 906.388 100 897.624 100C888.859 100 880.215 101.807 872.376 105.279C864.537 108.75 857.719 113.79 852.46 120C847.42 116.652 842.072 113.683 836.472 111.125ZM583.371 2.37669C592.602 -11.0709 605.588 -22.1868 621.077 -29.9008C636.566 -37.6147 654.036 -41.6667 671.806 -41.6667C689.576 -41.6667 707.047 -37.6147 722.536 -29.9008C738.025 -22.1868 751.01 -11.0709 760.242 2.37669C753.881 3.62781 747.654 5.36429 741.631 7.56669C733.852 -2.47422 723.429 -10.6865 711.264 -16.3606C699.098 -22.0346 685.556 -24.9997 671.806 -24.9997C658.057 -24.9997 644.514 -22.0346 632.349 -16.3606C620.183 -10.6865 609.761 -2.47422 601.982 7.56669C595.959 5.36429 589.732 3.62781 583.371 2.37669ZM610.655 11.125C617.624 2.52511 626.806 -4.48127 637.44 -9.31435C648.074 -14.1474 659.854 -16.6683 671.806 -16.6683C683.759 -16.6683 695.539 -14.1474 706.173 -9.31435C716.807 -4.48127 725.988 2.52511 732.958 11.125C727.358 13.6831 722.01 16.6518 716.97 20C711.711 13.7902 704.892 8.75005 697.053 5.27866C689.214 1.80727 680.571 1.90735e-05 671.806 1.90735e-05C663.042 1.90735e-05 654.398 1.80727 646.559 5.27866C638.72 8.75005 631.901 13.7902 626.643 20C621.602 16.6518 616.255 13.6831 610.655 11.125ZM633.935 25.28C638.307 20.0253 644.013 15.7541 650.591 12.8104C657.169 9.86677 664.436 8.33314 671.806 8.33314C679.176 8.33314 686.444 9.86677 693.022 12.8104C699.6 15.7541 705.305 20.0253 709.678 25.28C704.854 29.0792 700.408 33.2378 696.387 37.71C693.928 33.853 690.356 30.6438 686.037 28.4108C681.719 26.1777 676.807 25.001 671.806 25.001C666.805 25.001 661.894 26.1777 657.575 28.4108C653.256 30.6438 649.685 33.853 647.226 37.71C643.205 33.2378 638.758 29.0792 633.935 25.28ZM653.651 45.6167C654.736 42.0888 657.102 38.9751 660.383 36.7553C663.664 34.5356 667.678 33.3331 671.806 33.3331C675.935 33.3331 679.949 34.5356 683.23 36.7553C686.511 38.9751 688.876 42.0888 689.962 45.6167C688.712 47.3247 687.522 49.066 686.392 50.8383C676.709 49.7211 666.903 49.7211 657.22 50.8383C656.091 49.066 654.9 47.3247 653.651 45.6167ZM809.188 2.37669C818.42 -11.0709 831.405 -22.1868 846.894 -29.9008C862.383 -37.6147 879.854 -41.6667 897.624 -41.6667C915.393 -41.6667 932.864 -37.6147 948.353 -29.9008C963.842 -22.1868 976.827 -11.0709 986.059 2.37669C979.698 3.62781 973.471 5.36429 967.448 7.56669C959.669 -2.47422 949.246 -10.6865 937.081 -16.3606C924.915 -22.0346 911.373 -24.9997 897.624 -24.9997C883.874 -24.9997 870.332 -22.0346 858.166 -16.3606C846.001 -10.6865 835.578 -2.47422 827.799 7.56669C821.776 5.36429 815.549 3.62781 809.188 2.37669ZM836.472 11.125C843.442 2.52511 852.623 -4.48127 863.257 -9.31435C873.891 -14.1474 885.671 -16.6683 897.624 -16.6683C909.576 -16.6683 921.356 -14.1474 931.99 -9.31435C942.624 -4.48127 951.806 2.52511 958.775 11.125C953.175 13.6831 947.827 16.6518 942.787 20C937.529 13.7902 930.71 8.75005 922.871 5.27866C915.032 1.80727 906.388 1.90735e-05 897.624 1.90735e-05C888.859 1.90735e-05 880.215 1.80727 872.376 5.27866C864.537 8.75005 857.719 13.7902 852.46 20C847.42 16.6518 842.072 13.6831 836.472 11.125ZM859.752 25.28C864.125 20.0253 869.83 15.7541 876.408 12.8104C882.986 9.86677 890.253 8.33314 897.624 8.33314C904.994 8.33314 912.261 9.86677 918.839 12.8104C925.417 15.7541 931.122 20.0253 935.495 25.28C930.672 29.0792 926.225 33.2378 922.204 37.71C919.745 33.853 916.174 30.6438 911.855 28.4108C907.536 26.1777 902.625 25.001 897.624 25.001C892.623 25.001 887.711 26.1777 883.392 28.4108C879.074 30.6438 875.502 33.853 873.043 37.71C869.022 33.2378 864.576 29.0792 859.752 25.28ZM879.468 45.6167C880.554 42.0888 882.919 38.9751 886.2 36.7553C889.481 34.5356 893.495 33.3331 897.624 33.3331C901.752 33.3331 905.766 34.5356 909.047 36.7553C912.328 38.9751 914.694 42.0888 915.779 45.6167C914.53 47.3247 913.339 49.066 912.21 50.8383C902.526 49.7211 892.721 49.7211 883.038 50.8383C881.908 49.066 880.718 47.3247 879.468 45.6167ZM766.559 -4.38332C767.645 -7.91119 770.011 -11.0249 773.291 -13.2446C776.572 -15.4644 780.586 -16.6669 784.715 -16.6669C788.844 -16.6669 792.858 -15.4644 796.138 -13.2446C799.419 -11.0249 801.785 -7.91119 802.871 -4.38332C801.621 -2.67534 800.431 -0.933971 799.301 0.838352C789.618 -0.278885 779.812 -0.278885 770.129 0.838352C768.999 -0.933971 767.809 -2.67534 766.559 -4.38332Z" fill="#F1880A"/>
</g>
<g clip-path="url(#clip8_109_723)">
<path d="M1008.27 -50V150H1459.91V-50H1008.27Z" fill="#F19A31"/>
<path d="M1145.66 52.3767C1154.89 38.9291 1167.87 27.8131 1183.36 20.0992C1198.85 12.3853 1216.32 8.33325 1234.09 8.33325C1251.86 8.33325 1269.33 12.3853 1284.82 20.0992C1300.31 27.8131 1313.3 38.9291 1322.53 52.3767C1316.17 53.6278 1309.94 55.3643 1303.92 57.5667C1296.14 47.5258 1285.71 39.3135 1273.55 33.6394C1261.38 27.9654 1247.84 25.0003 1234.09 25.0003C1220.34 25.0003 1206.8 27.9654 1194.63 33.6394C1182.47 39.3135 1172.05 47.5258 1164.27 57.5667C1158.24 55.3643 1152.02 53.6278 1145.66 52.3767ZM1172.94 61.125C1179.91 52.5251 1189.09 45.5187 1199.72 40.6856C1210.36 35.8526 1222.14 33.3317 1234.09 33.3317C1246.04 33.3317 1257.82 35.8526 1268.46 40.6856C1279.09 45.5187 1288.27 52.5251 1295.24 61.125C1289.64 63.6831 1284.3 66.6518 1279.25 70C1274 63.7902 1267.18 58.75 1259.34 55.2787C1251.5 51.8073 1242.86 50 1234.09 50C1225.33 50 1216.68 51.8073 1208.84 55.2787C1201.01 58.75 1194.19 63.7902 1188.93 70C1183.89 66.6518 1178.54 63.6831 1172.94 61.125ZM1196.22 75.28C1200.59 70.0253 1206.3 65.7541 1212.88 62.8104C1219.45 59.8668 1226.72 58.3331 1234.09 58.3331C1241.46 58.3331 1248.73 59.8668 1255.31 62.8104C1261.89 65.7541 1267.59 70.0253 1271.96 75.28C1267.14 79.0792 1262.69 83.2378 1258.67 87.71C1256.21 83.853 1252.64 80.6438 1248.32 78.4108C1244 76.1777 1239.09 75.001 1234.09 75.001C1229.09 75.001 1224.18 76.1777 1219.86 78.4108C1215.54 80.6438 1211.97 83.853 1209.51 87.71C1205.49 83.2378 1201.04 79.0792 1196.22 75.28ZM1215.94 95.6167C1217.02 92.0888 1219.39 88.9751 1222.67 86.7553C1225.95 84.5356 1229.96 83.3331 1234.09 83.3331C1238.22 83.3331 1242.23 84.5356 1245.51 86.7553C1248.8 88.9751 1251.16 92.0888 1252.25 95.6167C1251 97.3246 1249.81 99.066 1248.68 100.838C1238.99 99.7211 1229.19 99.7211 1219.51 100.838C1218.38 99.066 1217.19 97.3246 1215.94 95.6167ZM1032.75 102.377C1041.98 88.9291 1054.96 77.8131 1070.45 70.0992C1085.94 62.3853 1103.41 58.3333 1121.18 58.3333C1138.95 58.3333 1156.42 62.3853 1171.91 70.0992C1187.4 77.8131 1200.39 88.9291 1209.62 102.377C1203.26 103.628 1197.03 105.364 1191.01 107.567C1183.23 97.5258 1172.81 89.3135 1160.64 83.6394C1148.47 77.9654 1134.93 75.0003 1121.18 75.0003C1107.43 75.0003 1093.89 77.9654 1081.73 83.6394C1069.56 89.3135 1059.14 97.5258 1051.36 107.567C1045.34 105.364 1039.11 103.628 1032.75 102.377ZM1060.03 111.125C1067 102.525 1076.18 95.5187 1086.82 90.6856C1097.45 85.8526 1109.23 83.3317 1121.18 83.3317C1133.14 83.3317 1144.92 85.8526 1155.55 90.6856C1166.18 95.5187 1175.36 102.525 1182.33 111.125C1176.73 113.683 1171.39 116.652 1166.35 120C1161.09 113.79 1154.27 108.75 1146.43 105.279C1138.59 101.807 1129.95 100 1121.18 100C1112.42 100 1103.77 101.807 1095.94 105.279C1088.1 108.75 1081.28 113.79 1076.02 120C1070.98 116.652 1065.63 113.683 1060.03 111.125ZM1258.56 102.377C1267.8 88.9291 1280.78 77.8131 1296.27 70.0992C1311.76 62.3853 1329.23 58.3333 1347 58.3333C1364.77 58.3333 1382.24 62.3853 1397.73 70.0992C1413.22 77.8131 1426.2 88.9291 1435.44 102.377C1429.07 103.628 1422.85 105.364 1416.82 107.567C1409.05 97.5258 1398.62 89.3135 1386.46 83.6394C1374.29 77.9654 1360.75 75.0003 1347 75.0003C1333.25 75.0003 1319.71 77.9654 1307.54 83.6394C1295.38 89.3135 1284.95 97.5258 1277.18 107.567C1271.15 105.364 1264.93 103.628 1258.56 102.377ZM1285.85 111.125C1292.82 102.525 1302 95.5187 1312.63 90.6856C1323.27 85.8526 1335.05 83.3317 1347 83.3317C1358.95 83.3317 1370.73 85.8526 1381.37 90.6856C1392 95.5187 1401.18 102.525 1408.15 111.125C1402.55 113.683 1397.2 116.652 1392.16 120C1386.9 113.79 1380.09 108.75 1372.25 105.279C1364.41 101.807 1355.76 100 1347 100C1338.24 100 1329.59 101.807 1321.75 105.279C1313.91 108.75 1307.1 113.79 1301.84 120C1296.8 116.652 1291.45 113.683 1285.85 111.125ZM1032.75 2.37669C1041.98 -11.0709 1054.96 -22.1868 1070.45 -29.9008C1085.94 -37.6147 1103.41 -41.6667 1121.18 -41.6667C1138.95 -41.6667 1156.42 -37.6147 1171.91 -29.9008C1187.4 -22.1868 1200.39 -11.0709 1209.62 2.37669C1203.26 3.62781 1197.03 5.36429 1191.01 7.56669C1183.23 -2.47422 1172.81 -10.6865 1160.64 -16.3606C1148.47 -22.0346 1134.93 -24.9997 1121.18 -24.9997C1107.43 -24.9997 1093.89 -22.0346 1081.73 -16.3606C1069.56 -10.6865 1059.14 -2.47422 1051.36 7.56669C1045.34 5.36429 1039.11 3.62781 1032.75 2.37669ZM1060.03 11.125C1067 2.52511 1076.18 -4.48127 1086.82 -9.31435C1097.45 -14.1474 1109.23 -16.6683 1121.18 -16.6683C1133.14 -16.6683 1144.92 -14.1474 1155.55 -9.31435C1166.18 -4.48127 1175.36 2.52511 1182.33 11.125C1176.73 13.6831 1171.39 16.6518 1166.35 20C1161.09 13.7902 1154.27 8.75005 1146.43 5.27866C1138.59 1.80727 1129.95 1.90735e-05 1121.18 1.90735e-05C1112.42 1.90735e-05 1103.77 1.80727 1095.94 5.27866C1088.1 8.75005 1081.28 13.7902 1076.02 20C1070.98 16.6518 1065.63 13.6831 1060.03 11.125ZM1083.31 25.28C1087.68 20.0253 1093.39 15.7541 1099.97 12.8104C1106.55 9.86677 1113.81 8.33314 1121.18 8.33314C1128.55 8.33314 1135.82 9.86677 1142.4 12.8104C1148.98 15.7541 1154.68 20.0253 1159.05 25.28C1154.23 29.0792 1149.78 33.2378 1145.76 37.71C1143.3 33.853 1139.73 30.6438 1135.41 28.4108C1131.09 26.1777 1126.18 25.001 1121.18 25.001C1116.18 25.001 1111.27 26.1777 1106.95 28.4108C1102.63 30.6438 1099.06 33.853 1096.6 37.71C1092.58 33.2378 1088.13 29.0792 1083.31 25.28ZM1103.03 45.6167C1104.11 42.0888 1106.48 38.9751 1109.76 36.7553C1113.04 34.5356 1117.05 33.3331 1121.18 33.3331C1125.31 33.3331 1129.33 34.5356 1132.61 36.7553C1135.89 38.9751 1138.25 42.0888 1139.34 45.6167C1138.09 47.3247 1136.9 49.066 1135.77 50.8383C1126.09 49.7211 1116.28 49.7211 1106.6 50.8383C1105.47 49.066 1104.28 47.3247 1103.03 45.6167ZM1258.56 2.37669C1267.8 -11.0709 1280.78 -22.1868 1296.27 -29.9008C1311.76 -37.6147 1329.23 -41.6667 1347 -41.6667C1364.77 -41.6667 1382.24 -37.6147 1397.73 -29.9008C1413.22 -22.1868 1426.2 -11.0709 1435.44 2.37669C1429.07 3.62781 1422.85 5.36429 1416.82 7.56669C1409.05 -2.47422 1398.62 -10.6865 1386.46 -16.3606C1374.29 -22.0346 1360.75 -24.9997 1347 -24.9997C1333.25 -24.9997 1319.71 -22.0346 1307.54 -16.3606C1295.38 -10.6865 1284.95 -2.47422 1277.18 7.56669C1271.15 5.36429 1264.93 3.62781 1258.56 2.37669ZM1285.85 11.125C1292.82 2.52511 1302 -4.48127 1312.63 -9.31435C1323.27 -14.1474 1335.05 -16.6683 1347 -16.6683C1358.95 -16.6683 1370.73 -14.1474 1381.37 -9.31435C1392 -4.48127 1401.18 2.52511 1408.15 11.125C1402.55 13.6831 1397.2 16.6518 1392.16 20C1386.9 13.7902 1380.09 8.75005 1372.25 5.27866C1364.41 1.80727 1355.76 1.90735e-05 1347 1.90735e-05C1338.24 1.90735e-05 1329.59 1.80727 1321.75 5.27866C1313.91 8.75005 1307.1 13.7902 1301.84 20C1296.8 16.6518 1291.45 13.6831 1285.85 11.125ZM1309.13 25.28C1313.5 20.0253 1319.21 15.7541 1325.78 12.8104C1332.36 9.86677 1339.63 8.33314 1347 8.33314C1354.37 8.33314 1361.64 9.86677 1368.22 12.8104C1374.79 15.7541 1380.5 20.0253 1384.87 25.28C1380.05 29.0792 1375.6 33.2378 1371.58 37.71C1369.12 33.853 1365.55 30.6438 1361.23 28.4108C1356.91 26.1777 1352 25.001 1347 25.001C1342 25.001 1337.09 26.1777 1332.77 28.4108C1328.45 30.6438 1324.88 33.853 1322.42 37.71C1318.4 33.2378 1313.95 29.0792 1309.13 25.28ZM1328.84 45.6167C1329.93 42.0888 1332.3 38.9751 1335.58 36.7553C1338.86 34.5356 1342.87 33.3331 1347 33.3331C1351.13 33.3331 1355.14 34.5356 1358.42 36.7553C1361.7 38.9751 1364.07 42.0888 1365.16 45.6167C1363.91 47.3247 1362.72 49.066 1361.59 50.8383C1351.9 49.7211 1342.1 49.7211 1332.41 50.8383C1331.28 49.066 1330.09 47.3247 1328.84 45.6167ZM1215.94 -4.38332C1217.02 -7.91119 1219.39 -11.0249 1222.67 -13.2446C1225.95 -15.4644 1229.96 -16.6669 1234.09 -16.6669C1238.22 -16.6669 1242.23 -15.4644 1245.51 -13.2446C1248.8 -11.0249 1251.16 -7.91119 1252.25 -4.38332C1251 -2.67534 1249.81 -0.933971 1248.68 0.838352C1238.99 -0.278885 1229.19 -0.278885 1219.51 0.838352C1218.38 -0.933971 1217.19 -2.67534 1215.94 -4.38332Z" fill="#F1880A"/>
</g>
<g clip-path="url(#clip9_109_723)">
<path d="M110.65 49V249H562.284V49H110.65Z" fill="#F19A31"/>
<path d="M248.032 151.377C257.264 137.929 270.249 126.813 285.738 119.099C301.227 111.385 318.698 107.333 336.467 107.333C354.237 107.333 371.708 111.385 387.197 119.099C402.686 126.813 415.671 137.929 424.903 151.377C418.542 152.628 412.315 154.364 406.292 156.567C398.513 146.526 388.09 138.313 375.925 132.639C363.759 126.965 350.217 124 336.467 124C322.718 124 309.176 126.965 297.01 132.639C284.845 138.313 274.422 146.526 266.643 156.567C260.62 154.364 254.393 152.628 248.032 151.377ZM275.316 160.125C282.285 151.525 291.467 144.519 302.101 139.686C312.735 134.853 324.515 132.332 336.467 132.332C348.42 132.332 360.2 134.853 370.834 139.686C381.468 144.519 390.649 151.525 397.619 160.125C392.019 162.683 386.671 165.652 381.631 169C376.372 162.79 369.554 157.75 361.715 154.279C353.876 150.807 345.232 149 336.467 149C327.703 149 319.059 150.807 311.22 154.279C303.381 157.75 296.562 162.79 291.304 169C286.264 165.652 280.916 162.683 275.316 160.125ZM298.596 174.28C302.968 169.025 308.674 164.754 315.252 161.81C321.83 158.867 329.097 157.333 336.467 157.333C343.838 157.333 351.105 158.867 357.683 161.81C364.261 164.754 369.966 169.025 374.339 174.28C369.515 178.079 365.069 182.238 361.048 186.71C358.589 182.853 355.017 179.644 350.699 177.411C346.38 175.178 341.468 174.001 336.467 174.001C331.466 174.001 326.555 175.178 322.236 177.411C317.917 179.644 314.346 182.853 311.887 186.71C307.866 182.238 303.419 178.079 298.596 174.28ZM318.312 194.617C319.397 191.089 321.763 187.975 325.044 185.755C328.325 183.536 332.339 182.333 336.467 182.333C340.596 182.333 344.61 183.536 347.891 185.755C351.172 187.975 353.537 191.089 354.623 194.617C353.373 196.325 352.183 198.066 351.053 199.838C341.37 198.721 331.565 198.721 321.881 199.838C320.752 198.066 319.561 196.325 318.312 194.617ZM135.123 201.377C144.355 187.929 157.341 176.813 172.829 169.099C188.318 161.385 205.789 157.333 223.559 157.333C241.329 157.333 258.799 161.385 274.288 169.099C289.777 176.813 302.763 187.929 311.994 201.377C305.633 202.628 299.406 204.364 293.383 206.567C285.604 196.526 275.182 188.313 263.016 182.639C250.851 176.965 237.308 174 223.559 174C209.809 174 196.267 176.965 184.101 182.639C171.936 188.313 161.513 196.526 153.734 206.567C147.711 204.364 141.484 202.628 135.123 201.377ZM162.407 210.125C169.377 201.525 178.558 194.519 189.192 189.686C199.826 184.853 211.606 182.332 223.559 182.332C235.511 182.332 247.291 184.853 257.925 189.686C268.559 194.519 277.741 201.525 284.71 210.125C279.111 212.683 273.763 215.652 268.722 219C263.464 212.79 256.645 207.75 248.806 204.279C240.967 200.807 232.323 199 223.559 199C214.794 199 206.151 200.807 198.312 204.279C190.473 207.75 183.654 212.79 178.395 219C173.355 215.652 168.007 212.683 162.407 210.125ZM360.94 201.377C370.172 187.929 383.158 176.813 398.647 169.099C414.136 161.385 431.606 157.333 449.376 157.333C467.146 157.333 484.616 161.385 500.105 169.099C515.594 176.813 528.58 187.929 537.812 201.377C531.451 202.628 525.224 204.364 519.201 206.567C511.422 196.526 500.999 188.313 488.833 182.639C476.668 176.965 463.125 174 449.376 174C435.627 174 422.084 176.965 409.919 182.639C397.753 188.313 387.331 196.526 379.551 206.567C373.528 204.364 367.302 202.628 360.94 201.377ZM388.225 210.125C395.194 201.525 404.376 194.519 415.009 189.686C425.643 184.853 437.424 182.332 449.376 182.332C461.328 182.332 473.109 184.853 483.743 189.686C494.376 194.519 503.558 201.525 510.527 210.125C504.928 212.683 499.58 215.652 494.539 219C489.281 212.79 482.462 207.75 474.623 204.279C466.784 200.807 458.14 199 449.376 199C440.612 199 431.968 200.807 424.129 204.279C416.29 207.75 409.471 212.79 404.213 219C399.172 215.652 393.824 212.683 388.225 210.125ZM135.123 101.377C144.355 87.9291 157.341 76.8132 172.829 69.0992C188.318 61.3853 205.789 57.3333 223.559 57.3333C241.329 57.3333 258.799 61.3853 274.288 69.0992C289.777 76.8132 302.763 87.9291 311.994 101.377C305.633 102.628 299.406 104.364 293.383 106.567C285.604 96.5258 275.182 88.3135 263.016 82.6394C250.851 76.9654 237.308 74.0003 223.559 74.0003C209.809 74.0003 196.267 76.9654 184.101 82.6394C171.936 88.3135 161.513 96.5258 153.734 106.567C147.711 104.364 141.484 102.628 135.123 101.377ZM162.407 110.125C169.377 101.525 178.558 94.5187 189.192 89.6856C199.826 84.8526 211.606 82.3317 223.559 82.3317C235.511 82.3317 247.291 84.8526 257.925 89.6856C268.559 94.5187 277.741 101.525 284.71 110.125C279.111 112.683 273.763 115.652 268.722 119C263.464 112.79 256.645 107.75 248.806 104.279C240.967 100.807 232.323 99 223.559 99C214.794 99 206.151 100.807 198.312 104.279C190.473 107.75 183.654 112.79 178.395 119C173.355 115.652 168.007 112.683 162.407 110.125ZM185.687 124.28C190.06 119.025 195.765 114.754 202.343 111.81C208.922 108.867 216.189 107.333 223.559 107.333C230.929 107.333 238.196 108.867 244.774 111.81C251.352 114.754 257.058 119.025 261.43 124.28C256.607 128.079 252.16 132.238 248.139 136.71C245.68 132.853 242.109 129.644 237.79 127.411C233.471 125.178 228.56 124.001 223.559 124.001C218.558 124.001 213.647 125.178 209.328 127.411C205.009 129.644 201.437 132.853 198.979 136.71C194.957 132.238 190.511 128.079 185.687 124.28ZM205.403 144.617C206.489 141.089 208.854 137.975 212.135 135.755C215.416 133.536 219.43 132.333 223.559 132.333C227.687 132.333 231.701 133.536 234.982 135.755C238.263 137.975 240.629 141.089 241.714 144.617C240.465 146.325 239.274 148.066 238.145 149.838C228.462 148.721 218.656 148.721 208.973 149.838C207.843 148.066 206.653 146.325 205.403 144.617ZM360.94 101.377C370.172 87.9291 383.158 76.8132 398.647 69.0992C414.136 61.3853 431.606 57.3333 449.376 57.3333C467.146 57.3333 484.616 61.3853 500.105 69.0992C515.594 76.8132 528.58 87.9291 537.812 101.377C531.451 102.628 525.224 104.364 519.201 106.567C511.422 96.5258 500.999 88.3135 488.833 82.6394C476.668 76.9654 463.125 74.0003 449.376 74.0003C435.627 74.0003 422.084 76.9654 409.919 82.6394C397.753 88.3135 387.331 96.5258 379.551 106.567C373.528 104.364 367.302 102.628 360.94 101.377ZM388.225 110.125C395.194 101.525 404.376 94.5187 415.009 89.6856C425.643 84.8526 437.424 82.3317 449.376 82.3317C461.328 82.3317 473.109 84.8526 483.743 89.6856C494.376 94.5187 503.558 101.525 510.527 110.125C504.928 112.683 499.58 115.652 494.539 119C489.281 112.79 482.462 107.75 474.623 104.279C466.784 100.807 458.14 99 449.376 99C440.612 99 431.968 100.807 424.129 104.279C416.29 107.75 409.471 112.79 404.213 119C399.172 115.652 393.824 112.683 388.225 110.125ZM411.505 124.28C415.877 119.025 421.582 114.754 428.161 111.81C434.739 108.867 442.006 107.333 449.376 107.333C456.746 107.333 464.013 108.867 470.591 111.81C477.17 114.754 482.875 119.025 487.247 124.28C482.424 128.079 477.977 132.238 473.956 136.71C471.498 132.853 467.926 129.644 463.607 127.411C459.288 125.178 454.377 124.001 449.376 124.001C444.375 124.001 439.464 125.178 435.145 127.411C430.826 129.644 427.254 132.853 424.796 136.71C420.775 132.238 416.328 128.079 411.505 124.28ZM431.22 144.617C432.306 141.089 434.672 137.975 437.953 135.755C441.233 133.536 445.247 132.333 449.376 132.333C453.505 132.333 457.519 133.536 460.8 135.755C464.08 137.975 466.446 141.089 467.532 144.617C466.282 146.325 465.092 148.066 463.962 149.838C454.279 148.721 444.473 148.721 434.79 149.838C433.66 148.066 432.47 146.325 431.22 144.617ZM318.312 94.6167C319.397 91.0888 321.763 87.9751 325.044 85.7554C328.325 83.5356 332.339 82.3331 336.467 82.3331C340.596 82.3331 344.61 83.5356 347.891 85.7554C351.172 87.9751 353.537 91.0888 354.623 94.6167C353.373 96.3247 352.183 98.066 351.053 99.8384C341.37 98.7211 331.565 98.7211 321.881 99.8384C320.752 98.066 319.561 96.3247 318.312 94.6167Z" fill="#F1880A"/>
</g>
<g clip-path="url(#clip10_109_723)">
<path d="M558.897 49V249H1010.53V49H558.897Z" fill="#F19A31"/>
<path d="M696.279 151.377C705.511 137.929 718.497 126.813 733.986 119.099C749.475 111.385 766.945 107.333 784.715 107.333C802.485 107.333 819.955 111.385 835.444 119.099C850.933 126.813 863.919 137.929 873.151 151.377C866.789 152.628 860.563 154.364 854.54 156.567C846.76 146.526 836.338 138.313 824.172 132.639C812.007 126.965 798.464 124 784.715 124C770.966 124 757.423 126.965 745.258 132.639C733.092 138.313 722.669 146.526 714.89 156.567C708.867 154.364 702.64 152.628 696.279 151.377ZM723.564 160.125C730.533 151.525 739.715 144.519 750.348 139.686C760.982 134.853 772.763 132.332 784.715 132.332C796.667 132.332 808.448 134.853 819.082 139.686C829.715 144.519 838.897 151.525 845.866 160.125C840.267 162.683 834.919 165.652 829.878 169C824.62 162.79 817.801 157.75 809.962 154.279C802.123 150.807 793.479 149 784.715 149C775.951 149 767.307 150.807 759.468 154.279C751.629 157.75 744.81 162.79 739.551 169C734.511 165.652 729.163 162.683 723.564 160.125ZM746.844 174.28C751.216 169.025 756.921 164.754 763.5 161.81C770.078 158.867 777.345 157.333 784.715 157.333C792.085 157.333 799.352 158.867 805.93 161.81C812.509 164.754 818.214 169.025 822.586 174.28C817.763 178.079 813.316 182.238 809.295 186.71C806.836 182.853 803.265 179.644 798.946 177.411C794.627 175.178 789.716 174.001 784.715 174.001C779.714 174.001 774.803 175.178 770.484 177.411C766.165 179.644 762.593 182.853 760.135 186.71C756.114 182.238 751.667 178.079 746.844 174.28ZM766.559 194.617C767.645 191.089 770.011 187.975 773.291 185.755C776.572 183.536 780.586 182.333 784.715 182.333C788.844 182.333 792.858 183.536 796.138 185.755C799.419 187.975 801.785 191.089 802.871 194.617C801.621 196.325 800.431 198.066 799.301 199.838C789.618 198.721 779.812 198.721 770.129 199.838C768.999 198.066 767.809 196.325 766.559 194.617ZM583.371 201.377C592.602 187.929 605.588 176.813 621.077 169.099C636.566 161.385 654.036 157.333 671.806 157.333C689.576 157.333 707.047 161.385 722.536 169.099C738.025 176.813 751.01 187.929 760.242 201.377C753.881 202.628 747.654 204.364 741.631 206.567C733.852 196.526 723.429 188.313 711.264 182.639C699.098 176.965 685.556 174 671.806 174C658.057 174 644.514 176.965 632.349 182.639C620.183 188.313 609.761 196.526 601.982 206.567C595.959 204.364 589.732 202.628 583.371 201.377ZM610.655 210.125C617.624 201.525 626.806 194.519 637.44 189.686C648.074 184.853 659.854 182.332 671.806 182.332C683.759 182.332 695.539 184.853 706.173 189.686C716.807 194.519 725.988 201.525 732.958 210.125C727.358 212.683 722.01 215.652 716.97 219C711.711 212.79 704.892 207.75 697.053 204.279C689.214 200.807 680.571 199 671.806 199C663.042 199 654.398 200.807 646.559 204.279C638.72 207.75 631.901 212.79 626.643 219C621.602 215.652 616.255 212.683 610.655 210.125ZM809.188 201.377C818.42 187.929 831.405 176.813 846.894 169.099C862.383 161.385 879.854 157.333 897.624 157.333C915.393 157.333 932.864 161.385 948.353 169.099C963.842 176.813 976.827 187.929 986.059 201.377C979.698 202.628 973.471 204.364 967.448 206.567C959.669 196.526 949.246 188.313 937.081 182.639C924.915 176.965 911.373 174 897.624 174C883.874 174 870.332 176.965 858.166 182.639C846.001 188.313 835.578 196.526 827.799 206.567C821.776 204.364 815.549 202.628 809.188 201.377ZM836.472 210.125C843.442 201.525 852.623 194.519 863.257 189.686C873.891 184.853 885.671 182.332 897.624 182.332C909.576 182.332 921.356 184.853 931.99 189.686C942.624 194.519 951.806 201.525 958.775 210.125C953.175 212.683 947.827 215.652 942.787 219C937.529 212.79 930.71 207.75 922.871 204.279C915.032 200.807 906.388 199 897.624 199C888.859 199 880.215 200.807 872.376 204.279C864.537 207.75 857.719 212.79 852.46 219C847.42 215.652 842.072 212.683 836.472 210.125ZM583.371 101.377C592.602 87.9291 605.588 76.8132 621.077 69.0992C636.566 61.3853 654.036 57.3333 671.806 57.3333C689.576 57.3333 707.047 61.3853 722.536 69.0992C738.025 76.8132 751.01 87.9291 760.242 101.377C753.881 102.628 747.654 104.364 741.631 106.567C733.852 96.5258 723.429 88.3135 711.264 82.6394C699.098 76.9654 685.556 74.0003 671.806 74.0003C658.057 74.0003 644.514 76.9654 632.349 82.6394C620.183 88.3135 609.761 96.5258 601.982 106.567C595.959 104.364 589.732 102.628 583.371 101.377ZM610.655 110.125C617.624 101.525 626.806 94.5187 637.44 89.6856C648.074 84.8526 659.854 82.3317 671.806 82.3317C683.759 82.3317 695.539 84.8526 706.173 89.6856C716.807 94.5187 725.988 101.525 732.958 110.125C727.358 112.683 722.01 115.652 716.97 119C711.711 112.79 704.892 107.75 697.053 104.279C689.214 100.807 680.571 99 671.806 99C663.042 99 654.398 100.807 646.559 104.279C638.72 107.75 631.901 112.79 626.643 119C621.602 115.652 616.255 112.683 610.655 110.125ZM633.935 124.28C638.307 119.025 644.013 114.754 650.591 111.81C657.169 108.867 664.436 107.333 671.806 107.333C679.176 107.333 686.444 108.867 693.022 111.81C699.6 114.754 705.305 119.025 709.678 124.28C704.854 128.079 700.408 132.238 696.387 136.71C693.928 132.853 690.356 129.644 686.037 127.411C681.719 125.178 676.807 124.001 671.806 124.001C666.805 124.001 661.894 125.178 657.575 127.411C653.256 129.644 649.685 132.853 647.226 136.71C643.205 132.238 638.758 128.079 633.935 124.28ZM653.651 144.617C654.736 141.089 657.102 137.975 660.383 135.755C663.664 133.536 667.678 132.333 671.806 132.333C675.935 132.333 679.949 133.536 683.23 135.755C686.511 137.975 688.876 141.089 689.962 144.617C688.712 146.325 687.522 148.066 686.392 149.838C676.709 148.721 666.903 148.721 657.22 149.838C656.091 148.066 654.9 146.325 653.651 144.617ZM809.188 101.377C818.42 87.9291 831.405 76.8132 846.894 69.0992C862.383 61.3853 879.854 57.3333 897.624 57.3333C915.393 57.3333 932.864 61.3853 948.353 69.0992C963.842 76.8132 976.827 87.9291 986.059 101.377C979.698 102.628 973.471 104.364 967.448 106.567C959.669 96.5258 949.246 88.3135 937.081 82.6394C924.915 76.9654 911.373 74.0003 897.624 74.0003C883.874 74.0003 870.332 76.9654 858.166 82.6394C846.001 88.3135 835.578 96.5258 827.799 106.567C821.776 104.364 815.549 102.628 809.188 101.377ZM836.472 110.125C843.442 101.525 852.623 94.5187 863.257 89.6856C873.891 84.8526 885.671 82.3317 897.624 82.3317C909.576 82.3317 921.356 84.8526 931.99 89.6856C942.624 94.5187 951.806 101.525 958.775 110.125C953.175 112.683 947.827 115.652 942.787 119C937.529 112.79 930.71 107.75 922.871 104.279C915.032 100.807 906.388 99 897.624 99C888.859 99 880.215 100.807 872.376 104.279C864.537 107.75 857.719 112.79 852.46 119C847.42 115.652 842.072 112.683 836.472 110.125ZM859.752 124.28C864.125 119.025 869.83 114.754 876.408 111.81C882.986 108.867 890.253 107.333 897.624 107.333C904.994 107.333 912.261 108.867 918.839 111.81C925.417 114.754 931.122 119.025 935.495 124.28C930.672 128.079 926.225 132.238 922.204 136.71C919.745 132.853 916.174 129.644 911.855 127.411C907.536 125.178 902.625 124.001 897.624 124.001C892.623 124.001 887.711 125.178 883.392 127.411C879.074 129.644 875.502 132.853 873.043 136.71C869.022 132.238 864.576 128.079 859.752 124.28ZM879.468 144.617C880.554 141.089 882.919 137.975 886.2 135.755C889.481 133.536 893.495 132.333 897.624 132.333C901.752 132.333 905.766 133.536 909.047 135.755C912.328 137.975 914.694 141.089 915.779 144.617C914.53 146.325 913.339 148.066 912.21 149.838C902.526 148.721 892.721 148.721 883.038 149.838C881.908 148.066 880.718 146.325 879.468 144.617ZM766.559 94.6167C767.645 91.0888 770.011 87.9751 773.291 85.7554C776.572 83.5356 780.586 82.3331 784.715 82.3331C788.844 82.3331 792.858 83.5356 796.138 85.7554C799.419 87.9751 801.785 91.0888 802.871 94.6167C801.621 96.3247 800.431 98.066 799.301 99.8384C789.618 98.7211 779.812 98.7211 770.129 99.8384C768.999 98.066 767.809 96.3247 766.559 94.6167Z" fill="#F1880A"/>
</g>
<g clip-path="url(#clip11_109_723)">
<path d="M1008.27 49V249H1459.91V49H1008.27Z" fill="#F19A31"/>
<path d="M1145.66 151.377C1154.89 137.929 1167.87 126.813 1183.36 119.099C1198.85 111.385 1216.32 107.333 1234.09 107.333C1251.86 107.333 1269.33 111.385 1284.82 119.099C1300.31 126.813 1313.3 137.929 1322.53 151.377C1316.17 152.628 1309.94 154.364 1303.92 156.567C1296.14 146.526 1285.71 138.313 1273.55 132.639C1261.38 126.965 1247.84 124 1234.09 124C1220.34 124 1206.8 126.965 1194.63 132.639C1182.47 138.313 1172.05 146.526 1164.27 156.567C1158.24 154.364 1152.02 152.628 1145.66 151.377ZM1172.94 160.125C1179.91 151.525 1189.09 144.519 1199.72 139.686C1210.36 134.853 1222.14 132.332 1234.09 132.332C1246.04 132.332 1257.82 134.853 1268.46 139.686C1279.09 144.519 1288.27 151.525 1295.24 160.125C1289.64 162.683 1284.3 165.652 1279.25 169C1274 162.79 1267.18 157.75 1259.34 154.279C1251.5 150.807 1242.86 149 1234.09 149C1225.33 149 1216.68 150.807 1208.84 154.279C1201.01 157.75 1194.19 162.79 1188.93 169C1183.89 165.652 1178.54 162.683 1172.94 160.125ZM1196.22 174.28C1200.59 169.025 1206.3 164.754 1212.88 161.81C1219.45 158.867 1226.72 157.333 1234.09 157.333C1241.46 157.333 1248.73 158.867 1255.31 161.81C1261.89 164.754 1267.59 169.025 1271.96 174.28C1267.14 178.079 1262.69 182.238 1258.67 186.71C1256.21 182.853 1252.64 179.644 1248.32 177.411C1244 175.178 1239.09 174.001 1234.09 174.001C1229.09 174.001 1224.18 175.178 1219.86 177.411C1215.54 179.644 1211.97 182.853 1209.51 186.71C1205.49 182.238 1201.04 178.079 1196.22 174.28ZM1215.94 194.617C1217.02 191.089 1219.39 187.975 1222.67 185.755C1225.95 183.536 1229.96 182.333 1234.09 182.333C1238.22 182.333 1242.23 183.536 1245.51 185.755C1248.8 187.975 1251.16 191.089 1252.25 194.617C1251 196.325 1249.81 198.066 1248.68 199.838C1238.99 198.721 1229.19 198.721 1219.51 199.838C1218.38 198.066 1217.19 196.325 1215.94 194.617ZM1032.75 201.377C1041.98 187.929 1054.96 176.813 1070.45 169.099C1085.94 161.385 1103.41 157.333 1121.18 157.333C1138.95 157.333 1156.42 161.385 1171.91 169.099C1187.4 176.813 1200.39 187.929 1209.62 201.377C1203.26 202.628 1197.03 204.364 1191.01 206.567C1183.23 196.526 1172.81 188.313 1160.64 182.639C1148.47 176.965 1134.93 174 1121.18 174C1107.43 174 1093.89 176.965 1081.73 182.639C1069.56 188.313 1059.14 196.526 1051.36 206.567C1045.34 204.364 1039.11 202.628 1032.75 201.377ZM1060.03 210.125C1067 201.525 1076.18 194.519 1086.82 189.686C1097.45 184.853 1109.23 182.332 1121.18 182.332C1133.14 182.332 1144.92 184.853 1155.55 189.686C1166.18 194.519 1175.36 201.525 1182.33 210.125C1176.73 212.683 1171.39 215.652 1166.35 219C1161.09 212.79 1154.27 207.75 1146.43 204.279C1138.59 200.807 1129.95 199 1121.18 199C1112.42 199 1103.77 200.807 1095.94 204.279C1088.1 207.75 1081.28 212.79 1076.02 219C1070.98 215.652 1065.63 212.683 1060.03 210.125ZM1258.56 201.377C1267.8 187.929 1280.78 176.813 1296.27 169.099C1311.76 161.385 1329.23 157.333 1347 157.333C1364.77 157.333 1382.24 161.385 1397.73 169.099C1413.22 176.813 1426.2 187.929 1435.44 201.377C1429.07 202.628 1422.85 204.364 1416.82 206.567C1409.05 196.526 1398.62 188.313 1386.46 182.639C1374.29 176.965 1360.75 174 1347 174C1333.25 174 1319.71 176.965 1307.54 182.639C1295.38 188.313 1284.95 196.526 1277.18 206.567C1271.15 204.364 1264.93 202.628 1258.56 201.377ZM1285.85 210.125C1292.82 201.525 1302 194.519 1312.63 189.686C1323.27 184.853 1335.05 182.332 1347 182.332C1358.95 182.332 1370.73 184.853 1381.37 189.686C1392 194.519 1401.18 201.525 1408.15 210.125C1402.55 212.683 1397.2 215.652 1392.16 219C1386.9 212.79 1380.09 207.75 1372.25 204.279C1364.41 200.807 1355.76 199 1347 199C1338.24 199 1329.59 200.807 1321.75 204.279C1313.91 207.75 1307.1 212.79 1301.84 219C1296.8 215.652 1291.45 212.683 1285.85 210.125ZM1032.75 101.377C1041.98 87.9291 1054.96 76.8132 1070.45 69.0992C1085.94 61.3853 1103.41 57.3333 1121.18 57.3333C1138.95 57.3333 1156.42 61.3853 1171.91 69.0992C1187.4 76.8132 1200.39 87.9291 1209.62 101.377C1203.26 102.628 1197.03 104.364 1191.01 106.567C1183.23 96.5258 1172.81 88.3135 1160.64 82.6394C1148.47 76.9654 1134.93 74.0003 1121.18 74.0003C1107.43 74.0003 1093.89 76.9654 1081.73 82.6394C1069.56 88.3135 1059.14 96.5258 1051.36 106.567C1045.34 104.364 1039.11 102.628 1032.75 101.377ZM1060.03 110.125C1067 101.525 1076.18 94.5187 1086.82 89.6856C1097.45 84.8526 1109.23 82.3317 1121.18 82.3317C1133.14 82.3317 1144.92 84.8526 1155.55 89.6856C1166.18 94.5187 1175.36 101.525 1182.33 110.125C1176.73 112.683 1171.39 115.652 1166.35 119C1161.09 112.79 1154.27 107.75 1146.43 104.279C1138.59 100.807 1129.95 99 1121.18 99C1112.42 99 1103.77 100.807 1095.94 104.279C1088.1 107.75 1081.28 112.79 1076.02 119C1070.98 115.652 1065.63 112.683 1060.03 110.125ZM1083.31 124.28C1087.68 119.025 1093.39 114.754 1099.97 111.81C1106.55 108.867 1113.81 107.333 1121.18 107.333C1128.55 107.333 1135.82 108.867 1142.4 111.81C1148.98 114.754 1154.68 119.025 1159.05 124.28C1154.23 128.079 1149.78 132.238 1145.76 136.71C1143.3 132.853 1139.73 129.644 1135.41 127.411C1131.09 125.178 1126.18 124.001 1121.18 124.001C1116.18 124.001 1111.27 125.178 1106.95 127.411C1102.63 129.644 1099.06 132.853 1096.6 136.71C1092.58 132.238 1088.13 128.079 1083.31 124.28ZM1103.03 144.617C1104.11 141.089 1106.48 137.975 1109.76 135.755C1113.04 133.536 1117.05 132.333 1121.18 132.333C1125.31 132.333 1129.33 133.536 1132.61 135.755C1135.89 137.975 1138.25 141.089 1139.34 144.617C1138.09 146.325 1136.9 148.066 1135.77 149.838C1126.09 148.721 1116.28 148.721 1106.6 149.838C1105.47 148.066 1104.28 146.325 1103.03 144.617ZM1258.56 101.377C1267.8 87.9291 1280.78 76.8132 1296.27 69.0992C1311.76 61.3853 1329.23 57.3333 1347 57.3333C1364.77 57.3333 1382.24 61.3853 1397.73 69.0992C1413.22 76.8132 1426.2 87.9291 1435.44 101.377C1429.07 102.628 1422.85 104.364 1416.82 106.567C1409.05 96.5258 1398.62 88.3135 1386.46 82.6394C1374.29 76.9654 1360.75 74.0003 1347 74.0003C1333.25 74.0003 1319.71 76.9654 1307.54 82.6394C1295.38 88.3135 1284.95 96.5258 1277.18 106.567C1271.15 104.364 1264.93 102.628 1258.56 101.377ZM1285.85 110.125C1292.82 101.525 1302 94.5187 1312.63 89.6856C1323.27 84.8526 1335.05 82.3317 1347 82.3317C1358.95 82.3317 1370.73 84.8526 1381.37 89.6856C1392 94.5187 1401.18 101.525 1408.15 110.125C1402.55 112.683 1397.2 115.652 1392.16 119C1386.9 112.79 1380.09 107.75 1372.25 104.279C1364.41 100.807 1355.76 99 1347 99C1338.24 99 1329.59 100.807 1321.75 104.279C1313.91 107.75 1307.1 112.79 1301.84 119C1296.8 115.652 1291.45 112.683 1285.85 110.125ZM1309.13 124.28C1313.5 119.025 1319.21 114.754 1325.78 111.81C1332.36 108.867 1339.63 107.333 1347 107.333C1354.37 107.333 1361.64 108.867 1368.22 111.81C1374.79 114.754 1380.5 119.025 1384.87 124.28C1380.05 128.079 1375.6 132.238 1371.58 136.71C1369.12 132.853 1365.55 129.644 1361.23 127.411C1356.91 125.178 1352 124.001 1347 124.001C1342 124.001 1337.09 125.178 1332.77 127.411C1328.45 129.644 1324.88 132.853 1322.42 136.71C1318.4 132.238 1313.95 128.079 1309.13 124.28ZM1328.84 144.617C1329.93 141.089 1332.3 137.975 1335.58 135.755C1338.86 133.536 1342.87 132.333 1347 132.333C1351.13 132.333 1355.14 133.536 1358.42 135.755C1361.7 137.975 1364.07 141.089 1365.16 144.617C1363.91 146.325 1362.72 148.066 1361.59 149.838C1351.9 148.721 1342.1 148.721 1332.41 149.838C1331.28 148.066 1330.09 146.325 1328.84 144.617ZM1215.94 94.6167C1217.02 91.0888 1219.39 87.9751 1222.67 85.7554C1225.95 83.5356 1229.96 82.3331 1234.09 82.3331C1238.22 82.3331 1242.23 83.5356 1245.51 85.7554C1248.8 87.9751 1251.16 91.0888 1252.25 94.6167C1251 96.3247 1249.81 98.066 1248.68 99.8384C1238.99 98.7211 1229.19 98.7211 1219.51 99.8384C1218.38 98.066 1217.19 96.3247 1215.94 94.6167Z" fill="#F1880A"/>
</g>
<defs>
<clipPath id="clip0_109_723">
<rect width="225.817" height="100" fill="white"/>
</clipPath>
<clipPath id="clip1_109_723">
<rect width="225.817" height="100" fill="white" transform="translate(448.247)"/>
</clipPath>
<clipPath id="clip2_109_723">
<rect width="225.817" height="100" fill="white" transform="translate(897.624)"/>
</clipPath>
<clipPath id="clip3_109_723">
<rect width="225.817" height="100" fill="white" transform="translate(0 99)"/>
</clipPath>
<clipPath id="clip4_109_723">
<rect width="225.817" height="100" fill="white" transform="translate(448.247 99)"/>
</clipPath>
<clipPath id="clip5_109_723">
<rect width="225.817" height="100" fill="white" transform="translate(897.624 99)"/>
</clipPath>
<clipPath id="clip6_109_723">
<rect width="225.817" height="100" fill="white" transform="translate(223.559)"/>
</clipPath>
<clipPath id="clip7_109_723">
<rect width="225.817" height="100" fill="white" transform="translate(671.806)"/>
</clipPath>
<clipPath id="clip8_109_723">
<rect width="225.817" height="100" fill="white" transform="translate(1121.18)"/>
</clipPath>
<clipPath id="clip9_109_723">
<rect width="225.817" height="100" fill="white" transform="translate(223.559 99)"/>
</clipPath>
<clipPath id="clip10_109_723">
<rect width="225.817" height="100" fill="white" transform="translate(671.806 99)"/>
</clipPath>
<clipPath id="clip11_109_723">
<rect width="225.817" height="100" fill="white" transform="translate(1121.18 99)"/>
</clipPath>
</defs>
</svg>
