<svg width="1357" height="199" viewBox="0 0 1357 199" fill="none" xmlns="http://www.w3.org/2000/svg">
<g clip-path="url(#clip0_109_1515)">
<path d="M-42.4062 -24.875V74.625H127.219V-24.875H-42.4062Z" fill="#59A9D3"/>
<path d="M2.42337 0.621875H27.8671L40.589 23.0094L2.42337 0.621875ZM1.81756 1.86562L39.9832 24.2531H14.5394L1.81756 1.86562ZM0.605957 2.4875L13.3278 24.875L0.605957 47.2625V2.4875ZM1.81756 47.8844L14.5394 25.4969H39.9832L1.81756 47.8844ZM27.8671 49.1281H2.42337L40.589 26.7406L27.8671 49.1281ZM41.8006 27.3625V52.8594H27.2613L41.8006 27.3625ZM57.5515 52.8594H43.0122V27.3625L57.5515 52.8594ZM44.2238 26.7406L82.3894 49.1281H56.9457L44.2238 26.7406ZM44.8296 25.4969H70.2734L82.9952 47.8844L44.8296 25.4969ZM71.485 24.875L84.2068 2.4875V47.2625L71.485 24.875ZM82.9952 1.86562L70.2734 24.2531H44.8296L82.9952 1.86562ZM56.9457 0.621875H82.3894L44.2238 23.0094L56.9457 0.621875ZM43.0122 22.3875V-3.10938H57.5515L43.0122 22.3875ZM27.2613 -3.10938H41.8006V22.3875L27.2613 -3.10938Z" fill="#007BBB"/>
</g>
<g clip-path="url(#clip1_109_1515)">
<path d="M-42.4062 24.875V124.375H127.219V24.875H-42.4062Z" fill="#59A9D3"/>
<path d="M2.42337 50.3719H27.8671L40.589 72.7594L2.42337 50.3719ZM1.81756 51.6156L39.9832 74.0031H14.5394L1.81756 51.6156ZM0.605957 52.2375L13.3278 74.625L0.605957 97.0125V52.2375ZM1.81756 97.6344L14.5394 75.2469H39.9832L1.81756 97.6344ZM27.8671 98.8781H2.42337L40.589 76.4906L27.8671 98.8781ZM41.8006 77.1125V102.609H27.2613L41.8006 77.1125ZM57.5515 102.609H43.0122V77.1125L57.5515 102.609ZM44.2238 76.4906L82.3894 98.8781H56.9457L44.2238 76.4906ZM44.8296 75.2469H70.2734L82.9952 97.6344L44.8296 75.2469ZM71.485 74.625L84.2068 52.2375V97.0125L71.485 74.625ZM82.9952 51.6156L70.2734 74.0031H44.8296L82.9952 51.6156ZM56.9457 50.3719H82.3894L44.2238 72.7594L56.9457 50.3719ZM43.0122 72.1375V46.6406H57.5515L43.0122 72.1375ZM27.2613 46.6406H41.8006V72.1375L27.2613 46.6406Z" fill="#007BBB"/>
</g>
<g clip-path="url(#clip2_109_1515)">
<path d="M42.4062 -24.875V74.625H212.031V-24.875H42.4062Z" fill="#59A9D3"/>
<path d="M87.2359 0.621875H112.68L125.401 23.0094L87.2359 0.621875ZM86.6301 1.86562L124.796 24.2531H99.3519L86.6301 1.86562ZM85.4185 2.4875L98.1403 24.875L85.4185 47.2625V2.4875ZM86.6301 47.8844L99.3519 25.4969H124.796L86.6301 47.8844ZM112.68 49.1281H87.2359L125.401 26.7406L112.68 49.1281ZM126.613 27.3625V52.8594H112.074L126.613 27.3625ZM142.364 52.8594H127.825V27.3625L142.364 52.8594ZM129.036 26.7406L167.202 49.1281H141.758L129.036 26.7406ZM129.642 25.4969H155.086L167.808 47.8844L129.642 25.4969ZM156.297 24.875L169.019 2.4875V47.2625L156.297 24.875ZM167.808 1.86562L155.086 24.2531H129.642L167.808 1.86562ZM141.758 0.621875H167.202L129.036 23.0094L141.758 0.621875ZM127.825 22.3875V-3.10938H142.364L127.825 22.3875ZM112.074 -3.10938H126.613V22.3875L112.074 -3.10938Z" fill="#007BBB"/>
</g>
<g clip-path="url(#clip3_109_1515)">
<path d="M42.4062 24.875V124.375H212.031V24.875H42.4062Z" fill="#59A9D3"/>
<path d="M87.2359 50.3719H112.68L125.401 72.7594L87.2359 50.3719ZM86.6301 51.6156L124.796 74.0031H99.3519L86.6301 51.6156ZM85.4185 52.2375L98.1403 74.625L85.4185 97.0125V52.2375ZM86.6301 97.6344L99.3519 75.2469H124.796L86.6301 97.6344ZM112.68 98.8781H87.2359L125.401 76.4906L112.68 98.8781ZM126.613 77.1125V102.609H112.074L126.613 77.1125ZM142.364 102.609H127.825V77.1125L142.364 102.609ZM129.036 76.4906L167.202 98.8781H141.758L129.036 76.4906ZM129.642 75.2469H155.086L167.808 97.6344L129.642 75.2469ZM156.297 74.625L169.019 52.2375V97.0125L156.297 74.625ZM167.808 51.6156L155.086 74.0031H129.642L167.808 51.6156ZM141.758 50.3719H167.202L129.036 72.7594L141.758 50.3719ZM127.825 72.1375V46.6406H142.364L127.825 72.1375ZM112.074 46.6406H126.613V72.1375L112.074 46.6406Z" fill="#007BBB"/>
</g>
<g clip-path="url(#clip4_109_1515)">
<path d="M-42.4062 74.625V174.125H127.219V74.625H-42.4062Z" fill="#59A9D3"/>
<path d="M2.42337 100.122H27.8671L40.589 122.509L2.42337 100.122ZM1.81756 101.366L39.9832 123.753H14.5394L1.81756 101.366ZM0.605957 101.987L13.3278 124.375L0.605957 146.763V101.987ZM1.81756 147.384L14.5394 124.997H39.9832L1.81756 147.384ZM27.8671 148.628H2.42337L40.589 126.241L27.8671 148.628ZM41.8006 126.862V152.359H27.2613L41.8006 126.862ZM57.5515 152.359H43.0122V126.862L57.5515 152.359ZM44.2238 126.241L82.3894 148.628H56.9457L44.2238 126.241ZM44.8296 124.997H70.2734L82.9952 147.384L44.8296 124.997ZM71.485 124.375L84.2068 101.987V146.763L71.485 124.375ZM82.9952 101.366L70.2734 123.753H44.8296L82.9952 101.366ZM56.9457 100.122H82.3894L44.2238 122.509L56.9457 100.122ZM43.0122 121.887V96.3906H57.5515L43.0122 121.887ZM27.2613 96.3906H41.8006V121.887L27.2613 96.3906Z" fill="#007BBB"/>
</g>
<g clip-path="url(#clip5_109_1515)">
<path d="M-42.4062 124.375V223.875H127.219V124.375H-42.4062Z" fill="#59A9D3"/>
<path d="M2.42337 149.872H27.8671L40.589 172.259L2.42337 149.872ZM1.81756 151.116L39.9832 173.503H14.5394L1.81756 151.116ZM0.605957 151.737L13.3278 174.125L0.605957 196.513V151.737ZM1.81756 197.134L14.5394 174.747H39.9832L1.81756 197.134ZM27.8671 198.378H2.42337L40.589 175.991L27.8671 198.378ZM41.8006 176.612V202.109H27.2613L41.8006 176.612ZM57.5515 202.109H43.0122V176.612L57.5515 202.109ZM44.2238 175.991L82.3894 198.378H56.9457L44.2238 175.991ZM44.8296 174.747H70.2734L82.9952 197.134L44.8296 174.747ZM71.485 174.125L84.2068 151.737V196.513L71.485 174.125ZM82.9952 151.116L70.2734 173.503H44.8296L82.9952 151.116ZM56.9457 149.872H82.3894L44.2238 172.259L56.9457 149.872ZM43.0122 171.637V146.141H57.5515L43.0122 171.637ZM27.2613 146.141H41.8006V171.637L27.2613 146.141Z" fill="#007BBB"/>
</g>
<g clip-path="url(#clip6_109_1515)">
<path d="M42.4062 74.625V174.125H212.031V74.625H42.4062Z" fill="#59A9D3"/>
<path d="M87.2359 100.122H112.68L125.401 122.509L87.2359 100.122ZM86.6301 101.366L124.796 123.753H99.3519L86.6301 101.366ZM85.4185 101.987L98.1403 124.375L85.4185 146.763V101.987ZM86.6301 147.384L99.3519 124.997H124.796L86.6301 147.384ZM112.68 148.628H87.2359L125.401 126.241L112.68 148.628ZM126.613 126.862V152.359H112.074L126.613 126.862ZM142.364 152.359H127.825V126.862L142.364 152.359ZM129.036 126.241L167.202 148.628H141.758L129.036 126.241ZM129.642 124.997H155.086L167.808 147.384L129.642 124.997ZM156.297 124.375L169.019 101.987V146.763L156.297 124.375ZM167.808 101.366L155.086 123.753H129.642L167.808 101.366ZM141.758 100.122H167.202L129.036 122.509L141.758 100.122ZM127.825 121.887V96.3906H142.364L127.825 121.887ZM112.074 96.3906H126.613V121.887L112.074 96.3906Z" fill="#007BBB"/>
</g>
<g clip-path="url(#clip7_109_1515)">
<path d="M42.4062 124.375V223.875H212.031V124.375H42.4062Z" fill="#59A9D3"/>
<path d="M87.2359 149.872H112.68L125.401 172.259L87.2359 149.872ZM86.6301 151.116L124.796 173.503H99.3519L86.6301 151.116ZM85.4185 151.737L98.1403 174.125L85.4185 196.513V151.737ZM86.6301 197.134L99.3519 174.747H124.796L86.6301 197.134ZM112.68 198.378H87.2359L125.401 175.991L112.68 198.378ZM126.613 176.612V202.109H112.074L126.613 176.612ZM142.364 202.109H127.825V176.612L142.364 202.109ZM129.036 175.991L167.202 198.378H141.758L129.036 175.991ZM129.642 174.747H155.086L167.808 197.134L129.642 174.747ZM156.297 174.125L169.019 151.737V196.513L156.297 174.125ZM167.808 151.116L155.086 173.503H129.642L167.808 151.116ZM141.758 149.872H167.202L129.036 172.259L141.758 149.872ZM127.825 171.637V146.141H142.364L127.825 171.637ZM112.074 146.141H126.613V171.637L112.074 146.141Z" fill="#007BBB"/>
</g>
<g clip-path="url(#clip8_109_1515)">
<path d="M127.219 -24.875V74.625H296.844V-24.875H127.219Z" fill="#59A9D3"/>
<path d="M172.048 0.621875H197.492L210.214 23.0094L172.048 0.621875ZM171.443 1.86562L209.608 24.2531H184.164L171.443 1.86562ZM170.231 2.4875L182.953 24.875L170.231 47.2625V2.4875ZM171.443 47.8844L184.164 25.4969H209.608L171.443 47.8844ZM197.492 49.1281H172.048L210.214 26.7406L197.492 49.1281ZM211.426 27.3625V52.8594H196.886L211.426 27.3625ZM227.176 52.8594H212.637V27.3625L227.176 52.8594ZM213.849 26.7406L252.014 49.1281H226.571L213.849 26.7406ZM214.455 25.4969H239.898L252.62 47.8844L214.455 25.4969ZM241.11 24.875L253.832 2.4875V47.2625L241.11 24.875ZM252.62 1.86562L239.898 24.2531H214.455L252.62 1.86562ZM226.571 0.621875H252.014L213.849 23.0094L226.571 0.621875ZM212.637 22.3875V-3.10938H227.176L212.637 22.3875ZM196.886 -3.10938H211.426V22.3875L196.886 -3.10938Z" fill="#007BBB"/>
</g>
<g clip-path="url(#clip9_109_1515)">
<path d="M127.219 24.875V124.375H296.844V24.875H127.219Z" fill="#59A9D3"/>
<path d="M172.048 50.3719H197.492L210.214 72.7594L172.048 50.3719ZM171.443 51.6156L209.608 74.0031H184.164L171.443 51.6156ZM170.231 52.2375L182.953 74.625L170.231 97.0125V52.2375ZM171.443 97.6344L184.164 75.2469H209.608L171.443 97.6344ZM197.492 98.8781H172.048L210.214 76.4906L197.492 98.8781ZM211.426 77.1125V102.609H196.886L211.426 77.1125ZM227.176 102.609H212.637V77.1125L227.176 102.609ZM213.849 76.4906L252.014 98.8781H226.571L213.849 76.4906ZM214.455 75.2469H239.898L252.62 97.6344L214.455 75.2469ZM241.11 74.625L253.832 52.2375V97.0125L241.11 74.625ZM252.62 51.6156L239.898 74.0031H214.455L252.62 51.6156ZM226.571 50.3719H252.014L213.849 72.7594L226.571 50.3719ZM212.637 72.1375V46.6406H227.176L212.637 72.1375ZM196.886 46.6406H211.426V72.1375L196.886 46.6406Z" fill="#007BBB"/>
</g>
<g clip-path="url(#clip10_109_1515)">
<path d="M212.031 -24.875V74.625H381.656V-24.875H212.031Z" fill="#59A9D3"/>
<path d="M256.861 0.621875H282.305L295.026 23.0094L256.861 0.621875ZM256.255 1.86562L294.421 24.2531H268.977L256.255 1.86562ZM255.043 2.4875L267.765 24.875L255.043 47.2625V2.4875ZM256.255 47.8844L268.977 25.4969H294.421L256.255 47.8844ZM282.305 49.1281H256.861L295.026 26.7406L282.305 49.1281ZM296.238 27.3625V52.8594H281.699L296.238 27.3625ZM311.989 52.8594H297.45V27.3625L311.989 52.8594ZM298.661 26.7406L336.827 49.1281H311.383L298.661 26.7406ZM299.267 25.4969H324.711L337.433 47.8844L299.267 25.4969ZM325.922 24.875L338.644 2.4875V47.2625L325.922 24.875ZM337.433 1.86562L324.711 24.2531H299.267L337.433 1.86562ZM311.383 0.621875H336.827L298.661 23.0094L311.383 0.621875ZM297.45 22.3875V-3.10938H311.989L297.45 22.3875ZM281.699 -3.10938H296.238V22.3875L281.699 -3.10938Z" fill="#007BBB"/>
</g>
<g clip-path="url(#clip11_109_1515)">
<path d="M212.031 24.875V124.375H381.656V24.875H212.031Z" fill="#59A9D3"/>
<path d="M256.861 50.3719H282.305L295.026 72.7594L256.861 50.3719ZM256.255 51.6156L294.421 74.0031H268.977L256.255 51.6156ZM255.043 52.2375L267.765 74.625L255.043 97.0125V52.2375ZM256.255 97.6344L268.977 75.2469H294.421L256.255 97.6344ZM282.305 98.8781H256.861L295.026 76.4906L282.305 98.8781ZM296.238 77.1125V102.609H281.699L296.238 77.1125ZM311.989 102.609H297.45V77.1125L311.989 102.609ZM298.661 76.4906L336.827 98.8781H311.383L298.661 76.4906ZM299.267 75.2469H324.711L337.433 97.6344L299.267 75.2469ZM325.922 74.625L338.644 52.2375V97.0125L325.922 74.625ZM337.433 51.6156L324.711 74.0031H299.267L337.433 51.6156ZM311.383 50.3719H336.827L298.661 72.7594L311.383 50.3719ZM297.45 72.1375V46.6406H311.989L297.45 72.1375ZM281.699 46.6406H296.238V72.1375L281.699 46.6406Z" fill="#007BBB"/>
</g>
<g clip-path="url(#clip12_109_1515)">
<path d="M127.219 74.625V174.125H296.844V74.625H127.219Z" fill="#59A9D3"/>
<path d="M172.048 100.122H197.492L210.214 122.509L172.048 100.122ZM171.443 101.366L209.608 123.753H184.164L171.443 101.366ZM170.231 101.987L182.953 124.375L170.231 146.763V101.987ZM171.443 147.384L184.164 124.997H209.608L171.443 147.384ZM197.492 148.628H172.048L210.214 126.241L197.492 148.628ZM211.426 126.862V152.359H196.886L211.426 126.862ZM227.176 152.359H212.637V126.862L227.176 152.359ZM213.849 126.241L252.014 148.628H226.571L213.849 126.241ZM214.455 124.997H239.898L252.62 147.384L214.455 124.997ZM241.11 124.375L253.832 101.987V146.763L241.11 124.375ZM252.62 101.366L239.898 123.753H214.455L252.62 101.366ZM226.571 100.122H252.014L213.849 122.509L226.571 100.122ZM212.637 121.887V96.3906H227.176L212.637 121.887ZM196.886 96.3906H211.426V121.887L196.886 96.3906Z" fill="#007BBB"/>
</g>
<g clip-path="url(#clip13_109_1515)">
<path d="M127.219 124.375V223.875H296.844V124.375H127.219Z" fill="#59A9D3"/>
<path d="M172.048 149.872H197.492L210.214 172.259L172.048 149.872ZM171.443 151.116L209.608 173.503H184.164L171.443 151.116ZM170.231 151.737L182.953 174.125L170.231 196.513V151.737ZM171.443 197.134L184.164 174.747H209.608L171.443 197.134ZM197.492 198.378H172.048L210.214 175.991L197.492 198.378ZM211.426 176.612V202.109H196.886L211.426 176.612ZM227.176 202.109H212.637V176.612L227.176 202.109ZM213.849 175.991L252.014 198.378H226.571L213.849 175.991ZM214.455 174.747H239.898L252.62 197.134L214.455 174.747ZM241.11 174.125L253.832 151.737V196.513L241.11 174.125ZM252.62 151.116L239.898 173.503H214.455L252.62 151.116ZM226.571 149.872H252.014L213.849 172.259L226.571 149.872ZM212.637 171.637V146.141H227.176L212.637 171.637ZM196.886 146.141H211.426V171.637L196.886 146.141Z" fill="#007BBB"/>
</g>
<g clip-path="url(#clip14_109_1515)">
<path d="M212.031 74.625V174.125H381.656V74.625H212.031Z" fill="#59A9D3"/>
<path d="M256.861 100.122H282.305L295.026 122.509L256.861 100.122ZM256.255 101.366L294.421 123.753H268.977L256.255 101.366ZM255.043 101.987L267.765 124.375L255.043 146.763V101.987ZM256.255 147.384L268.977 124.997H294.421L256.255 147.384ZM282.305 148.628H256.861L295.026 126.241L282.305 148.628ZM296.238 126.862V152.359H281.699L296.238 126.862ZM311.989 152.359H297.45V126.862L311.989 152.359ZM298.661 126.241L336.827 148.628H311.383L298.661 126.241ZM299.267 124.997H324.711L337.433 147.384L299.267 124.997ZM325.922 124.375L338.644 101.987V146.763L325.922 124.375ZM337.433 101.366L324.711 123.753H299.267L337.433 101.366ZM311.383 100.122H336.827L298.661 122.509L311.383 100.122ZM297.45 121.887V96.3906H311.989L297.45 121.887ZM281.699 96.3906H296.238V121.887L281.699 96.3906Z" fill="#007BBB"/>
</g>
<g clip-path="url(#clip15_109_1515)">
<path d="M212.031 124.375V223.875H381.656V124.375H212.031Z" fill="#59A9D3"/>
<path d="M256.861 149.872H282.305L295.026 172.259L256.861 149.872ZM256.255 151.116L294.421 173.503H268.977L256.255 151.116ZM255.043 151.737L267.765 174.125L255.043 196.513V151.737ZM256.255 197.134L268.977 174.747H294.421L256.255 197.134ZM282.305 198.378H256.861L295.026 175.991L282.305 198.378ZM296.238 176.612V202.109H281.699L296.238 176.612ZM311.989 202.109H297.45V176.612L311.989 202.109ZM298.661 175.991L336.827 198.378H311.383L298.661 175.991ZM299.267 174.747H324.711L337.433 197.134L299.267 174.747ZM325.922 174.125L338.644 151.737V196.513L325.922 174.125ZM337.433 151.116L324.711 173.503H299.267L337.433 151.116ZM311.383 149.872H336.827L298.661 172.259L311.383 149.872ZM297.45 171.637V146.141H311.989L297.45 171.637ZM281.699 146.141H296.238V171.637L281.699 146.141Z" fill="#007BBB"/>
</g>
<g clip-path="url(#clip16_109_1515)">
<path d="M296.844 -24.875V74.625H466.469V-24.875H296.844Z" fill="#59A9D3"/>
<path d="M341.673 0.621875H367.117L379.839 23.0094L341.673 0.621875ZM341.068 1.86562L379.233 24.2531H353.789L341.068 1.86562ZM339.856 2.4875L352.578 24.875L339.856 47.2625V2.4875ZM341.068 47.8844L353.789 25.4969H379.233L341.068 47.8844ZM367.117 49.1281H341.673L379.839 26.7406L367.117 49.1281ZM381.051 27.3625V52.8594H366.511L381.051 27.3625ZM396.801 52.8594H382.262V27.3625L396.801 52.8594ZM383.474 26.7406L421.639 49.1281H396.196L383.474 26.7406ZM384.08 25.4969H409.523L422.245 47.8844L384.08 25.4969ZM410.735 24.875L423.457 2.4875V47.2625L410.735 24.875ZM422.245 1.86562L409.523 24.2531H384.08L422.245 1.86562ZM396.196 0.621875H421.639L383.474 23.0094L396.196 0.621875ZM382.262 22.3875V-3.10938H396.801L382.262 22.3875ZM366.511 -3.10938H381.051V22.3875L366.511 -3.10938Z" fill="#007BBB"/>
</g>
<g clip-path="url(#clip17_109_1515)">
<path d="M296.844 24.875V124.375H466.469V24.875H296.844Z" fill="#59A9D3"/>
<path d="M341.673 50.3719H367.117L379.839 72.7594L341.673 50.3719ZM341.068 51.6156L379.233 74.0031H353.789L341.068 51.6156ZM339.856 52.2375L352.578 74.625L339.856 97.0125V52.2375ZM341.068 97.6344L353.789 75.2469H379.233L341.068 97.6344ZM367.117 98.8781H341.673L379.839 76.4906L367.117 98.8781ZM381.051 77.1125V102.609H366.511L381.051 77.1125ZM396.801 102.609H382.262V77.1125L396.801 102.609ZM383.474 76.4906L421.639 98.8781H396.196L383.474 76.4906ZM384.08 75.2469H409.523L422.245 97.6344L384.08 75.2469ZM410.735 74.625L423.457 52.2375V97.0125L410.735 74.625ZM422.245 51.6156L409.523 74.0031H384.08L422.245 51.6156ZM396.196 50.3719H421.639L383.474 72.7594L396.196 50.3719ZM382.262 72.1375V46.6406H396.801L382.262 72.1375ZM366.511 46.6406H381.051V72.1375L366.511 46.6406Z" fill="#007BBB"/>
</g>
<g clip-path="url(#clip18_109_1515)">
<path d="M381.656 -24.875V74.625H551.281V-24.875H381.656Z" fill="#59A9D3"/>
<path d="M426.486 0.621875H451.93L464.651 23.0094L426.486 0.621875ZM425.88 1.86562L464.046 24.2531H438.602L425.88 1.86562ZM424.668 2.4875L437.39 24.875L424.668 47.2625V2.4875ZM425.88 47.8844L438.602 25.4969H464.046L425.88 47.8844ZM451.93 49.1281H426.486L464.651 26.7406L451.93 49.1281ZM465.863 27.3625V52.8594H451.324L465.863 27.3625ZM481.614 52.8594H467.075V27.3625L481.614 52.8594ZM468.286 26.7406L506.452 49.1281H481.008L468.286 26.7406ZM468.892 25.4969H494.336L507.058 47.8844L468.892 25.4969ZM495.547 24.875L508.269 2.4875V47.2625L495.547 24.875ZM507.058 1.86562L494.336 24.2531H468.892L507.058 1.86562ZM481.008 0.621875H506.452L468.286 23.0094L481.008 0.621875ZM467.075 22.3875V-3.10938H481.614L467.075 22.3875ZM451.324 -3.10938H465.863V22.3875L451.324 -3.10938Z" fill="#007BBB"/>
</g>
<g clip-path="url(#clip19_109_1515)">
<path d="M381.656 24.875V124.375H551.281V24.875H381.656Z" fill="#59A9D3"/>
<path d="M426.486 50.3719H451.93L464.651 72.7594L426.486 50.3719ZM425.88 51.6156L464.046 74.0031H438.602L425.88 51.6156ZM424.668 52.2375L437.39 74.625L424.668 97.0125V52.2375ZM425.88 97.6344L438.602 75.2469H464.046L425.88 97.6344ZM451.93 98.8781H426.486L464.651 76.4906L451.93 98.8781ZM465.863 77.1125V102.609H451.324L465.863 77.1125ZM481.614 102.609H467.075V77.1125L481.614 102.609ZM468.286 76.4906L506.452 98.8781H481.008L468.286 76.4906ZM468.892 75.2469H494.336L507.058 97.6344L468.892 75.2469ZM495.547 74.625L508.269 52.2375V97.0125L495.547 74.625ZM507.058 51.6156L494.336 74.0031H468.892L507.058 51.6156ZM481.008 50.3719H506.452L468.286 72.7594L481.008 50.3719ZM467.075 72.1375V46.6406H481.614L467.075 72.1375ZM451.324 46.6406H465.863V72.1375L451.324 46.6406Z" fill="#007BBB"/>
</g>
<g clip-path="url(#clip20_109_1515)">
<path d="M296.844 74.625V174.125H466.469V74.625H296.844Z" fill="#59A9D3"/>
<path d="M341.673 100.122H367.117L379.839 122.509L341.673 100.122ZM341.068 101.366L379.233 123.753H353.789L341.068 101.366ZM339.856 101.987L352.578 124.375L339.856 146.763V101.987ZM341.068 147.384L353.789 124.997H379.233L341.068 147.384ZM367.117 148.628H341.673L379.839 126.241L367.117 148.628ZM381.051 126.862V152.359H366.511L381.051 126.862ZM396.801 152.359H382.262V126.862L396.801 152.359ZM383.474 126.241L421.639 148.628H396.196L383.474 126.241ZM384.08 124.997H409.523L422.245 147.384L384.08 124.997ZM410.735 124.375L423.457 101.987V146.763L410.735 124.375ZM422.245 101.366L409.523 123.753H384.08L422.245 101.366ZM396.196 100.122H421.639L383.474 122.509L396.196 100.122ZM382.262 121.887V96.3906H396.801L382.262 121.887ZM366.511 96.3906H381.051V121.887L366.511 96.3906Z" fill="#007BBB"/>
</g>
<g clip-path="url(#clip21_109_1515)">
<path d="M296.844 124.375V223.875H466.469V124.375H296.844Z" fill="#59A9D3"/>
<path d="M341.673 149.872H367.117L379.839 172.259L341.673 149.872ZM341.068 151.116L379.233 173.503H353.789L341.068 151.116ZM339.856 151.737L352.578 174.125L339.856 196.513V151.737ZM341.068 197.134L353.789 174.747H379.233L341.068 197.134ZM367.117 198.378H341.673L379.839 175.991L367.117 198.378ZM381.051 176.612V202.109H366.511L381.051 176.612ZM396.801 202.109H382.262V176.612L396.801 202.109ZM383.474 175.991L421.639 198.378H396.196L383.474 175.991ZM384.08 174.747H409.523L422.245 197.134L384.08 174.747ZM410.735 174.125L423.457 151.737V196.513L410.735 174.125ZM422.245 151.116L409.523 173.503H384.08L422.245 151.116ZM396.196 149.872H421.639L383.474 172.259L396.196 149.872ZM382.262 171.637V146.141H396.801L382.262 171.637ZM366.511 146.141H381.051V171.637L366.511 146.141Z" fill="#007BBB"/>
</g>
<g clip-path="url(#clip22_109_1515)">
<path d="M381.656 74.625V174.125H551.281V74.625H381.656Z" fill="#59A9D3"/>
<path d="M426.486 100.122H451.93L464.651 122.509L426.486 100.122ZM425.88 101.366L464.046 123.753H438.602L425.88 101.366ZM424.668 101.987L437.39 124.375L424.668 146.763V101.987ZM425.88 147.384L438.602 124.997H464.046L425.88 147.384ZM451.93 148.628H426.486L464.651 126.241L451.93 148.628ZM465.863 126.862V152.359H451.324L465.863 126.862ZM481.614 152.359H467.075V126.862L481.614 152.359ZM468.286 126.241L506.452 148.628H481.008L468.286 126.241ZM468.892 124.997H494.336L507.058 147.384L468.892 124.997ZM495.547 124.375L508.269 101.987V146.763L495.547 124.375ZM507.058 101.366L494.336 123.753H468.892L507.058 101.366ZM481.008 100.122H506.452L468.286 122.509L481.008 100.122ZM467.075 121.887V96.3906H481.614L467.075 121.887ZM451.324 96.3906H465.863V121.887L451.324 96.3906Z" fill="#007BBB"/>
</g>
<g clip-path="url(#clip23_109_1515)">
<path d="M381.656 124.375V223.875H551.281V124.375H381.656Z" fill="#59A9D3"/>
<path d="M426.486 149.872H451.93L464.651 172.259L426.486 149.872ZM425.88 151.116L464.046 173.503H438.602L425.88 151.116ZM424.668 151.737L437.39 174.125L424.668 196.513V151.737ZM425.88 197.134L438.602 174.747H464.046L425.88 197.134ZM451.93 198.378H426.486L464.651 175.991L451.93 198.378ZM465.863 176.612V202.109H451.324L465.863 176.612ZM481.614 202.109H467.075V176.612L481.614 202.109ZM468.286 175.991L506.452 198.378H481.008L468.286 175.991ZM468.892 174.747H494.336L507.058 197.134L468.892 174.747ZM495.547 174.125L508.269 151.737V196.513L495.547 174.125ZM507.058 151.116L494.336 173.503H468.892L507.058 151.116ZM481.008 149.872H506.452L468.286 172.259L481.008 149.872ZM467.075 171.637V146.141H481.614L467.075 171.637ZM451.324 146.141H465.863V171.637L451.324 146.141Z" fill="#007BBB"/>
</g>
<g clip-path="url(#clip24_109_1515)">
<path d="M466.469 -24.875V74.625H636.094V-24.875H466.469Z" fill="#59A9D3"/>
<path d="M511.298 0.621875H536.742L549.464 23.0094L511.298 0.621875ZM510.693 1.86562L548.858 24.2531H523.414L510.693 1.86562ZM509.481 2.4875L522.203 24.875L509.481 47.2625V2.4875ZM510.693 47.8844L523.414 25.4969H548.858L510.693 47.8844ZM536.742 49.1281H511.298L549.464 26.7406L536.742 49.1281ZM550.676 27.3625V52.8594H536.136L550.676 27.3625ZM566.426 52.8594H551.887V27.3625L566.426 52.8594ZM553.099 26.7406L591.264 49.1281H565.821L553.099 26.7406ZM553.705 25.4969H579.148L591.87 47.8844L553.705 25.4969ZM580.36 24.875L593.082 2.4875V47.2625L580.36 24.875ZM591.87 1.86562L579.148 24.2531H553.705L591.87 1.86562ZM565.821 0.621875H591.264L553.099 23.0094L565.821 0.621875ZM551.887 22.3875V-3.10938H566.426L551.887 22.3875ZM536.136 -3.10938H550.676V22.3875L536.136 -3.10938Z" fill="#007BBB"/>
</g>
<g clip-path="url(#clip25_109_1515)">
<path d="M466.469 24.875V124.375H636.094V24.875H466.469Z" fill="#59A9D3"/>
<path d="M511.298 50.3719H536.742L549.464 72.7594L511.298 50.3719ZM510.693 51.6156L548.858 74.0031H523.414L510.693 51.6156ZM509.481 52.2375L522.203 74.625L509.481 97.0125V52.2375ZM510.693 97.6344L523.414 75.2469H548.858L510.693 97.6344ZM536.742 98.8781H511.298L549.464 76.4906L536.742 98.8781ZM550.676 77.1125V102.609H536.136L550.676 77.1125ZM566.426 102.609H551.887V77.1125L566.426 102.609ZM553.099 76.4906L591.264 98.8781H565.821L553.099 76.4906ZM553.705 75.2469H579.148L591.87 97.6344L553.705 75.2469ZM580.36 74.625L593.082 52.2375V97.0125L580.36 74.625ZM591.87 51.6156L579.148 74.0031H553.705L591.87 51.6156ZM565.821 50.3719H591.264L553.099 72.7594L565.821 50.3719ZM551.887 72.1375V46.6406H566.426L551.887 72.1375ZM536.136 46.6406H550.676V72.1375L536.136 46.6406Z" fill="#007BBB"/>
</g>
<g clip-path="url(#clip26_109_1515)">
<path d="M551.281 -24.875V74.625H720.906V-24.875H551.281Z" fill="#59A9D3"/>
<path d="M596.111 0.621875H621.555L634.276 23.0094L596.111 0.621875ZM595.505 1.86562L633.671 24.2531H608.227L595.505 1.86562ZM594.293 2.4875L607.015 24.875L594.293 47.2625V2.4875ZM595.505 47.8844L608.227 25.4969H633.671L595.505 47.8844ZM621.555 49.1281H596.111L634.276 26.7406L621.555 49.1281ZM635.488 27.3625V52.8594H620.949L635.488 27.3625ZM651.239 52.8594H636.7V27.3625L651.239 52.8594ZM637.911 26.7406L676.077 49.1281H650.633L637.911 26.7406ZM638.517 25.4969H663.961L676.683 47.8844L638.517 25.4969ZM665.172 24.875L677.894 2.4875V47.2625L665.172 24.875ZM676.683 1.86562L663.961 24.2531H638.517L676.683 1.86562ZM650.633 0.621875H676.077L637.911 23.0094L650.633 0.621875ZM636.7 22.3875V-3.10938H651.239L636.7 22.3875ZM620.949 -3.10938H635.488V22.3875L620.949 -3.10938Z" fill="#007BBB"/>
</g>
<g clip-path="url(#clip27_109_1515)">
<path d="M551.281 24.875V124.375H720.906V24.875H551.281Z" fill="#59A9D3"/>
<path d="M596.111 50.3719H621.555L634.276 72.7594L596.111 50.3719ZM595.505 51.6156L633.671 74.0031H608.227L595.505 51.6156ZM594.293 52.2375L607.015 74.625L594.293 97.0125V52.2375ZM595.505 97.6344L608.227 75.2469H633.671L595.505 97.6344ZM621.555 98.8781H596.111L634.276 76.4906L621.555 98.8781ZM635.488 77.1125V102.609H620.949L635.488 77.1125ZM651.239 102.609H636.7V77.1125L651.239 102.609ZM637.911 76.4906L676.077 98.8781H650.633L637.911 76.4906ZM638.517 75.2469H663.961L676.683 97.6344L638.517 75.2469ZM665.172 74.625L677.894 52.2375V97.0125L665.172 74.625ZM676.683 51.6156L663.961 74.0031H638.517L676.683 51.6156ZM650.633 50.3719H676.077L637.911 72.7594L650.633 50.3719ZM636.7 72.1375V46.6406H651.239L636.7 72.1375ZM620.949 46.6406H635.488V72.1375L620.949 46.6406Z" fill="#007BBB"/>
</g>
<g clip-path="url(#clip28_109_1515)">
<path d="M466.469 74.625V174.125H636.094V74.625H466.469Z" fill="#59A9D3"/>
<path d="M511.298 100.122H536.742L549.464 122.509L511.298 100.122ZM510.693 101.366L548.858 123.753H523.414L510.693 101.366ZM509.481 101.987L522.203 124.375L509.481 146.763V101.987ZM510.693 147.384L523.414 124.997H548.858L510.693 147.384ZM536.742 148.628H511.298L549.464 126.241L536.742 148.628ZM550.676 126.862V152.359H536.136L550.676 126.862ZM566.426 152.359H551.887V126.862L566.426 152.359ZM553.099 126.241L591.264 148.628H565.821L553.099 126.241ZM553.705 124.997H579.148L591.87 147.384L553.705 124.997ZM580.36 124.375L593.082 101.987V146.763L580.36 124.375ZM591.87 101.366L579.148 123.753H553.705L591.87 101.366ZM565.821 100.122H591.264L553.099 122.509L565.821 100.122ZM551.887 121.887V96.3906H566.426L551.887 121.887ZM536.136 96.3906H550.676V121.887L536.136 96.3906Z" fill="#007BBB"/>
</g>
<g clip-path="url(#clip29_109_1515)">
<path d="M466.469 124.375V223.875H636.094V124.375H466.469Z" fill="#59A9D3"/>
<path d="M511.298 149.872H536.742L549.464 172.259L511.298 149.872ZM510.693 151.116L548.858 173.503H523.414L510.693 151.116ZM509.481 151.737L522.203 174.125L509.481 196.513V151.737ZM510.693 197.134L523.414 174.747H548.858L510.693 197.134ZM536.742 198.378H511.298L549.464 175.991L536.742 198.378ZM550.676 176.612V202.109H536.136L550.676 176.612ZM566.426 202.109H551.887V176.612L566.426 202.109ZM553.099 175.991L591.264 198.378H565.821L553.099 175.991ZM553.705 174.747H579.148L591.87 197.134L553.705 174.747ZM580.36 174.125L593.082 151.737V196.513L580.36 174.125ZM591.87 151.116L579.148 173.503H553.705L591.87 151.116ZM565.821 149.872H591.264L553.099 172.259L565.821 149.872ZM551.887 171.637V146.141H566.426L551.887 171.637ZM536.136 146.141H550.676V171.637L536.136 146.141Z" fill="#007BBB"/>
</g>
<g clip-path="url(#clip30_109_1515)">
<path d="M551.281 74.625V174.125H720.906V74.625H551.281Z" fill="#59A9D3"/>
<path d="M596.111 100.122H621.555L634.276 122.509L596.111 100.122ZM595.505 101.366L633.671 123.753H608.227L595.505 101.366ZM594.293 101.987L607.015 124.375L594.293 146.763V101.987ZM595.505 147.384L608.227 124.997H633.671L595.505 147.384ZM621.555 148.628H596.111L634.276 126.241L621.555 148.628ZM635.488 126.862V152.359H620.949L635.488 126.862ZM651.239 152.359H636.7V126.862L651.239 152.359ZM637.911 126.241L676.077 148.628H650.633L637.911 126.241ZM638.517 124.997H663.961L676.683 147.384L638.517 124.997ZM665.172 124.375L677.894 101.987V146.763L665.172 124.375ZM676.683 101.366L663.961 123.753H638.517L676.683 101.366ZM650.633 100.122H676.077L637.911 122.509L650.633 100.122ZM636.7 121.887V96.3906H651.239L636.7 121.887ZM620.949 96.3906H635.488V121.887L620.949 96.3906Z" fill="#007BBB"/>
</g>
<g clip-path="url(#clip31_109_1515)">
<path d="M551.281 124.375V223.875H720.906V124.375H551.281Z" fill="#59A9D3"/>
<path d="M596.111 149.872H621.555L634.276 172.259L596.111 149.872ZM595.505 151.116L633.671 173.503H608.227L595.505 151.116ZM594.293 151.737L607.015 174.125L594.293 196.513V151.737ZM595.505 197.134L608.227 174.747H633.671L595.505 197.134ZM621.555 198.378H596.111L634.276 175.991L621.555 198.378ZM635.488 176.612V202.109H620.949L635.488 176.612ZM651.239 202.109H636.7V176.612L651.239 202.109ZM637.911 175.991L676.077 198.378H650.633L637.911 175.991ZM638.517 174.747H663.961L676.683 197.134L638.517 174.747ZM665.172 174.125L677.894 151.737V196.513L665.172 174.125ZM676.683 151.116L663.961 173.503H638.517L676.683 151.116ZM650.633 149.872H676.077L637.911 172.259L650.633 149.872ZM636.7 171.637V146.141H651.239L636.7 171.637ZM620.949 146.141H635.488V171.637L620.949 146.141Z" fill="#007BBB"/>
</g>
<g clip-path="url(#clip32_109_1515)">
<path d="M636.094 -24.875V74.625H805.719V-24.875H636.094Z" fill="#59A9D3"/>
<path d="M680.923 0.621875H706.367L719.089 23.0094L680.923 0.621875ZM680.318 1.86562L718.483 24.2531H693.039L680.318 1.86562ZM679.106 2.4875L691.828 24.875L679.106 47.2625V2.4875ZM680.318 47.8844L693.039 25.4969H718.483L680.318 47.8844ZM706.367 49.1281H680.923L719.089 26.7406L706.367 49.1281ZM720.301 27.3625V52.8594H705.761L720.301 27.3625ZM736.051 52.8594H721.512V27.3625L736.051 52.8594ZM722.724 26.7406L760.889 49.1281H735.446L722.724 26.7406ZM723.33 25.4969H748.773L761.495 47.8844L723.33 25.4969ZM749.985 24.875L762.707 2.4875V47.2625L749.985 24.875ZM761.495 1.86562L748.773 24.2531H723.33L761.495 1.86562ZM735.446 0.621875H760.889L722.724 23.0094L735.446 0.621875ZM721.512 22.3875V-3.10938H736.051L721.512 22.3875ZM705.761 -3.10938H720.301V22.3875L705.761 -3.10938Z" fill="#007BBB"/>
</g>
<g clip-path="url(#clip33_109_1515)">
<path d="M636.094 24.875V124.375H805.719V24.875H636.094Z" fill="#59A9D3"/>
<path d="M680.923 50.3719H706.367L719.089 72.7594L680.923 50.3719ZM680.318 51.6156L718.483 74.0031H693.039L680.318 51.6156ZM679.106 52.2375L691.828 74.625L679.106 97.0125V52.2375ZM680.318 97.6344L693.039 75.2469H718.483L680.318 97.6344ZM706.367 98.8781H680.923L719.089 76.4906L706.367 98.8781ZM720.301 77.1125V102.609H705.761L720.301 77.1125ZM736.051 102.609H721.512V77.1125L736.051 102.609ZM722.724 76.4906L760.889 98.8781H735.446L722.724 76.4906ZM723.33 75.2469H748.773L761.495 97.6344L723.33 75.2469ZM749.985 74.625L762.707 52.2375V97.0125L749.985 74.625ZM761.495 51.6156L748.773 74.0031H723.33L761.495 51.6156ZM735.446 50.3719H760.889L722.724 72.7594L735.446 50.3719ZM721.512 72.1375V46.6406H736.051L721.512 72.1375ZM705.761 46.6406H720.301V72.1375L705.761 46.6406Z" fill="#007BBB"/>
</g>
<g clip-path="url(#clip34_109_1515)">
<path d="M720.906 -24.875V74.625H890.531V-24.875H720.906Z" fill="#59A9D3"/>
<path d="M765.736 0.621875H791.18L803.901 23.0094L765.736 0.621875ZM765.13 1.86562L803.296 24.2531H777.852L765.13 1.86562ZM763.918 2.4875L776.64 24.875L763.918 47.2625V2.4875ZM765.13 47.8844L777.852 25.4969H803.296L765.13 47.8844ZM791.18 49.1281H765.736L803.901 26.7406L791.18 49.1281ZM805.113 27.3625V52.8594H790.574L805.113 27.3625ZM820.864 52.8594H806.325V27.3625L820.864 52.8594ZM807.536 26.7406L845.702 49.1281H820.258L807.536 26.7406ZM808.142 25.4969H833.586L846.308 47.8844L808.142 25.4969ZM834.797 24.875L847.519 2.4875V47.2625L834.797 24.875ZM846.308 1.86562L833.586 24.2531H808.142L846.308 1.86562ZM820.258 0.621875H845.702L807.536 23.0094L820.258 0.621875ZM806.325 22.3875V-3.10938H820.864L806.325 22.3875ZM790.574 -3.10938H805.113V22.3875L790.574 -3.10938Z" fill="#007BBB"/>
</g>
<g clip-path="url(#clip35_109_1515)">
<path d="M720.906 24.875V124.375H890.531V24.875H720.906Z" fill="#59A9D3"/>
<path d="M765.736 50.3719H791.18L803.901 72.7594L765.736 50.3719ZM765.13 51.6156L803.296 74.0031H777.852L765.13 51.6156ZM763.918 52.2375L776.64 74.625L763.918 97.0125V52.2375ZM765.13 97.6344L777.852 75.2469H803.296L765.13 97.6344ZM791.18 98.8781H765.736L803.901 76.4906L791.18 98.8781ZM805.113 77.1125V102.609H790.574L805.113 77.1125ZM820.864 102.609H806.325V77.1125L820.864 102.609ZM807.536 76.4906L845.702 98.8781H820.258L807.536 76.4906ZM808.142 75.2469H833.586L846.308 97.6344L808.142 75.2469ZM834.797 74.625L847.519 52.2375V97.0125L834.797 74.625ZM846.308 51.6156L833.586 74.0031H808.142L846.308 51.6156ZM820.258 50.3719H845.702L807.536 72.7594L820.258 50.3719ZM806.325 72.1375V46.6406H820.864L806.325 72.1375ZM790.574 46.6406H805.113V72.1375L790.574 46.6406Z" fill="#007BBB"/>
</g>
<g clip-path="url(#clip36_109_1515)">
<path d="M636.094 74.625V174.125H805.719V74.625H636.094Z" fill="#59A9D3"/>
<path d="M680.923 100.122H706.367L719.089 122.509L680.923 100.122ZM680.318 101.366L718.483 123.753H693.039L680.318 101.366ZM679.106 101.987L691.828 124.375L679.106 146.763V101.987ZM680.318 147.384L693.039 124.997H718.483L680.318 147.384ZM706.367 148.628H680.923L719.089 126.241L706.367 148.628ZM720.301 126.862V152.359H705.761L720.301 126.862ZM736.051 152.359H721.512V126.862L736.051 152.359ZM722.724 126.241L760.889 148.628H735.446L722.724 126.241ZM723.33 124.997H748.773L761.495 147.384L723.33 124.997ZM749.985 124.375L762.707 101.987V146.763L749.985 124.375ZM761.495 101.366L748.773 123.753H723.33L761.495 101.366ZM735.446 100.122H760.889L722.724 122.509L735.446 100.122ZM721.512 121.887V96.3906H736.051L721.512 121.887ZM705.761 96.3906H720.301V121.887L705.761 96.3906Z" fill="#007BBB"/>
</g>
<g clip-path="url(#clip37_109_1515)">
<path d="M636.094 124.375V223.875H805.719V124.375H636.094Z" fill="#59A9D3"/>
<path d="M680.923 149.872H706.367L719.089 172.259L680.923 149.872ZM680.318 151.116L718.483 173.503H693.039L680.318 151.116ZM679.106 151.737L691.828 174.125L679.106 196.513V151.737ZM680.318 197.134L693.039 174.747H718.483L680.318 197.134ZM706.367 198.378H680.923L719.089 175.991L706.367 198.378ZM720.301 176.612V202.109H705.761L720.301 176.612ZM736.051 202.109H721.512V176.612L736.051 202.109ZM722.724 175.991L760.889 198.378H735.446L722.724 175.991ZM723.33 174.747H748.773L761.495 197.134L723.33 174.747ZM749.985 174.125L762.707 151.737V196.513L749.985 174.125ZM761.495 151.116L748.773 173.503H723.33L761.495 151.116ZM735.446 149.872H760.889L722.724 172.259L735.446 149.872ZM721.512 171.637V146.141H736.051L721.512 171.637ZM705.761 146.141H720.301V171.637L705.761 146.141Z" fill="#007BBB"/>
</g>
<g clip-path="url(#clip38_109_1515)">
<path d="M720.906 74.625V174.125H890.531V74.625H720.906Z" fill="#59A9D3"/>
<path d="M765.736 100.122H791.18L803.901 122.509L765.736 100.122ZM765.13 101.366L803.296 123.753H777.852L765.13 101.366ZM763.918 101.987L776.64 124.375L763.918 146.763V101.987ZM765.13 147.384L777.852 124.997H803.296L765.13 147.384ZM791.18 148.628H765.736L803.901 126.241L791.18 148.628ZM805.113 126.862V152.359H790.574L805.113 126.862ZM820.864 152.359H806.325V126.862L820.864 152.359ZM807.536 126.241L845.702 148.628H820.258L807.536 126.241ZM808.142 124.997H833.586L846.308 147.384L808.142 124.997ZM834.797 124.375L847.519 101.987V146.763L834.797 124.375ZM846.308 101.366L833.586 123.753H808.142L846.308 101.366ZM820.258 100.122H845.702L807.536 122.509L820.258 100.122ZM806.325 121.887V96.3906H820.864L806.325 121.887ZM790.574 96.3906H805.113V121.887L790.574 96.3906Z" fill="#007BBB"/>
</g>
<g clip-path="url(#clip39_109_1515)">
<path d="M720.906 124.375V223.875H890.531V124.375H720.906Z" fill="#59A9D3"/>
<path d="M765.736 149.872H791.18L803.901 172.259L765.736 149.872ZM765.13 151.116L803.296 173.503H777.852L765.13 151.116ZM763.918 151.737L776.64 174.125L763.918 196.513V151.737ZM765.13 197.134L777.852 174.747H803.296L765.13 197.134ZM791.18 198.378H765.736L803.901 175.991L791.18 198.378ZM805.113 176.612V202.109H790.574L805.113 176.612ZM820.864 202.109H806.325V176.612L820.864 202.109ZM807.536 175.991L845.702 198.378H820.258L807.536 175.991ZM808.142 174.747H833.586L846.308 197.134L808.142 174.747ZM834.797 174.125L847.519 151.737V196.513L834.797 174.125ZM846.308 151.116L833.586 173.503H808.142L846.308 151.116ZM820.258 149.872H845.702L807.536 172.259L820.258 149.872ZM806.325 171.637V146.141H820.864L806.325 171.637ZM790.574 146.141H805.113V171.637L790.574 146.141Z" fill="#007BBB"/>
</g>
<g clip-path="url(#clip40_109_1515)">
<path d="M805.719 -24.875V74.625H975.344V-24.875H805.719Z" fill="#59A9D3"/>
<path d="M850.548 0.621875H875.992L888.714 23.0094L850.548 0.621875ZM849.943 1.86562L888.108 24.2531H862.664L849.943 1.86562ZM848.731 2.4875L861.453 24.875L848.731 47.2625V2.4875ZM849.943 47.8844L862.664 25.4969H888.108L849.943 47.8844ZM875.992 49.1281H850.548L888.714 26.7406L875.992 49.1281ZM889.926 27.3625V52.8594H875.386L889.926 27.3625ZM905.676 52.8594H891.137V27.3625L905.676 52.8594ZM892.349 26.7406L930.514 49.1281H905.071L892.349 26.7406ZM892.955 25.4969H918.398L931.12 47.8844L892.955 25.4969ZM919.61 24.875L932.332 2.4875V47.2625L919.61 24.875ZM931.12 1.86562L918.398 24.2531H892.955L931.12 1.86562ZM905.071 0.621875H930.514L892.349 23.0094L905.071 0.621875ZM891.137 22.3875V-3.10938H905.676L891.137 22.3875ZM875.386 -3.10938H889.926V22.3875L875.386 -3.10938Z" fill="#007BBB"/>
</g>
<g clip-path="url(#clip41_109_1515)">
<path d="M805.719 24.875V124.375H975.344V24.875H805.719Z" fill="#59A9D3"/>
<path d="M850.548 50.3719H875.992L888.714 72.7594L850.548 50.3719ZM849.943 51.6156L888.108 74.0031H862.664L849.943 51.6156ZM848.731 52.2375L861.453 74.625L848.731 97.0125V52.2375ZM849.943 97.6344L862.664 75.2469H888.108L849.943 97.6344ZM875.992 98.8781H850.548L888.714 76.4906L875.992 98.8781ZM889.926 77.1125V102.609H875.386L889.926 77.1125ZM905.676 102.609H891.137V77.1125L905.676 102.609ZM892.349 76.4906L930.514 98.8781H905.071L892.349 76.4906ZM892.955 75.2469H918.398L931.12 97.6344L892.955 75.2469ZM919.61 74.625L932.332 52.2375V97.0125L919.61 74.625ZM931.12 51.6156L918.398 74.0031H892.955L931.12 51.6156ZM905.071 50.3719H930.514L892.349 72.7594L905.071 50.3719ZM891.137 72.1375V46.6406H905.676L891.137 72.1375ZM875.386 46.6406H889.926V72.1375L875.386 46.6406Z" fill="#007BBB"/>
</g>
<g clip-path="url(#clip42_109_1515)">
<path d="M890.531 -24.875V74.625H1060.16V-24.875H890.531Z" fill="#59A9D3"/>
<path d="M935.361 0.621875H960.805L973.526 23.0094L935.361 0.621875ZM934.755 1.86562L972.921 24.2531H947.477L934.755 1.86562ZM933.543 2.4875L946.265 24.875L933.543 47.2625V2.4875ZM934.755 47.8844L947.477 25.4969H972.921L934.755 47.8844ZM960.805 49.1281H935.361L973.526 26.7406L960.805 49.1281ZM974.738 27.3625V52.8594H960.199L974.738 27.3625ZM990.489 52.8594H975.95V27.3625L990.489 52.8594ZM977.161 26.7406L1015.33 49.1281H989.883L977.161 26.7406ZM977.767 25.4969H1003.21L1015.93 47.8844L977.767 25.4969ZM1004.42 24.875L1017.14 2.4875V47.2625L1004.42 24.875ZM1015.93 1.86562L1003.21 24.2531H977.767L1015.93 1.86562ZM989.883 0.621875H1015.33L977.161 23.0094L989.883 0.621875ZM975.95 22.3875V-3.10938H990.489L975.95 22.3875ZM960.199 -3.10938H974.738V22.3875L960.199 -3.10938Z" fill="#007BBB"/>
</g>
<g clip-path="url(#clip43_109_1515)">
<path d="M890.531 24.875V124.375H1060.16V24.875H890.531Z" fill="#59A9D3"/>
<path d="M935.361 50.3719H960.805L973.526 72.7594L935.361 50.3719ZM934.755 51.6156L972.921 74.0031H947.477L934.755 51.6156ZM933.543 52.2375L946.265 74.625L933.543 97.0125V52.2375ZM934.755 97.6344L947.477 75.2469H972.921L934.755 97.6344ZM960.805 98.8781H935.361L973.526 76.4906L960.805 98.8781ZM974.738 77.1125V102.609H960.199L974.738 77.1125ZM990.489 102.609H975.95V77.1125L990.489 102.609ZM977.161 76.4906L1015.33 98.8781H989.883L977.161 76.4906ZM977.767 75.2469H1003.21L1015.93 97.6344L977.767 75.2469ZM1004.42 74.625L1017.14 52.2375V97.0125L1004.42 74.625ZM1015.93 51.6156L1003.21 74.0031H977.767L1015.93 51.6156ZM989.883 50.3719H1015.33L977.161 72.7594L989.883 50.3719ZM975.95 72.1375V46.6406H990.489L975.95 72.1375ZM960.199 46.6406H974.738V72.1375L960.199 46.6406Z" fill="#007BBB"/>
</g>
<g clip-path="url(#clip44_109_1515)">
<path d="M805.719 74.625V174.125H975.344V74.625H805.719Z" fill="#59A9D3"/>
<path d="M850.548 100.122H875.992L888.714 122.509L850.548 100.122ZM849.943 101.366L888.108 123.753H862.664L849.943 101.366ZM848.731 101.987L861.453 124.375L848.731 146.763V101.987ZM849.943 147.384L862.664 124.997H888.108L849.943 147.384ZM875.992 148.628H850.548L888.714 126.241L875.992 148.628ZM889.926 126.862V152.359H875.386L889.926 126.862ZM905.676 152.359H891.137V126.862L905.676 152.359ZM892.349 126.241L930.514 148.628H905.071L892.349 126.241ZM892.955 124.997H918.398L931.12 147.384L892.955 124.997ZM919.61 124.375L932.332 101.987V146.763L919.61 124.375ZM931.12 101.366L918.398 123.753H892.955L931.12 101.366ZM905.071 100.122H930.514L892.349 122.509L905.071 100.122ZM891.137 121.887V96.3906H905.676L891.137 121.887ZM875.386 96.3906H889.926V121.887L875.386 96.3906Z" fill="#007BBB"/>
</g>
<g clip-path="url(#clip45_109_1515)">
<path d="M805.719 124.375V223.875H975.344V124.375H805.719Z" fill="#59A9D3"/>
<path d="M850.548 149.872H875.992L888.714 172.259L850.548 149.872ZM849.943 151.116L888.108 173.503H862.664L849.943 151.116ZM848.731 151.737L861.453 174.125L848.731 196.513V151.737ZM849.943 197.134L862.664 174.747H888.108L849.943 197.134ZM875.992 198.378H850.548L888.714 175.991L875.992 198.378ZM889.926 176.612V202.109H875.386L889.926 176.612ZM905.676 202.109H891.137V176.612L905.676 202.109ZM892.349 175.991L930.514 198.378H905.071L892.349 175.991ZM892.955 174.747H918.398L931.12 197.134L892.955 174.747ZM919.61 174.125L932.332 151.737V196.513L919.61 174.125ZM931.12 151.116L918.398 173.503H892.955L931.12 151.116ZM905.071 149.872H930.514L892.349 172.259L905.071 149.872ZM891.137 171.637V146.141H905.676L891.137 171.637ZM875.386 146.141H889.926V171.637L875.386 146.141Z" fill="#007BBB"/>
</g>
<g clip-path="url(#clip46_109_1515)">
<path d="M890.531 74.625V174.125H1060.16V74.625H890.531Z" fill="#59A9D3"/>
<path d="M935.361 100.122H960.805L973.526 122.509L935.361 100.122ZM934.755 101.366L972.921 123.753H947.477L934.755 101.366ZM933.543 101.987L946.265 124.375L933.543 146.763V101.987ZM934.755 147.384L947.477 124.997H972.921L934.755 147.384ZM960.805 148.628H935.361L973.526 126.241L960.805 148.628ZM974.738 126.862V152.359H960.199L974.738 126.862ZM990.489 152.359H975.95V126.862L990.489 152.359ZM977.161 126.241L1015.33 148.628H989.883L977.161 126.241ZM977.767 124.997H1003.21L1015.93 147.384L977.767 124.997ZM1004.42 124.375L1017.14 101.987V146.763L1004.42 124.375ZM1015.93 101.366L1003.21 123.753H977.767L1015.93 101.366ZM989.883 100.122H1015.33L977.161 122.509L989.883 100.122ZM975.95 121.887V96.3906H990.489L975.95 121.887ZM960.199 96.3906H974.738V121.887L960.199 96.3906Z" fill="#007BBB"/>
</g>
<g clip-path="url(#clip47_109_1515)">
<path d="M890.531 124.375V223.875H1060.16V124.375H890.531Z" fill="#59A9D3"/>
<path d="M935.361 149.872H960.805L973.526 172.259L935.361 149.872ZM934.755 151.116L972.921 173.503H947.477L934.755 151.116ZM933.543 151.737L946.265 174.125L933.543 196.513V151.737ZM934.755 197.134L947.477 174.747H972.921L934.755 197.134ZM960.805 198.378H935.361L973.526 175.991L960.805 198.378ZM974.738 176.612V202.109H960.199L974.738 176.612ZM990.489 202.109H975.95V176.612L990.489 202.109ZM977.161 175.991L1015.33 198.378H989.883L977.161 175.991ZM977.767 174.747H1003.21L1015.93 197.134L977.767 174.747ZM1004.42 174.125L1017.14 151.737V196.513L1004.42 174.125ZM1015.93 151.116L1003.21 173.503H977.767L1015.93 151.116ZM989.883 149.872H1015.33L977.161 172.259L989.883 149.872ZM975.95 171.637V146.141H990.489L975.95 171.637ZM960.199 146.141H974.738V171.637L960.199 146.141Z" fill="#007BBB"/>
</g>
<g clip-path="url(#clip48_109_1515)">
<path d="M975.344 -24.875V74.625H1144.97V-24.875H975.344Z" fill="#59A9D3"/>
<path d="M1020.17 0.621875H1045.62L1058.34 23.0094L1020.17 0.621875ZM1019.57 1.86562L1057.73 24.2531H1032.29L1019.57 1.86562ZM1018.36 2.4875L1031.08 24.875L1018.36 47.2625V2.4875ZM1019.57 47.8844L1032.29 25.4969H1057.73L1019.57 47.8844ZM1045.62 49.1281H1020.17L1058.34 26.7406L1045.62 49.1281ZM1059.55 27.3625V52.8594H1045.01L1059.55 27.3625ZM1075.3 52.8594H1060.76V27.3625L1075.3 52.8594ZM1061.97 26.7406L1100.14 49.1281H1074.7L1061.97 26.7406ZM1062.58 25.4969H1088.02L1100.75 47.8844L1062.58 25.4969ZM1089.23 24.875L1101.96 2.4875V47.2625L1089.23 24.875ZM1100.75 1.86562L1088.02 24.2531H1062.58L1100.75 1.86562ZM1074.7 0.621875H1100.14L1061.97 23.0094L1074.7 0.621875ZM1060.76 22.3875V-3.10938H1075.3L1060.76 22.3875ZM1045.01 -3.10938H1059.55V22.3875L1045.01 -3.10938Z" fill="#007BBB"/>
</g>
<g clip-path="url(#clip49_109_1515)">
<path d="M975.344 24.875V124.375H1144.97V24.875H975.344Z" fill="#59A9D3"/>
<path d="M1020.17 50.3719H1045.62L1058.34 72.7594L1020.17 50.3719ZM1019.57 51.6156L1057.73 74.0031H1032.29L1019.57 51.6156ZM1018.36 52.2375L1031.08 74.625L1018.36 97.0125V52.2375ZM1019.57 97.6344L1032.29 75.2469H1057.73L1019.57 97.6344ZM1045.62 98.8781H1020.17L1058.34 76.4906L1045.62 98.8781ZM1059.55 77.1125V102.609H1045.01L1059.55 77.1125ZM1075.3 102.609H1060.76V77.1125L1075.3 102.609ZM1061.97 76.4906L1100.14 98.8781H1074.7L1061.97 76.4906ZM1062.58 75.2469H1088.02L1100.75 97.6344L1062.58 75.2469ZM1089.23 74.625L1101.96 52.2375V97.0125L1089.23 74.625ZM1100.75 51.6156L1088.02 74.0031H1062.58L1100.75 51.6156ZM1074.7 50.3719H1100.14L1061.97 72.7594L1074.7 50.3719ZM1060.76 72.1375V46.6406H1075.3L1060.76 72.1375ZM1045.01 46.6406H1059.55V72.1375L1045.01 46.6406Z" fill="#007BBB"/>
</g>
<g clip-path="url(#clip50_109_1515)">
<path d="M1060.16 -24.875V74.625H1229.78V-24.875H1060.16Z" fill="#59A9D3"/>
<path d="M1104.99 0.621875H1130.43L1143.15 23.0094L1104.99 0.621875ZM1104.38 1.86562L1142.55 24.2531H1117.1L1104.38 1.86562ZM1103.17 2.4875L1115.89 24.875L1103.17 47.2625V2.4875ZM1104.38 47.8844L1117.1 25.4969H1142.55L1104.38 47.8844ZM1130.43 49.1281H1104.99L1143.15 26.7406L1130.43 49.1281ZM1144.36 27.3625V52.8594H1129.82L1144.36 27.3625ZM1160.11 52.8594H1145.57V27.3625L1160.11 52.8594ZM1146.79 26.7406L1184.95 49.1281H1159.51L1146.79 26.7406ZM1147.39 25.4969H1172.84L1185.56 47.8844L1147.39 25.4969ZM1174.05 24.875L1186.77 2.4875V47.2625L1174.05 24.875ZM1185.56 1.86562L1172.84 24.2531H1147.39L1185.56 1.86562ZM1159.51 0.621875H1184.95L1146.79 23.0094L1159.51 0.621875ZM1145.57 22.3875V-3.10938H1160.11L1145.57 22.3875ZM1129.82 -3.10938H1144.36V22.3875L1129.82 -3.10938Z" fill="#007BBB"/>
</g>
<g clip-path="url(#clip51_109_1515)">
<path d="M1060.16 24.875V124.375H1229.78V24.875H1060.16Z" fill="#59A9D3"/>
<path d="M1104.99 50.3719H1130.43L1143.15 72.7594L1104.99 50.3719ZM1104.38 51.6156L1142.55 74.0031H1117.1L1104.38 51.6156ZM1103.17 52.2375L1115.89 74.625L1103.17 97.0125V52.2375ZM1104.38 97.6344L1117.1 75.2469H1142.55L1104.38 97.6344ZM1130.43 98.8781H1104.99L1143.15 76.4906L1130.43 98.8781ZM1144.36 77.1125V102.609H1129.82L1144.36 77.1125ZM1160.11 102.609H1145.57V77.1125L1160.11 102.609ZM1146.79 76.4906L1184.95 98.8781H1159.51L1146.79 76.4906ZM1147.39 75.2469H1172.84L1185.56 97.6344L1147.39 75.2469ZM1174.05 74.625L1186.77 52.2375V97.0125L1174.05 74.625ZM1185.56 51.6156L1172.84 74.0031H1147.39L1185.56 51.6156ZM1159.51 50.3719H1184.95L1146.79 72.7594L1159.51 50.3719ZM1145.57 72.1375V46.6406H1160.11L1145.57 72.1375ZM1129.82 46.6406H1144.36V72.1375L1129.82 46.6406Z" fill="#007BBB"/>
</g>
<g clip-path="url(#clip52_109_1515)">
<path d="M975.344 74.625V174.125H1144.97V74.625H975.344Z" fill="#59A9D3"/>
<path d="M1020.17 100.122H1045.62L1058.34 122.509L1020.17 100.122ZM1019.57 101.366L1057.73 123.753H1032.29L1019.57 101.366ZM1018.36 101.987L1031.08 124.375L1018.36 146.763V101.987ZM1019.57 147.384L1032.29 124.997H1057.73L1019.57 147.384ZM1045.62 148.628H1020.17L1058.34 126.241L1045.62 148.628ZM1059.55 126.862V152.359H1045.01L1059.55 126.862ZM1075.3 152.359H1060.76V126.862L1075.3 152.359ZM1061.97 126.241L1100.14 148.628H1074.7L1061.97 126.241ZM1062.58 124.997H1088.02L1100.75 147.384L1062.58 124.997ZM1089.23 124.375L1101.96 101.987V146.763L1089.23 124.375ZM1100.75 101.366L1088.02 123.753H1062.58L1100.75 101.366ZM1074.7 100.122H1100.14L1061.97 122.509L1074.7 100.122ZM1060.76 121.887V96.3906H1075.3L1060.76 121.887ZM1045.01 96.3906H1059.55V121.887L1045.01 96.3906Z" fill="#007BBB"/>
</g>
<g clip-path="url(#clip53_109_1515)">
<path d="M975.344 124.375V223.875H1144.97V124.375H975.344Z" fill="#59A9D3"/>
<path d="M1020.17 149.872H1045.62L1058.34 172.259L1020.17 149.872ZM1019.57 151.116L1057.73 173.503H1032.29L1019.57 151.116ZM1018.36 151.737L1031.08 174.125L1018.36 196.513V151.737ZM1019.57 197.134L1032.29 174.747H1057.73L1019.57 197.134ZM1045.62 198.378H1020.17L1058.34 175.991L1045.62 198.378ZM1059.55 176.612V202.109H1045.01L1059.55 176.612ZM1075.3 202.109H1060.76V176.612L1075.3 202.109ZM1061.97 175.991L1100.14 198.378H1074.7L1061.97 175.991ZM1062.58 174.747H1088.02L1100.75 197.134L1062.58 174.747ZM1089.23 174.125L1101.96 151.737V196.513L1089.23 174.125ZM1100.75 151.116L1088.02 173.503H1062.58L1100.75 151.116ZM1074.7 149.872H1100.14L1061.97 172.259L1074.7 149.872ZM1060.76 171.637V146.141H1075.3L1060.76 171.637ZM1045.01 146.141H1059.55V171.637L1045.01 146.141Z" fill="#007BBB"/>
</g>
<g clip-path="url(#clip54_109_1515)">
<path d="M1060.16 74.625V174.125H1229.78V74.625H1060.16Z" fill="#59A9D3"/>
<path d="M1104.99 100.122H1130.43L1143.15 122.509L1104.99 100.122ZM1104.38 101.366L1142.55 123.753H1117.1L1104.38 101.366ZM1103.17 101.987L1115.89 124.375L1103.17 146.763V101.987ZM1104.38 147.384L1117.1 124.997H1142.55L1104.38 147.384ZM1130.43 148.628H1104.99L1143.15 126.241L1130.43 148.628ZM1144.36 126.862V152.359H1129.82L1144.36 126.862ZM1160.11 152.359H1145.57V126.862L1160.11 152.359ZM1146.79 126.241L1184.95 148.628H1159.51L1146.79 126.241ZM1147.39 124.997H1172.84L1185.56 147.384L1147.39 124.997ZM1174.05 124.375L1186.77 101.987V146.763L1174.05 124.375ZM1185.56 101.366L1172.84 123.753H1147.39L1185.56 101.366ZM1159.51 100.122H1184.95L1146.79 122.509L1159.51 100.122ZM1145.57 121.887V96.3906H1160.11L1145.57 121.887ZM1129.82 96.3906H1144.36V121.887L1129.82 96.3906Z" fill="#007BBB"/>
</g>
<g clip-path="url(#clip55_109_1515)">
<path d="M1060.16 124.375V223.875H1229.78V124.375H1060.16Z" fill="#59A9D3"/>
<path d="M1104.99 149.872H1130.43L1143.15 172.259L1104.99 149.872ZM1104.38 151.116L1142.55 173.503H1117.1L1104.38 151.116ZM1103.17 151.737L1115.89 174.125L1103.17 196.513V151.737ZM1104.38 197.134L1117.1 174.747H1142.55L1104.38 197.134ZM1130.43 198.378H1104.99L1143.15 175.991L1130.43 198.378ZM1144.36 176.612V202.109H1129.82L1144.36 176.612ZM1160.11 202.109H1145.57V176.612L1160.11 202.109ZM1146.79 175.991L1184.95 198.378H1159.51L1146.79 175.991ZM1147.39 174.747H1172.84L1185.56 197.134L1147.39 174.747ZM1174.05 174.125L1186.77 151.737V196.513L1174.05 174.125ZM1185.56 151.116L1172.84 173.503H1147.39L1185.56 151.116ZM1159.51 149.872H1184.95L1146.79 172.259L1159.51 149.872ZM1145.57 171.637V146.141H1160.11L1145.57 171.637ZM1129.82 146.141H1144.36V171.637L1129.82 146.141Z" fill="#007BBB"/>
</g>
<g clip-path="url(#clip56_109_1515)">
<path d="M1144.97 -24.875V74.625H1314.59V-24.875H1144.97Z" fill="#59A9D3"/>
<path d="M1189.8 0.621875H1215.24L1227.96 23.0094L1189.8 0.621875ZM1189.19 1.86562L1227.36 24.2531H1201.91L1189.19 1.86562ZM1187.98 2.4875L1200.7 24.875L1187.98 47.2625V2.4875ZM1189.19 47.8844L1201.91 25.4969H1227.36L1189.19 47.8844ZM1215.24 49.1281H1189.8L1227.96 26.7406L1215.24 49.1281ZM1229.18 27.3625V52.8594H1214.64L1229.18 27.3625ZM1244.93 52.8594H1230.39V27.3625L1244.93 52.8594ZM1231.6 26.7406L1269.76 49.1281H1244.32L1231.6 26.7406ZM1232.2 25.4969H1257.65L1270.37 47.8844L1232.2 25.4969ZM1258.86 24.875L1271.58 2.4875V47.2625L1258.86 24.875ZM1270.37 1.86562L1257.65 24.2531H1232.2L1270.37 1.86562ZM1244.32 0.621875H1269.76L1231.6 23.0094L1244.32 0.621875ZM1230.39 22.3875V-3.10938H1244.93L1230.39 22.3875ZM1214.64 -3.10938H1229.18V22.3875L1214.64 -3.10938Z" fill="#007BBB"/>
</g>
<g clip-path="url(#clip57_109_1515)">
<path d="M1144.97 24.875V124.375H1314.59V24.875H1144.97Z" fill="#59A9D3"/>
<path d="M1189.8 50.3719H1215.24L1227.96 72.7594L1189.8 50.3719ZM1189.19 51.6156L1227.36 74.0031H1201.91L1189.19 51.6156ZM1187.98 52.2375L1200.7 74.625L1187.98 97.0125V52.2375ZM1189.19 97.6344L1201.91 75.2469H1227.36L1189.19 97.6344ZM1215.24 98.8781H1189.8L1227.96 76.4906L1215.24 98.8781ZM1229.18 77.1125V102.609H1214.64L1229.18 77.1125ZM1244.93 102.609H1230.39V77.1125L1244.93 102.609ZM1231.6 76.4906L1269.76 98.8781H1244.32L1231.6 76.4906ZM1232.2 75.2469H1257.65L1270.37 97.6344L1232.2 75.2469ZM1258.86 74.625L1271.58 52.2375V97.0125L1258.86 74.625ZM1270.37 51.6156L1257.65 74.0031H1232.2L1270.37 51.6156ZM1244.32 50.3719H1269.76L1231.6 72.7594L1244.32 50.3719ZM1230.39 72.1375V46.6406H1244.93L1230.39 72.1375ZM1214.64 46.6406H1229.18V72.1375L1214.64 46.6406Z" fill="#007BBB"/>
</g>
<g clip-path="url(#clip58_109_1515)">
<path d="M1229.78 -24.875V74.625H1399.41V-24.875H1229.78Z" fill="#59A9D3"/>
<path d="M1274.61 0.621875H1300.05L1312.78 23.0094L1274.61 0.621875ZM1274.01 1.86562L1312.17 24.2531H1286.73L1274.01 1.86562ZM1272.79 2.4875L1285.52 24.875L1272.79 47.2625V2.4875ZM1274.01 47.8844L1286.73 25.4969H1312.17L1274.01 47.8844ZM1300.05 49.1281H1274.61L1312.78 26.7406L1300.05 49.1281ZM1313.99 27.3625V52.8594H1299.45L1313.99 27.3625ZM1329.74 52.8594H1315.2V27.3625L1329.74 52.8594ZM1316.41 26.7406L1354.58 49.1281H1329.13L1316.41 26.7406ZM1317.02 25.4969H1342.46L1355.18 47.8844L1317.02 25.4969ZM1343.67 24.875L1356.39 2.4875V47.2625L1343.67 24.875ZM1355.18 1.86562L1342.46 24.2531H1317.02L1355.18 1.86562ZM1329.13 0.621875H1354.58L1316.41 23.0094L1329.13 0.621875ZM1315.2 22.3875V-3.10938H1329.74L1315.2 22.3875ZM1299.45 -3.10938H1313.99V22.3875L1299.45 -3.10938Z" fill="#007BBB"/>
</g>
<g clip-path="url(#clip59_109_1515)">
<path d="M1229.78 24.875V124.375H1399.41V24.875H1229.78Z" fill="#59A9D3"/>
<path d="M1274.61 50.3719H1300.05L1312.78 72.7594L1274.61 50.3719ZM1274.01 51.6156L1312.17 74.0031H1286.73L1274.01 51.6156ZM1272.79 52.2375L1285.52 74.625L1272.79 97.0125V52.2375ZM1274.01 97.6344L1286.73 75.2469H1312.17L1274.01 97.6344ZM1300.05 98.8781H1274.61L1312.78 76.4906L1300.05 98.8781ZM1313.99 77.1125V102.609H1299.45L1313.99 77.1125ZM1329.74 102.609H1315.2V77.1125L1329.74 102.609ZM1316.41 76.4906L1354.58 98.8781H1329.13L1316.41 76.4906ZM1317.02 75.2469H1342.46L1355.18 97.6344L1317.02 75.2469ZM1343.67 74.625L1356.39 52.2375V97.0125L1343.67 74.625ZM1355.18 51.6156L1342.46 74.0031H1317.02L1355.18 51.6156ZM1329.13 50.3719H1354.58L1316.41 72.7594L1329.13 50.3719ZM1315.2 72.1375V46.6406H1329.74L1315.2 72.1375ZM1299.45 46.6406H1313.99V72.1375L1299.45 46.6406Z" fill="#007BBB"/>
</g>
<g clip-path="url(#clip60_109_1515)">
<path d="M1144.97 74.625V174.125H1314.59V74.625H1144.97Z" fill="#59A9D3"/>
<path d="M1189.8 100.122H1215.24L1227.96 122.509L1189.8 100.122ZM1189.19 101.366L1227.36 123.753H1201.91L1189.19 101.366ZM1187.98 101.987L1200.7 124.375L1187.98 146.763V101.987ZM1189.19 147.384L1201.91 124.997H1227.36L1189.19 147.384ZM1215.24 148.628H1189.8L1227.96 126.241L1215.24 148.628ZM1229.18 126.862V152.359H1214.64L1229.18 126.862ZM1244.93 152.359H1230.39V126.862L1244.93 152.359ZM1231.6 126.241L1269.76 148.628H1244.32L1231.6 126.241ZM1232.2 124.997H1257.65L1270.37 147.384L1232.2 124.997ZM1258.86 124.375L1271.58 101.987V146.763L1258.86 124.375ZM1270.37 101.366L1257.65 123.753H1232.2L1270.37 101.366ZM1244.32 100.122H1269.76L1231.6 122.509L1244.32 100.122ZM1230.39 121.887V96.3906H1244.93L1230.39 121.887ZM1214.64 96.3906H1229.18V121.887L1214.64 96.3906Z" fill="#007BBB"/>
</g>
<g clip-path="url(#clip61_109_1515)">
<path d="M1144.97 124.375V223.875H1314.59V124.375H1144.97Z" fill="#59A9D3"/>
<path d="M1189.8 149.872H1215.24L1227.96 172.259L1189.8 149.872ZM1189.19 151.116L1227.36 173.503H1201.91L1189.19 151.116ZM1187.98 151.737L1200.7 174.125L1187.98 196.513V151.737ZM1189.19 197.134L1201.91 174.747H1227.36L1189.19 197.134ZM1215.24 198.378H1189.8L1227.96 175.991L1215.24 198.378ZM1229.18 176.612V202.109H1214.64L1229.18 176.612ZM1244.93 202.109H1230.39V176.612L1244.93 202.109ZM1231.6 175.991L1269.76 198.378H1244.32L1231.6 175.991ZM1232.2 174.747H1257.65L1270.37 197.134L1232.2 174.747ZM1258.86 174.125L1271.58 151.737V196.513L1258.86 174.125ZM1270.37 151.116L1257.65 173.503H1232.2L1270.37 151.116ZM1244.32 149.872H1269.76L1231.6 172.259L1244.32 149.872ZM1230.39 171.637V146.141H1244.93L1230.39 171.637ZM1214.64 146.141H1229.18V171.637L1214.64 146.141Z" fill="#007BBB"/>
</g>
<g clip-path="url(#clip62_109_1515)">
<path d="M1229.78 74.625V174.125H1399.41V74.625H1229.78Z" fill="#59A9D3"/>
<path d="M1274.61 100.122H1300.05L1312.78 122.509L1274.61 100.122ZM1274.01 101.366L1312.17 123.753H1286.73L1274.01 101.366ZM1272.79 101.987L1285.52 124.375L1272.79 146.763V101.987ZM1274.01 147.384L1286.73 124.997H1312.17L1274.01 147.384ZM1300.05 148.628H1274.61L1312.78 126.241L1300.05 148.628ZM1313.99 126.862V152.359H1299.45L1313.99 126.862ZM1329.74 152.359H1315.2V126.862L1329.74 152.359ZM1316.41 126.241L1354.58 148.628H1329.13L1316.41 126.241ZM1317.02 124.997H1342.46L1355.18 147.384L1317.02 124.997ZM1343.67 124.375L1356.39 101.987V146.763L1343.67 124.375ZM1355.18 101.366L1342.46 123.753H1317.02L1355.18 101.366ZM1329.13 100.122H1354.58L1316.41 122.509L1329.13 100.122ZM1315.2 121.887V96.3906H1329.74L1315.2 121.887ZM1299.45 96.3906H1313.99V121.887L1299.45 96.3906Z" fill="#007BBB"/>
</g>
<g clip-path="url(#clip63_109_1515)">
<path d="M1229.78 124.375V223.875H1399.41V124.375H1229.78Z" fill="#59A9D3"/>
<path d="M1274.61 149.872H1300.05L1312.78 172.259L1274.61 149.872ZM1274.01 151.116L1312.17 173.503H1286.73L1274.01 151.116ZM1272.79 151.737L1285.52 174.125L1272.79 196.513V151.737ZM1274.01 197.134L1286.73 174.747H1312.17L1274.01 197.134ZM1300.05 198.378H1274.61L1312.78 175.991L1300.05 198.378ZM1313.99 176.612V202.109H1299.45L1313.99 176.612ZM1329.74 202.109H1315.2V176.612L1329.74 202.109ZM1316.41 175.991L1354.58 198.378H1329.13L1316.41 175.991ZM1317.02 174.747H1342.46L1355.18 197.134L1317.02 174.747ZM1343.67 174.125L1356.39 151.737V196.513L1343.67 174.125ZM1355.18 151.116L1342.46 173.503H1317.02L1355.18 151.116ZM1329.13 149.872H1354.58L1316.41 172.259L1329.13 149.872ZM1315.2 171.637V146.141H1329.74L1315.2 171.637ZM1299.45 146.141H1313.99V171.637L1299.45 146.141Z" fill="#007BBB"/>
</g>
<defs>
<clipPath id="clip0_109_1515">
<rect width="84.8125" height="49.75" fill="white"/>
</clipPath>
<clipPath id="clip1_109_1515">
<rect width="84.8125" height="49.75" fill="white" transform="translate(0 49.75)"/>
</clipPath>
<clipPath id="clip2_109_1515">
<rect width="84.8125" height="49.75" fill="white" transform="translate(84.8125)"/>
</clipPath>
<clipPath id="clip3_109_1515">
<rect width="84.8125" height="49.75" fill="white" transform="translate(84.8125 49.75)"/>
</clipPath>
<clipPath id="clip4_109_1515">
<rect width="84.8125" height="49.75" fill="white" transform="translate(0 99.5)"/>
</clipPath>
<clipPath id="clip5_109_1515">
<rect width="84.8125" height="49.75" fill="white" transform="translate(0 149.25)"/>
</clipPath>
<clipPath id="clip6_109_1515">
<rect width="84.8125" height="49.75" fill="white" transform="translate(84.8125 99.5)"/>
</clipPath>
<clipPath id="clip7_109_1515">
<rect width="84.8125" height="49.75" fill="white" transform="translate(84.8125 149.25)"/>
</clipPath>
<clipPath id="clip8_109_1515">
<rect width="84.8125" height="49.75" fill="white" transform="translate(169.625)"/>
</clipPath>
<clipPath id="clip9_109_1515">
<rect width="84.8125" height="49.75" fill="white" transform="translate(169.625 49.75)"/>
</clipPath>
<clipPath id="clip10_109_1515">
<rect width="84.8125" height="49.75" fill="white" transform="translate(254.438)"/>
</clipPath>
<clipPath id="clip11_109_1515">
<rect width="84.8125" height="49.75" fill="white" transform="translate(254.438 49.75)"/>
</clipPath>
<clipPath id="clip12_109_1515">
<rect width="84.8125" height="49.75" fill="white" transform="translate(169.625 99.5)"/>
</clipPath>
<clipPath id="clip13_109_1515">
<rect width="84.8125" height="49.75" fill="white" transform="translate(169.625 149.25)"/>
</clipPath>
<clipPath id="clip14_109_1515">
<rect width="84.8125" height="49.75" fill="white" transform="translate(254.438 99.5)"/>
</clipPath>
<clipPath id="clip15_109_1515">
<rect width="84.8125" height="49.75" fill="white" transform="translate(254.438 149.25)"/>
</clipPath>
<clipPath id="clip16_109_1515">
<rect width="84.8125" height="49.75" fill="white" transform="translate(339.25)"/>
</clipPath>
<clipPath id="clip17_109_1515">
<rect width="84.8125" height="49.75" fill="white" transform="translate(339.25 49.75)"/>
</clipPath>
<clipPath id="clip18_109_1515">
<rect width="84.8125" height="49.75" fill="white" transform="translate(424.062)"/>
</clipPath>
<clipPath id="clip19_109_1515">
<rect width="84.8125" height="49.75" fill="white" transform="translate(424.062 49.75)"/>
</clipPath>
<clipPath id="clip20_109_1515">
<rect width="84.8125" height="49.75" fill="white" transform="translate(339.25 99.5)"/>
</clipPath>
<clipPath id="clip21_109_1515">
<rect width="84.8125" height="49.75" fill="white" transform="translate(339.25 149.25)"/>
</clipPath>
<clipPath id="clip22_109_1515">
<rect width="84.8125" height="49.75" fill="white" transform="translate(424.062 99.5)"/>
</clipPath>
<clipPath id="clip23_109_1515">
<rect width="84.8125" height="49.75" fill="white" transform="translate(424.062 149.25)"/>
</clipPath>
<clipPath id="clip24_109_1515">
<rect width="84.8125" height="49.75" fill="white" transform="translate(508.875)"/>
</clipPath>
<clipPath id="clip25_109_1515">
<rect width="84.8125" height="49.75" fill="white" transform="translate(508.875 49.75)"/>
</clipPath>
<clipPath id="clip26_109_1515">
<rect width="84.8125" height="49.75" fill="white" transform="translate(593.688)"/>
</clipPath>
<clipPath id="clip27_109_1515">
<rect width="84.8125" height="49.75" fill="white" transform="translate(593.688 49.75)"/>
</clipPath>
<clipPath id="clip28_109_1515">
<rect width="84.8125" height="49.75" fill="white" transform="translate(508.875 99.5)"/>
</clipPath>
<clipPath id="clip29_109_1515">
<rect width="84.8125" height="49.75" fill="white" transform="translate(508.875 149.25)"/>
</clipPath>
<clipPath id="clip30_109_1515">
<rect width="84.8125" height="49.75" fill="white" transform="translate(593.688 99.5)"/>
</clipPath>
<clipPath id="clip31_109_1515">
<rect width="84.8125" height="49.75" fill="white" transform="translate(593.688 149.25)"/>
</clipPath>
<clipPath id="clip32_109_1515">
<rect width="84.8125" height="49.75" fill="white" transform="translate(678.5)"/>
</clipPath>
<clipPath id="clip33_109_1515">
<rect width="84.8125" height="49.75" fill="white" transform="translate(678.5 49.75)"/>
</clipPath>
<clipPath id="clip34_109_1515">
<rect width="84.8125" height="49.75" fill="white" transform="translate(763.312)"/>
</clipPath>
<clipPath id="clip35_109_1515">
<rect width="84.8125" height="49.75" fill="white" transform="translate(763.312 49.75)"/>
</clipPath>
<clipPath id="clip36_109_1515">
<rect width="84.8125" height="49.75" fill="white" transform="translate(678.5 99.5)"/>
</clipPath>
<clipPath id="clip37_109_1515">
<rect width="84.8125" height="49.75" fill="white" transform="translate(678.5 149.25)"/>
</clipPath>
<clipPath id="clip38_109_1515">
<rect width="84.8125" height="49.75" fill="white" transform="translate(763.312 99.5)"/>
</clipPath>
<clipPath id="clip39_109_1515">
<rect width="84.8125" height="49.75" fill="white" transform="translate(763.312 149.25)"/>
</clipPath>
<clipPath id="clip40_109_1515">
<rect width="84.8125" height="49.75" fill="white" transform="translate(848.125)"/>
</clipPath>
<clipPath id="clip41_109_1515">
<rect width="84.8125" height="49.75" fill="white" transform="translate(848.125 49.75)"/>
</clipPath>
<clipPath id="clip42_109_1515">
<rect width="84.8125" height="49.75" fill="white" transform="translate(932.938)"/>
</clipPath>
<clipPath id="clip43_109_1515">
<rect width="84.8125" height="49.75" fill="white" transform="translate(932.938 49.75)"/>
</clipPath>
<clipPath id="clip44_109_1515">
<rect width="84.8125" height="49.75" fill="white" transform="translate(848.125 99.5)"/>
</clipPath>
<clipPath id="clip45_109_1515">
<rect width="84.8125" height="49.75" fill="white" transform="translate(848.125 149.25)"/>
</clipPath>
<clipPath id="clip46_109_1515">
<rect width="84.8125" height="49.75" fill="white" transform="translate(932.938 99.5)"/>
</clipPath>
<clipPath id="clip47_109_1515">
<rect width="84.8125" height="49.75" fill="white" transform="translate(932.938 149.25)"/>
</clipPath>
<clipPath id="clip48_109_1515">
<rect width="84.8125" height="49.75" fill="white" transform="translate(1017.75)"/>
</clipPath>
<clipPath id="clip49_109_1515">
<rect width="84.8125" height="49.75" fill="white" transform="translate(1017.75 49.75)"/>
</clipPath>
<clipPath id="clip50_109_1515">
<rect width="84.8125" height="49.75" fill="white" transform="translate(1102.56)"/>
</clipPath>
<clipPath id="clip51_109_1515">
<rect width="84.8125" height="49.75" fill="white" transform="translate(1102.56 49.75)"/>
</clipPath>
<clipPath id="clip52_109_1515">
<rect width="84.8125" height="49.75" fill="white" transform="translate(1017.75 99.5)"/>
</clipPath>
<clipPath id="clip53_109_1515">
<rect width="84.8125" height="49.75" fill="white" transform="translate(1017.75 149.25)"/>
</clipPath>
<clipPath id="clip54_109_1515">
<rect width="84.8125" height="49.75" fill="white" transform="translate(1102.56 99.5)"/>
</clipPath>
<clipPath id="clip55_109_1515">
<rect width="84.8125" height="49.75" fill="white" transform="translate(1102.56 149.25)"/>
</clipPath>
<clipPath id="clip56_109_1515">
<rect width="84.8125" height="49.75" fill="white" transform="translate(1187.38)"/>
</clipPath>
<clipPath id="clip57_109_1515">
<rect width="84.8125" height="49.75" fill="white" transform="translate(1187.38 49.75)"/>
</clipPath>
<clipPath id="clip58_109_1515">
<rect width="84.8125" height="49.75" fill="white" transform="translate(1272.19)"/>
</clipPath>
<clipPath id="clip59_109_1515">
<rect width="84.8125" height="49.75" fill="white" transform="translate(1272.19 49.75)"/>
</clipPath>
<clipPath id="clip60_109_1515">
<rect width="84.8125" height="49.75" fill="white" transform="translate(1187.38 99.5)"/>
</clipPath>
<clipPath id="clip61_109_1515">
<rect width="84.8125" height="49.75" fill="white" transform="translate(1187.38 149.25)"/>
</clipPath>
<clipPath id="clip62_109_1515">
<rect width="84.8125" height="49.75" fill="white" transform="translate(1272.19 99.5)"/>
</clipPath>
<clipPath id="clip63_109_1515">
<rect width="84.8125" height="49.75" fill="white" transform="translate(1272.19 149.25)"/>
</clipPath>
</defs>
</svg>
