<svg width="1347" height="199" viewBox="0 0 1347 199" fill="none" xmlns="http://www.w3.org/2000/svg">
<g clip-path="url(#clip0_109_1756)">
<path d="M-84.1709 -49.75V149.25H252.512V-49.75H-84.1709Z" fill="#FCC800"/>
<path d="M0.000181198 -9.94995L67.3368 29.85L84.171 19.9L67.3368 9.95005L84.171 4.86374e-05L101.005 9.95005L117.839 4.86374e-05L134.674 9.95005L16.8343 79.6L0.000181198 69.65L16.8343 59.7001L0.000181198 49.75L16.8343 39.8L33.6685 49.75L50.5027 39.8L-16.834 4.86374e-05M-16.834 79.6L33.6685 109.45H-16.834M168.342 109.45L101.005 69.65L84.171 79.6L101.005 89.55L84.171 99.5L67.3368 89.55L50.5027 99.5L33.6685 89.55L151.508 19.9L168.342 29.85L151.508 39.8L168.342 49.75L151.508 59.7001L134.674 49.75L117.839 59.7001L185.176 99.5M185.176 19.9L134.674 -9.94995H185.176" fill="#FDDB59"/>
</g>
<g clip-path="url(#clip1_109_1756)">
<path d="M420.854 -49.75V149.25H757.537V-49.75H420.854Z" fill="#FCC800"/>
<path d="M505.025 -9.94995L572.362 29.85L589.196 19.9L572.362 9.95005L589.196 4.86374e-05L606.03 9.95005L622.864 4.86374e-05L639.698 9.95005L521.859 79.6L505.025 69.65L521.859 59.7001L505.025 49.75L521.859 39.8L538.693 49.75L555.528 39.8L488.191 4.86374e-05M488.191 79.6L538.693 109.45H488.191M673.367 109.45L606.03 69.65L589.196 79.6L606.03 89.55L589.196 99.5L572.362 89.55L555.528 99.5L538.693 89.55L656.533 19.9L673.367 29.85L656.533 39.8L673.367 49.75L656.533 59.7001L639.698 49.75L622.864 59.7001L690.201 99.5M690.201 19.9L639.698 -9.94995H690.201" fill="#FDDB59"/>
</g>
<g clip-path="url(#clip2_109_1756)">
<path d="M84.1709 -49.75V149.25H420.854V-49.75H84.1709Z" fill="#FCC800"/>
<path d="M168.342 -9.94995L235.679 29.85L252.513 19.9L235.679 9.95005L252.513 4.86374e-05L269.347 9.95005L286.181 4.86374e-05L303.015 9.95005L185.176 79.6L168.342 69.65L185.176 59.7001L168.342 49.75L185.176 39.8L202.01 49.75L218.844 39.8L151.508 4.86374e-05M151.508 79.6L202.01 109.45H151.508M336.684 109.45L269.347 69.65L252.513 79.6L269.347 89.55L252.513 99.5L235.679 89.55L218.844 99.5L202.01 89.55L319.849 19.9L336.684 29.85L319.849 39.8L336.684 49.75L319.849 59.7001L303.015 49.75L286.181 59.7001L353.518 99.5M353.518 19.9L303.015 -9.94995H353.518" fill="#FDDB59"/>
</g>
<g clip-path="url(#clip3_109_1756)">
<path d="M589.196 -49.75V149.25H925.879V-49.75H589.196Z" fill="#FCC800"/>
<path d="M673.367 -9.94995L740.704 29.85L757.538 19.9L740.704 9.95005L757.538 4.86374e-05L774.372 9.95005L791.206 4.86374e-05L808.04 9.95005L690.201 79.6L673.367 69.65L690.201 59.7001L673.367 49.75L690.201 39.8L707.035 49.75L723.869 39.8L656.533 4.86374e-05M656.533 79.6L707.035 109.45H656.533M841.709 109.45L774.372 69.65L757.538 79.6L774.372 89.55L757.538 99.5L740.704 89.55L723.869 99.5L707.035 89.55L824.874 19.9L841.709 29.85L824.874 39.8L841.709 49.75L824.874 59.7001L808.04 49.75L791.206 59.7001L858.543 99.5M858.543 19.9L808.04 -9.94995H858.543" fill="#FDDB59"/>
</g>
<g clip-path="url(#clip4_109_1756)">
<path d="M925.879 -49.75V149.25H1262.56V-49.75H925.879Z" fill="#FCC800"/>
<path d="M1010.05 -9.94995L1077.39 29.85L1094.22 19.9L1077.39 9.95005L1094.22 4.86374e-05L1111.05 9.95005L1127.89 4.86374e-05L1144.72 9.95005L1026.88 79.6L1010.05 69.65L1026.88 59.7001L1010.05 49.75L1026.88 39.8L1043.72 49.75L1060.55 39.8L993.216 4.86374e-05M993.216 79.6L1043.72 109.45H993.216M1178.39 109.45L1111.05 69.65L1094.22 79.6L1111.05 89.55L1094.22 99.5L1077.39 89.55L1060.55 99.5L1043.72 89.55L1161.56 19.9L1178.39 29.85L1161.56 39.8L1178.39 49.75L1161.56 59.7001L1144.72 49.75L1127.89 59.7001L1195.23 99.5M1195.23 19.9L1144.72 -9.94995H1195.23" fill="#FDDB59"/>
</g>
<g clip-path="url(#clip5_109_1756)">
<path d="M252.513 -49.75V149.25H589.196V-49.75H252.513Z" fill="#FCC800"/>
<path d="M336.684 -9.94995L404.02 29.85L420.855 19.9L404.02 9.95005L420.855 4.86374e-05L437.689 9.95005L454.523 4.86374e-05L471.357 9.95005L353.518 79.6L336.684 69.65L353.518 59.7001L336.684 49.75L353.518 39.8L370.352 49.75L387.186 39.8L319.85 4.86374e-05M319.85 79.6L370.352 109.45H319.85M505.025 109.45L437.689 69.65L420.855 79.6L437.689 89.55L420.855 99.5L404.02 89.55L387.186 99.5L370.352 89.55L488.191 19.9L505.025 29.85L488.191 39.8L505.025 49.75L488.191 59.7001L471.357 49.75L454.523 59.7001L521.86 99.5M521.86 19.9L471.357 -9.94995H521.86" fill="#FDDB59"/>
</g>
<g clip-path="url(#clip6_109_1756)">
<path d="M757.538 -49.75V149.25H1094.22V-49.75H757.538Z" fill="#FCC800"/>
<path d="M841.709 -9.94995L909.045 29.85L925.88 19.9L909.045 9.95005L925.88 4.86374e-05L942.714 9.95005L959.548 4.86374e-05L976.382 9.95005L858.543 79.6L841.709 69.65L858.543 59.7001L841.709 49.75L858.543 39.8L875.377 49.75L892.211 39.8L824.875 4.86374e-05M824.875 79.6L875.377 109.45H824.875M1010.05 109.45L942.714 69.65L925.88 79.6L942.714 89.55L925.88 99.5L909.045 89.55L892.211 99.5L875.377 89.55L993.216 19.9L1010.05 29.85L993.216 39.8L1010.05 49.75L993.216 59.7001L976.382 49.75L959.548 59.7001L1026.88 99.5M1026.88 19.9L976.382 -9.94995H1026.88" fill="#FDDB59"/>
</g>
<g clip-path="url(#clip7_109_1756)">
<path d="M1094.22 -49.75V149.25H1430.9V-49.75H1094.22Z" fill="#FCC800"/>
<path d="M1178.39 -9.94995L1245.73 29.85L1262.56 19.9L1245.73 9.95005L1262.56 4.86374e-05L1279.4 9.95005L1296.23 4.86374e-05L1313.07 9.95005L1195.23 79.6L1178.39 69.65L1195.23 59.7001L1178.39 49.75L1195.23 39.8L1212.06 49.75L1228.89 39.8L1161.56 4.86374e-05M1161.56 79.6L1212.06 109.45H1161.56M1346.73 109.45L1279.4 69.65L1262.56 79.6L1279.4 89.55L1262.56 99.5L1245.73 89.55L1228.89 99.5L1212.06 89.55L1329.9 19.9L1346.73 29.85L1329.9 39.8L1346.73 49.75L1329.9 59.7001L1313.07 49.75L1296.23 59.7001L1363.57 99.5M1363.57 19.9L1313.07 -9.94995H1363.57" fill="#FDDB59"/>
</g>
<g clip-path="url(#clip8_109_1756)">
<path d="M-84.1709 49.75V248.75H252.512V49.75H-84.1709Z" fill="#FCC800"/>
<path d="M0.000181198 89.55L67.3368 129.35L84.171 119.4L67.3368 109.45L84.171 99.5L101.005 109.45L117.839 99.5L134.674 109.45L16.8343 179.1L0.000181198 169.15L16.8343 159.2L0.000181198 149.25L16.8343 139.3L33.6685 149.25L50.5027 139.3L-16.834 99.5M-16.834 179.1L33.6685 208.95H-16.834M168.342 208.95L101.005 169.15L84.171 179.1L101.005 189.05L84.171 199L67.3368 189.05L50.5027 199L33.6685 189.05L151.508 119.4L168.342 129.35L151.508 139.3L168.342 149.25L151.508 159.2L134.674 149.25L117.839 159.2L185.176 199M185.176 119.4L134.674 89.55H185.176" fill="#FDDB59"/>
</g>
<g clip-path="url(#clip9_109_1756)">
<path d="M420.854 49.75V248.75H757.537V49.75H420.854Z" fill="#FCC800"/>
<path d="M505.025 89.55L572.362 129.35L589.196 119.4L572.362 109.45L589.196 99.5L606.03 109.45L622.864 99.5L639.698 109.45L521.859 179.1L505.025 169.15L521.859 159.2L505.025 149.25L521.859 139.3L538.693 149.25L555.528 139.3L488.191 99.5M488.191 179.1L538.693 208.95H488.191M673.367 208.95L606.03 169.15L589.196 179.1L606.03 189.05L589.196 199L572.362 189.05L555.528 199L538.693 189.05L656.533 119.4L673.367 129.35L656.533 139.3L673.367 149.25L656.533 159.2L639.698 149.25L622.864 159.2L690.201 199M690.201 119.4L639.698 89.55H690.201" fill="#FDDB59"/>
</g>
<g clip-path="url(#clip10_109_1756)">
<path d="M84.1709 49.75V248.75H420.854V49.75H84.1709Z" fill="#FCC800"/>
<path d="M168.342 89.55L235.679 129.35L252.513 119.4L235.679 109.45L252.513 99.5L269.347 109.45L286.181 99.5L303.015 109.45L185.176 179.1L168.342 169.15L185.176 159.2L168.342 149.25L185.176 139.3L202.01 149.25L218.844 139.3L151.508 99.5M151.508 179.1L202.01 208.95H151.508M336.684 208.95L269.347 169.15L252.513 179.1L269.347 189.05L252.513 199L235.679 189.05L218.844 199L202.01 189.05L319.849 119.4L336.684 129.35L319.849 139.3L336.684 149.25L319.849 159.2L303.015 149.25L286.181 159.2L353.518 199M353.518 119.4L303.015 89.55H353.518" fill="#FDDB59"/>
</g>
<g clip-path="url(#clip11_109_1756)">
<path d="M589.196 49.75V248.75H925.879V49.75H589.196Z" fill="#FCC800"/>
<path d="M673.367 89.55L740.704 129.35L757.538 119.4L740.704 109.45L757.538 99.5L774.372 109.45L791.206 99.5L808.04 109.45L690.201 179.1L673.367 169.15L690.201 159.2L673.367 149.25L690.201 139.3L707.035 149.25L723.869 139.3L656.533 99.5M656.533 179.1L707.035 208.95H656.533M841.709 208.95L774.372 169.15L757.538 179.1L774.372 189.05L757.538 199L740.704 189.05L723.869 199L707.035 189.05L824.874 119.4L841.709 129.35L824.874 139.3L841.709 149.25L824.874 159.2L808.04 149.25L791.206 159.2L858.543 199M858.543 119.4L808.04 89.55H858.543" fill="#FDDB59"/>
</g>
<g clip-path="url(#clip12_109_1756)">
<path d="M925.879 49.75V248.75H1262.56V49.75H925.879Z" fill="#FCC800"/>
<path d="M1010.05 89.55L1077.39 129.35L1094.22 119.4L1077.39 109.45L1094.22 99.5L1111.05 109.45L1127.89 99.5L1144.72 109.45L1026.88 179.1L1010.05 169.15L1026.88 159.2L1010.05 149.25L1026.88 139.3L1043.72 149.25L1060.55 139.3L993.216 99.5M993.216 179.1L1043.72 208.95H993.216M1178.39 208.95L1111.05 169.15L1094.22 179.1L1111.05 189.05L1094.22 199L1077.39 189.05L1060.55 199L1043.72 189.05L1161.56 119.4L1178.39 129.35L1161.56 139.3L1178.39 149.25L1161.56 159.2L1144.72 149.25L1127.89 159.2L1195.23 199M1195.23 119.4L1144.72 89.55H1195.23" fill="#FDDB59"/>
</g>
<g clip-path="url(#clip13_109_1756)">
<path d="M252.513 49.75V248.75H589.196V49.75H252.513Z" fill="#FCC800"/>
<path d="M336.684 89.55L404.02 129.35L420.855 119.4L404.02 109.45L420.855 99.5L437.689 109.45L454.523 99.5L471.357 109.45L353.518 179.1L336.684 169.15L353.518 159.2L336.684 149.25L353.518 139.3L370.352 149.25L387.186 139.3L319.85 99.5M319.85 179.1L370.352 208.95H319.85M505.025 208.95L437.689 169.15L420.855 179.1L437.689 189.05L420.855 199L404.02 189.05L387.186 199L370.352 189.05L488.191 119.4L505.025 129.35L488.191 139.3L505.025 149.25L488.191 159.2L471.357 149.25L454.523 159.2L521.86 199M521.86 119.4L471.357 89.55H521.86" fill="#FDDB59"/>
</g>
<g clip-path="url(#clip14_109_1756)">
<path d="M757.538 49.75V248.75H1094.22V49.75H757.538Z" fill="#FCC800"/>
<path d="M841.709 89.55L909.045 129.35L925.88 119.4L909.045 109.45L925.88 99.5L942.714 109.45L959.548 99.5L976.382 109.45L858.543 179.1L841.709 169.15L858.543 159.2L841.709 149.25L858.543 139.3L875.377 149.25L892.211 139.3L824.875 99.5M824.875 179.1L875.377 208.95H824.875M1010.05 208.95L942.714 169.15L925.88 179.1L942.714 189.05L925.88 199L909.045 189.05L892.211 199L875.377 189.05L993.216 119.4L1010.05 129.35L993.216 139.3L1010.05 149.25L993.216 159.2L976.382 149.25L959.548 159.2L1026.88 199M1026.88 119.4L976.382 89.55H1026.88" fill="#FDDB59"/>
</g>
<g clip-path="url(#clip15_109_1756)">
<path d="M1094.22 49.75V248.75H1430.9V49.75H1094.22Z" fill="#FCC800"/>
<path d="M1178.39 89.55L1245.73 129.35L1262.56 119.4L1245.73 109.45L1262.56 99.5L1279.4 109.45L1296.23 99.5L1313.07 109.45L1195.23 179.1L1178.39 169.15L1195.23 159.2L1178.39 149.25L1195.23 139.3L1212.06 149.25L1228.89 139.3L1161.56 99.5M1161.56 179.1L1212.06 208.95H1161.56M1346.73 208.95L1279.4 169.15L1262.56 179.1L1279.4 189.05L1262.56 199L1245.73 189.05L1228.89 199L1212.06 189.05L1329.9 119.4L1346.73 129.35L1329.9 139.3L1346.73 149.25L1329.9 159.2L1313.07 149.25L1296.23 159.2L1363.57 199M1363.57 119.4L1313.07 89.55H1363.57" fill="#FDDB59"/>
</g>
<defs>
<clipPath id="clip0_109_1756">
<rect width="168.342" height="99.5" fill="white"/>
</clipPath>
<clipPath id="clip1_109_1756">
<rect width="168.342" height="99.5" fill="white" transform="translate(505.025)"/>
</clipPath>
<clipPath id="clip2_109_1756">
<rect width="168.342" height="99.5" fill="white" transform="translate(168.342)"/>
</clipPath>
<clipPath id="clip3_109_1756">
<rect width="168.342" height="99.5" fill="white" transform="translate(673.367)"/>
</clipPath>
<clipPath id="clip4_109_1756">
<rect width="168.342" height="99.5" fill="white" transform="translate(1010.05)"/>
</clipPath>
<clipPath id="clip5_109_1756">
<rect width="168.342" height="99.5" fill="white" transform="translate(336.684)"/>
</clipPath>
<clipPath id="clip6_109_1756">
<rect width="168.342" height="99.5" fill="white" transform="translate(841.708)"/>
</clipPath>
<clipPath id="clip7_109_1756">
<rect width="168.342" height="99.5" fill="white" transform="translate(1178.39)"/>
</clipPath>
<clipPath id="clip8_109_1756">
<rect width="168.342" height="99.5" fill="white" transform="translate(0 99.5)"/>
</clipPath>
<clipPath id="clip9_109_1756">
<rect width="168.342" height="99.5" fill="white" transform="translate(505.025 99.5)"/>
</clipPath>
<clipPath id="clip10_109_1756">
<rect width="168.342" height="99.5" fill="white" transform="translate(168.342 99.5)"/>
</clipPath>
<clipPath id="clip11_109_1756">
<rect width="168.342" height="99.5" fill="white" transform="translate(673.367 99.5)"/>
</clipPath>
<clipPath id="clip12_109_1756">
<rect width="168.342" height="99.5" fill="white" transform="translate(1010.05 99.5)"/>
</clipPath>
<clipPath id="clip13_109_1756">
<rect width="168.342" height="99.5" fill="white" transform="translate(336.684 99.5)"/>
</clipPath>
<clipPath id="clip14_109_1756">
<rect width="168.342" height="99.5" fill="white" transform="translate(841.708 99.5)"/>
</clipPath>
<clipPath id="clip15_109_1756">
<rect width="168.342" height="99.5" fill="white" transform="translate(1178.39 99.5)"/>
</clipPath>
</defs>
</svg>
