<svg width="1333" height="199" viewBox="0 0 1333 199" fill="none" xmlns="http://www.w3.org/2000/svg">
<g clip-path="url(#clip0_109_1065)">
<path d="M-42.4893 -24.875V74.625H127.468V-24.875H-42.4893Z" fill="#005243"/>
</g>
<g clip-path="url(#clip1_109_1065)">
<path d="M44.1553 24.875V124.375H207.448V24.875H44.1553Z" fill="#005243"/>
</g>
<g clip-path="url(#clip2_109_1065)">
<path d="M-42.4893 24.875V124.375H127.468V24.875H-42.4893Z" fill="#005243"/>
<path d="M42.4894 49.75L67.983 60.4107L59.4851 63.9643L84.9788 74.625L59.4851 85.2857L67.983 88.8393L42.4894 99.5L16.9958 88.8393L25.4936 85.2857L0 74.625L25.4936 63.9643L16.9958 60.4107L42.4894 49.75Z" fill="#34766A"/>
</g>
<g clip-path="url(#clip3_109_1065)">
<path d="M44.1553 -24.875V74.625H207.448V-24.875H44.1553Z" fill="#005243"/>
<path d="M125.802 0L150.296 10.6607L142.131 14.2143L166.625 24.875L142.131 35.5357L150.296 39.0893L125.802 49.75L101.308 39.0893L109.472 35.5357L84.9785 24.875L109.472 14.2143L101.308 10.6607L125.802 0Z" fill="#34766A"/>
</g>
<g clip-path="url(#clip4_109_1065)">
<path d="M124.136 -24.875V74.625H294.094V-24.875H124.136Z" fill="#005243"/>
</g>
<g clip-path="url(#clip5_109_1065)">
<path d="M210.781 24.875V124.375H374.073V24.875H210.781Z" fill="#005243"/>
</g>
<g clip-path="url(#clip6_109_1065)">
<path d="M124.136 24.875V124.375H294.094V24.875H124.136Z" fill="#005243"/>
<path d="M209.115 49.75L234.608 60.4107L226.111 63.9643L251.604 74.625L226.111 85.2857L234.608 88.8393L209.115 99.5L183.621 88.8393L192.119 85.2857L166.625 74.625L192.119 63.9643L183.621 60.4107L209.115 49.75Z" fill="#34766A"/>
</g>
<g clip-path="url(#clip7_109_1065)">
<path d="M210.781 -24.875V74.625H374.073V-24.875H210.781Z" fill="#005243"/>
<path d="M292.427 0L316.921 10.6607L308.756 14.2143L333.25 24.875L308.756 35.5357L316.921 39.0893L292.427 49.75L267.933 39.0893L276.098 35.5357L251.604 24.875L276.098 14.2143L267.933 10.6607L292.427 0Z" fill="#34766A"/>
</g>
<g clip-path="url(#clip8_109_1065)">
<path d="M-42.4893 74.625V174.125H127.468V74.625H-42.4893Z" fill="#005243"/>
</g>
<g clip-path="url(#clip9_109_1065)">
<path d="M44.1553 124.375V223.875H207.448V124.375H44.1553Z" fill="#005243"/>
</g>
<g clip-path="url(#clip10_109_1065)">
<path d="M-42.4893 124.375V223.875H127.468V124.375H-42.4893Z" fill="#005243"/>
<path d="M42.4894 149.25L67.983 159.911L59.4851 163.464L84.9788 174.125L59.4851 184.786L67.983 188.339L42.4894 199L16.9958 188.339L25.4936 184.786L0 174.125L25.4936 163.464L16.9958 159.911L42.4894 149.25Z" fill="#34766A"/>
</g>
<g clip-path="url(#clip11_109_1065)">
<path d="M44.1553 74.625V174.125H207.448V74.625H44.1553Z" fill="#005243"/>
<path d="M125.802 99.5L150.296 110.161L142.131 113.714L166.625 124.375L142.131 135.036L150.296 138.589L125.802 149.25L101.308 138.589L109.472 135.036L84.9785 124.375L109.472 113.714L101.308 110.161L125.802 99.5Z" fill="#34766A"/>
</g>
<g clip-path="url(#clip12_109_1065)">
<path d="M124.136 74.625V174.125H294.094V74.625H124.136Z" fill="#005243"/>
</g>
<g clip-path="url(#clip13_109_1065)">
<path d="M210.781 124.375V223.875H374.073V124.375H210.781Z" fill="#005243"/>
</g>
<g clip-path="url(#clip14_109_1065)">
<path d="M124.136 124.375V223.875H294.094V124.375H124.136Z" fill="#005243"/>
<path d="M209.115 149.25L234.608 159.911L226.111 163.464L251.604 174.125L226.111 184.786L234.608 188.339L209.115 199L183.621 188.339L192.119 184.786L166.625 174.125L192.119 163.464L183.621 159.911L209.115 149.25Z" fill="#34766A"/>
</g>
<g clip-path="url(#clip15_109_1065)">
<path d="M210.781 74.625V174.125H374.073V74.625H210.781Z" fill="#005243"/>
<path d="M292.427 99.5L316.921 110.161L308.756 113.714L333.25 124.375L308.756 135.036L316.921 138.589L292.427 149.25L267.933 138.589L276.098 135.036L251.604 124.375L276.098 113.714L267.933 110.161L292.427 99.5Z" fill="#34766A"/>
</g>
<g clip-path="url(#clip16_109_1065)">
<path d="M290.761 -24.875V74.625H460.718V-24.875H290.761Z" fill="#005243"/>
</g>
<g clip-path="url(#clip17_109_1065)">
<path d="M377.405 24.875V124.375H540.698V24.875H377.405Z" fill="#005243"/>
</g>
<g clip-path="url(#clip18_109_1065)">
<path d="M290.761 24.875V124.375H460.718V24.875H290.761Z" fill="#005243"/>
<path d="M375.739 49.75L401.233 60.4107L392.735 63.9643L418.229 74.625L392.735 85.2857L401.233 88.8393L375.739 99.5L350.246 88.8393L358.744 85.2857L333.25 74.625L358.744 63.9643L350.246 60.4107L375.739 49.75Z" fill="#34766A"/>
</g>
<g clip-path="url(#clip19_109_1065)">
<path d="M377.405 -24.875V74.625H540.698V-24.875H377.405Z" fill="#005243"/>
<path d="M459.052 0L483.546 10.6607L475.381 14.2143L499.875 24.875L475.381 35.5357L483.546 39.0893L459.052 49.75L434.558 39.0893L442.722 35.5357L418.229 24.875L442.722 14.2143L434.558 10.6607L459.052 0Z" fill="#34766A"/>
</g>
<g clip-path="url(#clip20_109_1065)">
<path d="M457.386 -24.875V74.625H627.343V-24.875H457.386Z" fill="#005243"/>
</g>
<g clip-path="url(#clip21_109_1065)">
<path d="M544.03 24.875V124.375H707.323V24.875H544.03Z" fill="#005243"/>
</g>
<g clip-path="url(#clip22_109_1065)">
<path d="M457.386 24.875V124.375H627.343V24.875H457.386Z" fill="#005243"/>
<path d="M542.364 49.75L567.858 60.4107L559.36 63.9643L584.854 74.625L559.36 85.2857L567.858 88.8393L542.364 99.5L516.871 88.8393L525.369 85.2857L499.875 74.625L525.369 63.9643L516.871 60.4107L542.364 49.75Z" fill="#34766A"/>
</g>
<g clip-path="url(#clip23_109_1065)">
<path d="M544.03 -24.875V74.625H707.323V-24.875H544.03Z" fill="#005243"/>
<path d="M625.677 0L650.171 10.6607L642.006 14.2143L666.5 24.875L642.006 35.5357L650.171 39.0893L625.677 49.75L601.183 39.0893L609.347 35.5357L584.854 24.875L609.347 14.2143L601.183 10.6607L625.677 0Z" fill="#34766A"/>
</g>
<g clip-path="url(#clip24_109_1065)">
<path d="M290.761 74.625V174.125H460.718V74.625H290.761Z" fill="#005243"/>
</g>
<g clip-path="url(#clip25_109_1065)">
<path d="M377.405 124.375V223.875H540.698V124.375H377.405Z" fill="#005243"/>
</g>
<g clip-path="url(#clip26_109_1065)">
<path d="M290.761 124.375V223.875H460.718V124.375H290.761Z" fill="#005243"/>
<path d="M375.739 149.25L401.233 159.911L392.735 163.464L418.229 174.125L392.735 184.786L401.233 188.339L375.739 199L350.246 188.339L358.744 184.786L333.25 174.125L358.744 163.464L350.246 159.911L375.739 149.25Z" fill="#34766A"/>
</g>
<g clip-path="url(#clip27_109_1065)">
<path d="M377.405 74.625V174.125H540.698V74.625H377.405Z" fill="#005243"/>
<path d="M459.052 99.5L483.546 110.161L475.381 113.714L499.875 124.375L475.381 135.036L483.546 138.589L459.052 149.25L434.558 138.589L442.722 135.036L418.229 124.375L442.722 113.714L434.558 110.161L459.052 99.5Z" fill="#34766A"/>
</g>
<g clip-path="url(#clip28_109_1065)">
<path d="M457.386 74.625V174.125H627.343V74.625H457.386Z" fill="#005243"/>
</g>
<g clip-path="url(#clip29_109_1065)">
<path d="M544.03 124.375V223.875H707.323V124.375H544.03Z" fill="#005243"/>
</g>
<g clip-path="url(#clip30_109_1065)">
<path d="M457.386 124.375V223.875H627.343V124.375H457.386Z" fill="#005243"/>
<path d="M542.364 149.25L567.858 159.911L559.36 163.464L584.854 174.125L559.36 184.786L567.858 188.339L542.364 199L516.871 188.339L525.369 184.786L499.875 174.125L525.369 163.464L516.871 159.911L542.364 149.25Z" fill="#34766A"/>
</g>
<g clip-path="url(#clip31_109_1065)">
<path d="M544.03 74.625V174.125H707.323V74.625H544.03Z" fill="#005243"/>
<path d="M625.677 99.5L650.171 110.161L642.006 113.714L666.5 124.375L642.006 135.036L650.171 138.589L625.677 149.25L601.183 138.589L609.347 135.036L584.854 124.375L609.347 113.714L601.183 110.161L625.677 99.5Z" fill="#34766A"/>
</g>
<g clip-path="url(#clip32_109_1065)">
<path d="M624.011 -24.875V74.625H793.968V-24.875H624.011Z" fill="#005243"/>
</g>
<g clip-path="url(#clip33_109_1065)">
<path d="M710.655 24.875V124.375H873.948V24.875H710.655Z" fill="#005243"/>
</g>
<g clip-path="url(#clip34_109_1065)">
<path d="M624.011 24.875V124.375H793.968V24.875H624.011Z" fill="#005243"/>
<path d="M708.989 49.75L734.483 60.4107L725.985 63.9643L751.479 74.625L725.985 85.2857L734.483 88.8393L708.989 99.5L683.496 88.8393L691.994 85.2857L666.5 74.625L691.994 63.9643L683.496 60.4107L708.989 49.75Z" fill="#34766A"/>
</g>
<g clip-path="url(#clip35_109_1065)">
<path d="M710.655 -24.875V74.625H873.948V-24.875H710.655Z" fill="#005243"/>
<path d="M792.302 0L816.796 10.6607L808.631 14.2143L833.125 24.875L808.631 35.5357L816.796 39.0893L792.302 49.75L767.808 39.0893L775.972 35.5357L751.479 24.875L775.972 14.2143L767.808 10.6607L792.302 0Z" fill="#34766A"/>
</g>
<g clip-path="url(#clip36_109_1065)">
<path d="M790.636 -24.875V74.625H960.593V-24.875H790.636Z" fill="#005243"/>
</g>
<g clip-path="url(#clip37_109_1065)">
<path d="M877.28 24.875V124.375H1040.57V24.875H877.28Z" fill="#005243"/>
</g>
<g clip-path="url(#clip38_109_1065)">
<path d="M790.636 24.875V124.375H960.593V24.875H790.636Z" fill="#005243"/>
<path d="M875.614 49.75L901.108 60.4107L892.61 63.9643L918.104 74.625L892.61 85.2857L901.108 88.8393L875.614 99.5L850.121 88.8393L858.619 85.2857L833.125 74.625L858.619 63.9643L850.121 60.4107L875.614 49.75Z" fill="#34766A"/>
</g>
<g clip-path="url(#clip39_109_1065)">
<path d="M877.28 -24.875V74.625H1040.57V-24.875H877.28Z" fill="#005243"/>
<path d="M958.927 0L983.421 10.6607L975.256 14.2143L999.75 24.875L975.256 35.5357L983.421 39.0893L958.927 49.75L934.433 39.0893L942.597 35.5357L918.104 24.875L942.597 14.2143L934.433 10.6607L958.927 0Z" fill="#34766A"/>
</g>
<g clip-path="url(#clip40_109_1065)">
<path d="M624.011 74.625V174.125H793.968V74.625H624.011Z" fill="#005243"/>
</g>
<g clip-path="url(#clip41_109_1065)">
<path d="M710.655 124.375V223.875H873.948V124.375H710.655Z" fill="#005243"/>
</g>
<g clip-path="url(#clip42_109_1065)">
<path d="M624.011 124.375V223.875H793.968V124.375H624.011Z" fill="#005243"/>
<path d="M708.989 149.25L734.483 159.911L725.985 163.464L751.479 174.125L725.985 184.786L734.483 188.339L708.989 199L683.496 188.339L691.994 184.786L666.5 174.125L691.994 163.464L683.496 159.911L708.989 149.25Z" fill="#34766A"/>
</g>
<g clip-path="url(#clip43_109_1065)">
<path d="M710.655 74.625V174.125H873.948V74.625H710.655Z" fill="#005243"/>
<path d="M792.302 99.5L816.796 110.161L808.631 113.714L833.125 124.375L808.631 135.036L816.796 138.589L792.302 149.25L767.808 138.589L775.972 135.036L751.479 124.375L775.972 113.714L767.808 110.161L792.302 99.5Z" fill="#34766A"/>
</g>
<g clip-path="url(#clip44_109_1065)">
<path d="M790.636 74.625V174.125H960.593V74.625H790.636Z" fill="#005243"/>
</g>
<g clip-path="url(#clip45_109_1065)">
<path d="M877.28 124.375V223.875H1040.57V124.375H877.28Z" fill="#005243"/>
</g>
<g clip-path="url(#clip46_109_1065)">
<path d="M790.636 124.375V223.875H960.593V124.375H790.636Z" fill="#005243"/>
<path d="M875.614 149.25L901.108 159.911L892.61 163.464L918.104 174.125L892.61 184.786L901.108 188.339L875.614 199L850.121 188.339L858.619 184.786L833.125 174.125L858.619 163.464L850.121 159.911L875.614 149.25Z" fill="#34766A"/>
</g>
<g clip-path="url(#clip47_109_1065)">
<path d="M877.28 74.625V174.125H1040.57V74.625H877.28Z" fill="#005243"/>
<path d="M958.927 99.5L983.421 110.161L975.256 113.714L999.75 124.375L975.256 135.036L983.421 138.589L958.927 149.25L934.433 138.589L942.597 135.036L918.104 124.375L942.597 113.714L934.433 110.161L958.927 99.5Z" fill="#34766A"/>
</g>
<g clip-path="url(#clip48_109_1065)">
<path d="M957.261 -24.875V74.625H1127.22V-24.875H957.261Z" fill="#005243"/>
</g>
<g clip-path="url(#clip49_109_1065)">
<path d="M1043.91 24.875V124.375H1207.2V24.875H1043.91Z" fill="#005243"/>
</g>
<g clip-path="url(#clip50_109_1065)">
<path d="M957.261 24.875V124.375H1127.22V24.875H957.261Z" fill="#005243"/>
<path d="M1042.24 49.75L1067.73 60.4107L1059.24 63.9643L1084.73 74.625L1059.24 85.2857L1067.73 88.8393L1042.24 99.5L1016.75 88.8393L1025.24 85.2857L999.75 74.625L1025.24 63.9643L1016.75 60.4107L1042.24 49.75Z" fill="#34766A"/>
</g>
<g clip-path="url(#clip51_109_1065)">
<path d="M1043.91 -24.875V74.625H1207.2V-24.875H1043.91Z" fill="#005243"/>
<path d="M1125.55 0L1150.05 10.6607L1141.88 14.2143L1166.37 24.875L1141.88 35.5357L1150.05 39.0893L1125.55 49.75L1101.06 39.0893L1109.22 35.5357L1084.73 24.875L1109.22 14.2143L1101.06 10.6607L1125.55 0Z" fill="#34766A"/>
</g>
<g clip-path="url(#clip52_109_1065)">
<path d="M1123.89 -24.875V74.625H1293.84V-24.875H1123.89Z" fill="#005243"/>
</g>
<g clip-path="url(#clip53_109_1065)">
<path d="M1210.53 24.875V124.375H1373.82V24.875H1210.53Z" fill="#005243"/>
</g>
<g clip-path="url(#clip54_109_1065)">
<path d="M1123.89 24.875V124.375H1293.84V24.875H1123.89Z" fill="#005243"/>
<path d="M1208.86 49.75L1234.36 60.4107L1225.86 63.9643L1251.35 74.625L1225.86 85.2857L1234.36 88.8393L1208.86 99.5L1183.37 88.8393L1191.87 85.2857L1166.38 74.625L1191.87 63.9643L1183.37 60.4107L1208.86 49.75Z" fill="#34766A"/>
</g>
<g clip-path="url(#clip55_109_1065)">
<path d="M1210.53 -24.875V74.625H1373.82V-24.875H1210.53Z" fill="#005243"/>
<path d="M1292.18 0L1316.67 10.6607L1308.51 14.2143L1333 24.875L1308.51 35.5357L1316.67 39.0893L1292.18 49.75L1267.68 39.0893L1275.85 35.5357L1251.35 24.875L1275.85 14.2143L1267.68 10.6607L1292.18 0Z" fill="#34766A"/>
</g>
<g clip-path="url(#clip56_109_1065)">
<path d="M957.261 74.625V174.125H1127.22V74.625H957.261Z" fill="#005243"/>
</g>
<g clip-path="url(#clip57_109_1065)">
<path d="M1043.91 124.375V223.875H1207.2V124.375H1043.91Z" fill="#005243"/>
</g>
<g clip-path="url(#clip58_109_1065)">
<path d="M957.261 124.375V223.875H1127.22V124.375H957.261Z" fill="#005243"/>
<path d="M1042.24 149.25L1067.73 159.911L1059.24 163.464L1084.73 174.125L1059.24 184.786L1067.73 188.339L1042.24 199L1016.75 188.339L1025.24 184.786L999.75 174.125L1025.24 163.464L1016.75 159.911L1042.24 149.25Z" fill="#34766A"/>
</g>
<g clip-path="url(#clip59_109_1065)">
<path d="M1043.91 74.625V174.125H1207.2V74.625H1043.91Z" fill="#005243"/>
<path d="M1125.55 99.5L1150.05 110.161L1141.88 113.714L1166.37 124.375L1141.88 135.036L1150.05 138.589L1125.55 149.25L1101.06 138.589L1109.22 135.036L1084.73 124.375L1109.22 113.714L1101.06 110.161L1125.55 99.5Z" fill="#34766A"/>
</g>
<g clip-path="url(#clip60_109_1065)">
<path d="M1123.89 74.625V174.125H1293.84V74.625H1123.89Z" fill="#005243"/>
</g>
<g clip-path="url(#clip61_109_1065)">
<path d="M1210.53 124.375V223.875H1373.82V124.375H1210.53Z" fill="#005243"/>
</g>
<g clip-path="url(#clip62_109_1065)">
<path d="M1123.89 124.375V223.875H1293.84V124.375H1123.89Z" fill="#005243"/>
<path d="M1208.86 149.25L1234.36 159.911L1225.86 163.464L1251.35 174.125L1225.86 184.786L1234.36 188.339L1208.86 199L1183.37 188.339L1191.87 184.786L1166.38 174.125L1191.87 163.464L1183.37 159.911L1208.86 149.25Z" fill="#34766A"/>
</g>
<g clip-path="url(#clip63_109_1065)">
<path d="M1210.53 74.625V174.125H1373.82V74.625H1210.53Z" fill="#005243"/>
<path d="M1292.18 99.5L1316.67 110.161L1308.51 113.714L1333 124.375L1308.51 135.036L1316.67 138.589L1292.18 149.25L1267.68 138.589L1275.85 135.036L1251.35 124.375L1275.85 113.714L1267.68 110.161L1292.18 99.5Z" fill="#34766A"/>
</g>
<defs>
<clipPath id="clip0_109_1065">
<rect width="84.9788" height="49.75" fill="white"/>
</clipPath>
<clipPath id="clip1_109_1065">
<rect width="81.6463" height="49.75" fill="white" transform="translate(84.9785 49.75)"/>
</clipPath>
<clipPath id="clip2_109_1065">
<rect width="84.9788" height="49.75" fill="white" transform="translate(0 49.75)"/>
</clipPath>
<clipPath id="clip3_109_1065">
<rect width="81.6463" height="49.75" fill="white" transform="translate(84.9785)"/>
</clipPath>
<clipPath id="clip4_109_1065">
<rect width="84.9788" height="49.75" fill="white" transform="translate(166.625)"/>
</clipPath>
<clipPath id="clip5_109_1065">
<rect width="81.6463" height="49.75" fill="white" transform="translate(251.604 49.75)"/>
</clipPath>
<clipPath id="clip6_109_1065">
<rect width="84.9788" height="49.75" fill="white" transform="translate(166.625 49.75)"/>
</clipPath>
<clipPath id="clip7_109_1065">
<rect width="81.6463" height="49.75" fill="white" transform="translate(251.604)"/>
</clipPath>
<clipPath id="clip8_109_1065">
<rect width="84.9788" height="49.75" fill="white" transform="translate(0 99.5)"/>
</clipPath>
<clipPath id="clip9_109_1065">
<rect width="81.6463" height="49.75" fill="white" transform="translate(84.9785 149.25)"/>
</clipPath>
<clipPath id="clip10_109_1065">
<rect width="84.9788" height="49.75" fill="white" transform="translate(0 149.25)"/>
</clipPath>
<clipPath id="clip11_109_1065">
<rect width="81.6463" height="49.75" fill="white" transform="translate(84.9785 99.5)"/>
</clipPath>
<clipPath id="clip12_109_1065">
<rect width="84.9788" height="49.75" fill="white" transform="translate(166.625 99.5)"/>
</clipPath>
<clipPath id="clip13_109_1065">
<rect width="81.6463" height="49.75" fill="white" transform="translate(251.604 149.25)"/>
</clipPath>
<clipPath id="clip14_109_1065">
<rect width="84.9788" height="49.75" fill="white" transform="translate(166.625 149.25)"/>
</clipPath>
<clipPath id="clip15_109_1065">
<rect width="81.6463" height="49.75" fill="white" transform="translate(251.604 99.5)"/>
</clipPath>
<clipPath id="clip16_109_1065">
<rect width="84.9788" height="49.75" fill="white" transform="translate(333.25)"/>
</clipPath>
<clipPath id="clip17_109_1065">
<rect width="81.6463" height="49.75" fill="white" transform="translate(418.229 49.75)"/>
</clipPath>
<clipPath id="clip18_109_1065">
<rect width="84.9788" height="49.75" fill="white" transform="translate(333.25 49.75)"/>
</clipPath>
<clipPath id="clip19_109_1065">
<rect width="81.6463" height="49.75" fill="white" transform="translate(418.229)"/>
</clipPath>
<clipPath id="clip20_109_1065">
<rect width="84.9788" height="49.75" fill="white" transform="translate(499.875)"/>
</clipPath>
<clipPath id="clip21_109_1065">
<rect width="81.6463" height="49.75" fill="white" transform="translate(584.854 49.75)"/>
</clipPath>
<clipPath id="clip22_109_1065">
<rect width="84.9788" height="49.75" fill="white" transform="translate(499.875 49.75)"/>
</clipPath>
<clipPath id="clip23_109_1065">
<rect width="81.6463" height="49.75" fill="white" transform="translate(584.854)"/>
</clipPath>
<clipPath id="clip24_109_1065">
<rect width="84.9788" height="49.75" fill="white" transform="translate(333.25 99.5)"/>
</clipPath>
<clipPath id="clip25_109_1065">
<rect width="81.6463" height="49.75" fill="white" transform="translate(418.229 149.25)"/>
</clipPath>
<clipPath id="clip26_109_1065">
<rect width="84.9788" height="49.75" fill="white" transform="translate(333.25 149.25)"/>
</clipPath>
<clipPath id="clip27_109_1065">
<rect width="81.6463" height="49.75" fill="white" transform="translate(418.229 99.5)"/>
</clipPath>
<clipPath id="clip28_109_1065">
<rect width="84.9788" height="49.75" fill="white" transform="translate(499.875 99.5)"/>
</clipPath>
<clipPath id="clip29_109_1065">
<rect width="81.6463" height="49.75" fill="white" transform="translate(584.854 149.25)"/>
</clipPath>
<clipPath id="clip30_109_1065">
<rect width="84.9788" height="49.75" fill="white" transform="translate(499.875 149.25)"/>
</clipPath>
<clipPath id="clip31_109_1065">
<rect width="81.6463" height="49.75" fill="white" transform="translate(584.854 99.5)"/>
</clipPath>
<clipPath id="clip32_109_1065">
<rect width="84.9788" height="49.75" fill="white" transform="translate(666.5)"/>
</clipPath>
<clipPath id="clip33_109_1065">
<rect width="81.6463" height="49.75" fill="white" transform="translate(751.479 49.75)"/>
</clipPath>
<clipPath id="clip34_109_1065">
<rect width="84.9788" height="49.75" fill="white" transform="translate(666.5 49.75)"/>
</clipPath>
<clipPath id="clip35_109_1065">
<rect width="81.6463" height="49.75" fill="white" transform="translate(751.479)"/>
</clipPath>
<clipPath id="clip36_109_1065">
<rect width="84.9788" height="49.75" fill="white" transform="translate(833.125)"/>
</clipPath>
<clipPath id="clip37_109_1065">
<rect width="81.6463" height="49.75" fill="white" transform="translate(918.104 49.75)"/>
</clipPath>
<clipPath id="clip38_109_1065">
<rect width="84.9788" height="49.75" fill="white" transform="translate(833.125 49.75)"/>
</clipPath>
<clipPath id="clip39_109_1065">
<rect width="81.6463" height="49.75" fill="white" transform="translate(918.104)"/>
</clipPath>
<clipPath id="clip40_109_1065">
<rect width="84.9788" height="49.75" fill="white" transform="translate(666.5 99.5)"/>
</clipPath>
<clipPath id="clip41_109_1065">
<rect width="81.6463" height="49.75" fill="white" transform="translate(751.479 149.25)"/>
</clipPath>
<clipPath id="clip42_109_1065">
<rect width="84.9788" height="49.75" fill="white" transform="translate(666.5 149.25)"/>
</clipPath>
<clipPath id="clip43_109_1065">
<rect width="81.6463" height="49.75" fill="white" transform="translate(751.479 99.5)"/>
</clipPath>
<clipPath id="clip44_109_1065">
<rect width="84.9788" height="49.75" fill="white" transform="translate(833.125 99.5)"/>
</clipPath>
<clipPath id="clip45_109_1065">
<rect width="81.6463" height="49.75" fill="white" transform="translate(918.104 149.25)"/>
</clipPath>
<clipPath id="clip46_109_1065">
<rect width="84.9788" height="49.75" fill="white" transform="translate(833.125 149.25)"/>
</clipPath>
<clipPath id="clip47_109_1065">
<rect width="81.6463" height="49.75" fill="white" transform="translate(918.104 99.5)"/>
</clipPath>
<clipPath id="clip48_109_1065">
<rect width="84.9788" height="49.75" fill="white" transform="translate(999.75)"/>
</clipPath>
<clipPath id="clip49_109_1065">
<rect width="81.6463" height="49.75" fill="white" transform="translate(1084.73 49.75)"/>
</clipPath>
<clipPath id="clip50_109_1065">
<rect width="84.9788" height="49.75" fill="white" transform="translate(999.75 49.75)"/>
</clipPath>
<clipPath id="clip51_109_1065">
<rect width="81.6463" height="49.75" fill="white" transform="translate(1084.73)"/>
</clipPath>
<clipPath id="clip52_109_1065">
<rect width="84.9788" height="49.75" fill="white" transform="translate(1166.38)"/>
</clipPath>
<clipPath id="clip53_109_1065">
<rect width="81.6463" height="49.75" fill="white" transform="translate(1251.35 49.75)"/>
</clipPath>
<clipPath id="clip54_109_1065">
<rect width="84.9788" height="49.75" fill="white" transform="translate(1166.38 49.75)"/>
</clipPath>
<clipPath id="clip55_109_1065">
<rect width="81.6463" height="49.75" fill="white" transform="translate(1251.35)"/>
</clipPath>
<clipPath id="clip56_109_1065">
<rect width="84.9788" height="49.75" fill="white" transform="translate(999.75 99.5)"/>
</clipPath>
<clipPath id="clip57_109_1065">
<rect width="81.6463" height="49.75" fill="white" transform="translate(1084.73 149.25)"/>
</clipPath>
<clipPath id="clip58_109_1065">
<rect width="84.9788" height="49.75" fill="white" transform="translate(999.75 149.25)"/>
</clipPath>
<clipPath id="clip59_109_1065">
<rect width="81.6463" height="49.75" fill="white" transform="translate(1084.73 99.5)"/>
</clipPath>
<clipPath id="clip60_109_1065">
<rect width="84.9788" height="49.75" fill="white" transform="translate(1166.38 99.5)"/>
</clipPath>
<clipPath id="clip61_109_1065">
<rect width="81.6463" height="49.75" fill="white" transform="translate(1251.35 149.25)"/>
</clipPath>
<clipPath id="clip62_109_1065">
<rect width="84.9788" height="49.75" fill="white" transform="translate(1166.38 149.25)"/>
</clipPath>
<clipPath id="clip63_109_1065">
<rect width="81.6463" height="49.75" fill="white" transform="translate(1251.35 99.5)"/>
</clipPath>
</defs>
</svg>
