<svg width="131" height="129" viewBox="0 0 131 129" fill="none" xmlns="http://www.w3.org/2000/svg">
<g clip-path="url(#clip0_111_1999)">
<path d="M44.5725 25.2653C41.3356 27.3456 38.197 30.0097 35.5017 32.9816C36.1001 32.2705 36.7244 31.5557 37.3758 30.8344C37.3758 30.8344 29.1708 36.73 24.7079 49.34C23.3762 53.0216 22.1192 56.6643 21.9904 60.1708C21.8383 64.3148 22.4093 70.2927 24.512 75.8649C24.5557 80.2422 28.3069 83.4321 28.6057 87.4675C29.1979 91.5911 33.7535 93.944 34.9746 95.1724C35.2336 96.338 37.277 95.4591 38.1916 96.7012C40.4916 94.1192 44.5645 99.6169 44.9035 94.3182C45.4654 94.536 47.124 94.7757 47.3016 93.6057C46.9396 91.866 49.0548 89.9867 48.3034 87.6208C47.4695 86.7723 47.7489 87.7471 46.2001 86.3117C44.5096 84.1914 42.609 85.1672 42.1603 83.7408C40.2778 82.6327 41.1368 81.8227 37.9709 80.6427C35.4521 76.8769 33.2965 73.0191 32.3421 68.6947C31.4501 65.7502 31.377 57.4312 32.6569 53.9658C35.3728 46.6721 31.6213 59.5375 34.0111 53.715C37.7559 48.3316 36.0231 43.2915 44.2026 36.8797C46.9116 34.4274 52.4498 32.4984 56.6284 31.0652C61.7231 27.9279 67.984 29.5351 73.4949 29.9971C76.0596 30.8171 72.5136 30.3175 68.4982 30.4016C66.6921 30.076 62.559 30.1049 66.6922 30.5971C73.8409 31.4271 81.2793 32.9644 87.1539 37.3737C87.5064 41.488 91.3095 43.324 93.874 45.9904C97.0232 50.4125 98.662 55.6842 100.312 60.7983C100.629 65.0692 100.09 70.0324 98.1557 74.5004C97.0834 78.1782 95.5796 81.2334 94.6595 82.5348C96.3344 80.4302 97.8229 77.7112 99.1 75.6408C98.5212 78.7494 101.244 71.0112 101.44 69.3494C102.283 67.7148 101.849 58.9453 102.757 64.6329C103.584 72.6681 98.4069 79.5686 94.2469 85.935C90.3873 91.1471 85.4525 95.958 79.0843 97.821C75.4594 99.9917 72.8797 103.238 68.3969 104.251C66.3955 105.277 61.7601 106.475 61.4552 107.394C63.5965 107.11 65.1551 106.692 62.1631 107.628C60.6554 108.039 58.484 109.599 61.4365 108.51C73.4064 105.769 84.5125 99.7398 93.5988 91.5174C89.753 97.7292 83.3304 101.503 77.1348 104.976C77.408 106.106 84.0984 102.523 79.7006 104.983C77.238 106.383 70.5871 108.151 70.5427 109.353C79.3585 107.508 87.2755 102.636 93.4709 96.1666C97.8184 92.1942 101.126 87.1534 103.275 81.6838C106.652 79.0906 102.328 85.5427 101.572 86.882C100.361 88.5541 98.8214 91.5494 101.192 88.503C102.224 85.9845 104.512 86.9261 104.872 86.0334C106.246 81.8754 108.752 78.3174 110.741 74.5328C111.555 68.5985 110.494 62.5554 109.634 56.6743C108.398 50.6812 106.876 44.5568 102.983 39.671C99.6744 34.8124 96.4538 29.2845 90.557 27.2633C88.2645 26.1763 84.6952 24.1108 83.1162 23.756C84.6659 24.8768 89.31 27.0657 88.9063 28.2393C83.7076 25.6 78.2519 23.0357 72.7704 21.1391C75.0427 21.6272 77.8275 20.6642 73.7586 20.09C71.8177 19.7942 69.8535 19.6209 67.8912 19.6511C59.7985 19.7759 50.9837 22.5487 44.5729 25.2652L44.5725 25.2653ZM30.3396 40.0686C29.1709 42.161 28.2859 44.2949 27.7813 46.4012C26.8913 49.0242 25.954 51.2018 25.0992 53.2921C26.0509 48.5766 27.7576 44.2946 30.3396 40.0686ZM93.3639 42.8658C97.0938 46.4515 99.8895 51.04 100.944 56.0289C102.376 58.5816 101.03 59.2075 100.036 56.3988C97.6581 51.9648 95.6991 47.3196 93.3639 42.8658Z" fill="#A03131"/>
</g>
<path d="M96.936 72.56C96.552 74.1813 95.7627 75.2693 94.568 75.824C93.3733 76.3787 92.0933 76.5067 90.728 76.208C88.9787 75.7813 87.4853 75.12 86.248 74.224C85.0107 73.2853 83.9013 72.2187 82.92 71.024C81.5973 69.4027 80.4027 67.6747 79.336 65.84C78.312 64.0053 77.1173 62.3627 75.752 60.912C75.3253 61.424 74.92 62.064 74.536 62.832C74.152 63.6 73.7467 64.304 73.32 64.944C72.8933 65.5413 72.3813 65.9253 71.784 66.096C71.7413 66.224 71.6773 66.4373 71.592 66.736C71.5067 67.0347 71.2933 67.248 70.952 67.376C71.5067 67.8027 72.0827 68.1653 72.68 68.464C73.32 68.7627 73.9387 69.0827 74.536 69.424C75.5173 69.9787 76.3707 70.6827 77.096 71.536C77.864 72.3893 78.2693 73.6267 78.312 75.248C77.288 75.7173 76.3707 75.8453 75.56 75.632C74.792 75.376 74.1093 74.9067 73.512 74.224C72.9147 73.5413 72.3813 72.816 71.912 72.048C71.6133 71.4507 71.3147 70.896 71.016 70.384C70.7173 69.8293 70.44 69.36 70.184 68.976C69.4587 69.8293 68.7333 70.7253 68.008 71.664C67.2827 72.56 66.472 73.3493 65.576 74.032C65.1493 73.904 64.7867 73.9467 64.488 74.16C64.1893 74.3307 63.8907 74.544 63.592 74.8C63.4213 74.9707 63.208 75.1413 62.952 75.312C62.7387 75.44 62.504 75.568 62.248 75.696C62.12 75.7387 62.0347 75.6747 61.992 75.504C61.9493 75.3333 61.8853 75.248 61.8 75.248C61.6293 75.248 61.4587 75.312 61.288 75.44C61.16 75.5253 61.032 75.632 60.904 75.76C60.6907 75.9307 60.456 76.1013 60.2 76.272C59.9867 76.4 59.7307 76.4213 59.432 76.336C59.432 76.592 59.4533 76.848 59.496 77.104C59.5387 77.3173 59.6027 77.5307 59.688 77.744C59.7733 78.0853 59.8373 78.448 59.88 78.832C59.9227 79.216 59.9227 79.6427 59.88 80.112C59.0693 80.5813 58.3227 80.6667 57.64 80.368C57 80.0267 56.4453 79.4933 55.976 78.768C55.336 77.7867 54.824 76.592 54.44 75.184C54.056 73.776 53.736 72.496 53.48 71.344C54.376 71.216 55.2507 71.5147 56.104 72.24C57 72.9653 57.704 73.776 58.216 74.672C59.5813 73.9893 60.7333 73.136 61.672 72.112C62.6533 71.088 63.5067 70.0427 64.232 68.976C65 67.9093 65.7253 67.0133 66.408 66.288C67.3893 65.0933 68.4773 63.7067 69.672 62.128C70.9093 60.5067 71.9333 58.8427 72.744 57.136C72.0613 56.0267 71.272 55.0027 70.376 54.064C69.5227 53.0827 68.712 52.08 67.944 51.056C67.4747 51.312 67.0053 51.8027 66.536 52.528C66.0667 53.2533 65.576 54.064 65.064 54.96C64.5947 55.856 64.0187 56.688 63.336 57.456C62.696 58.1813 61.9493 58.7147 61.096 59.056C61.0107 58.7573 60.7973 58.5653 60.456 58.48C60.1573 58.3947 59.8587 58.288 59.56 58.16C59.2613 57.9893 59.0907 57.712 59.048 57.328C59.2613 57.328 59.4747 57.328 59.688 57.328C59.944 57.2853 60.136 57.2213 60.264 57.136L59.688 56.88C60.1147 56.6667 60.392 56.3893 60.52 56.048C60.6907 55.7067 60.8613 55.3653 61.032 55.024C61.2027 54.6827 61.5227 54.4053 61.992 54.192C61.9067 53.9787 61.9067 53.808 61.992 53.68C62.0773 53.5093 62.2053 53.36 62.376 53.232C62.5467 53.0613 62.696 52.8693 62.824 52.656C62.952 52.4427 62.952 52.1227 62.824 51.696C63.5067 51.2267 64.04 50.5013 64.424 49.52C64.808 48.5387 65.1707 47.4933 65.512 46.384C65.8533 45.2747 66.28 44.3147 66.792 43.504C66.664 43.376 66.536 43.1627 66.408 42.864C66.28 42.5227 66.344 42.2667 66.6 42.096C66.344 41.1147 66.0453 40.3253 65.704 39.728C65.3627 39.088 65.064 38.4053 64.808 37.68C65.704 37.68 66.6853 37.7653 67.752 37.936C68.8187 38.064 69.7787 38.384 70.632 38.896C71.528 39.3653 72.104 40.1547 72.36 41.264C73.1707 41.0933 74.0027 40.9867 74.856 40.944C75.752 40.9013 76.5627 40.7733 77.288 40.56C78.0133 40.304 78.5467 39.856 78.888 39.216C80.5093 39.2587 82.1093 39.5787 83.688 40.176C85.2667 40.7307 86.6533 41.3707 87.848 42.096C87.9333 42.6507 87.9547 43.184 87.912 43.696C87.912 44.208 87.6773 44.4427 87.208 44.4C85.9707 44.5707 84.9467 44.9547 84.136 45.552C83.3253 46.1067 82.6213 46.8107 82.024 47.664C81.1707 48.944 80.488 50.416 79.976 52.08C79.464 53.744 78.8453 55.344 78.12 56.88C79.3573 58.3307 80.6587 59.6107 82.024 60.72C83.432 61.8293 84.8827 62.8747 86.376 63.856C87.8267 64.7947 89.1493 65.6053 90.344 66.288C91.5813 66.928 92.9253 67.8027 94.376 68.912C94.888 69.296 95.3787 69.872 95.848 70.64C96.3173 71.3653 96.68 72.0053 96.936 72.56ZM59.88 48.816C59.9227 48.9013 59.88 48.9867 59.752 49.072C59.624 49.1573 59.6027 49.2853 59.688 49.456C58.7067 50.096 57.896 50.9067 57.256 51.888C56.616 52.8693 55.976 53.8507 55.336 54.832C54.696 55.8133 53.8853 56.6453 52.904 57.328C53.0747 57.6693 53.096 57.9467 52.968 58.16C52.84 58.3733 52.6907 58.5867 52.52 58.8C52.264 59.056 52.1147 59.248 52.072 59.376C52.2427 59.6747 52.52 59.888 52.904 60.016C53.288 60.144 53.6933 60.2293 54.12 60.272C55.1013 60.6133 55.976 61.2107 56.744 62.064C57.512 62.9173 58.0667 63.8347 58.408 64.816C58.664 65.5413 58.792 66.288 58.792 67.056C58.792 67.824 58.5573 68.5493 58.088 69.232C57.2347 69.36 56.5733 69.3387 56.104 69.168C55.6347 68.9973 55.1653 68.6773 54.696 68.208C53.2027 68.8907 51.4533 69.3387 49.448 69.552C47.4427 69.7227 45.544 70.1067 43.752 70.704C43.4533 70.7893 43.176 70.9173 42.92 71.088C42.664 71.2587 42.408 71.4293 42.152 71.6C41.8107 71.856 41.448 72.0907 41.064 72.304C40.68 72.5173 40.2533 72.6027 39.784 72.56C39.1867 72.2187 38.696 71.7493 38.312 71.152C37.9707 70.512 37.6507 69.872 37.352 69.232C37.0533 68.5493 36.6267 67.9947 36.072 67.568C36.712 67.2267 37.3093 67.1413 37.864 67.312C38.4187 67.4827 38.9307 67.7173 39.4 68.016C40.2533 67.76 41 67.3973 41.64 66.928C42.3227 66.4587 42.8987 65.904 43.368 65.264C44.0933 64.368 44.712 63.3867 45.224 62.32C45.736 61.2107 46.312 60.1227 46.952 59.056C46.2693 58.2027 45.352 57.6053 44.2 57.264C43.0907 56.88 42.024 56.432 41 55.92C40.6587 55.0667 40.1253 54.4053 39.4 53.936C38.6747 53.4667 37.9493 53.0187 37.224 52.592C37.608 52.208 38.0987 51.9947 38.696 51.952C39.336 51.8667 39.976 51.888 40.616 52.016C41.256 52.144 41.7253 52.336 42.024 52.592C42.0667 52.4213 42.152 52.2507 42.28 52.08C42.408 51.9093 42.5573 51.7387 42.728 51.568C43.0267 51.2693 43.2613 50.9707 43.432 50.672C43.6453 50.3733 43.56 50.0747 43.176 49.776C43.2187 49.4773 43.496 49.3707 44.008 49.456C44.0933 48.944 44.2 48.4533 44.328 47.984C44.4987 47.5147 44.6693 47.0453 44.84 46.576C45.096 45.6373 45.3307 44.7627 45.544 43.952C45.7573 43.0987 45.7573 42.3093 45.544 41.584C45.288 40.6027 44.5627 39.8133 43.368 39.216C43.9227 38.6187 44.6693 38.2773 45.608 38.192C46.5893 38.064 47.5707 38.1493 48.552 38.448C49.5333 38.704 50.3227 39.088 50.92 39.6C51.2613 40.1973 51.4533 40.624 51.496 40.88C51.5813 41.136 51.6027 41.456 51.56 41.84C51.56 41.9253 51.56 42.032 51.56 42.16C51.56 42.288 51.56 42.416 51.56 42.544C50.3653 44.1227 49.2773 45.8507 48.296 47.728C47.3573 49.6053 46.44 51.4827 45.544 53.36C45.9707 54 46.504 54.5333 47.144 54.96C47.784 55.344 48.4453 55.7067 49.128 56.048L49.512 55.92C49.7253 54.896 50.152 53.8933 50.792 52.912C51.4747 51.9307 52.0933 50.9067 52.648 49.84C53.032 49.1147 53.3093 48.368 53.48 47.6C53.6933 46.7893 53.6933 45.936 53.48 45.04C53.992 45.1253 54.2693 44.976 54.312 44.592C54.952 44.72 55.6987 44.9547 56.552 45.296C57.4053 45.5947 58.152 46.0213 58.792 46.576C59.4747 47.1307 59.8373 47.8773 59.88 48.816ZM43.176 89.904C41.5973 89.264 40.424 88.2613 39.656 86.896C38.9307 85.5307 38.2907 84.0587 37.736 82.48C37.352 81.3707 36.9467 80.2827 36.52 79.216C36.136 78.1493 35.5813 77.1893 34.856 76.336C35.9653 76.2507 37.1813 76.6133 38.504 77.424C39.8693 78.192 41.064 79.1947 42.088 80.432C43.24 81.84 43.9867 83.4187 44.328 85.168C44.712 86.8747 44.328 88.4533 43.176 89.904ZM77.288 88.816C76.0933 88.56 75.1333 88.048 74.408 87.28C73.6827 86.5547 73.0853 85.7013 72.616 84.72C72.1467 83.7387 71.6773 82.7573 71.208 81.776C70.824 80.9653 70.3973 80.2187 69.928 79.536C69.5013 78.8533 68.9253 78.2773 68.2 77.808C69.4373 77.424 70.824 77.488 72.36 78C73.9387 78.512 75.2613 79.28 76.328 80.304C76.968 80.944 77.5013 81.84 77.928 82.992C78.3547 84.1013 78.5467 85.1893 78.504 86.256C78.504 87.3653 78.0987 88.2187 77.288 88.816ZM77.288 43.952C76.6053 43.9947 75.944 44.0587 75.304 44.144C74.664 44.2293 74.0667 44.336 73.512 44.464C72.872 44.5493 72.296 44.6347 71.784 44.72C71.272 44.7627 70.8027 44.784 70.376 44.784C70.2053 45.8507 69.8853 46.704 69.416 47.344C68.9467 47.9413 68.6693 48.6453 68.584 49.456C69.6507 50.1387 70.6747 50.864 71.656 51.632C72.6373 52.3573 73.5973 53.1467 74.536 54C75.048 52.6347 75.624 51.0773 76.264 49.328C76.904 47.536 77.2453 45.744 77.288 43.952ZM52.072 79.216C52.072 79.2587 52.0933 79.3227 52.136 79.408C52.392 80.5173 52.5627 81.5413 52.648 82.48C52.7333 83.4187 52.3707 84.208 51.56 84.848C50.8347 84.592 50.2373 84.1867 49.768 83.632C49.2987 83.0773 48.872 82.48 48.488 81.84C48.104 81.2 47.656 80.624 47.144 80.112C47.144 78.6187 46.9307 77.36 46.504 76.336C46.12 75.312 45.7573 74.2027 45.416 73.008C46.1413 73.1787 46.9733 73.584 47.912 74.224C48.8933 74.864 49.768 75.632 50.536 76.528C51.3467 77.3813 51.8587 78.2773 52.072 79.216ZM53.48 64.624C53.608 63.4293 53.5013 62.4907 53.16 61.808C52.8613 61.1253 52.4987 60.4853 52.072 59.888C51.9867 59.76 51.9227 59.6747 51.88 59.632C50.856 61.424 49.4907 63.3013 47.784 65.264C47.6987 65.1787 47.784 64.944 48.04 64.56C48.296 64.176 48.3387 63.9413 48.168 63.856C48.0827 64.0693 47.9333 64.304 47.72 64.56C47.5067 64.816 47.3147 65.072 47.144 65.328C46.9307 65.584 46.7387 65.8187 46.568 66.032C46.3973 66.2453 46.3333 66.3947 46.376 66.48C47.272 66.3093 48.1253 66.1173 48.936 65.904C49.7893 65.648 50.728 65.4987 51.752 65.456C51.8373 65.3707 51.9653 65.2427 52.136 65.072C52.3067 64.8587 52.4773 64.7093 52.648 64.624C52.8187 64.496 53.096 64.496 53.48 64.624Z" fill="#193053"/>
<defs>
<clipPath id="clip0_111_1999">
<rect width="129" height="129" fill="white" transform="translate(2)"/>
</clipPath>
</defs>
</svg>
