<svg width="181" height="518" viewBox="0 0 181 518" fill="none" xmlns="http://www.w3.org/2000/svg">
<path d="M161.976 -48.063C160.939 -43.1006 156.939 18.885 156.939 30.0947C156.939 35.1457 156.828 35.9875 155.754 39.7093C154.383 44.5388 154.198 47.9061 155.272 50.0328C156.457 52.4254 157.309 52.6027 166.717 52.4697C171.384 52.4254 175.273 52.2925 175.347 52.2482C175.532 52.0267 176.199 47.5517 176.607 43.9628C176.792 42.1462 177.125 34.1709 177.31 26.2399C177.718 10.5996 178.014 4.13072 179.199 -15.9404L180.014 -29.0996L176.644 -33.8848C172.532 -39.7776 168.199 -44.8729 165.31 -47.2655C162.791 -49.3479 162.272 -49.4808 161.976 -48.063Z" fill="white" fill-opacity="0.23"/>
<path d="M137.863 40.5956C142.9 43.4755 149.716 47.9505 152.642 50.2545C153.827 51.185 154.864 51.8939 154.938 51.8053C155.012 51.7166 154.605 50.8305 154.012 49.8557C152.79 47.8176 150.493 45.5137 148.012 43.7857C146.234 42.5894 135.604 38.203 134.455 38.203C134.085 38.203 135.641 39.2664 137.863 40.5956Z" fill="white" fill-opacity="0.23"/>
<path d="M138.604 50.1658C138.012 50.4316 136.012 51.495 134.16 52.514L130.826 54.4635L135.641 54.7737C140.271 55.0838 149.753 54.5079 153.05 53.7546L154.531 53.4002L153.42 52.8685C149.346 50.8304 140.901 49.2796 138.604 50.1658Z" fill="white" fill-opacity="0.23"/>
<path d="M151.753 54.6409C149.494 55.1726 148.123 55.8372 146.605 57.1664C144.716 58.8501 144.345 60.4451 144.345 66.6481L144.382 72.0979L146.234 69.661C149.531 65.3632 155.087 55.8372 155.087 54.508C155.087 54.0649 153.975 54.1092 151.753 54.6409Z" fill="white" fill-opacity="0.23"/>
<path d="M155.124 55.9702C154.42 58.7616 154.568 63.9898 155.383 66.2051C156.05 68.0217 159.42 73.6044 161.569 76.5287L162.532 77.8579L162.309 75.1995C161.976 71.5663 160.532 64.6101 159.42 61.2428C158.494 58.5843 156.235 54.1536 155.791 54.1536C155.679 54.1536 155.383 54.9512 155.124 55.9702Z" fill="white" fill-opacity="0.23"/>
<path d="M160.643 58.8943C160.643 59.8248 161.235 63.3694 161.976 66.781C162.754 70.4142 163.383 74.6233 163.495 76.9273C163.717 80.6491 163.68 80.8263 163.013 80.3833C161.087 79.1427 158.235 74.5347 155.087 67.7114C153.939 65.2303 152.864 63.2807 152.679 63.325C152.457 63.4137 152.198 65.5847 152.012 68.1988C151.383 79.3642 146.16 136.565 144.716 148.306C144.086 153.711 143.086 157.965 140.493 166.561C139.456 169.972 139.271 172.852 139.938 173.65C140.234 174.004 141.234 174.093 142.827 173.915C144.16 173.783 147.753 174.004 150.79 174.403C159.643 175.555 162.902 175.289 163.383 173.472C164.309 170.016 170.347 122.962 172.495 102.67C174.162 86.7192 175.458 68.4647 175.458 60.3122V58.7171L170.199 57.9639C167.273 57.5651 163.939 57.255 162.791 57.255H160.643V58.8943Z" fill="white" fill-opacity="0.23"/>
<path d="M82.6753 93.0108C82.5271 93.4539 82.2679 106.746 82.0827 122.608C81.7123 159.737 81.7123 159.87 79.3418 166.516C78.638 168.51 78.0454 170.327 78.0454 170.637C78.0454 171.301 80.3418 171.257 87.12 170.46C90.1942 170.105 94.7501 169.795 97.2317 169.795H101.825L101.602 145.736C101.454 132.533 101.269 118.044 101.158 113.569L100.936 105.461L96.0464 101.651C90.2313 97.087 83.6013 92.2576 83.2309 92.2576C83.0827 92.2576 82.8235 92.612 82.6753 93.0108Z" fill="white" fill-opacity="0.23"/>
<path d="M83.4901 175.156C81.4529 175.732 80.7122 176.308 80.0084 177.903C79.4158 179.144 79.3417 180.473 79.4158 187.961C79.4528 196.645 80.4899 215.83 81.6011 228.325C82.3419 237.053 83.1938 240.864 85.0087 244.098C87.5274 248.573 88.0829 250.257 88.4163 254.555C88.6385 257.036 88.9348 258.808 89.2682 259.207C90.4905 260.625 99.8244 260.226 102.639 258.631C104.676 257.479 104.899 256.238 104.862 246.225C104.788 237.806 104.454 230.186 102.306 191.771C101.787 182.777 101.38 175.289 101.38 175.068C101.38 174.536 85.3421 174.625 83.4901 175.156Z" fill="white" fill-opacity="0.23"/>
<path d="M139.419 176.53C138.678 177.194 137.456 184.106 133.604 209.007C129.234 237.408 127.937 246.668 125.27 269.486C123.455 284.639 123.418 285.304 123.974 287.741C124.418 289.601 124.752 289.779 130.382 290.931C133.049 291.507 134.493 291.551 138.493 291.152C141.197 290.886 143.901 290.443 144.531 290.133C145.642 289.557 145.716 289.424 146.494 284.063C147.531 277.151 149.235 264.391 152.124 242.237C153.457 232.091 155.457 219.02 156.976 210.558C161.05 187.872 161.717 183.929 161.828 180.916C161.939 178.169 161.902 178.081 160.939 177.726C159.976 177.416 153.309 176.84 144.16 176.22C141.049 175.998 139.938 176.087 139.419 176.53Z" fill="white" fill-opacity="0.23"/>
<path d="M78.8601 243.876C80.601 246.136 83.0085 249.548 84.2678 251.453C86.342 254.599 86.5643 254.82 86.5643 253.668C86.5272 250.389 83.6011 245.87 78.9713 242.06C77.4897 240.819 76.1563 239.8 76.0081 239.8C75.86 239.8 77.1563 241.661 78.8601 243.876Z" fill="white" fill-opacity="0.23"/>
<path d="M62.3039 251.099C62.1187 251.187 60.7853 251.409 59.3408 251.586L56.748 251.896L58.4148 252.517C63.7484 254.422 81.4902 258.409 82.0087 257.789C82.3421 257.39 75.8602 253.536 72.6378 252.251C69.8229 251.099 68.6746 250.877 65.9708 250.922C64.1559 250.922 62.5261 251.01 62.3039 251.099Z" fill="white" fill-opacity="0.23"/>
<path d="M82.1196 252.295C82.1196 253.757 83.2308 256.105 84.5272 257.257C85.268 257.966 85.9347 258.409 86.0458 258.321C86.1199 258.232 85.4161 256.858 84.4901 255.263C82.3048 251.63 82.1196 251.409 82.1196 252.295Z" fill="white" fill-opacity="0.23"/>
<path d="M71.6746 261.289C68.1929 262.441 66.4891 263.814 62.6 268.555C60.5258 271.125 58.8961 273.296 58.9702 273.385C59.5258 274.049 82.49 261.954 82.49 260.979C82.49 260.403 73.6007 260.624 71.6746 261.289Z" fill="white" fill-opacity="0.23"/>
<path d="M83.3417 264.125C80.4897 266.827 77.7117 270.593 76.7487 273.119C75.9339 275.201 75.8228 276.043 75.8228 281.006L75.8598 286.544L76.9339 284.993C78.6007 282.556 82.3787 274.891 83.7862 270.992C85.0085 267.625 86.0085 262.397 85.4159 262.397C85.2677 262.397 84.3418 263.15 83.3417 264.125Z" fill="white" fill-opacity="0.23"/>
<path d="M86.8604 266.961C86.5271 268.556 85.4529 271.79 84.527 274.227L82.7861 278.569L83.0084 283.221C83.3047 289.247 86.0456 331.029 86.7493 339.89C87.4901 349.239 86.7493 348.574 96.3054 348.574H103.787L106.862 346.447C109.158 344.808 109.899 344.055 109.899 343.346C109.899 342.548 108.714 322.965 105.862 276.221C105.491 270.062 105.047 264.878 104.936 264.701C104.787 264.524 100.787 264.346 96.0832 264.258L87.4901 264.081L86.8604 266.961Z" fill="white" fill-opacity="0.23"/>
<path d="M161.013 285.924C159.494 286.411 158.087 287.031 157.864 287.297C157.605 287.652 157.679 287.696 158.161 287.474C158.531 287.342 162.791 287.209 167.606 287.209C172.717 287.209 176.162 287.031 175.828 286.81C174.902 286.145 168.458 284.993 166.05 285.038C164.791 285.038 162.531 285.436 161.013 285.924Z" fill="white" fill-opacity="0.23"/>
<path d="M156.198 294.697C156.198 295.14 161.235 300.634 165.087 304.311C170.717 309.717 175.458 313.793 175.458 313.261C175.458 312.951 174.606 310.647 173.569 308.166C171.421 302.982 169.902 301.121 165.902 298.596C162.124 296.247 156.198 293.855 156.198 294.697Z" fill="white" fill-opacity="0.23"/>
<path d="M123.789 295.184C123.344 295.361 122.826 295.849 122.567 296.203C121.937 297.089 117.344 337.453 117.789 337.985C117.9 338.118 118.715 337.985 119.566 337.675C120.715 337.232 123.937 337.099 130.752 337.143C135.975 337.187 140.271 337.054 140.308 336.921C140.308 336.744 140.864 331.427 141.531 325.091C142.197 318.756 142.716 313.527 142.679 313.439C142.642 313.394 141.197 314.369 139.493 315.61C136.382 317.958 127.085 323.629 125.567 324.205C125.085 324.338 124.715 324.294 124.715 324.072C124.715 323.541 128.456 316.452 131.271 311.711C132.53 309.54 135.419 305.33 137.642 302.273C140.605 298.33 141.605 296.691 141.234 296.425C139.493 295.273 125.641 294.254 123.789 295.184Z" fill="white" fill-opacity="0.23"/>
<path d="M146.383 296.159C143.345 298.994 138.271 305.286 135.493 309.584C132.493 314.192 130.271 317.958 130.271 318.401C130.271 319.42 140.271 312.021 142.271 309.495C144.012 307.324 146.568 301.963 147.679 298.02C148.79 294.121 148.679 293.943 146.383 296.159Z" fill="white" fill-opacity="0.23"/>
<path d="M152.383 296.469C152.049 298.374 152.049 319.021 152.346 322.61C152.494 324.072 152.716 325.313 152.864 325.313C153.012 325.313 154.272 322.655 155.642 319.376C157.865 314.148 158.161 313.04 158.346 310.293C158.457 308.388 158.346 306.35 158.05 305.109C157.568 303.027 155.642 299.216 153.716 296.558L152.605 295.007L152.383 296.469Z" fill="white" fill-opacity="0.23"/>
<path d="M121.381 339.713C120.048 340.023 118.566 340.51 118.047 340.776C117.159 341.175 117.159 341.219 117.936 341.219C118.788 341.263 130.382 339.624 131.382 339.314C133.011 338.827 123.418 339.225 121.381 339.713Z" fill="white" fill-opacity="0.23"/>
<path d="M131.382 341.795C126.27 342.415 117.64 343.878 117.27 344.143C116.418 344.808 117.196 345.207 120.566 345.916C128.233 347.555 131.456 349.283 135.308 353.847L138.012 356.992L138.234 355.442C138.863 350.878 139.752 341.662 139.604 341.485C139.308 341.175 135.048 341.308 131.382 341.795Z" fill="white" fill-opacity="0.23"/>
<path d="M115.084 347.732C115.084 348.53 135.641 359.341 136.123 358.765C136.493 358.366 131.678 352.783 130.085 351.808C127.641 350.302 124.752 349.283 120.344 348.352C115.825 347.422 115.084 347.333 115.084 347.732Z" fill="white" fill-opacity="0.23"/>
<path d="M104.64 351.188C103.306 352.517 101.047 355.309 99.6025 357.391C96.8245 361.423 92.6761 368.645 92.9354 368.955C93.1947 369.265 99.195 364.879 101.528 362.664C103.825 360.537 105.418 357.834 106.529 354.334C107.455 351.454 107.862 348.796 107.418 348.796C107.233 348.796 105.973 349.859 104.64 351.188Z" fill="white" fill-opacity="0.23"/>
<path d="M111.565 351.1C112.01 355.264 113.232 362.176 114.417 367.094C115.38 370.993 115.677 371.791 116.047 371.304C116.64 370.595 119.01 363.284 119.344 361.157C119.677 358.942 118.973 356.151 117.566 354.245C116.306 352.517 112.269 348.796 111.677 348.796C111.454 348.796 111.417 349.682 111.565 351.1Z" fill="white" fill-opacity="0.23"/>
<path d="M95.0833 351.986C92.1201 352.163 89.2311 352.473 88.6014 352.695L87.4902 353.049L87.3791 358.366C87.231 363.594 87.5643 377.95 88.6014 411.623L89.157 429.036L90.3793 430.453C91.046 431.251 91.8609 432.359 92.1942 432.979L92.7868 434.087L100.787 433.998C107.825 433.909 109.047 433.777 110.454 433.023C111.64 432.403 112.047 431.96 111.936 431.34C111.788 430.498 111.343 416.364 110.454 382.469C109.862 360.36 109.566 353.669 109.195 353.669C109.047 353.669 108.714 354.423 108.454 355.309C107.047 359.961 103.454 364.525 98.3057 368.202C95.4537 370.284 88.6755 374.494 88.231 374.494C87.9718 374.494 89.4533 370.993 91.5645 366.74C93.1943 363.417 96.9352 357.303 99.565 353.536C100.195 352.606 100.676 351.808 100.602 351.764C100.528 351.72 98.0464 351.808 95.0833 351.986Z" fill="white" fill-opacity="0.23"/>
<path d="M120.826 355.929C122.011 359.917 121.196 364.215 117.27 374.361L115.751 378.26L114.9 376.266C113.9 374.007 113.751 374.184 113.27 378.437C112.974 381.229 113.011 381.362 114.381 384.419C116.826 389.957 117.603 396.382 116.381 401.255C116.085 402.452 115.863 403.515 115.937 403.604C116.307 404.002 127.419 404.711 129.234 404.445C132.604 403.914 133.049 403.249 133.752 397.667C134.567 391.109 137.308 364.658 137.308 363.284C137.308 362.309 137.012 361.999 135.197 361.202C134.012 360.67 130.271 358.854 126.863 357.17C123.456 355.486 120.604 354.113 120.492 354.113C120.381 354.113 120.53 354.954 120.826 355.929Z" fill="white" fill-opacity="0.23"/>
<path d="M58.3405 362.575C58.2294 363.151 57.1923 368.601 56.0811 374.715C54.9329 380.785 53.8958 386.678 53.7847 387.786L53.5254 389.78L54.3032 388.672C55.5255 386.855 58.2664 379.81 58.9701 376.576C59.5257 374.139 59.5998 372.677 59.3776 368.202C59.1183 362.752 58.7109 360.537 58.3405 362.575Z" fill="white" fill-opacity="0.23"/>
<path d="M38.1909 383.798C39.0058 384.906 41.7467 388.362 44.3024 391.552C48.3396 396.603 48.7841 397.046 47.8581 395.096C46.2654 391.729 44.5616 389.381 41.2652 386.102C36.9686 381.849 36.5612 381.538 38.1909 383.798Z" fill="white" fill-opacity="0.23"/>
<path d="M112.602 389.204C112.714 390.754 113.232 393.324 113.751 394.919L114.677 397.755V395.274C114.714 392.615 113.528 387.165 112.788 386.634C112.491 386.412 112.417 387.121 112.602 389.204Z" fill="white" fill-opacity="0.23"/>
<path d="M85.0826 389.558C85.7863 390.134 86.1938 390.134 86.1938 389.558C86.1938 389.292 85.8234 389.115 85.3789 389.115C84.6752 389.115 84.6381 389.204 85.0826 389.558Z" fill="white" fill-opacity="0.23"/>
<path d="M112.899 400.901C112.862 401.654 113.121 402.54 113.418 402.85C113.973 403.426 113.973 403.249 113.121 400.192C113.01 399.837 112.899 400.147 112.899 400.901Z" fill="white" fill-opacity="0.23"/>
<path d="M20.82 404.002C18.8199 404.401 12.1529 406.439 10.7454 407.059L9.33789 407.724L10.8195 407.502C15.079 406.882 32.5244 405.198 36.5616 405.021L37.858 404.977L36.3765 404.578C34.7097 404.135 22.5238 403.692 20.82 404.002Z" fill="white" fill-opacity="0.23"/>
<path d="M57.044 408.477C56.2291 409.142 76.008 412.199 80.5638 412.11L82.6751 412.066L80.0823 411.224C74.6376 409.452 69.341 408.522 63.4147 408.344C60.1553 408.211 57.2662 408.3 57.044 408.477Z" fill="white" fill-opacity="0.23"/>
<path d="M114.418 409.806C113.64 411.667 113.492 413.794 113.566 423.497C113.64 431.561 113.566 433.865 113.159 434.131C112.899 434.353 112.011 434.884 111.196 435.283C109.714 436.036 109.714 436.036 110.825 436.081C113.085 436.125 113.011 435.815 113.307 449.24C113.418 456.019 113.714 472.014 113.937 484.818C114.159 497.623 114.455 509.807 114.566 511.934C114.788 515.7 114.863 515.833 115.714 515.833C116.752 515.833 118.974 514.77 119.307 514.15C119.826 513.131 121.011 503.073 126.567 453.538C127.789 442.549 129.271 430.099 129.9 425.846C131.308 415.965 131.752 410.781 131.234 410.56C130.863 410.427 116.418 409.053 115.196 409.053C114.937 409.053 114.603 409.408 114.418 409.806Z" fill="white" fill-opacity="0.23"/>
<path d="M36.7467 412.022C36.3393 412.155 33.0057 413.528 29.3389 415.123C21.6347 418.446 13.2639 423.187 9.85629 426.156C6.30053 429.302 -0.181311 435.726 0.00388434 435.948C0.374276 436.391 25.672 420.883 33.4132 415.434C38.1912 412.066 38.8579 411.402 36.7467 412.022Z" fill="white" fill-opacity="0.23"/>
<path d="M49.5625 412.775C49.6366 412.863 54.785 415.61 61.0076 418.8C75.1566 426.155 83.7867 430.941 87.2684 433.333L89.9352 435.194L89.824 433.953C89.7129 432.934 89.2685 432.491 86.5646 430.896C78.2678 425.978 65.4153 419.465 54.785 414.769C50.1922 412.73 49.1921 412.332 49.5625 412.775Z" fill="white" fill-opacity="0.23"/>
<path d="M41.8953 414.326C37.7839 416.098 35.2282 418.491 33.7837 421.902C32.4873 424.915 30.4872 432.403 29.1538 439.182C28.5241 442.461 27.8204 445.695 27.6722 446.36C27.487 447.069 27.487 447.601 27.6352 447.601C28.1167 447.601 35.5986 438.207 36.895 435.948C39.3025 431.739 43.8954 419.554 44.8954 414.68C45.2288 413.218 44.6732 413.13 41.8953 414.326Z" fill="white" fill-opacity="0.23"/>
<path d="M85.4902 416.319C84.8606 417.117 84.7494 417.471 85.1198 417.471C86.0088 417.471 86.6384 416.763 86.4903 415.921C86.4162 415.3 86.231 415.345 85.4902 416.319Z" fill="white" fill-opacity="0.23"/>
<path d="M88.9346 465.456C89.2679 499.218 89.7124 515.7 90.268 516.498C91.1199 517.738 94.3793 518.137 102.676 517.96C108.676 517.871 111.047 517.65 111.714 517.207L112.603 516.631L112.38 505.244C112.269 498.997 111.973 481.717 111.751 466.874C111.491 451.987 111.269 439.581 111.158 439.271C111.047 438.828 108.639 438.739 99.8611 438.739L88.6753 438.783L88.9346 465.456Z" fill="white" fill-opacity="0.23"/>
</svg>
