<svg width="80" height="80" viewBox="0 0 80 80" fill="none" xmlns="http://www.w3.org/2000/svg">
<circle cx="40" cy="40" r="40" fill="white"/>
<path d="M52.1241 16.3633H42.6464H37.3529H27.8753L16.3633 27.8752V37.3547V42.6446V52.1241L27.8753 63.6352H37.3529H42.6464H52.1241L63.636 52.124V42.6445V37.3546V27.8751L52.1241 16.3633ZM39.9489 54.3379C38.187 54.3379 36.7607 52.9098 36.7607 51.148C36.7607 49.3888 38.1869 47.9608 39.9489 47.9608C41.7107 47.9608 43.137 49.3888 43.137 51.148C43.137 52.9098 41.7107 54.3379 39.9489 54.3379ZM42.5308 42.0943C42.5308 43.5206 41.3752 44.6762 39.9489 44.6762C38.5216 44.6762 37.367 43.5206 37.367 42.0943L36.7607 29.5959C36.7607 27.835 38.1869 26.4068 39.9489 26.4068C41.7107 26.4068 43.137 27.8349 43.137 29.5959L42.5308 42.0943Z" fill="#F44336"/>
</svg>
