<svg width="136" height="200" viewBox="0 0 136 200" fill="none" xmlns="http://www.w3.org/2000/svg">
<path d="M67.9262 0C30.4141 0 0 30.4137 0 67.932C0 107.275 31.2563 131.873 48.1629 161.182C64.3375 189.221 64.325 200 67.9262 200C71.5273 200 71.5152 189.221 87.6894 161.182C104.602 131.873 135.852 107.275 135.852 67.932C135.852 30.4137 105.438 0 67.9262 0ZM67.9262 93.9086C53.5769 93.9086 41.9434 82.2754 41.9434 67.932C41.9434 53.5766 53.5766 41.9434 67.9262 41.9434C82.2758 41.9434 93.909 53.5766 93.909 67.932C93.909 82.2754 82.2754 93.9086 67.9262 93.9086Z" fill="#F06292"/>
</svg>
