<svg width="1026" height="35" viewBox="0 0 1026 35" fill="none" xmlns="http://www.w3.org/2000/svg">
<path d="M0 17.5C0 7.83502 7.83502 0 17.5 0H1008.5C1018.16 0 1026 7.83502 1026 17.5V17.5C1026 27.165 1018.16 35 1008.5 35H17.5C7.83501 35 0 27.165 0 17.5V17.5Z" fill="#333333"/>
<rect x="17" y="6" width="991" height="23" fill="#43A047"/>
<circle cx="17.5" cy="17.5" r="17.5" fill="#333333"/>
<circle cx="17.5" cy="17.5" r="13.5" fill="white"/>
<path d="M17.7393 25.2796C16.7527 25.2796 15.8327 25.113 14.9793 24.7796C14.126 24.433 13.3927 23.8596 12.7793 23.0596C12.5527 22.7396 12.4727 22.4463 12.5393 22.1796C12.6193 21.8996 12.8193 21.673 13.1393 21.4996C13.446 21.313 13.726 21.2596 13.9793 21.3396C14.2327 21.4063 14.486 21.5796 14.7393 21.8596C15.0993 22.2463 15.526 22.5463 16.0193 22.7596C16.526 22.973 17.126 23.0796 17.8193 23.0796C18.7527 23.0796 19.406 22.913 19.7793 22.5796C20.166 22.233 20.3593 21.7663 20.3593 21.1796C20.3593 20.8063 20.2727 20.4863 20.0993 20.2196C19.9393 19.953 19.5927 19.7063 19.0593 19.4796C18.5393 19.2396 17.7327 18.9996 16.6393 18.7596C15.346 18.453 14.386 17.9663 13.7593 17.2996C13.146 16.633 12.8393 15.7863 12.8393 14.7596C12.8393 13.9463 13.0327 13.233 13.4193 12.6196C13.8193 11.993 14.3727 11.5063 15.0793 11.1596C15.7993 10.813 16.6393 10.6396 17.5993 10.6396C18.5993 10.6396 19.4727 10.813 20.2193 11.1596C20.966 11.5063 21.5927 11.953 22.0993 12.4996C22.3527 12.7796 22.4527 13.0596 22.3993 13.3396C22.346 13.6196 22.1727 13.873 21.8793 14.0996C21.586 14.3396 21.306 14.433 21.0393 14.3796C20.7727 14.3263 20.506 14.173 20.2393 13.9196C19.906 13.613 19.526 13.3596 19.0993 13.1596C18.6727 12.9596 18.166 12.8596 17.5793 12.8596C16.886 12.8596 16.3193 13.013 15.8793 13.3196C15.4527 13.613 15.2393 14.0596 15.2393 14.6596C15.2393 14.9263 15.2993 15.1863 15.4193 15.4396C15.5527 15.6796 15.8327 15.913 16.2593 16.1396C16.6993 16.3663 17.3727 16.5863 18.2793 16.7996C19.8793 17.1596 21.0327 17.6996 21.7393 18.4196C22.446 19.1396 22.7993 20.0463 22.7993 21.1396C22.7993 22.473 22.3327 23.4996 21.3993 24.2196C20.4793 24.9263 19.2593 25.2796 17.7393 25.2796Z" fill="#333333"/>
<circle cx="1008.5" cy="17.5" r="17.5" fill="#333333"/>
<circle cx="1008.5" cy="17.5" r="13.5" fill="white"/>
<path d="M1009.05 25.3196C1007.78 25.3196 1006.66 25.0196 1005.67 24.4196C1004.7 23.8196 1003.93 22.973 1003.37 21.8796C1002.82 20.773 1002.55 19.4796 1002.55 17.9996C1002.55 16.5063 1002.82 15.213 1003.37 14.1196C1003.93 13.013 1004.7 12.1596 1005.67 11.5596C1006.66 10.9463 1007.78 10.6396 1009.05 10.6396C1009.84 10.6396 1010.58 10.753 1011.29 10.9796C1012 11.193 1012.62 11.493 1013.17 11.8796C1013.49 12.093 1013.66 12.3463 1013.67 12.6396C1013.7 12.9196 1013.6 13.2063 1013.37 13.4996C1013.13 13.793 1012.88 13.9463 1012.61 13.9596C1012.34 13.973 1012.05 13.8796 1011.73 13.6796C1011.36 13.4396 1010.94 13.253 1010.49 13.1196C1010.04 12.973 1009.56 12.8996 1009.05 12.8996C1008.21 12.8996 1007.48 13.113 1006.87 13.5396C1006.27 13.9663 1005.8 14.5663 1005.47 15.3396C1005.14 16.0996 1004.97 16.9863 1004.97 17.9996C1004.97 18.9996 1005.14 19.8863 1005.47 20.6596C1005.8 21.4196 1006.27 22.013 1006.87 22.4396C1007.48 22.8663 1008.21 23.0796 1009.05 23.0796C1009.68 23.0796 1010.2 23.0196 1010.61 22.8996C1011.04 22.7663 1011.41 22.6063 1011.73 22.4196V19.4196H1010.61C1009.82 19.4196 1009.43 19.0596 1009.43 18.3396C1009.43 17.6196 1009.82 17.2596 1010.61 17.2596H1012.89C1013.68 17.2596 1014.07 17.6596 1014.07 18.4596V22.9996C1014.07 23.333 1014.02 23.613 1013.91 23.8396C1013.82 24.053 1013.64 24.2196 1013.37 24.3396C1012.8 24.633 1012.14 24.8663 1011.39 25.0396C1010.66 25.2263 1009.88 25.3196 1009.05 25.3196Z" fill="#333333"/>
</svg>
