<svg width="189" height="200" viewBox="0 0 189 200" fill="none" xmlns="http://www.w3.org/2000/svg">
<path d="M173.356 65.9844H148.606V54.2543C148.606 52.8887 148.539 51.5398 148.439 50.1992H148.606C146.528 22.1711 123.06 0 94.5088 0C94.4827 0 94.4569 0.00234375 94.4307 0.00234375C94.4045 0.00234375 94.3787 0 94.3526 0C65.8022 0 42.3334 22.1711 40.2549 50.1992H40.4221C40.3225 51.5398 40.2549 52.8887 40.2549 54.2543V65.9844H15.5065C6.63226 65.9844 -0.431412 73.4176 0.0205415 82.2809L5.6432 185.284C6.0639 193.53 12.8725 200 21.1291 200H167.733C175.99 200 182.798 193.53 183.219 185.284L188.842 82.2809C189.294 73.4176 182.23 65.9844 173.356 65.9844ZM102.485 133.524V155.969C102.485 159.834 99.3229 162.996 95.4584 162.996C91.5936 162.996 88.4319 159.833 88.4319 155.969V133.524C83.9088 131.03 80.808 126.274 80.808 120.743C80.808 112.652 87.3674 106.093 95.4584 106.093C103.549 106.093 110.109 112.652 110.109 120.743C110.109 126.274 107.008 131.03 102.485 133.524ZM126.982 65.9844H61.8799V54.2543C61.8799 36.2902 76.4764 21.6691 94.4307 21.627C112.385 21.6691 126.982 36.2898 126.982 54.2543V65.9844H126.982Z" fill="#F44336"/>
</svg>
