<!--?xml version="1.0" encoding="utf-8"?-->
<!-- Generator: Adobe Illustrator 18.1.1, SVG Export Plug-In . SVG Version: 6.00 Build 0)  -->

<svg version="1.1" id="_x32_" xmlns="http://www.w3.org/2000/svg" xmlns:xlink="http://www.w3.org/1999/xlink" x="0px" y="0px" viewBox="0 0 512 512" style="width: 256px; height: 256px; opacity: 1;" xml:space="preserve">
<style type="text/css">
	.st0{fill:#4B4B4B;}
</style>
<g>
	<path class="st0" d="M115.177,431.387h281.647c0,0,19.259-3.795,19.259-22.736c0-28.422-26.138-38.79-38.519-54.953
		c-52.275-65.603-48.468-225.342-48.468-225.342H182.904c0,0,3.809,159.739-48.492,225.342
		c-12.358,16.164-38.495,26.532-38.495,54.953C95.917,427.592,115.177,431.387,115.177,431.387z" style="fill: rgb(75, 75, 75);"></path>
	<polygon class="st0" points="329.096,108.397 374.714,79.863 374.714,0 320.178,0 320.178,43.359 281.659,43.359 281.659,0 
		230.317,0 230.317,43.359 191.822,43.359 191.822,0 137.261,0 137.261,79.863 182.904,108.397 	" style="fill: rgb(75, 75, 75);"></polygon>
	<polygon class="st0" points="115.177,451.348 99.479,477.78 99.479,512 412.521,512 412.521,477.78 396.824,451.348 	" style="fill: rgb(75, 75, 75);"></polygon>
</g>
</svg>
