<svg width="400" height="400" viewBox="0 0 400 400" fill="none" xmlns="http://www.w3.org/2000/svg">
<circle cx="200" cy="200" r="200" fill="#F9D923"/>
<circle cx="200" cy="200" r="178.571" fill="white"/>
<circle cx="200" cy="200" r="157.143" fill="#F9D923"/>
<g clip-path="url(#clip0_198_44)">
<path d="M276.729 107.105C262.085 104.001 250.374 102.82 240.52 102.82C227.258 102.808 217.398 105.009 209.058 107.027C200.666 109.062 193.969 110.791 185.394 110.794C176.703 110.791 165.687 109.006 149.143 103.045L140.849 100.053C140.593 99.9602 140.306 99.991 140.075 100.133C139.844 100.278 139.69 100.518 139.656 100.789L116.241 300H159.708L168.547 227.522C169.244 227.534 169.95 227.565 170.64 227.562C179.594 227.556 188.008 226.394 196.702 225.315C205.403 224.224 214.412 223.188 224.78 223.188C235.179 223.188 246.968 224.224 261.167 227.405L269.717 229.322L283.758 108.596L276.729 107.105ZM145.733 284.22H133.985L141.243 222.473C145.237 223.906 149.103 224.97 152.866 225.755L145.733 284.22ZM256.045 210.293C244.363 208.191 234.038 207.405 224.78 207.408C213.355 207.408 203.541 208.555 194.745 209.655C185.94 210.762 178.182 211.788 170.64 211.782C161.924 211.76 153.43 210.491 143.145 206.289L153.168 121.005C166.183 125.005 176.487 126.577 185.394 126.574C196.203 126.577 204.651 124.321 212.763 122.367C220.927 120.404 228.941 118.616 240.52 118.604C247.575 118.604 256.001 119.312 266.409 121.177L256.045 210.293Z" fill="white"/>
<path d="M164.565 192.142C161.97 191.824 159.609 193.674 159.292 196.269C158.977 198.864 160.824 201.225 163.419 201.54C166.014 201.857 168.375 200.011 168.692 197.415C169.007 194.821 167.16 192.46 164.565 192.142Z" fill="white"/>
<path d="M169.431 152.245C166.836 151.927 164.476 153.773 164.158 156.369C163.843 158.964 165.69 161.325 168.285 161.642C170.88 161.959 173.241 160.11 173.558 157.515C173.876 154.92 172.026 152.559 169.431 152.245Z" fill="white"/>
<path d="M166.999 172.192C164.401 171.878 162.043 173.724 161.726 176.319C161.408 178.914 163.258 181.275 165.853 181.593C168.448 181.907 170.809 180.061 171.123 177.466C171.441 174.87 169.595 172.509 166.999 172.192Z" fill="white"/>
<path d="M171.294 132.261C170.045 132.261 168.828 132.766 167.946 133.647C167.065 134.529 166.56 135.75 166.56 136.995C166.56 138.24 167.065 139.46 167.946 140.342C168.828 141.223 170.045 141.729 171.294 141.729C172.539 141.729 173.759 141.223 174.641 140.342C175.522 139.46 176.028 138.24 176.028 136.995C176.028 135.749 175.522 134.529 174.641 133.647C173.759 132.766 172.539 132.261 171.294 132.261Z" fill="white"/>
</g>
<defs>
<clipPath id="clip0_198_44">
<rect width="200" height="200" fill="white" transform="translate(100 100)"/>
</clipPath>
</defs>
</svg>
