<svg width="100" height="100" viewBox="0 0 100 100" fill="none" xmlns="http://www.w3.org/2000/svg">
<circle cx="50" cy="50" r="50" fill="#EC407A"/>
<circle cx="50.0003" cy="50.0003" r="44.6429" fill="white"/>
<circle cx="49.9996" cy="49.9996" r="39.2857" fill="#EC407A"/>
<path d="M50 70C49.2165 70 48.5353 69.7174 47.9562 69.1521C47.4112 68.62 47.1387 67.9716 47.1387 67.2068V52.2932H31.8613C31.0779 52.2932 30.3966 52.0272 29.8175 51.4951C29.2725 50.9298 29 50.2648 29 49.5C29 48.7352 29.2725 48.0868 29.8175 47.5547C30.3966 46.9895 31.0779 46.7068 31.8613 46.7068H47.1387V31.7932C47.1387 31.0284 47.4112 30.38 47.9562 29.8479C48.5353 29.2826 49.2165 29 50 29C50.7835 29 51.4477 29.2826 51.9927 29.8479C52.5718 30.38 52.8613 31.0284 52.8613 31.7932V46.7068H68.1387C68.9221 46.7068 69.5864 46.9895 70.1314 47.5547C70.7105 48.0868 71 48.7352 71 49.5C71 50.2648 70.7105 50.9298 70.1314 51.4951C69.5864 52.0272 68.9221 52.2932 68.1387 52.2932H52.8613V67.2068C52.8613 67.9716 52.5718 68.62 51.9927 69.1521C51.4477 69.7174 50.7835 70 50 70Z" fill="white"/>
</svg>
