<svg width="70" height="70" viewBox="0 0 70 70" fill="none" xmlns="http://www.w3.org/2000/svg">
<circle cx="35" cy="35" r="35" fill="#AB47BC"/>
<circle cx="35" cy="35" r="31.25" fill="white"/>
<circle cx="35" cy="35" r="27.5" fill="#AB47BC"/>
<path d="M27.7456 38.4998C26.6529 38.4998 25.7221 38.1218 24.9532 37.3657C24.1843 36.6096 23.7998 35.7143 23.7998 34.6796C23.7998 33.6052 24.1843 32.69 24.9532 31.9339C25.7221 31.1778 26.6529 30.7998 27.7456 30.7998H42.254C43.3467 30.7998 44.2775 31.1778 45.0464 31.9339C45.8153 32.69 46.1998 33.6052 46.1998 34.6796C46.1998 35.7143 45.8153 36.6096 45.0464 37.3657C44.2775 38.1218 43.3467 38.4998 42.254 38.4998H27.7456Z" fill="white"/>
</svg>
