<svg width="500" height="500" viewBox="0 0 500 500" fill="none" xmlns="http://www.w3.org/2000/svg">
<path d="M99.288 331.28H91.512C90.904 331.28 90.456 331.152 90.168 330.896C89.912 330.608 89.784 330.16 89.784 329.552V305.984H82.728C82.12 305.984 81.672 305.856 81.384 305.6C81.128 305.312 81 304.864 81 304.256V298.448C81 297.84 81.128 297.408 81.384 297.152C81.672 296.864 82.12 296.72 82.728 296.72H108.072C108.68 296.72 109.112 296.864 109.368 297.152C109.656 297.408 109.8 297.84 109.8 298.448V304.256C109.8 304.864 109.656 305.312 109.368 305.6C109.112 305.856 108.68 305.984 108.072 305.984H101.016V329.552C101.016 330.16 100.872 330.608 100.584 330.896C100.328 331.152 99.896 331.28 99.288 331.28Z" fill="#EC407A"/>
<path d="M138.468 331.28H116.196C115.588 331.28 115.14 331.152 114.852 330.896C114.596 330.608 114.468 330.16 114.468 329.552V298.448C114.468 297.84 114.596 297.408 114.852 297.152C115.14 296.864 115.588 296.72 116.196 296.72H138.468C139.076 296.72 139.508 296.864 139.764 297.152C140.052 297.408 140.196 297.84 140.196 298.448V304.064C140.196 304.672 140.052 305.12 139.764 305.408C139.508 305.664 139.076 305.792 138.468 305.792H125.22V309.488H134.58C135.188 309.488 135.62 309.632 135.876 309.92C136.164 310.176 136.308 310.608 136.308 311.216V316.352C136.308 316.96 136.164 317.408 135.876 317.696C135.62 317.952 135.188 318.08 134.58 318.08H125.22V322.208H138.468C139.076 322.208 139.508 322.352 139.764 322.64C140.052 322.896 140.196 323.328 140.196 323.936V329.552C140.196 330.16 140.052 330.608 139.764 330.896C139.508 331.152 139.076 331.28 138.468 331.28Z" fill="#EC407A"/>
<path d="M154.754 331.28H147.602C146.994 331.28 146.546 331.152 146.258 330.896C146.002 330.608 145.874 330.16 145.874 329.552V298.448C145.874 297.84 146.002 297.408 146.258 297.152C146.546 296.864 146.994 296.72 147.602 296.72H155.33C155.842 296.72 156.258 296.832 156.578 297.056C156.93 297.28 157.25 297.648 157.538 298.16L161.858 305.984C162.018 306.272 162.146 306.48 162.242 306.608C162.37 306.736 162.53 306.8 162.722 306.8H163.154C163.346 306.8 163.49 306.736 163.586 306.608C163.714 306.48 163.858 306.272 164.018 305.984L168.29 298.16C168.578 297.648 168.882 297.28 169.202 297.056C169.554 296.832 169.986 296.72 170.498 296.72H178.274C178.882 296.72 179.314 296.864 179.57 297.152C179.858 297.408 180.002 297.84 180.002 298.448V329.552C180.002 330.16 179.858 330.608 179.57 330.896C179.314 331.152 178.882 331.28 178.274 331.28H170.882C170.274 331.28 169.826 331.152 169.538 330.896C169.282 330.608 169.154 330.16 169.154 329.552V312.656L166.322 317.888C166.034 318.432 165.682 318.832 165.266 319.088C164.882 319.312 164.386 319.424 163.778 319.424H161.858C161.25 319.424 160.738 319.312 160.322 319.088C159.938 318.832 159.602 318.432 159.314 317.888L156.482 312.656V329.552C156.482 330.16 156.338 330.608 156.05 330.896C155.794 331.152 155.362 331.28 154.754 331.28Z" fill="#EC407A"/>
<path d="M195.777 331.28H188.337C187.729 331.28 187.281 331.152 186.993 330.896C186.737 330.608 186.609 330.16 186.609 329.552V298.448C186.609 297.84 186.737 297.408 186.993 297.152C187.281 296.864 187.729 296.72 188.337 296.72H203.025C207.377 296.72 210.353 297.584 211.953 299.312C213.553 301.04 214.353 303.296 214.353 306.08V312.224C214.353 315.008 213.553 317.264 211.953 318.992C210.353 320.72 207.377 321.584 203.025 321.584H197.505V329.552C197.505 330.16 197.361 330.608 197.073 330.896C196.817 331.152 196.385 331.28 195.777 331.28ZM197.409 305.696V312.944H201.729C202.657 312.944 203.265 312.704 203.553 312.224C203.841 311.744 203.985 311.2 203.985 310.592V308.048C203.985 307.44 203.841 306.896 203.553 306.416C203.265 305.936 202.657 305.696 201.729 305.696H197.409Z" fill="#EC407A"/>
<path d="M248.607 322.208C248.607 323.68 248.383 325.024 247.935 326.24C247.519 327.424 246.751 328.448 245.631 329.312C244.543 330.144 243.023 330.8 241.071 331.28C239.151 331.76 236.703 332 233.727 332C230.751 332 228.287 331.76 226.335 331.28C224.383 330.8 222.847 330.144 221.727 329.312C220.639 328.448 219.871 327.424 219.423 326.24C219.007 325.024 218.799 323.68 218.799 322.208V305.84C218.799 304.368 219.007 303.04 219.423 301.856C219.871 300.64 220.639 299.6 221.727 298.736C222.847 297.872 224.383 297.2 226.335 296.72C228.287 296.24 230.751 296 233.727 296C236.703 296 239.151 296.24 241.071 296.72C243.023 297.2 244.543 297.872 245.631 298.736C246.751 299.6 247.519 300.64 247.935 301.856C248.383 303.04 248.607 304.368 248.607 305.84V322.208ZM229.695 320.48C229.695 321.12 229.935 321.664 230.415 322.112C230.895 322.528 231.999 322.736 233.727 322.736C235.455 322.736 236.559 322.528 237.039 322.112C237.519 321.664 237.759 321.12 237.759 320.48V307.568C237.759 306.96 237.519 306.448 237.039 306.032C236.559 305.584 235.455 305.36 233.727 305.36C231.999 305.36 230.895 305.584 230.415 306.032C229.935 306.448 229.695 306.96 229.695 307.568V320.48Z" fill="#EC407A"/>
<path d="M265.566 305.36V311.504H269.166C269.998 311.504 270.558 311.296 270.846 310.88C271.134 310.432 271.278 309.888 271.278 309.248V307.616C271.278 306.976 271.134 306.448 270.846 306.032C270.558 305.584 269.998 305.36 269.166 305.36H265.566ZM263.838 331.28H256.446C255.838 331.28 255.39 331.152 255.102 330.896C254.846 330.608 254.718 330.16 254.718 329.552V298.448C254.718 297.84 254.846 297.408 255.102 297.152C255.39 296.864 255.838 296.72 256.446 296.72H272.43C276.014 296.72 278.478 297.472 279.822 298.976C281.198 300.448 281.886 302.368 281.886 304.736V306.944C281.886 308.288 281.678 309.44 281.262 310.4C280.878 311.328 280.19 312 279.198 312.416C280.926 312.608 282.318 313.312 283.374 314.528C284.462 315.744 285.006 317.36 285.006 319.376V329.552C285.006 330.16 284.862 330.608 284.574 330.896C284.318 331.152 283.886 331.28 283.278 331.28H275.838C275.23 331.28 274.782 331.152 274.494 330.896C274.238 330.608 274.11 330.16 274.11 329.552V322.208C274.11 321.504 273.966 320.992 273.678 320.672C273.422 320.32 272.958 320.144 272.286 320.144H265.566V329.552C265.566 330.16 265.422 330.608 265.134 330.896C264.878 331.152 264.446 331.28 263.838 331.28Z" fill="#EC407A"/>
<path d="M302.918 306.8L300.662 314.096H308.198L305.942 306.8C305.814 306.512 305.67 306.304 305.51 306.176C305.382 306.048 305.222 305.984 305.03 305.984H303.83C303.638 305.984 303.462 306.048 303.302 306.176C303.174 306.304 303.046 306.512 302.918 306.8ZM300.182 329.552C300.182 330.16 300.038 330.608 299.75 330.896C299.494 331.152 299.062 331.28 298.454 331.28H291.398C290.79 331.28 290.342 331.152 290.054 330.896C289.798 330.608 289.67 330.16 289.67 329.552V316.88C289.67 315.92 289.814 314.816 290.102 313.568C290.422 312.32 290.902 310.864 291.542 309.2L295.718 298.304C295.91 297.76 296.198 297.36 296.582 297.104C296.998 296.848 297.526 296.72 298.166 296.72H311.078C311.686 296.72 312.182 296.848 312.566 297.104C312.982 297.36 313.286 297.76 313.478 298.304L317.654 309.2C318.294 310.864 318.758 312.32 319.046 313.568C319.366 314.816 319.526 315.92 319.526 316.88V329.552C319.526 330.16 319.382 330.608 319.094 330.896C318.838 331.152 318.406 331.28 317.798 331.28H310.55C309.91 331.28 309.43 331.152 309.11 330.896C308.822 330.608 308.678 330.16 308.678 329.552V322.832H300.182V329.552Z" fill="#EC407A"/>
<path d="M351.612 331.28H327.18C326.572 331.28 326.124 331.152 325.836 330.896C325.58 330.608 325.452 330.16 325.452 329.552V298.448C325.452 297.84 325.58 297.408 325.836 297.152C326.124 296.864 326.572 296.72 327.18 296.72H334.62C335.228 296.72 335.66 296.864 335.916 297.152C336.204 297.408 336.348 297.84 336.348 298.448V322.208H342.924V314.432C342.924 313.824 343.052 313.392 343.308 313.136C343.596 312.848 344.044 312.704 344.652 312.704H351.612C352.22 312.704 352.652 312.848 352.908 313.136C353.196 313.392 353.34 313.824 353.34 314.432V329.552C353.34 330.16 353.196 330.608 352.908 330.896C352.652 331.152 352.22 331.28 351.612 331.28Z" fill="#EC407A"/>
<path d="M384.987 331.28H360.555C359.947 331.28 359.499 331.152 359.211 330.896C358.955 330.608 358.827 330.16 358.827 329.552V298.448C358.827 297.84 358.955 297.408 359.211 297.152C359.499 296.864 359.947 296.72 360.555 296.72H367.995C368.603 296.72 369.035 296.864 369.291 297.152C369.579 297.408 369.723 297.84 369.723 298.448V322.208H376.299V314.432C376.299 313.824 376.427 313.392 376.683 313.136C376.971 312.848 377.419 312.704 378.027 312.704H384.987C385.595 312.704 386.027 312.848 386.283 313.136C386.571 313.392 386.715 313.824 386.715 314.432V329.552C386.715 330.16 386.571 330.608 386.283 330.896C386.027 331.152 385.595 331.28 384.987 331.28Z" fill="#EC407A"/>
<path d="M407.332 331.28H399.556C398.948 331.28 398.5 331.152 398.212 330.896C397.956 330.608 397.828 330.16 397.828 329.552V323.408L390.484 313.568C389.748 312.576 389.252 311.712 388.996 310.976C388.772 310.24 388.66 309.136 388.66 307.664V298.448C388.66 297.84 388.788 297.408 389.044 297.152C389.332 296.864 389.78 296.72 390.388 296.72H397.78C398.388 296.72 398.82 296.864 399.076 297.152C399.364 297.408 399.508 297.84 399.508 298.448V306.32C399.508 306.64 399.524 306.976 399.556 307.328C399.588 307.68 399.716 308.016 399.94 308.336L402.148 311.792C402.308 312.08 402.468 312.288 402.628 312.416C402.82 312.544 403.044 312.608 403.3 312.608H403.78C404.036 312.608 404.244 312.544 404.404 312.416C404.596 312.288 404.772 312.08 404.932 311.792L407.14 308.336C407.364 308.016 407.492 307.68 407.524 307.328C407.556 306.976 407.572 306.64 407.572 306.32V298.448C407.572 297.84 407.7 297.408 407.956 297.152C408.244 296.864 408.692 296.72 409.3 296.72H416.452C417.06 296.72 417.492 296.864 417.748 297.152C418.036 297.408 418.18 297.84 418.18 298.448V307.664C418.18 309.136 418.052 310.24 417.796 310.976C417.54 311.712 417.06 312.576 416.356 313.568L409.06 323.456V329.552C409.06 330.16 408.916 330.608 408.628 330.896C408.372 331.152 407.94 331.28 407.332 331.28Z" fill="#EC407A"/>
<path d="M162.08 345.4C163.664 345.4 164.776 345.84 165.416 346.72C165.896 347.344 166.136 348.104 166.136 349C166.136 349.368 166.096 349.752 166.016 350.152L165.536 352.84C165.264 354.376 164.552 355.56 163.4 356.392C162.264 357.208 160.824 357.616 159.08 357.616C157.352 357.616 156.024 357.272 155.096 356.584C154.36 356.04 153.992 355.28 153.992 354.304C153.992 354.048 154.016 353.784 154.064 353.512L156.608 339.064H160.688L159.464 346.048C160.136 345.616 161.008 345.4 162.08 345.4ZM161.864 350.512C161.88 350.384 161.888 350.208 161.888 349.984C161.888 349.744 161.784 349.496 161.576 349.24C161.384 348.968 160.952 348.832 160.28 348.832C159.624 348.832 159.152 349.032 158.864 349.432L158.168 353.44C158.36 353.92 158.76 354.16 159.368 354.16C160.6 354.16 161.328 353.544 161.552 352.312L161.864 350.512Z" fill="#EC407A"/>
<path d="M172.12 352.12C172.072 352.408 172.048 352.696 172.048 352.984C172.048 353.752 172.48 354.136 173.344 354.136C174.048 354.136 174.632 353.888 175.096 353.392L176.44 345.736H180.52L178.408 357.664C178.056 359.696 177.248 361.304 175.984 362.488C174.736 363.672 173.304 364.264 171.688 364.264C170.072 364.264 168.904 363.968 168.184 363.376C167.48 362.784 167.128 362.008 167.128 361.048C167.128 359.688 167.968 358.48 169.648 357.424C168.736 357.2 168.16 356.744 167.92 356.056C167.776 355.672 167.704 355.24 167.704 354.76C167.704 354.28 167.744 353.792 167.824 353.296L169.168 345.736H173.248L172.12 352.12ZM172.24 360.832C173.28 360.832 173.96 359.888 174.28 358L174.52 356.608C172.296 357.648 171.184 358.696 171.184 359.752C171.184 360.072 171.272 360.328 171.448 360.52C171.64 360.728 171.904 360.832 172.24 360.832Z" fill="#EC407A"/>
<path d="M191.837 357.616C188.509 357.616 186.845 356.464 186.845 354.16C186.845 353.84 186.877 353.496 186.941 353.128L187.445 350.152C187.717 348.616 188.421 347.44 189.557 346.624C190.709 345.792 192.229 345.376 194.117 345.376C197.333 345.376 198.941 346.592 198.941 349.024C198.941 349.376 198.909 349.76 198.845 350.176L198.557 351.88H191.237L191.141 352.432C191.109 352.624 191.093 352.8 191.093 352.96C191.093 353.84 191.613 354.28 192.653 354.28C193.037 354.28 193.365 354.16 193.637 353.92C193.909 353.68 194.069 353.4 194.117 353.08L198.101 353.128C197.573 356.12 195.485 357.616 191.837 357.616ZM194.717 350.416C194.781 350.144 194.813 349.896 194.813 349.672C194.813 349.432 194.709 349.192 194.501 348.952C194.293 348.712 193.957 348.592 193.493 348.592C193.045 348.592 192.629 348.744 192.245 349.048C191.877 349.352 191.621 349.808 191.477 350.416H194.717Z" fill="#EC407A"/>
<path d="M211.832 357.28H207.368L205.664 353.944L202.784 357.28H198.32L203.504 351.376L200.384 345.568H204.92L206.552 348.856L209.36 345.568H213.896L208.688 351.4L211.832 357.28Z" fill="#EC407A"/>
<path d="M218.984 357.616C217.128 357.616 215.792 357.2 214.976 356.368C214.368 355.76 214.064 354.944 214.064 353.92C214.064 353.584 214.096 353.224 214.16 352.84L215.792 343.552L220.184 341.728L219.488 345.736H226.112L225.512 349.12H218.888L218.408 351.832C218.344 352.136 218.312 352.408 218.312 352.648C218.312 353.656 218.792 354.16 219.752 354.16C220.264 354.16 220.688 353.944 221.024 353.512C221.376 353.08 221.616 352.504 221.744 351.784H225.728C225.056 355.672 222.808 357.616 218.984 357.616Z" fill="#EC407A"/>
<path d="M231.868 357.616C228.54 357.616 226.876 356.464 226.876 354.16C226.876 353.84 226.908 353.496 226.972 353.128L227.476 350.152C227.748 348.616 228.452 347.44 229.588 346.624C230.74 345.792 232.26 345.376 234.148 345.376C237.364 345.376 238.972 346.592 238.972 349.024C238.972 349.376 238.94 349.76 238.876 350.176L238.588 351.88H231.268L231.172 352.432C231.14 352.624 231.124 352.8 231.124 352.96C231.124 353.84 231.644 354.28 232.684 354.28C233.068 354.28 233.396 354.16 233.668 353.92C233.94 353.68 234.1 353.4 234.148 353.08L238.132 353.128C237.604 356.12 235.516 357.616 231.868 357.616ZM234.748 350.416C234.812 350.144 234.844 349.896 234.844 349.672C234.844 349.432 234.74 349.192 234.532 348.952C234.324 348.712 233.988 348.592 233.524 348.592C233.076 348.592 232.66 348.744 232.276 349.048C231.908 349.352 231.652 349.808 231.508 350.416H234.748Z" fill="#EC407A"/>
<path d="M247.99 349.912C247.99 349.224 247.654 348.88 246.982 348.88C246.326 348.88 245.782 349.128 245.35 349.624L244.006 357.28H239.926L241.966 345.736H245.758L245.494 347.152C246.438 345.984 247.63 345.4 249.07 345.4C250.51 345.4 251.446 345.752 251.878 346.456C252.15 346.904 252.286 347.416 252.286 347.992C252.286 348.568 252.246 349.104 252.166 349.6L251.518 353.296C251.502 353.392 251.494 353.48 251.494 353.56C251.494 353.992 251.734 354.208 252.214 354.208C252.582 354.208 252.91 354.128 253.198 353.968L253.078 356.68C252.326 357.304 251.47 357.616 250.51 357.616C248.334 357.616 247.246 356.704 247.246 354.88C247.246 354.56 247.278 354.216 247.342 353.848L247.918 350.656C247.966 350.368 247.99 350.12 247.99 349.912Z" fill="#EC407A"/>
<path d="M266.606 348.232C266.606 348.76 266.446 349.248 266.126 349.696H262.19C262.318 349.6 262.382 349.44 262.382 349.216C262.382 348.992 262.254 348.816 261.998 348.688C261.742 348.544 261.414 348.472 261.014 348.472C259.814 348.472 259.214 348.84 259.214 349.576C259.214 349.864 259.438 350.072 259.886 350.2C260.334 350.328 260.878 350.432 261.518 350.512C262.158 350.592 262.798 350.712 263.438 350.872C264.078 351.016 264.622 351.312 265.07 351.76C265.518 352.208 265.742 352.808 265.742 353.56C265.742 354.888 265.206 355.896 264.134 356.584C263.078 357.272 261.534 357.616 259.502 357.616C257.47 357.616 256.046 357.288 255.23 356.632C254.59 356.12 254.27 355.416 254.27 354.52C254.27 354.264 254.294 354 254.342 353.728L258.35 353.68C258.318 353.904 258.446 354.104 258.734 354.28C259.038 354.44 259.478 354.52 260.054 354.52C260.63 354.52 261.046 354.464 261.302 354.352C261.558 354.224 261.686 353.992 261.686 353.656C261.686 353.432 261.462 353.28 261.014 353.2C260.566 353.104 260.014 353.024 259.358 352.96C258.718 352.896 258.07 352.792 257.414 352.648C256.774 352.504 256.23 352.2 255.782 351.736C255.334 351.272 255.11 350.664 255.11 349.912C255.11 348.456 255.67 347.336 256.79 346.552C257.926 345.768 259.558 345.376 261.686 345.376C264.966 345.376 266.606 346.328 266.606 348.232Z" fill="#EC407A"/>
<path d="M272.842 354.208C273.21 354.208 273.538 354.128 273.826 353.968L273.706 356.68C272.954 357.304 272.098 357.616 271.138 357.616C269.682 357.616 268.738 357.28 268.306 356.608C268.018 356.16 267.874 355.688 267.874 355.192C267.874 354.68 267.906 354.232 267.97 353.848L269.41 345.736H273.49L272.146 353.296C272.13 353.392 272.122 353.48 272.122 353.56C272.122 353.992 272.362 354.208 272.842 354.208ZM269.89 341.824C269.89 340.8 270.114 340.056 270.562 339.592C271.026 339.112 271.738 338.872 272.698 338.872C274.042 338.872 274.714 339.464 274.714 340.648C274.714 341.656 274.482 342.392 274.018 342.856C273.57 343.32 272.858 343.552 271.882 343.552C270.554 343.552 269.89 342.976 269.89 341.824Z" fill="#EC407A"/>
<path d="M282.477 345.4C284.205 345.4 285.509 345.776 286.389 346.528C287.077 347.12 287.421 347.944 287.421 349C287.421 349.352 287.381 349.736 287.301 350.152L286.797 352.96C286.493 354.656 285.781 355.856 284.661 356.56C283.557 357.264 282.077 357.616 280.221 357.616C278.365 357.616 277.005 357.264 276.141 356.56C275.501 356.032 275.181 355.24 275.181 354.184C275.181 353.816 275.221 353.408 275.301 352.96L275.805 350.152C276.365 346.984 278.589 345.4 282.477 345.4ZM283.125 350.632C283.157 350.472 283.173 350.272 283.173 350.032C283.173 349.776 283.069 349.496 282.861 349.192C282.653 348.888 282.285 348.736 281.757 348.736C281.245 348.736 280.813 348.912 280.461 349.264C280.109 349.6 279.885 350.056 279.789 350.632L279.477 352.432C279.445 352.592 279.429 352.8 279.429 353.056C279.429 353.296 279.533 353.56 279.741 353.848C279.949 354.136 280.309 354.28 280.821 354.28C281.349 354.28 281.789 354.104 282.141 353.752C282.493 353.384 282.717 352.944 282.813 352.432L283.125 350.632Z" fill="#EC407A"/>
<path d="M296.576 349.912C296.576 349.224 296.24 348.88 295.568 348.88C294.912 348.88 294.368 349.128 293.936 349.624L292.592 357.28H288.512L290.552 345.736H294.344L294.08 347.152C295.024 345.984 296.216 345.4 297.656 345.4C299.096 345.4 300.032 345.752 300.464 346.456C300.736 346.904 300.872 347.416 300.872 347.992C300.872 348.568 300.832 349.104 300.752 349.6L300.104 353.296C300.088 353.392 300.08 353.48 300.08 353.56C300.08 353.992 300.32 354.208 300.8 354.208C301.168 354.208 301.496 354.128 301.784 353.968L301.664 356.68C300.912 357.304 300.056 357.616 299.096 357.616C296.92 357.616 295.832 356.704 295.832 354.88C295.832 354.56 295.864 354.216 295.928 353.848L296.504 350.656C296.552 350.368 296.576 350.12 296.576 349.912Z" fill="#EC407A"/>
<path d="M314.064 357.28H303.12L306.168 340H310.488L308.112 353.536H314.736L314.064 357.28Z" fill="#EC407A"/>
<path d="M324.531 357.28L324.675 353.512H320.667L319.491 357.28H314.907L321.075 340H328.995L329.091 357.28H324.531ZM323.547 344.2L321.651 350.296H324.795L325.059 344.2H323.547Z" fill="#EC407A"/>
<path d="M341.37 340C343.194 340 344.49 340.4 345.258 341.2C345.834 341.808 346.122 342.576 346.122 343.504C346.122 343.824 346.09 344.16 346.026 344.512L345.81 345.664C345.634 346.576 345.29 347.288 344.778 347.8C344.282 348.312 343.842 348.568 343.458 348.568L343.434 348.76C343.882 348.76 344.338 349.008 344.802 349.504C345.266 350 345.498 350.584 345.498 351.256C345.498 351.528 345.466 351.816 345.402 352.12L345.258 352.864C345.002 354.24 344.386 355.32 343.41 356.104C342.45 356.888 341.106 357.28 339.378 357.28H331.362L334.41 340H341.37ZM339.21 350.224H336.93L336.354 353.536H338.634C338.666 353.536 338.698 353.536 338.73 353.536C339.466 353.536 340.05 353.368 340.482 353.032C340.914 352.68 341.13 352.256 341.13 351.76C341.13 350.736 340.49 350.224 339.21 350.224ZM339.858 343.744H338.058L337.434 347.32H339.21C340.746 347.32 341.514 346.648 341.514 345.304C341.514 344.84 341.37 344.464 341.082 344.176C340.81 343.888 340.402 343.744 339.858 343.744Z" fill="#EC407A"/>
<path fill-rule="evenodd" clip-rule="evenodd" d="M240.369 175.572C237.158 181.59 232.02 186.424 225.779 189.252L260.631 226.428C263.842 220.41 268.98 215.575 275.221 212.748L240.369 175.572Z" fill="#E0E0E0"/>
<path fill-rule="evenodd" clip-rule="evenodd" d="M185.175 174.683C188.196 180.815 193.185 185.804 199.317 188.825L165.825 222.317C162.803 216.185 157.815 211.197 151.682 208.175L185.175 174.683Z" fill="#E0E0E0"/>
<path fill-rule="evenodd" clip-rule="evenodd" d="M335.175 179.683C338.196 185.815 343.185 190.804 349.317 193.825L315.825 227.317C312.803 221.185 307.815 216.197 301.682 213.175L335.175 179.683Z" fill="#E0E0E0"/>
<rect x="338" y="141" width="50" height="50" rx="25" fill="#EC407A"/>
<rect x="113" y="211" width="50" height="50" rx="25" fill="#EC407A"/>
<rect x="188" y="136" width="50" height="50" rx="25" fill="#EC407A"/>
<rect x="263" y="216" width="50" height="50" rx="25" fill="#EC407A"/>
</svg>
