<svg width="338" height="229" viewBox="0 0 338 229" fill="none" xmlns="http://www.w3.org/2000/svg">
<path d="M18.288 195.28H10.512C9.904 195.28 9.456 195.152 9.168 194.896C8.912 194.608 8.784 194.16 8.784 193.552V169.984H1.728C1.12 169.984 0.672001 169.856 0.384001 169.6C0.128001 169.312 0 168.864 0 168.256V162.448C0 161.84 0.128001 161.408 0.384001 161.152C0.672001 160.864 1.12 160.72 1.728 160.72H27.072C27.68 160.72 28.112 160.864 28.368 161.152C28.656 161.408 28.8 161.84 28.8 162.448V168.256C28.8 168.864 28.656 169.312 28.368 169.6C28.112 169.856 27.68 169.984 27.072 169.984H20.016V193.552C20.016 194.16 19.872 194.608 19.584 194.896C19.328 195.152 18.896 195.28 18.288 195.28Z" fill="#EC407A"/>
<path d="M57.468 195.28H35.196C34.588 195.28 34.14 195.152 33.852 194.896C33.596 194.608 33.468 194.16 33.468 193.552V162.448C33.468 161.84 33.596 161.408 33.852 161.152C34.14 160.864 34.588 160.72 35.196 160.72H57.468C58.076 160.72 58.508 160.864 58.764 161.152C59.052 161.408 59.196 161.84 59.196 162.448V168.064C59.196 168.672 59.052 169.12 58.764 169.408C58.508 169.664 58.076 169.792 57.468 169.792H44.22V173.488H53.58C54.188 173.488 54.62 173.632 54.876 173.92C55.164 174.176 55.308 174.608 55.308 175.216V180.352C55.308 180.96 55.164 181.408 54.876 181.696C54.62 181.952 54.188 182.08 53.58 182.08H44.22V186.208H57.468C58.076 186.208 58.508 186.352 58.764 186.64C59.052 186.896 59.196 187.328 59.196 187.936V193.552C59.196 194.16 59.052 194.608 58.764 194.896C58.508 195.152 58.076 195.28 57.468 195.28Z" fill="#EC407A"/>
<path d="M73.7542 195.28H66.6022C65.9942 195.28 65.5462 195.152 65.2582 194.896C65.0023 194.608 64.8742 194.16 64.8742 193.552V162.448C64.8742 161.84 65.0023 161.408 65.2582 161.152C65.5462 160.864 65.9942 160.72 66.6022 160.72H74.3302C74.8422 160.72 75.2582 160.832 75.5782 161.056C75.9302 161.28 76.2502 161.648 76.5382 162.16L80.8582 169.984C81.0182 170.272 81.1462 170.48 81.2422 170.608C81.3702 170.736 81.5303 170.8 81.7223 170.8H82.1543C82.3463 170.8 82.4902 170.736 82.5863 170.608C82.7142 170.48 82.8582 170.272 83.0182 169.984L87.2902 162.16C87.5782 161.648 87.8822 161.28 88.2022 161.056C88.5542 160.832 88.9863 160.72 89.4983 160.72H97.2742C97.8822 160.72 98.3143 160.864 98.5703 161.152C98.8583 161.408 99.0023 161.84 99.0023 162.448V193.552C99.0023 194.16 98.8583 194.608 98.5703 194.896C98.3143 195.152 97.8822 195.28 97.2742 195.28H89.8822C89.2742 195.28 88.8262 195.152 88.5382 194.896C88.2822 194.608 88.1543 194.16 88.1543 193.552V176.656L85.3223 181.888C85.0342 182.432 84.6823 182.832 84.2663 183.088C83.8822 183.312 83.3863 183.424 82.7783 183.424H80.8582C80.2502 183.424 79.7383 183.312 79.3223 183.088C78.9382 182.832 78.6022 182.432 78.3142 181.888L75.4822 176.656V193.552C75.4822 194.16 75.3382 194.608 75.0502 194.896C74.7943 195.152 74.3623 195.28 73.7542 195.28Z" fill="#EC407A"/>
<path d="M114.777 195.28H107.337C106.729 195.28 106.281 195.152 105.993 194.896C105.737 194.608 105.609 194.16 105.609 193.552V162.448C105.609 161.84 105.737 161.408 105.993 161.152C106.281 160.864 106.729 160.72 107.337 160.72H122.025C126.377 160.72 129.353 161.584 130.953 163.312C132.553 165.04 133.353 167.296 133.353 170.08V176.224C133.353 179.008 132.553 181.264 130.953 182.992C129.353 184.72 126.377 185.584 122.025 185.584H116.505V193.552C116.505 194.16 116.361 194.608 116.073 194.896C115.817 195.152 115.385 195.28 114.777 195.28ZM116.409 169.696V176.944H120.729C121.657 176.944 122.265 176.704 122.553 176.224C122.841 175.744 122.985 175.2 122.985 174.592V172.048C122.985 171.44 122.841 170.896 122.553 170.416C122.265 169.936 121.657 169.696 120.729 169.696H116.409Z" fill="#EC407A"/>
<path d="M167.607 186.208C167.607 187.68 167.383 189.024 166.935 190.24C166.519 191.424 165.751 192.448 164.631 193.312C163.543 194.144 162.023 194.8 160.071 195.28C158.151 195.76 155.703 196 152.727 196C149.751 196 147.287 195.76 145.335 195.28C143.383 194.8 141.847 194.144 140.727 193.312C139.639 192.448 138.871 191.424 138.423 190.24C138.007 189.024 137.799 187.68 137.799 186.208V169.84C137.799 168.368 138.007 167.04 138.423 165.856C138.871 164.64 139.639 163.6 140.727 162.736C141.847 161.872 143.383 161.2 145.335 160.72C147.287 160.24 149.751 160 152.727 160C155.703 160 158.151 160.24 160.071 160.72C162.023 161.2 163.543 161.872 164.631 162.736C165.751 163.6 166.519 164.64 166.935 165.856C167.383 167.04 167.607 168.368 167.607 169.84V186.208ZM148.695 184.48C148.695 185.12 148.935 185.664 149.415 186.112C149.895 186.528 150.999 186.736 152.727 186.736C154.455 186.736 155.559 186.528 156.039 186.112C156.519 185.664 156.759 185.12 156.759 184.48V171.568C156.759 170.96 156.519 170.448 156.039 170.032C155.559 169.584 154.455 169.36 152.727 169.36C150.999 169.36 149.895 169.584 149.415 170.032C148.935 170.448 148.695 170.96 148.695 171.568V184.48Z" fill="#EC407A"/>
<path d="M184.566 169.36V175.504H188.166C188.998 175.504 189.558 175.296 189.846 174.88C190.134 174.432 190.278 173.888 190.278 173.248V171.616C190.278 170.976 190.134 170.448 189.846 170.032C189.558 169.584 188.998 169.36 188.166 169.36H184.566ZM182.838 195.28H175.446C174.838 195.28 174.39 195.152 174.102 194.896C173.846 194.608 173.718 194.16 173.718 193.552V162.448C173.718 161.84 173.846 161.408 174.102 161.152C174.39 160.864 174.838 160.72 175.446 160.72H191.43C195.014 160.72 197.478 161.472 198.822 162.976C200.198 164.448 200.886 166.368 200.886 168.736V170.944C200.886 172.288 200.678 173.44 200.262 174.4C199.878 175.328 199.19 176 198.198 176.416C199.926 176.608 201.318 177.312 202.374 178.528C203.462 179.744 204.006 181.36 204.006 183.376V193.552C204.006 194.16 203.862 194.608 203.574 194.896C203.318 195.152 202.886 195.28 202.278 195.28H194.838C194.23 195.28 193.782 195.152 193.494 194.896C193.238 194.608 193.11 194.16 193.11 193.552V186.208C193.11 185.504 192.966 184.992 192.678 184.672C192.422 184.32 191.958 184.144 191.286 184.144H184.566V193.552C184.566 194.16 184.422 194.608 184.134 194.896C183.878 195.152 183.446 195.28 182.838 195.28Z" fill="#EC407A"/>
<path d="M221.918 170.8L219.662 178.096H227.198L224.942 170.8C224.814 170.512 224.67 170.304 224.51 170.176C224.382 170.048 224.222 169.984 224.03 169.984H222.83C222.638 169.984 222.462 170.048 222.302 170.176C222.174 170.304 222.046 170.512 221.918 170.8ZM219.182 193.552C219.182 194.16 219.038 194.608 218.75 194.896C218.494 195.152 218.062 195.28 217.454 195.28H210.398C209.79 195.28 209.342 195.152 209.054 194.896C208.798 194.608 208.67 194.16 208.67 193.552V180.88C208.67 179.92 208.814 178.816 209.102 177.568C209.422 176.32 209.902 174.864 210.542 173.2L214.718 162.304C214.91 161.76 215.198 161.36 215.582 161.104C215.998 160.848 216.526 160.72 217.166 160.72H230.078C230.686 160.72 231.182 160.848 231.566 161.104C231.982 161.36 232.286 161.76 232.478 162.304L236.654 173.2C237.294 174.864 237.758 176.32 238.046 177.568C238.366 178.816 238.526 179.92 238.526 180.88V193.552C238.526 194.16 238.382 194.608 238.094 194.896C237.838 195.152 237.406 195.28 236.798 195.28H229.55C228.91 195.28 228.43 195.152 228.11 194.896C227.822 194.608 227.678 194.16 227.678 193.552V186.832H219.182V193.552Z" fill="#EC407A"/>
<path d="M270.612 195.28H246.18C245.572 195.28 245.124 195.152 244.836 194.896C244.58 194.608 244.452 194.16 244.452 193.552V162.448C244.452 161.84 244.58 161.408 244.836 161.152C245.124 160.864 245.572 160.72 246.18 160.72H253.62C254.228 160.72 254.66 160.864 254.916 161.152C255.204 161.408 255.348 161.84 255.348 162.448V186.208H261.924V178.432C261.924 177.824 262.052 177.392 262.308 177.136C262.596 176.848 263.044 176.704 263.652 176.704H270.612C271.22 176.704 271.652 176.848 271.908 177.136C272.196 177.392 272.34 177.824 272.34 178.432V193.552C272.34 194.16 272.196 194.608 271.908 194.896C271.652 195.152 271.22 195.28 270.612 195.28Z" fill="#EC407A"/>
<path d="M303.987 195.28H279.555C278.947 195.28 278.499 195.152 278.211 194.896C277.955 194.608 277.827 194.16 277.827 193.552V162.448C277.827 161.84 277.955 161.408 278.211 161.152C278.499 160.864 278.947 160.72 279.555 160.72H286.995C287.603 160.72 288.035 160.864 288.291 161.152C288.579 161.408 288.723 161.84 288.723 162.448V186.208H295.299V178.432C295.299 177.824 295.427 177.392 295.683 177.136C295.971 176.848 296.419 176.704 297.027 176.704H303.987C304.595 176.704 305.027 176.848 305.283 177.136C305.571 177.392 305.715 177.824 305.715 178.432V193.552C305.715 194.16 305.571 194.608 305.283 194.896C305.027 195.152 304.595 195.28 303.987 195.28Z" fill="#EC407A"/>
<path d="M326.332 195.28H318.556C317.948 195.28 317.5 195.152 317.212 194.896C316.956 194.608 316.828 194.16 316.828 193.552V187.408L309.484 177.568C308.748 176.576 308.252 175.712 307.996 174.976C307.772 174.24 307.66 173.136 307.66 171.664V162.448C307.66 161.84 307.788 161.408 308.044 161.152C308.332 160.864 308.78 160.72 309.388 160.72H316.78C317.388 160.72 317.82 160.864 318.076 161.152C318.364 161.408 318.508 161.84 318.508 162.448V170.32C318.508 170.64 318.524 170.976 318.556 171.328C318.588 171.68 318.716 172.016 318.94 172.336L321.148 175.792C321.308 176.08 321.468 176.288 321.628 176.416C321.82 176.544 322.044 176.608 322.3 176.608H322.78C323.036 176.608 323.244 176.544 323.404 176.416C323.596 176.288 323.772 176.08 323.932 175.792L326.14 172.336C326.364 172.016 326.492 171.68 326.524 171.328C326.556 170.976 326.572 170.64 326.572 170.32V162.448C326.572 161.84 326.7 161.408 326.956 161.152C327.244 160.864 327.692 160.72 328.3 160.72H335.452C336.06 160.72 336.492 160.864 336.748 161.152C337.036 161.408 337.18 161.84 337.18 162.448V171.664C337.18 173.136 337.052 174.24 336.796 174.976C336.54 175.712 336.06 176.576 335.356 177.568L328.06 187.456V193.552C328.06 194.16 327.916 194.608 327.628 194.896C327.372 195.152 326.94 195.28 326.332 195.28Z" fill="#EC407A"/>
<path d="M81.0801 209.4C82.6641 209.4 83.7761 209.84 84.4161 210.72C84.8961 211.344 85.1361 212.104 85.1361 213C85.1361 213.368 85.0961 213.752 85.0161 214.152L84.5361 216.84C84.2641 218.376 83.5521 219.56 82.4001 220.392C81.2641 221.208 79.8241 221.616 78.0801 221.616C76.3521 221.616 75.0241 221.272 74.0961 220.584C73.3601 220.04 72.9921 219.28 72.9921 218.304C72.9921 218.048 73.0161 217.784 73.0641 217.512L75.6081 203.064H79.6881L78.4641 210.048C79.1361 209.616 80.0081 209.4 81.0801 209.4ZM80.8641 214.512C80.8801 214.384 80.8881 214.208 80.8881 213.984C80.8881 213.744 80.7841 213.496 80.5761 213.24C80.3841 212.968 79.9521 212.832 79.2801 212.832C78.6241 212.832 78.1521 213.032 77.8641 213.432L77.1681 217.44C77.3601 217.92 77.7601 218.16 78.3681 218.16C79.6001 218.16 80.3281 217.544 80.5521 216.312L80.8641 214.512Z" fill="#EC407A"/>
<path d="M91.1196 216.12C91.0716 216.408 91.0476 216.696 91.0476 216.984C91.0476 217.752 91.4796 218.136 92.3436 218.136C93.0476 218.136 93.6316 217.888 94.0956 217.392L95.4396 209.736H99.5196L97.4076 221.664C97.0556 223.696 96.2476 225.304 94.9836 226.488C93.7356 227.672 92.3036 228.264 90.6876 228.264C89.0716 228.264 87.9036 227.968 87.1836 227.376C86.4796 226.784 86.1276 226.008 86.1276 225.048C86.1276 223.688 86.9676 222.48 88.6476 221.424C87.7356 221.2 87.1596 220.744 86.9196 220.056C86.7756 219.672 86.7036 219.24 86.7036 218.76C86.7036 218.28 86.7436 217.792 86.8236 217.296L88.1676 209.736H92.2476L91.1196 216.12ZM91.2396 224.832C92.2796 224.832 92.9596 223.888 93.2796 222L93.5196 220.608C91.2956 221.648 90.1836 222.696 90.1836 223.752C90.1836 224.072 90.2716 224.328 90.4476 224.52C90.6396 224.728 90.9036 224.832 91.2396 224.832Z" fill="#EC407A"/>
<path d="M110.837 221.616C107.509 221.616 105.845 220.464 105.845 218.16C105.845 217.84 105.877 217.496 105.941 217.128L106.445 214.152C106.717 212.616 107.421 211.44 108.557 210.624C109.709 209.792 111.229 209.376 113.117 209.376C116.333 209.376 117.941 210.592 117.941 213.024C117.941 213.376 117.909 213.76 117.845 214.176L117.557 215.88H110.237L110.141 216.432C110.109 216.624 110.093 216.8 110.093 216.96C110.093 217.84 110.613 218.28 111.653 218.28C112.037 218.28 112.365 218.16 112.637 217.92C112.909 217.68 113.069 217.4 113.117 217.08L117.101 217.128C116.573 220.12 114.485 221.616 110.837 221.616ZM113.717 214.416C113.781 214.144 113.813 213.896 113.813 213.672C113.813 213.432 113.709 213.192 113.501 212.952C113.293 212.712 112.957 212.592 112.493 212.592C112.045 212.592 111.629 212.744 111.245 213.048C110.877 213.352 110.621 213.808 110.477 214.416H113.717Z" fill="#EC407A"/>
<path d="M130.832 221.28H126.368L124.664 217.944L121.784 221.28H117.32L122.504 215.376L119.384 209.568H123.92L125.552 212.856L128.36 209.568H132.896L127.688 215.4L130.832 221.28Z" fill="#EC407A"/>
<path d="M137.984 221.616C136.128 221.616 134.792 221.2 133.976 220.368C133.368 219.76 133.064 218.944 133.064 217.92C133.064 217.584 133.096 217.224 133.16 216.84L134.792 207.552L139.184 205.728L138.488 209.736H145.112L144.512 213.12H137.888L137.408 215.832C137.344 216.136 137.312 216.408 137.312 216.648C137.312 217.656 137.792 218.16 138.752 218.16C139.264 218.16 139.688 217.944 140.024 217.512C140.376 217.08 140.616 216.504 140.744 215.784H144.728C144.056 219.672 141.808 221.616 137.984 221.616Z" fill="#EC407A"/>
<path d="M150.868 221.616C147.54 221.616 145.876 220.464 145.876 218.16C145.876 217.84 145.908 217.496 145.972 217.128L146.476 214.152C146.748 212.616 147.452 211.44 148.588 210.624C149.74 209.792 151.26 209.376 153.148 209.376C156.364 209.376 157.972 210.592 157.972 213.024C157.972 213.376 157.94 213.76 157.876 214.176L157.588 215.88H150.268L150.172 216.432C150.14 216.624 150.124 216.8 150.124 216.96C150.124 217.84 150.644 218.28 151.684 218.28C152.068 218.28 152.396 218.16 152.668 217.92C152.94 217.68 153.1 217.4 153.148 217.08L157.132 217.128C156.604 220.12 154.516 221.616 150.868 221.616ZM153.748 214.416C153.812 214.144 153.844 213.896 153.844 213.672C153.844 213.432 153.74 213.192 153.532 212.952C153.324 212.712 152.988 212.592 152.524 212.592C152.076 212.592 151.66 212.744 151.276 213.048C150.908 213.352 150.652 213.808 150.508 214.416H153.748Z" fill="#EC407A"/>
<path d="M166.99 213.912C166.99 213.224 166.654 212.88 165.982 212.88C165.326 212.88 164.782 213.128 164.35 213.624L163.006 221.28H158.926L160.966 209.736H164.758L164.494 211.152C165.438 209.984 166.63 209.4 168.07 209.4C169.51 209.4 170.446 209.752 170.878 210.456C171.15 210.904 171.286 211.416 171.286 211.992C171.286 212.568 171.246 213.104 171.166 213.6L170.518 217.296C170.502 217.392 170.494 217.48 170.494 217.56C170.494 217.992 170.734 218.208 171.214 218.208C171.582 218.208 171.91 218.128 172.198 217.968L172.078 220.68C171.326 221.304 170.47 221.616 169.51 221.616C167.334 221.616 166.246 220.704 166.246 218.88C166.246 218.56 166.278 218.216 166.342 217.848L166.918 214.656C166.966 214.368 166.99 214.12 166.99 213.912Z" fill="#EC407A"/>
<path d="M185.606 212.232C185.606 212.76 185.446 213.248 185.126 213.696H181.19C181.318 213.6 181.382 213.44 181.382 213.216C181.382 212.992 181.254 212.816 180.998 212.688C180.742 212.544 180.414 212.472 180.014 212.472C178.814 212.472 178.214 212.84 178.214 213.576C178.214 213.864 178.438 214.072 178.886 214.2C179.334 214.328 179.878 214.432 180.518 214.512C181.158 214.592 181.798 214.712 182.438 214.872C183.078 215.016 183.622 215.312 184.07 215.76C184.518 216.208 184.742 216.808 184.742 217.56C184.742 218.888 184.206 219.896 183.134 220.584C182.078 221.272 180.534 221.616 178.502 221.616C176.47 221.616 175.046 221.288 174.23 220.632C173.59 220.12 173.27 219.416 173.27 218.52C173.27 218.264 173.294 218 173.342 217.728L177.35 217.68C177.318 217.904 177.446 218.104 177.734 218.28C178.038 218.44 178.478 218.52 179.054 218.52C179.63 218.52 180.046 218.464 180.302 218.352C180.558 218.224 180.686 217.992 180.686 217.656C180.686 217.432 180.462 217.28 180.014 217.2C179.566 217.104 179.014 217.024 178.358 216.96C177.718 216.896 177.07 216.792 176.414 216.648C175.774 216.504 175.23 216.2 174.782 215.736C174.334 215.272 174.11 214.664 174.11 213.912C174.11 212.456 174.67 211.336 175.79 210.552C176.926 209.768 178.558 209.376 180.686 209.376C183.966 209.376 185.606 210.328 185.606 212.232Z" fill="#EC407A"/>
<path d="M191.842 218.208C192.21 218.208 192.538 218.128 192.826 217.968L192.706 220.68C191.954 221.304 191.098 221.616 190.138 221.616C188.682 221.616 187.738 221.28 187.306 220.608C187.018 220.16 186.874 219.688 186.874 219.192C186.874 218.68 186.906 218.232 186.97 217.848L188.41 209.736H192.49L191.146 217.296C191.13 217.392 191.122 217.48 191.122 217.56C191.122 217.992 191.362 218.208 191.842 218.208ZM188.89 205.824C188.89 204.8 189.114 204.056 189.562 203.592C190.026 203.112 190.738 202.872 191.698 202.872C193.042 202.872 193.714 203.464 193.714 204.648C193.714 205.656 193.482 206.392 193.018 206.856C192.57 207.32 191.858 207.552 190.882 207.552C189.554 207.552 188.89 206.976 188.89 205.824Z" fill="#EC407A"/>
<path d="M201.477 209.4C203.205 209.4 204.509 209.776 205.389 210.528C206.077 211.12 206.421 211.944 206.421 213C206.421 213.352 206.381 213.736 206.301 214.152L205.797 216.96C205.493 218.656 204.781 219.856 203.661 220.56C202.557 221.264 201.077 221.616 199.221 221.616C197.365 221.616 196.005 221.264 195.141 220.56C194.501 220.032 194.181 219.24 194.181 218.184C194.181 217.816 194.221 217.408 194.301 216.96L194.805 214.152C195.365 210.984 197.589 209.4 201.477 209.4ZM202.125 214.632C202.157 214.472 202.173 214.272 202.173 214.032C202.173 213.776 202.069 213.496 201.861 213.192C201.653 212.888 201.285 212.736 200.757 212.736C200.245 212.736 199.813 212.912 199.461 213.264C199.109 213.6 198.885 214.056 198.789 214.632L198.477 216.432C198.445 216.592 198.429 216.8 198.429 217.056C198.429 217.296 198.533 217.56 198.741 217.848C198.949 218.136 199.309 218.28 199.821 218.28C200.349 218.28 200.789 218.104 201.141 217.752C201.493 217.384 201.717 216.944 201.813 216.432L202.125 214.632Z" fill="#EC407A"/>
<path d="M215.576 213.912C215.576 213.224 215.24 212.88 214.568 212.88C213.912 212.88 213.368 213.128 212.936 213.624L211.592 221.28H207.512L209.552 209.736H213.344L213.08 211.152C214.024 209.984 215.216 209.4 216.656 209.4C218.096 209.4 219.032 209.752 219.464 210.456C219.736 210.904 219.872 211.416 219.872 211.992C219.872 212.568 219.832 213.104 219.752 213.6L219.104 217.296C219.088 217.392 219.08 217.48 219.08 217.56C219.08 217.992 219.32 218.208 219.8 218.208C220.168 218.208 220.496 218.128 220.784 217.968L220.664 220.68C219.912 221.304 219.056 221.616 218.096 221.616C215.92 221.616 214.832 220.704 214.832 218.88C214.832 218.56 214.864 218.216 214.928 217.848L215.504 214.656C215.552 214.368 215.576 214.12 215.576 213.912Z" fill="#EC407A"/>
<path d="M233.064 221.28H222.12L225.168 204H229.488L227.112 217.536H233.736L233.064 221.28Z" fill="#EC407A"/>
<path d="M243.531 221.28L243.675 217.512H239.667L238.491 221.28H233.907L240.075 204H247.995L248.091 221.28H243.531ZM242.547 208.2L240.651 214.296H243.795L244.059 208.2H242.547Z" fill="#EC407A"/>
<path d="M260.37 204C262.194 204 263.49 204.4 264.258 205.2C264.834 205.808 265.122 206.576 265.122 207.504C265.122 207.824 265.09 208.16 265.026 208.512L264.81 209.664C264.634 210.576 264.29 211.288 263.778 211.8C263.282 212.312 262.842 212.568 262.458 212.568L262.434 212.76C262.882 212.76 263.338 213.008 263.802 213.504C264.266 214 264.498 214.584 264.498 215.256C264.498 215.528 264.466 215.816 264.402 216.12L264.258 216.864C264.002 218.24 263.386 219.32 262.41 220.104C261.45 220.888 260.106 221.28 258.378 221.28H250.362L253.41 204H260.37ZM258.21 214.224H255.93L255.354 217.536H257.634C257.666 217.536 257.698 217.536 257.73 217.536C258.466 217.536 259.05 217.368 259.482 217.032C259.914 216.68 260.13 216.256 260.13 215.76C260.13 214.736 259.49 214.224 258.21 214.224ZM258.858 207.744H257.058L256.434 211.32H258.21C259.746 211.32 260.514 210.648 260.514 209.304C260.514 208.84 260.37 208.464 260.082 208.176C259.81 207.888 259.402 207.744 258.858 207.744Z" fill="#EC407A"/>
<path fill-rule="evenodd" clip-rule="evenodd" d="M159.369 39.5718C156.158 45.5898 151.02 50.4244 144.779 53.2518L179.631 90.4278C182.842 84.4098 187.98 79.5752 194.221 76.7479L159.369 39.5718Z" fill="#E0E0E0"/>
<path fill-rule="evenodd" clip-rule="evenodd" d="M104.175 38.6826C107.196 44.8149 112.185 49.8036 118.317 52.8248L84.8247 86.3174C81.8035 80.1852 76.8147 75.1965 70.6825 72.1753L104.175 38.6826Z" fill="#E0E0E0"/>
<path fill-rule="evenodd" clip-rule="evenodd" d="M254.175 43.6826C257.196 49.8149 262.185 54.8036 268.317 57.8248L234.825 91.3174C231.803 85.1852 226.815 80.1965 220.682 77.1753L254.175 43.6826Z" fill="#E0E0E0"/>
<rect x="257" y="5" width="50" height="50" rx="25" fill="#EC407A"/>
<rect x="32" y="75" width="50" height="50" rx="25" fill="#EC407A"/>
<rect x="107" width="50" height="50" rx="25" fill="#EC407A"/>
<rect x="182" y="80" width="50" height="50" rx="25" fill="#EC407A"/>
</svg>
